M48
; DRILL file {KiCad 5.1.4-e60b266~84~ubuntu18.04.1} date Do 03 Okt 2019 20:43:14 CEST
; FORMAT={-:-/ absolute / inch / decimal}
; #@! TF.CreationDate,2019-10-03T20:43:14+02:00
; #@! TF.GenerationSoftware,Kicad,Pcbnew,5.1.4-e60b266~84~ubuntu18.04.1
; #@! TF.FileFunction,Plated,1,2,PTH
FMAT,2
INCH
T1C0.0157
T2C0.0256
T3C0.0276
T4C0.0354
T5C0.0374
T6C0.0394
T7C0.0433
T8C0.0472
T9C0.0512
T10C0.0591
T11C0.0787
T12C0.0866
T13C0.0984
%
G90
G05
T1
X0.876Y-2.9134
X0.8957Y-2.4213
X0.8957Y-5.9941
X0.9055Y-5.128
X0.935Y-2.2736
X0.9646Y-6.7224
X0.9941Y-3.6122
X1.0039Y-2.9134
X1.0236Y-5.6988
X1.0433Y-3.8386
X1.0433Y-3.9862
X1.063Y-4.4685
X1.063Y-4.685
X1.063Y-4.9705
X1.0925Y-3.3071
X1.0925Y-5.8661
X1.122Y-2.2244
X1.122Y-4.7441
X1.1319Y-4.1732
X1.1417Y-5.1378
X1.1614Y-3.6024
X1.1614Y-4.7835
X1.1713Y-3.248
X1.1909Y-2.874
X1.1909Y-5.2559
X1.1909Y-6.6043
X1.2106Y-4.3209
X1.2205Y-2.7165
X1.2402Y-5.4331
X1.2402Y-6.2598
X1.3189Y-4.3504
X1.3297Y-4.6152
X1.3386Y-1.9685
X1.3415Y-5.2165
X1.3484Y-2.5394
X1.3583Y-4.7047
X1.3681Y-3.6024
X1.378Y-3.8189
X1.3878Y-2.7264
X1.3878Y-3.4744
X1.3957Y-2.4016
X1.3976Y-4.7441
X1.4075Y-1.8406
X1.4075Y-2.8642
X1.4173Y-4.2323
X1.4541Y-4.8425
X1.4567Y-4.065
X1.4665Y-1.9921
X1.4665Y-3.937
X1.4764Y-3.2972
X1.4764Y-4.6457
X1.4823Y-2.4409
X1.4961Y-4.7441
X1.4961Y-6.7028
X1.5354Y-3.2283
X1.5354Y-3.4646
X1.5453Y-1.937
X1.5453Y-2.3622
X1.5453Y-2.4567
X1.5453Y-3.6122
X1.5531Y-1.8819
X1.5531Y-2.0079
X1.5551Y-3.061
X1.5551Y-4.5079
X1.5768Y-2.5669
X1.5945Y-2.8051
X1.6437Y-3.5925
X1.6437Y-3.9961
X1.6476Y-2.2126
X1.6634Y-2.0472
X1.6929Y-4.7441
X1.7028Y-3.9567
X1.7323Y-4.5177
X1.75Y-1.8661
X1.752Y-3.6024
X1.7579Y-2.5433
X1.7618Y-2.8445
X1.7618Y-4.4291
X1.7618Y-6.1811
X1.7913Y-5.1575
X1.811Y-5.0295
X1.8268Y-1.8189
X1.8307Y-5.1969
X1.8307Y-6.5059
X1.8445Y-1.9055
X1.8445Y-2.5512
X1.8602Y-2.9921
X1.8701Y-4.4685
X1.8701Y-5.2362
X1.8799Y-3.3661
X1.9075Y-1.874
X1.9232Y-2.5276
X1.9291Y-2.7264
X1.9488Y-4.4488
X1.9626Y-1.9606
X1.9626Y-2.0157
X1.9685Y-4.1732
X1.9705Y-1.8898
X1.9862Y-2.2205
X2.0059Y-2.6035
X2.0079Y-3.7697
X2.0079Y-4.626
X2.0177Y-4.9213
X2.0276Y-4.4291
X2.0374Y-5.2854
X2.0472Y-4.1339
X2.0492Y-2.315
X2.0492Y-2.3543
X2.0492Y-2.3937
X2.0492Y-2.4331
X2.0492Y-2.4724
X2.0492Y-2.5118
X2.0571Y-3.5728
X2.0768Y-2.5591
X2.0768Y-4.6063
X2.0965Y-2.6299
X2.1063Y-4.4094
X2.1122Y-2.2913
X2.1122Y-2.3386
X2.1122Y-2.3858
X2.1122Y-2.4331
X2.1122Y-2.4803
X2.126Y-5.0197
X2.1358Y-3.376
X2.1358Y-3.7697
X2.1358Y-3.8386
X2.1358Y-6.3189
X2.1673Y-2.3701
X2.1673Y-2.4173
X2.1673Y-2.4646
X2.1673Y-2.5118
X2.1752Y-2.874
X2.1752Y-4.0059
X2.2146Y-3.622
X2.2244Y-3.4252
X2.2244Y-5.2362
X2.2441Y-4.5276
X2.3091Y-2.5118
X2.313Y-2.0472
X2.313Y-2.0866
X2.313Y-2.126
X2.313Y-2.1654
X2.313Y-2.9724
X2.313Y-3.5433
X2.313Y-4.813
X2.3228Y-3.622
X2.3228Y-4.6654
X2.3307Y-1.8189
X2.3425Y-2.6969
X2.3524Y-2.0472
X2.3622Y-4.7835
X2.3622Y-4.8917
X2.372Y-2.4094
X2.3819Y-4.0453
X2.3819Y-4.6063
X2.3917Y-2.0472
X2.4016Y-4.2618
X2.4016Y-4.7441
X2.4213Y-2.5886
X2.4213Y-3.6319
X2.4311Y-2.0472
X2.4311Y-3.8681
X2.4311Y-5.1673
X2.4409Y-4.7047
X2.4508Y-4.1043
X2.4508Y-4.3012
X2.4606Y-3.189
X2.4705Y-2.0472
X2.4803Y-3.9862
X2.4803Y-4.6654
X2.4902Y-2.7461
X2.5197Y-6.1811
X2.5492Y-3.6319
X2.5591Y-3.878
X2.5591Y-4.7835
X2.561Y-2.3858
X2.5787Y-5.0787
X2.6083Y-2.4409
X2.6181Y-4.0945
X2.628Y-2.6378
X2.6378Y-4.1535
X2.6378Y-4.9016
X2.6673Y-3.1988
X2.6772Y-4.8622
X2.6959Y-4.2323
X2.7067Y-2.9429
X2.7106Y-2.3071
X2.7165Y-3.9469
X2.7185Y-2.2283
X2.7264Y-5.1772
X2.7362Y-4.9803
X2.7419Y-4.2266
X2.7461Y-2.7854
X2.7756Y-4.2717
X2.7953Y-3.3169
X2.7953Y-3.7992
X2.8051Y-1.8209
X2.815Y-4.0748
X2.845Y-4.3017
X2.874Y-4.3799
X2.8839Y-3.5138
X2.8839Y-3.5531
X2.8839Y-3.5925
X2.8839Y-3.6319
X2.9134Y-3.8583
X2.9232Y-3.5138
X2.9232Y-3.5531
X2.9232Y-3.5925
X2.9232Y-3.6319
X2.9232Y-3.7598
X2.9232Y-3.7992
X2.9232Y-4.6161
X2.9331Y-1.8406
X2.9331Y-4.3898
X2.9528Y-4.311
X2.9626Y-3.5138
X2.9626Y-3.5531
X2.9626Y-3.5925
X2.9626Y-3.6319
X2.9626Y-3.7598
X2.9626Y-3.7992
X2.9724Y-2.6476
X2.9724Y-4.7343
X2.9724Y-4.9409
X3.002Y-3.7598
X3.002Y-3.7992
X3.0217Y-5.187
X3.0315Y-2.7953
X3.0413Y-3.7598
X3.0413Y-3.7992
X3.0512Y-4.9803
X3.0561Y-2.7028
X3.061Y-6.7815
X3.0709Y-3.8878
X3.0709Y-4.1142
X3.0807Y-3.7598
X3.0807Y-3.7992
X3.1102Y-3.5138
X3.1102Y-3.5531
X3.1102Y-3.5925
X3.1102Y-3.6319
X3.1201Y-3.7598
X3.1201Y-3.7992
X3.1201Y-5.2854
X3.1496Y-3.6319
X3.1594Y-2.0866
X3.1594Y-3.7598
X3.1594Y-3.7992
X3.189Y-2.2638
X3.189Y-3.6319
X3.189Y-4.7638
X3.2185Y-3.9075
X3.2195Y-2.7175
X3.2283Y-3.6319
X3.2579Y-5.1772
X3.2677Y-3.6319
X3.3169Y-4.4094
X3.3465Y-5.1083
X3.3563Y-2.2539
X3.3661Y-4.0945
X3.3858Y-3.8287
X3.4055Y-3.9961
X3.4252Y-3.5039
X3.435Y-4.5079
X3.4449Y-5.0492
X3.4646Y-4.0354
X3.5138Y-2.5295
X3.5236Y-3.8189
X3.5335Y-2.9134
X3.5433Y-2.815
X3.5531Y-3.7795
X3.563Y-1.9193
X3.5728Y-2.0965
X3.5827Y-3.878
X3.5925Y-2.3524
X3.5925Y-3.5827
X3.6122Y-6.2106
X3.6417Y-5.0
X3.6713Y-3.8091
X3.6909Y-2.6575
X3.7008Y-2.0374
X3.7106Y-3.189
X3.7205Y-4.9606
X3.7303Y-3.7697
X3.7303Y-3.9961
X3.75Y-2.2638
X3.75Y-3.2972
X3.7598Y-1.9094
X3.7598Y-2.8346
X3.7598Y-3.5827
X3.7598Y-4.1929
X3.7697Y-3.8189
X3.7992Y-2.0965
X3.7992Y-4.8524
X3.8091Y-2.9724
X3.8091Y-5.3248
X3.8287Y-3.6122
X3.8287Y-3.7894
X3.8386Y-4.2126
X3.8484Y-3.563
X3.8484Y-4.0748
X3.8484Y-4.3307
X3.8484Y-5.128
X3.8583Y-3.878
X3.9075Y-4.5768
X3.9272Y-3.5138
X3.9469Y-3.9075
X3.9567Y-2.7559
X3.9567Y-3.6024
X3.9764Y-4.0256
X3.9862Y-3.1102
X3.9961Y-4.252
X4.0256Y-3.8287
X4.0354Y-3.9272
X4.065Y-5.2854
X4.0748Y-3.878
X4.0846Y-4.6654
X4.0945Y-6.7717
X4.1339Y-3.3858
X4.1634Y-2.9429
X4.1634Y-5.3051
X4.2028Y-2.7854
X4.2028Y-3.5138
X4.2126Y-5.7283
X4.2224Y-4.0551
X4.2421Y-3.878
X4.252Y-5.3543
X4.2618Y-2.6083
X4.2618Y-2.7362
X4.2717Y-6.1024
X4.2815Y-5.1673
X4.2913Y-4.3898
X4.2913Y-4.5079
X4.3012Y-1.8307
X4.311Y-4.8524
X4.3307Y-2.8051
X4.3406Y-3.9469
X4.3504Y-2.126
X4.3996Y-2.9429
X4.3996Y-3.2579
X4.3996Y-4.9213
X4.4291Y-2.1752
X4.4291Y-5.7283
X4.4587Y-6.4469
X4.4685Y-3.1004
X4.4685Y-3.3563
X4.4783Y-3.2185
X4.4783Y-4.5374
X4.498Y-3.6024
X4.498Y-4.3012
X4.5079Y-3.5039
X4.5374Y-1.8799
X4.5374Y-2.0079
X4.5571Y-2.4508
X4.5571Y-2.5197
X4.5571Y-2.7657
X4.5768Y-5.315
X4.5866Y-3.5925
X4.5866Y-4.7244
X4.6063Y-4.1437
X4.6161Y-5.1181
X4.626Y-2.3425
X4.626Y-4.3012
X4.6457Y-4.5571
X4.6654Y-5.9154
X4.7146Y-2.9626
X4.7244Y-2.7953
X4.7343Y-2.8937
X4.7736Y-3.9862
X4.813Y-2.1752
X4.8327Y-2.9134
X4.8425Y-3.9567
X4.8425Y-4.5177
X4.8524Y-2.5689
X4.872Y-6.1417
X4.8819Y-2.2441
X4.8819Y-4.2815
X4.8819Y-4.6949
X4.8917Y-3.6024
X4.9213Y-4.1634
X4.9311Y-4.3307
X4.9311Y-5.0
X4.9409Y-3.4941
X4.9508Y-2.7362
X4.9606Y-5.9941
X4.9705Y-5.0984
X4.9803Y-3.5728
X5.0Y-2.6181
X5.0098Y-2.126
X5.0787Y-2.3524
X5.0787Y-4.5374
X5.0886Y-5.4724
X5.0984Y-6.4862
X5.1378Y-2.1063
X5.1476Y-4.7244
X5.1575Y-1.8898
X5.1575Y-6.6634
X5.1772Y-3.1988
X5.1969Y-2.3327
X5.2165Y-2.5591
X5.2165Y-3.3563
X5.2165Y-3.8681
X5.2165Y-5.315
X5.2264Y-5.2165
X5.2362Y-4.0256
X5.2756Y-2.3819
X5.2756Y-4.5768
X5.2953Y-2.3228
X5.3248Y-4.0256
X5.3445Y-3.248
X5.3642Y-4.7146
X5.4232Y-2.0669
X5.4232Y-2.5787
X5.4232Y-3.248
X5.4232Y-4.5866
T4
X0.8543Y-3.0315
X0.8543Y-3.1299
X0.8543Y-3.2283
X0.9843Y-3.0315
X0.9843Y-3.1299
X0.9843Y-3.2283
T5
X5.1575Y-2.2638
X5.2559Y-2.2638
X5.3543Y-2.2638
X5.1575Y-2.4606
X5.2559Y-2.4606
X5.3543Y-2.4606
T6
X1.2598Y-4.685
X1.2598Y-4.785
X1.2598Y-4.885
X1.2598Y-4.985
X3.3957Y-3.1201
X2.1654Y-3.563
X2.7953Y-3.563
X3.5039Y-3.2677
X2.5394Y-2.5787
X4.3307Y-1.8898
X4.3307Y-1.9898
X1.1496Y-2.4252
X1.4665Y-2.2835
X1.5929Y-5.2756
X1.6929Y-5.2756
X0.9055Y-3.8803
X0.9055Y-3.9803
X0.9055Y-4.0803
X0.9055Y-4.1803
X0.9055Y-4.2803
X0.9055Y-4.3803
X0.9055Y-4.4803
X0.9055Y-4.5803
X0.9055Y-4.6803
X0.9055Y-4.7803
X0.9055Y-4.8803
X0.9055Y-4.9803
X2.8051Y-2.0866
X3.376Y-2.4803
X5.0Y-1.8898
X5.0Y-1.9898
T7
X1.5748Y-3.8976
X1.5748Y-4.0748
X1.8307Y-3.8976
X1.8307Y-4.0748
T8
X1.8898Y-5.5118
X1.9898Y-5.5118
X2.0898Y-5.5118
X2.1898Y-5.5118
X2.2898Y-5.5118
X2.3898Y-5.5118
X2.4898Y-5.5118
X2.5898Y-5.5118
X2.6898Y-5.5118
X2.7898Y-5.5118
X2.8898Y-5.5118
X2.9898Y-5.5118
X3.0898Y-5.5118
X3.1898Y-5.5118
X3.2898Y-5.5118
X3.3898Y-5.5118
T9
X0.9252Y-5.5512
X0.9252Y-5.748
X1.4173Y-5.5512
X1.4173Y-5.748
X4.8819Y-5.5512
X4.8819Y-5.748
X5.374Y-5.5512
X5.374Y-5.748
X0.9252Y-6.378
X0.9252Y-6.5748
X1.4173Y-6.378
X1.4173Y-6.5748
X4.8819Y-6.378
X4.8819Y-6.5748
X5.374Y-6.378
X5.374Y-6.5748
T10
X5.215Y-3.522
X5.215Y-3.722
X5.315Y-3.622
X5.415Y-3.522
X5.415Y-3.722
X5.215Y-4.8606
X5.215Y-5.0606
X5.315Y-4.9606
X5.415Y-4.8606
X5.415Y-5.0606
X5.215Y-4.1913
X5.215Y-4.3913
X5.315Y-4.2913
X5.415Y-4.1913
X5.415Y-4.3913
X4.6244Y-1.8685
X4.6244Y-2.0685
X4.7244Y-1.9685
X4.8244Y-1.8685
X4.8244Y-2.0685
X3.2465Y-1.8685
X3.2465Y-2.0685
X3.3465Y-1.9685
X3.4465Y-1.8685
X3.4465Y-2.0685
X5.215Y-2.8528
X5.215Y-3.0528
X5.315Y-2.9528
X5.415Y-2.8528
X5.415Y-3.0528
T11
X2.6339Y-4.4685
T12
X5.2756Y-2.0079
X1.0236Y-2.0079
X1.0236Y-6.063
X5.2756Y-6.063
T13
X1.6733Y-5.5118
X1.6733Y-6.7323
X4.626Y-6.7323
X4.626Y-5.5118
T2
G00X0.9811Y-2.5937
M15
G01X0.9969Y-2.5937
M16
G05
G00X0.9811Y-2.7843
M15
G01X0.9969Y-2.7843
M16
G05
T3
G00X0.861Y-2.5815
M15
G01X0.8807Y-2.5815
M16
G05
G00X0.861Y-2.7965
M15
G01X0.8807Y-2.7965
M16
G05
T0
M30
