G04 #@! TF.GenerationSoftware,KiCad,Pcbnew,5.1.4-e60b266~84~ubuntu18.04.1*
G04 #@! TF.CreationDate,2019-09-09T22:31:15+02:00*
G04 #@! TF.ProjectId,Frontend_test,46726f6e-7465-46e6-945f-746573742e6b,rev?*
G04 #@! TF.SameCoordinates,Original*
G04 #@! TF.FileFunction,Soldermask,Top*
G04 #@! TF.FilePolarity,Negative*
%FSLAX46Y46*%
G04 Gerber Fmt 4.6, Leading zero omitted, Abs format (unit mm)*
G04 Created by KiCad (PCBNEW 5.1.4-e60b266~84~ubuntu18.04.1) date 2019-09-09 22:31:15*
%MOMM*%
%LPD*%
G04 APERTURE LIST*
%ADD10C,0.150000*%
G04 APERTURE END LIST*
D10*
G36*
X165176627Y-133487037D02*
G01*
X165346466Y-133538557D01*
X165502991Y-133622222D01*
X165538729Y-133651552D01*
X165640186Y-133734814D01*
X165723448Y-133836271D01*
X165752778Y-133872009D01*
X165836443Y-134028534D01*
X165887963Y-134198374D01*
X165901000Y-134330743D01*
X165901000Y-134669258D01*
X165887963Y-134801627D01*
X165836443Y-134971466D01*
X165752778Y-135127991D01*
X165723448Y-135163729D01*
X165640186Y-135265186D01*
X165502989Y-135377779D01*
X165346467Y-135461442D01*
X165346465Y-135461443D01*
X165176626Y-135512963D01*
X165000000Y-135530359D01*
X164823373Y-135512963D01*
X164653534Y-135461443D01*
X164497009Y-135377778D01*
X164454750Y-135343097D01*
X164359814Y-135265186D01*
X164247221Y-135127989D01*
X164163558Y-134971467D01*
X164163557Y-134971465D01*
X164112037Y-134801626D01*
X164099000Y-134669257D01*
X164099000Y-134330742D01*
X164112037Y-134198373D01*
X164163557Y-134028534D01*
X164247222Y-133872009D01*
X164359815Y-133734815D01*
X164497010Y-133622222D01*
X164653535Y-133538557D01*
X164823374Y-133487037D01*
X165000000Y-133469641D01*
X165176627Y-133487037D01*
X165176627Y-133487037D01*
G37*
G36*
X167676627Y-133487037D02*
G01*
X167846466Y-133538557D01*
X168002991Y-133622222D01*
X168038729Y-133651552D01*
X168140186Y-133734814D01*
X168223448Y-133836271D01*
X168252778Y-133872009D01*
X168336443Y-134028534D01*
X168387963Y-134198374D01*
X168401000Y-134330743D01*
X168401000Y-134669258D01*
X168387963Y-134801627D01*
X168336443Y-134971466D01*
X168252778Y-135127991D01*
X168223448Y-135163729D01*
X168140186Y-135265186D01*
X168002989Y-135377779D01*
X167846467Y-135461442D01*
X167846465Y-135461443D01*
X167676626Y-135512963D01*
X167500000Y-135530359D01*
X167323373Y-135512963D01*
X167153534Y-135461443D01*
X166997009Y-135377778D01*
X166954750Y-135343097D01*
X166859814Y-135265186D01*
X166747221Y-135127989D01*
X166663558Y-134971467D01*
X166663557Y-134971465D01*
X166612037Y-134801626D01*
X166599000Y-134669257D01*
X166599000Y-134330742D01*
X166612037Y-134198373D01*
X166663557Y-134028534D01*
X166747222Y-133872009D01*
X166859815Y-133734815D01*
X166997010Y-133622222D01*
X167153535Y-133538557D01*
X167323374Y-133487037D01*
X167500000Y-133469641D01*
X167676627Y-133487037D01*
X167676627Y-133487037D01*
G37*
G36*
X170758600Y-133477989D02*
G01*
X170791652Y-133488015D01*
X170822103Y-133504292D01*
X170848799Y-133526201D01*
X170870708Y-133552897D01*
X170886985Y-133583348D01*
X170897011Y-133616400D01*
X170901000Y-133656903D01*
X170901000Y-135343097D01*
X170897011Y-135383600D01*
X170886985Y-135416652D01*
X170870708Y-135447103D01*
X170848799Y-135473799D01*
X170822103Y-135495708D01*
X170791652Y-135511985D01*
X170758600Y-135522011D01*
X170718097Y-135526000D01*
X169281903Y-135526000D01*
X169241400Y-135522011D01*
X169208348Y-135511985D01*
X169177897Y-135495708D01*
X169151201Y-135473799D01*
X169129292Y-135447103D01*
X169113015Y-135416652D01*
X169102989Y-135383600D01*
X169099000Y-135343097D01*
X169099000Y-133656903D01*
X169102989Y-133616400D01*
X169113015Y-133583348D01*
X169129292Y-133552897D01*
X169151201Y-133526201D01*
X169177897Y-133504292D01*
X169208348Y-133488015D01*
X169241400Y-133477989D01*
X169281903Y-133474000D01*
X170718097Y-133474000D01*
X170758600Y-133477989D01*
X170758600Y-133477989D01*
G37*
G36*
X148275562Y-132740681D02*
G01*
X148310481Y-132751274D01*
X148342663Y-132768476D01*
X148370873Y-132791627D01*
X148394024Y-132819837D01*
X148411226Y-132852019D01*
X148421819Y-132886938D01*
X148426000Y-132929395D01*
X148426000Y-134070605D01*
X148421819Y-134113062D01*
X148411226Y-134147981D01*
X148394024Y-134180163D01*
X148370873Y-134208373D01*
X148342663Y-134231524D01*
X148310481Y-134248726D01*
X148275562Y-134259319D01*
X148233105Y-134263500D01*
X146766895Y-134263500D01*
X146724438Y-134259319D01*
X146689519Y-134248726D01*
X146657337Y-134231524D01*
X146629127Y-134208373D01*
X146605976Y-134180163D01*
X146588774Y-134147981D01*
X146578181Y-134113062D01*
X146574000Y-134070605D01*
X146574000Y-132929395D01*
X146578181Y-132886938D01*
X146588774Y-132852019D01*
X146605976Y-132819837D01*
X146629127Y-132791627D01*
X146657337Y-132768476D01*
X146689519Y-132751274D01*
X146724438Y-132740681D01*
X146766895Y-132736500D01*
X148233105Y-132736500D01*
X148275562Y-132740681D01*
X148275562Y-132740681D01*
G37*
G36*
X148275562Y-129765681D02*
G01*
X148310481Y-129776274D01*
X148342663Y-129793476D01*
X148370873Y-129816627D01*
X148394024Y-129844837D01*
X148411226Y-129877019D01*
X148421819Y-129911938D01*
X148426000Y-129954395D01*
X148426000Y-131095605D01*
X148421819Y-131138062D01*
X148411226Y-131172981D01*
X148394024Y-131205163D01*
X148370873Y-131233373D01*
X148342663Y-131256524D01*
X148310481Y-131273726D01*
X148275562Y-131284319D01*
X148233105Y-131288500D01*
X146766895Y-131288500D01*
X146724438Y-131284319D01*
X146689519Y-131273726D01*
X146657337Y-131256524D01*
X146629127Y-131233373D01*
X146605976Y-131205163D01*
X146588774Y-131172981D01*
X146578181Y-131138062D01*
X146574000Y-131095605D01*
X146574000Y-129954395D01*
X146578181Y-129911938D01*
X146588774Y-129877019D01*
X146605976Y-129844837D01*
X146629127Y-129816627D01*
X146657337Y-129793476D01*
X146689519Y-129776274D01*
X146724438Y-129765681D01*
X146766895Y-129761500D01*
X148233105Y-129761500D01*
X148275562Y-129765681D01*
X148275562Y-129765681D01*
G37*
G36*
X153963674Y-129253465D02*
G01*
X154001367Y-129264899D01*
X154036103Y-129283466D01*
X154066548Y-129308452D01*
X154091534Y-129338897D01*
X154110101Y-129373633D01*
X154121535Y-129411326D01*
X154126000Y-129456661D01*
X154126000Y-130543339D01*
X154121535Y-130588674D01*
X154110101Y-130626367D01*
X154091534Y-130661103D01*
X154066548Y-130691548D01*
X154036103Y-130716534D01*
X154001367Y-130735101D01*
X153963674Y-130746535D01*
X153918339Y-130751000D01*
X153081661Y-130751000D01*
X153036326Y-130746535D01*
X152998633Y-130735101D01*
X152963897Y-130716534D01*
X152933452Y-130691548D01*
X152908466Y-130661103D01*
X152889899Y-130626367D01*
X152878465Y-130588674D01*
X152874000Y-130543339D01*
X152874000Y-129456661D01*
X152878465Y-129411326D01*
X152889899Y-129373633D01*
X152908466Y-129338897D01*
X152933452Y-129308452D01*
X152963897Y-129283466D01*
X152998633Y-129264899D01*
X153036326Y-129253465D01*
X153081661Y-129249000D01*
X153918339Y-129249000D01*
X153963674Y-129253465D01*
X153963674Y-129253465D01*
G37*
G36*
X151913674Y-129253465D02*
G01*
X151951367Y-129264899D01*
X151986103Y-129283466D01*
X152016548Y-129308452D01*
X152041534Y-129338897D01*
X152060101Y-129373633D01*
X152071535Y-129411326D01*
X152076000Y-129456661D01*
X152076000Y-130543339D01*
X152071535Y-130588674D01*
X152060101Y-130626367D01*
X152041534Y-130661103D01*
X152016548Y-130691548D01*
X151986103Y-130716534D01*
X151951367Y-130735101D01*
X151913674Y-130746535D01*
X151868339Y-130751000D01*
X151031661Y-130751000D01*
X150986326Y-130746535D01*
X150948633Y-130735101D01*
X150913897Y-130716534D01*
X150883452Y-130691548D01*
X150858466Y-130661103D01*
X150839899Y-130626367D01*
X150828465Y-130588674D01*
X150824000Y-130543339D01*
X150824000Y-129456661D01*
X150828465Y-129411326D01*
X150839899Y-129373633D01*
X150858466Y-129338897D01*
X150883452Y-129308452D01*
X150913897Y-129283466D01*
X150948633Y-129264899D01*
X150986326Y-129253465D01*
X151031661Y-129249000D01*
X151868339Y-129249000D01*
X151913674Y-129253465D01*
X151913674Y-129253465D01*
G37*
G36*
X141938674Y-129253465D02*
G01*
X141976367Y-129264899D01*
X142011103Y-129283466D01*
X142041548Y-129308452D01*
X142066534Y-129338897D01*
X142085101Y-129373633D01*
X142096535Y-129411326D01*
X142101000Y-129456661D01*
X142101000Y-130543339D01*
X142096535Y-130588674D01*
X142085101Y-130626367D01*
X142066534Y-130661103D01*
X142041548Y-130691548D01*
X142011103Y-130716534D01*
X141976367Y-130735101D01*
X141938674Y-130746535D01*
X141893339Y-130751000D01*
X141056661Y-130751000D01*
X141011326Y-130746535D01*
X140973633Y-130735101D01*
X140938897Y-130716534D01*
X140908452Y-130691548D01*
X140883466Y-130661103D01*
X140864899Y-130626367D01*
X140853465Y-130588674D01*
X140849000Y-130543339D01*
X140849000Y-129456661D01*
X140853465Y-129411326D01*
X140864899Y-129373633D01*
X140883466Y-129338897D01*
X140908452Y-129308452D01*
X140938897Y-129283466D01*
X140973633Y-129264899D01*
X141011326Y-129253465D01*
X141056661Y-129249000D01*
X141893339Y-129249000D01*
X141938674Y-129253465D01*
X141938674Y-129253465D01*
G37*
G36*
X143988674Y-129253465D02*
G01*
X144026367Y-129264899D01*
X144061103Y-129283466D01*
X144091548Y-129308452D01*
X144116534Y-129338897D01*
X144135101Y-129373633D01*
X144146535Y-129411326D01*
X144151000Y-129456661D01*
X144151000Y-130543339D01*
X144146535Y-130588674D01*
X144135101Y-130626367D01*
X144116534Y-130661103D01*
X144091548Y-130691548D01*
X144061103Y-130716534D01*
X144026367Y-130735101D01*
X143988674Y-130746535D01*
X143943339Y-130751000D01*
X143106661Y-130751000D01*
X143061326Y-130746535D01*
X143023633Y-130735101D01*
X142988897Y-130716534D01*
X142958452Y-130691548D01*
X142933466Y-130661103D01*
X142914899Y-130626367D01*
X142903465Y-130588674D01*
X142899000Y-130543339D01*
X142899000Y-129456661D01*
X142903465Y-129411326D01*
X142914899Y-129373633D01*
X142933466Y-129338897D01*
X142958452Y-129308452D01*
X142988897Y-129283466D01*
X143023633Y-129264899D01*
X143061326Y-129253465D01*
X143106661Y-129249000D01*
X143943339Y-129249000D01*
X143988674Y-129253465D01*
X143988674Y-129253465D01*
G37*
G36*
X149176000Y-127851000D02*
G01*
X145824000Y-127851000D01*
X145824000Y-127049000D01*
X149176000Y-127049000D01*
X149176000Y-127851000D01*
X149176000Y-127851000D01*
G37*
G36*
X189588674Y-125903465D02*
G01*
X189626367Y-125914899D01*
X189661103Y-125933466D01*
X189691548Y-125958452D01*
X189716534Y-125988897D01*
X189735101Y-126023633D01*
X189746535Y-126061326D01*
X189751000Y-126106661D01*
X189751000Y-126943339D01*
X189746535Y-126988674D01*
X189735101Y-127026367D01*
X189716534Y-127061103D01*
X189691548Y-127091548D01*
X189661103Y-127116534D01*
X189626367Y-127135101D01*
X189588674Y-127146535D01*
X189543339Y-127151000D01*
X188456661Y-127151000D01*
X188411326Y-127146535D01*
X188373633Y-127135101D01*
X188338897Y-127116534D01*
X188308452Y-127091548D01*
X188283466Y-127061103D01*
X188264899Y-127026367D01*
X188253465Y-126988674D01*
X188249000Y-126943339D01*
X188249000Y-126106661D01*
X188253465Y-126061326D01*
X188264899Y-126023633D01*
X188283466Y-125988897D01*
X188308452Y-125958452D01*
X188338897Y-125933466D01*
X188373633Y-125914899D01*
X188411326Y-125903465D01*
X188456661Y-125899000D01*
X189543339Y-125899000D01*
X189588674Y-125903465D01*
X189588674Y-125903465D01*
G37*
G36*
X189588674Y-123853465D02*
G01*
X189626367Y-123864899D01*
X189661103Y-123883466D01*
X189691548Y-123908452D01*
X189716534Y-123938897D01*
X189735101Y-123973633D01*
X189746535Y-124011326D01*
X189751000Y-124056661D01*
X189751000Y-124893339D01*
X189746535Y-124938674D01*
X189735101Y-124976367D01*
X189716534Y-125011103D01*
X189691548Y-125041548D01*
X189661103Y-125066534D01*
X189626367Y-125085101D01*
X189588674Y-125096535D01*
X189543339Y-125101000D01*
X188456661Y-125101000D01*
X188411326Y-125096535D01*
X188373633Y-125085101D01*
X188338897Y-125066534D01*
X188308452Y-125041548D01*
X188283466Y-125011103D01*
X188264899Y-124976367D01*
X188253465Y-124938674D01*
X188249000Y-124893339D01*
X188249000Y-124056661D01*
X188253465Y-124011326D01*
X188264899Y-123973633D01*
X188283466Y-123938897D01*
X188308452Y-123908452D01*
X188338897Y-123883466D01*
X188373633Y-123864899D01*
X188411326Y-123853465D01*
X188456661Y-123849000D01*
X189543339Y-123849000D01*
X189588674Y-123853465D01*
X189588674Y-123853465D01*
G37*
G36*
X149176000Y-124951000D02*
G01*
X145824000Y-124951000D01*
X145824000Y-124149000D01*
X149176000Y-124149000D01*
X149176000Y-124951000D01*
X149176000Y-124951000D01*
G37*
G36*
X153988674Y-121253465D02*
G01*
X154026367Y-121264899D01*
X154061103Y-121283466D01*
X154091548Y-121308452D01*
X154116534Y-121338897D01*
X154135101Y-121373633D01*
X154146535Y-121411326D01*
X154151000Y-121456661D01*
X154151000Y-122543339D01*
X154146535Y-122588674D01*
X154135101Y-122626367D01*
X154116534Y-122661103D01*
X154091548Y-122691548D01*
X154061103Y-122716534D01*
X154026367Y-122735101D01*
X153988674Y-122746535D01*
X153943339Y-122751000D01*
X153106661Y-122751000D01*
X153061326Y-122746535D01*
X153023633Y-122735101D01*
X152988897Y-122716534D01*
X152958452Y-122691548D01*
X152933466Y-122661103D01*
X152914899Y-122626367D01*
X152903465Y-122588674D01*
X152899000Y-122543339D01*
X152899000Y-121456661D01*
X152903465Y-121411326D01*
X152914899Y-121373633D01*
X152933466Y-121338897D01*
X152958452Y-121308452D01*
X152988897Y-121283466D01*
X153023633Y-121264899D01*
X153061326Y-121253465D01*
X153106661Y-121249000D01*
X153943339Y-121249000D01*
X153988674Y-121253465D01*
X153988674Y-121253465D01*
G37*
G36*
X143988674Y-121253465D02*
G01*
X144026367Y-121264899D01*
X144061103Y-121283466D01*
X144091548Y-121308452D01*
X144116534Y-121338897D01*
X144135101Y-121373633D01*
X144146535Y-121411326D01*
X144151000Y-121456661D01*
X144151000Y-122543339D01*
X144146535Y-122588674D01*
X144135101Y-122626367D01*
X144116534Y-122661103D01*
X144091548Y-122691548D01*
X144061103Y-122716534D01*
X144026367Y-122735101D01*
X143988674Y-122746535D01*
X143943339Y-122751000D01*
X143106661Y-122751000D01*
X143061326Y-122746535D01*
X143023633Y-122735101D01*
X142988897Y-122716534D01*
X142958452Y-122691548D01*
X142933466Y-122661103D01*
X142914899Y-122626367D01*
X142903465Y-122588674D01*
X142899000Y-122543339D01*
X142899000Y-121456661D01*
X142903465Y-121411326D01*
X142914899Y-121373633D01*
X142933466Y-121338897D01*
X142958452Y-121308452D01*
X142988897Y-121283466D01*
X143023633Y-121264899D01*
X143061326Y-121253465D01*
X143106661Y-121249000D01*
X143943339Y-121249000D01*
X143988674Y-121253465D01*
X143988674Y-121253465D01*
G37*
G36*
X141938674Y-121253465D02*
G01*
X141976367Y-121264899D01*
X142011103Y-121283466D01*
X142041548Y-121308452D01*
X142066534Y-121338897D01*
X142085101Y-121373633D01*
X142096535Y-121411326D01*
X142101000Y-121456661D01*
X142101000Y-122543339D01*
X142096535Y-122588674D01*
X142085101Y-122626367D01*
X142066534Y-122661103D01*
X142041548Y-122691548D01*
X142011103Y-122716534D01*
X141976367Y-122735101D01*
X141938674Y-122746535D01*
X141893339Y-122751000D01*
X141056661Y-122751000D01*
X141011326Y-122746535D01*
X140973633Y-122735101D01*
X140938897Y-122716534D01*
X140908452Y-122691548D01*
X140883466Y-122661103D01*
X140864899Y-122626367D01*
X140853465Y-122588674D01*
X140849000Y-122543339D01*
X140849000Y-121456661D01*
X140853465Y-121411326D01*
X140864899Y-121373633D01*
X140883466Y-121338897D01*
X140908452Y-121308452D01*
X140938897Y-121283466D01*
X140973633Y-121264899D01*
X141011326Y-121253465D01*
X141056661Y-121249000D01*
X141893339Y-121249000D01*
X141938674Y-121253465D01*
X141938674Y-121253465D01*
G37*
G36*
X151938674Y-121253465D02*
G01*
X151976367Y-121264899D01*
X152011103Y-121283466D01*
X152041548Y-121308452D01*
X152066534Y-121338897D01*
X152085101Y-121373633D01*
X152096535Y-121411326D01*
X152101000Y-121456661D01*
X152101000Y-122543339D01*
X152096535Y-122588674D01*
X152085101Y-122626367D01*
X152066534Y-122661103D01*
X152041548Y-122691548D01*
X152011103Y-122716534D01*
X151976367Y-122735101D01*
X151938674Y-122746535D01*
X151893339Y-122751000D01*
X151056661Y-122751000D01*
X151011326Y-122746535D01*
X150973633Y-122735101D01*
X150938897Y-122716534D01*
X150908452Y-122691548D01*
X150883466Y-122661103D01*
X150864899Y-122626367D01*
X150853465Y-122588674D01*
X150849000Y-122543339D01*
X150849000Y-121456661D01*
X150853465Y-121411326D01*
X150864899Y-121373633D01*
X150883466Y-121338897D01*
X150908452Y-121308452D01*
X150938897Y-121283466D01*
X150973633Y-121264899D01*
X151011326Y-121253465D01*
X151056661Y-121249000D01*
X151893339Y-121249000D01*
X151938674Y-121253465D01*
X151938674Y-121253465D01*
G37*
G36*
X186201000Y-122601000D02*
G01*
X184099000Y-122601000D01*
X184099000Y-120999000D01*
X186201000Y-120999000D01*
X186201000Y-122601000D01*
X186201000Y-122601000D01*
G37*
G36*
X148275562Y-120728181D02*
G01*
X148310481Y-120738774D01*
X148342663Y-120755976D01*
X148370873Y-120779127D01*
X148394024Y-120807337D01*
X148411226Y-120839519D01*
X148421819Y-120874438D01*
X148426000Y-120916895D01*
X148426000Y-122058105D01*
X148421819Y-122100562D01*
X148411226Y-122135481D01*
X148394024Y-122167663D01*
X148370873Y-122195873D01*
X148342663Y-122219024D01*
X148310481Y-122236226D01*
X148275562Y-122246819D01*
X148233105Y-122251000D01*
X146766895Y-122251000D01*
X146724438Y-122246819D01*
X146689519Y-122236226D01*
X146657337Y-122219024D01*
X146629127Y-122195873D01*
X146605976Y-122167663D01*
X146588774Y-122135481D01*
X146578181Y-122100562D01*
X146574000Y-122058105D01*
X146574000Y-120916895D01*
X146578181Y-120874438D01*
X146588774Y-120839519D01*
X146605976Y-120807337D01*
X146629127Y-120779127D01*
X146657337Y-120755976D01*
X146689519Y-120738774D01*
X146724438Y-120728181D01*
X146766895Y-120724000D01*
X148233105Y-120724000D01*
X148275562Y-120728181D01*
X148275562Y-120728181D01*
G37*
G36*
X192570442Y-120105518D02*
G01*
X192636627Y-120112037D01*
X192806466Y-120163557D01*
X192962991Y-120247222D01*
X192998729Y-120276552D01*
X193100186Y-120359814D01*
X193183448Y-120461271D01*
X193212778Y-120497009D01*
X193296443Y-120653534D01*
X193347963Y-120823373D01*
X193365359Y-121000000D01*
X193347963Y-121176627D01*
X193296443Y-121346466D01*
X193212778Y-121502991D01*
X193197856Y-121521173D01*
X193100186Y-121640186D01*
X192998729Y-121723448D01*
X192962991Y-121752778D01*
X192806466Y-121836443D01*
X192636627Y-121887963D01*
X192570442Y-121894482D01*
X192504260Y-121901000D01*
X192415740Y-121901000D01*
X192349558Y-121894482D01*
X192283373Y-121887963D01*
X192113534Y-121836443D01*
X191957009Y-121752778D01*
X191921271Y-121723448D01*
X191819814Y-121640186D01*
X191722144Y-121521173D01*
X191707222Y-121502991D01*
X191623557Y-121346466D01*
X191572037Y-121176627D01*
X191554641Y-121000000D01*
X191572037Y-120823373D01*
X191623557Y-120653534D01*
X191707222Y-120497009D01*
X191736552Y-120461271D01*
X191819814Y-120359814D01*
X191921271Y-120276552D01*
X191957009Y-120247222D01*
X192113534Y-120163557D01*
X192283373Y-120112037D01*
X192349558Y-120105518D01*
X192415740Y-120099000D01*
X192504260Y-120099000D01*
X192570442Y-120105518D01*
X192570442Y-120105518D01*
G37*
G36*
X195901000Y-121901000D02*
G01*
X194099000Y-121901000D01*
X194099000Y-120099000D01*
X195901000Y-120099000D01*
X195901000Y-121901000D01*
X195901000Y-121901000D01*
G37*
G36*
X179901000Y-121451000D02*
G01*
X177799000Y-121451000D01*
X177799000Y-117549000D01*
X179901000Y-117549000D01*
X179901000Y-121451000D01*
X179901000Y-121451000D01*
G37*
G36*
X186201000Y-120301000D02*
G01*
X184099000Y-120301000D01*
X184099000Y-118699000D01*
X186201000Y-118699000D01*
X186201000Y-120301000D01*
X186201000Y-120301000D01*
G37*
G36*
X192570443Y-117565519D02*
G01*
X192636627Y-117572037D01*
X192806466Y-117623557D01*
X192962991Y-117707222D01*
X192998729Y-117736552D01*
X193100186Y-117819814D01*
X193177790Y-117914376D01*
X193212778Y-117957009D01*
X193296443Y-118113534D01*
X193347963Y-118283373D01*
X193365359Y-118460000D01*
X193347963Y-118636627D01*
X193296443Y-118806466D01*
X193212778Y-118962991D01*
X193183448Y-118998729D01*
X193100186Y-119100186D01*
X193031031Y-119156939D01*
X192962991Y-119212778D01*
X192806466Y-119296443D01*
X192636627Y-119347963D01*
X192570443Y-119354481D01*
X192504260Y-119361000D01*
X192415740Y-119361000D01*
X192349557Y-119354481D01*
X192283373Y-119347963D01*
X192113534Y-119296443D01*
X191957009Y-119212778D01*
X191888969Y-119156939D01*
X191819814Y-119100186D01*
X191736552Y-118998729D01*
X191707222Y-118962991D01*
X191623557Y-118806466D01*
X191572037Y-118636627D01*
X191554641Y-118460000D01*
X191572037Y-118283373D01*
X191623557Y-118113534D01*
X191707222Y-117957009D01*
X191742210Y-117914376D01*
X191819814Y-117819814D01*
X191921271Y-117736552D01*
X191957009Y-117707222D01*
X192113534Y-117623557D01*
X192283373Y-117572037D01*
X192349557Y-117565519D01*
X192415740Y-117559000D01*
X192504260Y-117559000D01*
X192570443Y-117565519D01*
X192570443Y-117565519D01*
G37*
G36*
X195110443Y-117565519D02*
G01*
X195176627Y-117572037D01*
X195346466Y-117623557D01*
X195502991Y-117707222D01*
X195538729Y-117736552D01*
X195640186Y-117819814D01*
X195717790Y-117914376D01*
X195752778Y-117957009D01*
X195836443Y-118113534D01*
X195887963Y-118283373D01*
X195905359Y-118460000D01*
X195887963Y-118636627D01*
X195836443Y-118806466D01*
X195752778Y-118962991D01*
X195723448Y-118998729D01*
X195640186Y-119100186D01*
X195571031Y-119156939D01*
X195502991Y-119212778D01*
X195346466Y-119296443D01*
X195176627Y-119347963D01*
X195110443Y-119354481D01*
X195044260Y-119361000D01*
X194955740Y-119361000D01*
X194889557Y-119354481D01*
X194823373Y-119347963D01*
X194653534Y-119296443D01*
X194497009Y-119212778D01*
X194428969Y-119156939D01*
X194359814Y-119100186D01*
X194276552Y-118998729D01*
X194247222Y-118962991D01*
X194163557Y-118806466D01*
X194112037Y-118636627D01*
X194094641Y-118460000D01*
X194112037Y-118283373D01*
X194163557Y-118113534D01*
X194247222Y-117957009D01*
X194282210Y-117914376D01*
X194359814Y-117819814D01*
X194461271Y-117736552D01*
X194497009Y-117707222D01*
X194653534Y-117623557D01*
X194823373Y-117572037D01*
X194889557Y-117565519D01*
X194955740Y-117559000D01*
X195044260Y-117559000D01*
X195110443Y-117565519D01*
X195110443Y-117565519D01*
G37*
G36*
X148275562Y-117753181D02*
G01*
X148310481Y-117763774D01*
X148342663Y-117780976D01*
X148370873Y-117804127D01*
X148394024Y-117832337D01*
X148411226Y-117864519D01*
X148421819Y-117899438D01*
X148426000Y-117941895D01*
X148426000Y-119083105D01*
X148421819Y-119125562D01*
X148411226Y-119160481D01*
X148394024Y-119192663D01*
X148370873Y-119220873D01*
X148342663Y-119244024D01*
X148310481Y-119261226D01*
X148275562Y-119271819D01*
X148233105Y-119276000D01*
X146766895Y-119276000D01*
X146724438Y-119271819D01*
X146689519Y-119261226D01*
X146657337Y-119244024D01*
X146629127Y-119220873D01*
X146605976Y-119192663D01*
X146588774Y-119160481D01*
X146578181Y-119125562D01*
X146574000Y-119083105D01*
X146574000Y-117941895D01*
X146578181Y-117899438D01*
X146588774Y-117864519D01*
X146605976Y-117832337D01*
X146629127Y-117804127D01*
X146657337Y-117780976D01*
X146689519Y-117763774D01*
X146724438Y-117753181D01*
X146766895Y-117749000D01*
X148233105Y-117749000D01*
X148275562Y-117753181D01*
X148275562Y-117753181D01*
G37*
G36*
X186201000Y-118001000D02*
G01*
X184099000Y-118001000D01*
X184099000Y-116399000D01*
X186201000Y-116399000D01*
X186201000Y-118001000D01*
X186201000Y-118001000D01*
G37*
G36*
X192570442Y-115025518D02*
G01*
X192636627Y-115032037D01*
X192806466Y-115083557D01*
X192806468Y-115083558D01*
X192849690Y-115106661D01*
X192962991Y-115167222D01*
X192967805Y-115171173D01*
X193100186Y-115279814D01*
X193183448Y-115381271D01*
X193212778Y-115417009D01*
X193296443Y-115573534D01*
X193347963Y-115743373D01*
X193365359Y-115920000D01*
X193347963Y-116096627D01*
X193296443Y-116266466D01*
X193212778Y-116422991D01*
X193183448Y-116458729D01*
X193100186Y-116560186D01*
X192998729Y-116643448D01*
X192962991Y-116672778D01*
X192806466Y-116756443D01*
X192636627Y-116807963D01*
X192570443Y-116814481D01*
X192504260Y-116821000D01*
X192415740Y-116821000D01*
X192349557Y-116814481D01*
X192283373Y-116807963D01*
X192113534Y-116756443D01*
X191957009Y-116672778D01*
X191921271Y-116643448D01*
X191819814Y-116560186D01*
X191736552Y-116458729D01*
X191707222Y-116422991D01*
X191623557Y-116266466D01*
X191572037Y-116096627D01*
X191554641Y-115920000D01*
X191572037Y-115743373D01*
X191623557Y-115573534D01*
X191707222Y-115417009D01*
X191736552Y-115381271D01*
X191819814Y-115279814D01*
X191952195Y-115171173D01*
X191957009Y-115167222D01*
X192070310Y-115106661D01*
X192113532Y-115083558D01*
X192113534Y-115083557D01*
X192283373Y-115032037D01*
X192349558Y-115025518D01*
X192415740Y-115019000D01*
X192504260Y-115019000D01*
X192570442Y-115025518D01*
X192570442Y-115025518D01*
G37*
G36*
X195110442Y-115025518D02*
G01*
X195176627Y-115032037D01*
X195346466Y-115083557D01*
X195346468Y-115083558D01*
X195389690Y-115106661D01*
X195502991Y-115167222D01*
X195507805Y-115171173D01*
X195640186Y-115279814D01*
X195723448Y-115381271D01*
X195752778Y-115417009D01*
X195836443Y-115573534D01*
X195887963Y-115743373D01*
X195905359Y-115920000D01*
X195887963Y-116096627D01*
X195836443Y-116266466D01*
X195752778Y-116422991D01*
X195723448Y-116458729D01*
X195640186Y-116560186D01*
X195538729Y-116643448D01*
X195502991Y-116672778D01*
X195346466Y-116756443D01*
X195176627Y-116807963D01*
X195110443Y-116814481D01*
X195044260Y-116821000D01*
X194955740Y-116821000D01*
X194889557Y-116814481D01*
X194823373Y-116807963D01*
X194653534Y-116756443D01*
X194497009Y-116672778D01*
X194461271Y-116643448D01*
X194359814Y-116560186D01*
X194276552Y-116458729D01*
X194247222Y-116422991D01*
X194163557Y-116266466D01*
X194112037Y-116096627D01*
X194094641Y-115920000D01*
X194112037Y-115743373D01*
X194163557Y-115573534D01*
X194247222Y-115417009D01*
X194276552Y-115381271D01*
X194359814Y-115279814D01*
X194492195Y-115171173D01*
X194497009Y-115167222D01*
X194610310Y-115106661D01*
X194653532Y-115083558D01*
X194653534Y-115083557D01*
X194823373Y-115032037D01*
X194889558Y-115025518D01*
X194955740Y-115019000D01*
X195044260Y-115019000D01*
X195110442Y-115025518D01*
X195110442Y-115025518D01*
G37*
G36*
X133275562Y-114728181D02*
G01*
X133310481Y-114738774D01*
X133342663Y-114755976D01*
X133370873Y-114779127D01*
X133394024Y-114807337D01*
X133411226Y-114839519D01*
X133421819Y-114874438D01*
X133426000Y-114916895D01*
X133426000Y-116058105D01*
X133421819Y-116100562D01*
X133411226Y-116135481D01*
X133394024Y-116167663D01*
X133370873Y-116195873D01*
X133342663Y-116219024D01*
X133310481Y-116236226D01*
X133275562Y-116246819D01*
X133233105Y-116251000D01*
X131766895Y-116251000D01*
X131724438Y-116246819D01*
X131689519Y-116236226D01*
X131657337Y-116219024D01*
X131629127Y-116195873D01*
X131605976Y-116167663D01*
X131588774Y-116135481D01*
X131578181Y-116100562D01*
X131574000Y-116058105D01*
X131574000Y-114916895D01*
X131578181Y-114874438D01*
X131588774Y-114839519D01*
X131605976Y-114807337D01*
X131629127Y-114779127D01*
X131657337Y-114755976D01*
X131689519Y-114738774D01*
X131724438Y-114728181D01*
X131766895Y-114724000D01*
X133233105Y-114724000D01*
X133275562Y-114728181D01*
X133275562Y-114728181D01*
G37*
G36*
X154775562Y-114728181D02*
G01*
X154810481Y-114738774D01*
X154842663Y-114755976D01*
X154870873Y-114779127D01*
X154894024Y-114807337D01*
X154911226Y-114839519D01*
X154921819Y-114874438D01*
X154926000Y-114916895D01*
X154926000Y-116058105D01*
X154921819Y-116100562D01*
X154911226Y-116135481D01*
X154894024Y-116167663D01*
X154870873Y-116195873D01*
X154842663Y-116219024D01*
X154810481Y-116236226D01*
X154775562Y-116246819D01*
X154733105Y-116251000D01*
X153266895Y-116251000D01*
X153224438Y-116246819D01*
X153189519Y-116236226D01*
X153157337Y-116219024D01*
X153129127Y-116195873D01*
X153105976Y-116167663D01*
X153088774Y-116135481D01*
X153078181Y-116100562D01*
X153074000Y-116058105D01*
X153074000Y-114916895D01*
X153078181Y-114874438D01*
X153088774Y-114839519D01*
X153105976Y-114807337D01*
X153129127Y-114779127D01*
X153157337Y-114755976D01*
X153189519Y-114738774D01*
X153224438Y-114728181D01*
X153266895Y-114724000D01*
X154733105Y-114724000D01*
X154775562Y-114728181D01*
X154775562Y-114728181D01*
G37*
G36*
X142088674Y-114928465D02*
G01*
X142126367Y-114939899D01*
X142161103Y-114958466D01*
X142191548Y-114983452D01*
X142216534Y-115013897D01*
X142235101Y-115048633D01*
X142246535Y-115086326D01*
X142251000Y-115131661D01*
X142251000Y-115968339D01*
X142246535Y-116013674D01*
X142235101Y-116051367D01*
X142216534Y-116086103D01*
X142191548Y-116116548D01*
X142161103Y-116141534D01*
X142126367Y-116160101D01*
X142088674Y-116171535D01*
X142043339Y-116176000D01*
X140956661Y-116176000D01*
X140911326Y-116171535D01*
X140873633Y-116160101D01*
X140838897Y-116141534D01*
X140808452Y-116116548D01*
X140783466Y-116086103D01*
X140764899Y-116051367D01*
X140753465Y-116013674D01*
X140749000Y-115968339D01*
X140749000Y-115131661D01*
X140753465Y-115086326D01*
X140764899Y-115048633D01*
X140783466Y-115013897D01*
X140808452Y-114983452D01*
X140838897Y-114958466D01*
X140873633Y-114939899D01*
X140911326Y-114928465D01*
X140956661Y-114924000D01*
X142043339Y-114924000D01*
X142088674Y-114928465D01*
X142088674Y-114928465D01*
G37*
G36*
X136588674Y-114903465D02*
G01*
X136626367Y-114914899D01*
X136661103Y-114933466D01*
X136691548Y-114958452D01*
X136716534Y-114988897D01*
X136735101Y-115023633D01*
X136746535Y-115061326D01*
X136751000Y-115106661D01*
X136751000Y-115943339D01*
X136746535Y-115988674D01*
X136735101Y-116026367D01*
X136716534Y-116061103D01*
X136691548Y-116091548D01*
X136661103Y-116116534D01*
X136626367Y-116135101D01*
X136588674Y-116146535D01*
X136543339Y-116151000D01*
X135456661Y-116151000D01*
X135411326Y-116146535D01*
X135373633Y-116135101D01*
X135338897Y-116116534D01*
X135308452Y-116091548D01*
X135283466Y-116061103D01*
X135264899Y-116026367D01*
X135253465Y-115988674D01*
X135249000Y-115943339D01*
X135249000Y-115106661D01*
X135253465Y-115061326D01*
X135264899Y-115023633D01*
X135283466Y-114988897D01*
X135308452Y-114958452D01*
X135338897Y-114933466D01*
X135373633Y-114914899D01*
X135411326Y-114903465D01*
X135456661Y-114899000D01*
X136543339Y-114899000D01*
X136588674Y-114903465D01*
X136588674Y-114903465D01*
G37*
G36*
X124401000Y-115901000D02*
G01*
X122599000Y-115901000D01*
X122599000Y-114099000D01*
X124401000Y-114099000D01*
X124401000Y-115901000D01*
X124401000Y-115901000D01*
G37*
G36*
X169775562Y-114240681D02*
G01*
X169810481Y-114251274D01*
X169842663Y-114268476D01*
X169870873Y-114291627D01*
X169894024Y-114319837D01*
X169911226Y-114352019D01*
X169921819Y-114386938D01*
X169926000Y-114429395D01*
X169926000Y-115570605D01*
X169921819Y-115613062D01*
X169911226Y-115647981D01*
X169894024Y-115680163D01*
X169870873Y-115708373D01*
X169842663Y-115731524D01*
X169810481Y-115748726D01*
X169775562Y-115759319D01*
X169733105Y-115763500D01*
X168266895Y-115763500D01*
X168224438Y-115759319D01*
X168189519Y-115748726D01*
X168157337Y-115731524D01*
X168129127Y-115708373D01*
X168105976Y-115680163D01*
X168088774Y-115647981D01*
X168078181Y-115613062D01*
X168074000Y-115570605D01*
X168074000Y-114429395D01*
X168078181Y-114386938D01*
X168088774Y-114352019D01*
X168105976Y-114319837D01*
X168129127Y-114291627D01*
X168157337Y-114268476D01*
X168189519Y-114251274D01*
X168224438Y-114240681D01*
X168266895Y-114236500D01*
X169733105Y-114236500D01*
X169775562Y-114240681D01*
X169775562Y-114240681D01*
G37*
G36*
X160401000Y-114501000D02*
G01*
X159499000Y-114501000D01*
X159499000Y-113499000D01*
X160401000Y-113499000D01*
X160401000Y-114501000D01*
X160401000Y-114501000D01*
G37*
G36*
X158501000Y-114501000D02*
G01*
X157599000Y-114501000D01*
X157599000Y-113499000D01*
X158501000Y-113499000D01*
X158501000Y-114501000D01*
X158501000Y-114501000D01*
G37*
G36*
X192570442Y-112485518D02*
G01*
X192636627Y-112492037D01*
X192806466Y-112543557D01*
X192806468Y-112543558D01*
X192884729Y-112585390D01*
X192962991Y-112627222D01*
X192976199Y-112638062D01*
X193100186Y-112739814D01*
X193183448Y-112841271D01*
X193212778Y-112877009D01*
X193212779Y-112877011D01*
X193284573Y-113011326D01*
X193296443Y-113033534D01*
X193347963Y-113203373D01*
X193365359Y-113380000D01*
X193347963Y-113556627D01*
X193296443Y-113726466D01*
X193212778Y-113882991D01*
X193193136Y-113906925D01*
X193100186Y-114020186D01*
X193013247Y-114091534D01*
X192962991Y-114132778D01*
X192806466Y-114216443D01*
X192636627Y-114267963D01*
X192570442Y-114274482D01*
X192504260Y-114281000D01*
X192415740Y-114281000D01*
X192349558Y-114274482D01*
X192283373Y-114267963D01*
X192113534Y-114216443D01*
X191957009Y-114132778D01*
X191906753Y-114091534D01*
X191819814Y-114020186D01*
X191726864Y-113906925D01*
X191707222Y-113882991D01*
X191623557Y-113726466D01*
X191572037Y-113556627D01*
X191554641Y-113380000D01*
X191572037Y-113203373D01*
X191623557Y-113033534D01*
X191635428Y-113011326D01*
X191707221Y-112877011D01*
X191707222Y-112877009D01*
X191736552Y-112841271D01*
X191819814Y-112739814D01*
X191943801Y-112638062D01*
X191957009Y-112627222D01*
X192035271Y-112585390D01*
X192113532Y-112543558D01*
X192113534Y-112543557D01*
X192283373Y-112492037D01*
X192349558Y-112485518D01*
X192415740Y-112479000D01*
X192504260Y-112479000D01*
X192570442Y-112485518D01*
X192570442Y-112485518D01*
G37*
G36*
X195110442Y-112485518D02*
G01*
X195176627Y-112492037D01*
X195346466Y-112543557D01*
X195346468Y-112543558D01*
X195424729Y-112585390D01*
X195502991Y-112627222D01*
X195516199Y-112638062D01*
X195640186Y-112739814D01*
X195723448Y-112841271D01*
X195752778Y-112877009D01*
X195752779Y-112877011D01*
X195824573Y-113011326D01*
X195836443Y-113033534D01*
X195887963Y-113203373D01*
X195905359Y-113380000D01*
X195887963Y-113556627D01*
X195836443Y-113726466D01*
X195752778Y-113882991D01*
X195733136Y-113906925D01*
X195640186Y-114020186D01*
X195553247Y-114091534D01*
X195502991Y-114132778D01*
X195346466Y-114216443D01*
X195176627Y-114267963D01*
X195110442Y-114274482D01*
X195044260Y-114281000D01*
X194955740Y-114281000D01*
X194889558Y-114274482D01*
X194823373Y-114267963D01*
X194653534Y-114216443D01*
X194497009Y-114132778D01*
X194446753Y-114091534D01*
X194359814Y-114020186D01*
X194266864Y-113906925D01*
X194247222Y-113882991D01*
X194163557Y-113726466D01*
X194112037Y-113556627D01*
X194094641Y-113380000D01*
X194112037Y-113203373D01*
X194163557Y-113033534D01*
X194175428Y-113011326D01*
X194247221Y-112877011D01*
X194247222Y-112877009D01*
X194276552Y-112841271D01*
X194359814Y-112739814D01*
X194483801Y-112638062D01*
X194497009Y-112627222D01*
X194575271Y-112585390D01*
X194653532Y-112543558D01*
X194653534Y-112543557D01*
X194823373Y-112492037D01*
X194889558Y-112485518D01*
X194955740Y-112479000D01*
X195044260Y-112479000D01*
X195110442Y-112485518D01*
X195110442Y-112485518D01*
G37*
G36*
X142088674Y-112878465D02*
G01*
X142126367Y-112889899D01*
X142161103Y-112908466D01*
X142191548Y-112933452D01*
X142216534Y-112963897D01*
X142235101Y-112998633D01*
X142246535Y-113036326D01*
X142251000Y-113081661D01*
X142251000Y-113918339D01*
X142246535Y-113963674D01*
X142235101Y-114001367D01*
X142216534Y-114036103D01*
X142191548Y-114066548D01*
X142161103Y-114091534D01*
X142126367Y-114110101D01*
X142088674Y-114121535D01*
X142043339Y-114126000D01*
X140956661Y-114126000D01*
X140911326Y-114121535D01*
X140873633Y-114110101D01*
X140838897Y-114091534D01*
X140808452Y-114066548D01*
X140783466Y-114036103D01*
X140764899Y-114001367D01*
X140753465Y-113963674D01*
X140749000Y-113918339D01*
X140749000Y-113081661D01*
X140753465Y-113036326D01*
X140764899Y-112998633D01*
X140783466Y-112963897D01*
X140808452Y-112933452D01*
X140838897Y-112908466D01*
X140873633Y-112889899D01*
X140911326Y-112878465D01*
X140956661Y-112874000D01*
X142043339Y-112874000D01*
X142088674Y-112878465D01*
X142088674Y-112878465D01*
G37*
G36*
X136588674Y-112853465D02*
G01*
X136626367Y-112864899D01*
X136661103Y-112883466D01*
X136691548Y-112908452D01*
X136716534Y-112938897D01*
X136735101Y-112973633D01*
X136746535Y-113011326D01*
X136751000Y-113056661D01*
X136751000Y-113893339D01*
X136746535Y-113938674D01*
X136735101Y-113976367D01*
X136716534Y-114011103D01*
X136691548Y-114041548D01*
X136661103Y-114066534D01*
X136626367Y-114085101D01*
X136588674Y-114096535D01*
X136543339Y-114101000D01*
X135456661Y-114101000D01*
X135411326Y-114096535D01*
X135373633Y-114085101D01*
X135338897Y-114066534D01*
X135308452Y-114041548D01*
X135283466Y-114011103D01*
X135264899Y-113976367D01*
X135253465Y-113938674D01*
X135249000Y-113893339D01*
X135249000Y-113056661D01*
X135253465Y-113011326D01*
X135264899Y-112973633D01*
X135283466Y-112938897D01*
X135308452Y-112908452D01*
X135338897Y-112883466D01*
X135373633Y-112864899D01*
X135411326Y-112853465D01*
X135456661Y-112849000D01*
X136543339Y-112849000D01*
X136588674Y-112853465D01*
X136588674Y-112853465D01*
G37*
G36*
X117721277Y-111377019D02*
G01*
X117883027Y-111409193D01*
X118097045Y-111497842D01*
X118097046Y-111497843D01*
X118289654Y-111626539D01*
X118453461Y-111790346D01*
X118505388Y-111868061D01*
X118582158Y-111982955D01*
X118670807Y-112196973D01*
X118716000Y-112424174D01*
X118716000Y-112655826D01*
X118670807Y-112883027D01*
X118582158Y-113097045D01*
X118582157Y-113097046D01*
X118453461Y-113289654D01*
X118289654Y-113453461D01*
X118161249Y-113539258D01*
X118097045Y-113582158D01*
X117883027Y-113670807D01*
X117731560Y-113700936D01*
X117655827Y-113716000D01*
X117424173Y-113716000D01*
X117348440Y-113700936D01*
X117196973Y-113670807D01*
X116982955Y-113582158D01*
X116918751Y-113539258D01*
X116790346Y-113453461D01*
X116626539Y-113289654D01*
X116497843Y-113097046D01*
X116497842Y-113097045D01*
X116409193Y-112883027D01*
X116364000Y-112655826D01*
X116364000Y-112424174D01*
X116409193Y-112196973D01*
X116497842Y-111982955D01*
X116574612Y-111868061D01*
X116626539Y-111790346D01*
X116790346Y-111626539D01*
X116982954Y-111497843D01*
X116982955Y-111497842D01*
X117196973Y-111409193D01*
X117358723Y-111377019D01*
X117424173Y-111364000D01*
X117655827Y-111364000D01*
X117721277Y-111377019D01*
X117721277Y-111377019D01*
G37*
G36*
X112641277Y-111377019D02*
G01*
X112803027Y-111409193D01*
X113017045Y-111497842D01*
X113017046Y-111497843D01*
X113209654Y-111626539D01*
X113373461Y-111790346D01*
X113425388Y-111868061D01*
X113502158Y-111982955D01*
X113590807Y-112196973D01*
X113636000Y-112424174D01*
X113636000Y-112655826D01*
X113590807Y-112883027D01*
X113502158Y-113097045D01*
X113502157Y-113097046D01*
X113373461Y-113289654D01*
X113209654Y-113453461D01*
X113081249Y-113539258D01*
X113017045Y-113582158D01*
X112803027Y-113670807D01*
X112651560Y-113700936D01*
X112575827Y-113716000D01*
X112344173Y-113716000D01*
X112268440Y-113700936D01*
X112116973Y-113670807D01*
X111902955Y-113582158D01*
X111838751Y-113539258D01*
X111710346Y-113453461D01*
X111546539Y-113289654D01*
X111417843Y-113097046D01*
X111417842Y-113097045D01*
X111329193Y-112883027D01*
X111284000Y-112655826D01*
X111284000Y-112424174D01*
X111329193Y-112196973D01*
X111417842Y-111982955D01*
X111494612Y-111868061D01*
X111546539Y-111790346D01*
X111710346Y-111626539D01*
X111902954Y-111497843D01*
X111902955Y-111497842D01*
X112116973Y-111409193D01*
X112278723Y-111377019D01*
X112344173Y-111364000D01*
X112575827Y-111364000D01*
X112641277Y-111377019D01*
X112641277Y-111377019D01*
G37*
G36*
X123610442Y-111565518D02*
G01*
X123676627Y-111572037D01*
X123846466Y-111623557D01*
X124002991Y-111707222D01*
X124028264Y-111727963D01*
X124140186Y-111819814D01*
X124217790Y-111914376D01*
X124252778Y-111957009D01*
X124336443Y-112113534D01*
X124387963Y-112283373D01*
X124405359Y-112460000D01*
X124387963Y-112636627D01*
X124336443Y-112806466D01*
X124252778Y-112962991D01*
X124244044Y-112973633D01*
X124140186Y-113100186D01*
X124071031Y-113156939D01*
X124002991Y-113212778D01*
X124002989Y-113212779D01*
X123859164Y-113289656D01*
X123846466Y-113296443D01*
X123676627Y-113347963D01*
X123610443Y-113354481D01*
X123544260Y-113361000D01*
X123455740Y-113361000D01*
X123389557Y-113354481D01*
X123323373Y-113347963D01*
X123153534Y-113296443D01*
X123140837Y-113289656D01*
X122997011Y-113212779D01*
X122997009Y-113212778D01*
X122928969Y-113156939D01*
X122859814Y-113100186D01*
X122755956Y-112973633D01*
X122747222Y-112962991D01*
X122663557Y-112806466D01*
X122612037Y-112636627D01*
X122594641Y-112460000D01*
X122612037Y-112283373D01*
X122663557Y-112113534D01*
X122747222Y-111957009D01*
X122782210Y-111914376D01*
X122859814Y-111819814D01*
X122971736Y-111727963D01*
X122997009Y-111707222D01*
X123153534Y-111623557D01*
X123323373Y-111572037D01*
X123389558Y-111565518D01*
X123455740Y-111559000D01*
X123544260Y-111559000D01*
X123610442Y-111565518D01*
X123610442Y-111565518D01*
G37*
G36*
X133275562Y-111753181D02*
G01*
X133310481Y-111763774D01*
X133342663Y-111780976D01*
X133370873Y-111804127D01*
X133394024Y-111832337D01*
X133411226Y-111864519D01*
X133421819Y-111899438D01*
X133426000Y-111941895D01*
X133426000Y-113083105D01*
X133421819Y-113125562D01*
X133411226Y-113160481D01*
X133394024Y-113192663D01*
X133370873Y-113220873D01*
X133342663Y-113244024D01*
X133310481Y-113261226D01*
X133275562Y-113271819D01*
X133233105Y-113276000D01*
X131766895Y-113276000D01*
X131724438Y-113271819D01*
X131689519Y-113261226D01*
X131657337Y-113244024D01*
X131629127Y-113220873D01*
X131605976Y-113192663D01*
X131588774Y-113160481D01*
X131578181Y-113125562D01*
X131574000Y-113083105D01*
X131574000Y-111941895D01*
X131578181Y-111899438D01*
X131588774Y-111864519D01*
X131605976Y-111832337D01*
X131629127Y-111804127D01*
X131657337Y-111780976D01*
X131689519Y-111763774D01*
X131724438Y-111753181D01*
X131766895Y-111749000D01*
X133233105Y-111749000D01*
X133275562Y-111753181D01*
X133275562Y-111753181D01*
G37*
G36*
X154775562Y-111753181D02*
G01*
X154810481Y-111763774D01*
X154842663Y-111780976D01*
X154870873Y-111804127D01*
X154894024Y-111832337D01*
X154911226Y-111864519D01*
X154921819Y-111899438D01*
X154926000Y-111941895D01*
X154926000Y-113083105D01*
X154921819Y-113125562D01*
X154911226Y-113160481D01*
X154894024Y-113192663D01*
X154870873Y-113220873D01*
X154842663Y-113244024D01*
X154810481Y-113261226D01*
X154775562Y-113271819D01*
X154733105Y-113276000D01*
X153266895Y-113276000D01*
X153224438Y-113271819D01*
X153189519Y-113261226D01*
X153157337Y-113244024D01*
X153129127Y-113220873D01*
X153105976Y-113192663D01*
X153088774Y-113160481D01*
X153078181Y-113125562D01*
X153074000Y-113083105D01*
X153074000Y-111941895D01*
X153078181Y-111899438D01*
X153088774Y-111864519D01*
X153105976Y-111832337D01*
X153129127Y-111804127D01*
X153157337Y-111780976D01*
X153189519Y-111763774D01*
X153224438Y-111753181D01*
X153266895Y-111749000D01*
X154733105Y-111749000D01*
X154775562Y-111753181D01*
X154775562Y-111753181D01*
G37*
G36*
X169775562Y-111265681D02*
G01*
X169810481Y-111276274D01*
X169842663Y-111293476D01*
X169870873Y-111316627D01*
X169894024Y-111344837D01*
X169911226Y-111377019D01*
X169921819Y-111411938D01*
X169926000Y-111454395D01*
X169926000Y-112595605D01*
X169921819Y-112638062D01*
X169911226Y-112672981D01*
X169894024Y-112705163D01*
X169870873Y-112733373D01*
X169842663Y-112756524D01*
X169810481Y-112773726D01*
X169775562Y-112784319D01*
X169733105Y-112788500D01*
X168266895Y-112788500D01*
X168224438Y-112784319D01*
X168189519Y-112773726D01*
X168157337Y-112756524D01*
X168129127Y-112733373D01*
X168105976Y-112705163D01*
X168088774Y-112672981D01*
X168078181Y-112638062D01*
X168074000Y-112595605D01*
X168074000Y-111454395D01*
X168078181Y-111411938D01*
X168088774Y-111377019D01*
X168105976Y-111344837D01*
X168129127Y-111316627D01*
X168157337Y-111293476D01*
X168189519Y-111276274D01*
X168224438Y-111265681D01*
X168266895Y-111261500D01*
X169733105Y-111261500D01*
X169775562Y-111265681D01*
X169775562Y-111265681D01*
G37*
G36*
X159451000Y-112501000D02*
G01*
X158549000Y-112501000D01*
X158549000Y-111499000D01*
X159451000Y-111499000D01*
X159451000Y-112501000D01*
X159451000Y-112501000D01*
G37*
G36*
X165488674Y-110253465D02*
G01*
X165526367Y-110264899D01*
X165561103Y-110283466D01*
X165591548Y-110308452D01*
X165616534Y-110338897D01*
X165635101Y-110373633D01*
X165646535Y-110411326D01*
X165651000Y-110456661D01*
X165651000Y-111543339D01*
X165646535Y-111588674D01*
X165635101Y-111626367D01*
X165616534Y-111661103D01*
X165591548Y-111691548D01*
X165561103Y-111716534D01*
X165526367Y-111735101D01*
X165488674Y-111746535D01*
X165443339Y-111751000D01*
X164606661Y-111751000D01*
X164561326Y-111746535D01*
X164523633Y-111735101D01*
X164488897Y-111716534D01*
X164458452Y-111691548D01*
X164433466Y-111661103D01*
X164414899Y-111626367D01*
X164403465Y-111588674D01*
X164399000Y-111543339D01*
X164399000Y-110456661D01*
X164403465Y-110411326D01*
X164414899Y-110373633D01*
X164433466Y-110338897D01*
X164458452Y-110308452D01*
X164488897Y-110283466D01*
X164523633Y-110264899D01*
X164561326Y-110253465D01*
X164606661Y-110249000D01*
X165443339Y-110249000D01*
X165488674Y-110253465D01*
X165488674Y-110253465D01*
G37*
G36*
X127963674Y-110253465D02*
G01*
X128001367Y-110264899D01*
X128036103Y-110283466D01*
X128066548Y-110308452D01*
X128091534Y-110338897D01*
X128110101Y-110373633D01*
X128121535Y-110411326D01*
X128126000Y-110456661D01*
X128126000Y-111543339D01*
X128121535Y-111588674D01*
X128110101Y-111626367D01*
X128091534Y-111661103D01*
X128066548Y-111691548D01*
X128036103Y-111716534D01*
X128001367Y-111735101D01*
X127963674Y-111746535D01*
X127918339Y-111751000D01*
X127081661Y-111751000D01*
X127036326Y-111746535D01*
X126998633Y-111735101D01*
X126963897Y-111716534D01*
X126933452Y-111691548D01*
X126908466Y-111661103D01*
X126889899Y-111626367D01*
X126878465Y-111588674D01*
X126874000Y-111543339D01*
X126874000Y-110456661D01*
X126878465Y-110411326D01*
X126889899Y-110373633D01*
X126908466Y-110338897D01*
X126933452Y-110308452D01*
X126963897Y-110283466D01*
X126998633Y-110264899D01*
X127036326Y-110253465D01*
X127081661Y-110249000D01*
X127918339Y-110249000D01*
X127963674Y-110253465D01*
X127963674Y-110253465D01*
G37*
G36*
X163438674Y-110253465D02*
G01*
X163476367Y-110264899D01*
X163511103Y-110283466D01*
X163541548Y-110308452D01*
X163566534Y-110338897D01*
X163585101Y-110373633D01*
X163596535Y-110411326D01*
X163601000Y-110456661D01*
X163601000Y-111543339D01*
X163596535Y-111588674D01*
X163585101Y-111626367D01*
X163566534Y-111661103D01*
X163541548Y-111691548D01*
X163511103Y-111716534D01*
X163476367Y-111735101D01*
X163438674Y-111746535D01*
X163393339Y-111751000D01*
X162556661Y-111751000D01*
X162511326Y-111746535D01*
X162473633Y-111735101D01*
X162438897Y-111716534D01*
X162408452Y-111691548D01*
X162383466Y-111661103D01*
X162364899Y-111626367D01*
X162353465Y-111588674D01*
X162349000Y-111543339D01*
X162349000Y-110456661D01*
X162353465Y-110411326D01*
X162364899Y-110373633D01*
X162383466Y-110338897D01*
X162408452Y-110308452D01*
X162438897Y-110283466D01*
X162473633Y-110264899D01*
X162511326Y-110253465D01*
X162556661Y-110249000D01*
X163393339Y-110249000D01*
X163438674Y-110253465D01*
X163438674Y-110253465D01*
G37*
G36*
X130013674Y-110253465D02*
G01*
X130051367Y-110264899D01*
X130086103Y-110283466D01*
X130116548Y-110308452D01*
X130141534Y-110338897D01*
X130160101Y-110373633D01*
X130171535Y-110411326D01*
X130176000Y-110456661D01*
X130176000Y-111543339D01*
X130171535Y-111588674D01*
X130160101Y-111626367D01*
X130141534Y-111661103D01*
X130116548Y-111691548D01*
X130086103Y-111716534D01*
X130051367Y-111735101D01*
X130013674Y-111746535D01*
X129968339Y-111751000D01*
X129131661Y-111751000D01*
X129086326Y-111746535D01*
X129048633Y-111735101D01*
X129013897Y-111716534D01*
X128983452Y-111691548D01*
X128958466Y-111661103D01*
X128939899Y-111626367D01*
X128928465Y-111588674D01*
X128924000Y-111543339D01*
X128924000Y-110456661D01*
X128928465Y-110411326D01*
X128939899Y-110373633D01*
X128958466Y-110338897D01*
X128983452Y-110308452D01*
X129013897Y-110283466D01*
X129048633Y-110264899D01*
X129086326Y-110253465D01*
X129131661Y-110249000D01*
X129968339Y-110249000D01*
X130013674Y-110253465D01*
X130013674Y-110253465D01*
G37*
G36*
X149438674Y-110253465D02*
G01*
X149476367Y-110264899D01*
X149511103Y-110283466D01*
X149541548Y-110308452D01*
X149566534Y-110338897D01*
X149585101Y-110373633D01*
X149596535Y-110411326D01*
X149601000Y-110456661D01*
X149601000Y-111543339D01*
X149596535Y-111588674D01*
X149585101Y-111626367D01*
X149566534Y-111661103D01*
X149541548Y-111691548D01*
X149511103Y-111716534D01*
X149476367Y-111735101D01*
X149438674Y-111746535D01*
X149393339Y-111751000D01*
X148556661Y-111751000D01*
X148511326Y-111746535D01*
X148473633Y-111735101D01*
X148438897Y-111716534D01*
X148408452Y-111691548D01*
X148383466Y-111661103D01*
X148364899Y-111626367D01*
X148353465Y-111588674D01*
X148349000Y-111543339D01*
X148349000Y-110456661D01*
X148353465Y-110411326D01*
X148364899Y-110373633D01*
X148383466Y-110338897D01*
X148408452Y-110308452D01*
X148438897Y-110283466D01*
X148473633Y-110264899D01*
X148511326Y-110253465D01*
X148556661Y-110249000D01*
X149393339Y-110249000D01*
X149438674Y-110253465D01*
X149438674Y-110253465D01*
G37*
G36*
X151488674Y-110253465D02*
G01*
X151526367Y-110264899D01*
X151561103Y-110283466D01*
X151591548Y-110308452D01*
X151616534Y-110338897D01*
X151635101Y-110373633D01*
X151646535Y-110411326D01*
X151651000Y-110456661D01*
X151651000Y-111543339D01*
X151646535Y-111588674D01*
X151635101Y-111626367D01*
X151616534Y-111661103D01*
X151591548Y-111691548D01*
X151561103Y-111716534D01*
X151526367Y-111735101D01*
X151488674Y-111746535D01*
X151443339Y-111751000D01*
X150606661Y-111751000D01*
X150561326Y-111746535D01*
X150523633Y-111735101D01*
X150488897Y-111716534D01*
X150458452Y-111691548D01*
X150433466Y-111661103D01*
X150414899Y-111626367D01*
X150403465Y-111588674D01*
X150399000Y-111543339D01*
X150399000Y-110456661D01*
X150403465Y-110411326D01*
X150414899Y-110373633D01*
X150433466Y-110338897D01*
X150458452Y-110308452D01*
X150488897Y-110283466D01*
X150523633Y-110264899D01*
X150561326Y-110253465D01*
X150606661Y-110249000D01*
X151443339Y-110249000D01*
X151488674Y-110253465D01*
X151488674Y-110253465D01*
G37*
G36*
X195110443Y-109945519D02*
G01*
X195176627Y-109952037D01*
X195346466Y-110003557D01*
X195502991Y-110087222D01*
X195537845Y-110115826D01*
X195640186Y-110199814D01*
X195708836Y-110283466D01*
X195752778Y-110337009D01*
X195836443Y-110493534D01*
X195887963Y-110663373D01*
X195905359Y-110840000D01*
X195887963Y-111016627D01*
X195836443Y-111186466D01*
X195752778Y-111342991D01*
X195735536Y-111364000D01*
X195640186Y-111480186D01*
X195544149Y-111559000D01*
X195502991Y-111592778D01*
X195502989Y-111592779D01*
X195356122Y-111671282D01*
X195346466Y-111676443D01*
X195176627Y-111727963D01*
X195110442Y-111734482D01*
X195044260Y-111741000D01*
X194955740Y-111741000D01*
X194889558Y-111734482D01*
X194823373Y-111727963D01*
X194653534Y-111676443D01*
X194643879Y-111671282D01*
X194497011Y-111592779D01*
X194497009Y-111592778D01*
X194455851Y-111559000D01*
X194359814Y-111480186D01*
X194264464Y-111364000D01*
X194247222Y-111342991D01*
X194163557Y-111186466D01*
X194112037Y-111016627D01*
X194094641Y-110840000D01*
X194112037Y-110663373D01*
X194163557Y-110493534D01*
X194247222Y-110337009D01*
X194291164Y-110283466D01*
X194359814Y-110199814D01*
X194462155Y-110115826D01*
X194497009Y-110087222D01*
X194653534Y-110003557D01*
X194823373Y-109952037D01*
X194889557Y-109945519D01*
X194955740Y-109939000D01*
X195044260Y-109939000D01*
X195110443Y-109945519D01*
X195110443Y-109945519D01*
G37*
G36*
X192570443Y-109945519D02*
G01*
X192636627Y-109952037D01*
X192806466Y-110003557D01*
X192962991Y-110087222D01*
X192997845Y-110115826D01*
X193100186Y-110199814D01*
X193168836Y-110283466D01*
X193212778Y-110337009D01*
X193296443Y-110493534D01*
X193347963Y-110663373D01*
X193365359Y-110840000D01*
X193347963Y-111016627D01*
X193296443Y-111186466D01*
X193212778Y-111342991D01*
X193195536Y-111364000D01*
X193100186Y-111480186D01*
X193004149Y-111559000D01*
X192962991Y-111592778D01*
X192962989Y-111592779D01*
X192816122Y-111671282D01*
X192806466Y-111676443D01*
X192636627Y-111727963D01*
X192570442Y-111734482D01*
X192504260Y-111741000D01*
X192415740Y-111741000D01*
X192349558Y-111734482D01*
X192283373Y-111727963D01*
X192113534Y-111676443D01*
X192103879Y-111671282D01*
X191957011Y-111592779D01*
X191957009Y-111592778D01*
X191915851Y-111559000D01*
X191819814Y-111480186D01*
X191724464Y-111364000D01*
X191707222Y-111342991D01*
X191623557Y-111186466D01*
X191572037Y-111016627D01*
X191554641Y-110840000D01*
X191572037Y-110663373D01*
X191623557Y-110493534D01*
X191707222Y-110337009D01*
X191751164Y-110283466D01*
X191819814Y-110199814D01*
X191922155Y-110115826D01*
X191957009Y-110087222D01*
X192113534Y-110003557D01*
X192283373Y-109952037D01*
X192349557Y-109945519D01*
X192415740Y-109939000D01*
X192504260Y-109939000D01*
X192570443Y-109945519D01*
X192570443Y-109945519D01*
G37*
G36*
X178951000Y-111201000D02*
G01*
X177449000Y-111201000D01*
X177449000Y-108799000D01*
X178951000Y-108799000D01*
X178951000Y-111201000D01*
X178951000Y-111201000D01*
G37*
G36*
X174551000Y-111201000D02*
G01*
X173049000Y-111201000D01*
X173049000Y-108799000D01*
X174551000Y-108799000D01*
X174551000Y-111201000D01*
X174551000Y-111201000D01*
G37*
G36*
X141951000Y-111201000D02*
G01*
X140449000Y-111201000D01*
X140449000Y-108799000D01*
X141951000Y-108799000D01*
X141951000Y-111201000D01*
X141951000Y-111201000D01*
G37*
G36*
X137551000Y-111201000D02*
G01*
X136049000Y-111201000D01*
X136049000Y-108799000D01*
X137551000Y-108799000D01*
X137551000Y-111201000D01*
X137551000Y-111201000D01*
G37*
G36*
X115191560Y-108839064D02*
G01*
X115343027Y-108869193D01*
X115557045Y-108957842D01*
X115557046Y-108957843D01*
X115749654Y-109086539D01*
X115913461Y-109250346D01*
X115945970Y-109299000D01*
X116042158Y-109442955D01*
X116130807Y-109656973D01*
X116176000Y-109884174D01*
X116176000Y-110115826D01*
X116130807Y-110343027D01*
X116042158Y-110557045D01*
X116042157Y-110557046D01*
X115913461Y-110749654D01*
X115749654Y-110913461D01*
X115621249Y-110999258D01*
X115557045Y-111042158D01*
X115343027Y-111130807D01*
X115191560Y-111160936D01*
X115115827Y-111176000D01*
X114884173Y-111176000D01*
X114808440Y-111160936D01*
X114656973Y-111130807D01*
X114442955Y-111042158D01*
X114378751Y-110999258D01*
X114250346Y-110913461D01*
X114086539Y-110749654D01*
X113957843Y-110557046D01*
X113957842Y-110557045D01*
X113869193Y-110343027D01*
X113824000Y-110115826D01*
X113824000Y-109884174D01*
X113869193Y-109656973D01*
X113957842Y-109442955D01*
X114054030Y-109299000D01*
X114086539Y-109250346D01*
X114250346Y-109086539D01*
X114442954Y-108957843D01*
X114442955Y-108957842D01*
X114656973Y-108869193D01*
X114808440Y-108839064D01*
X114884173Y-108824000D01*
X115115827Y-108824000D01*
X115191560Y-108839064D01*
X115191560Y-108839064D01*
G37*
G36*
X127938674Y-108253465D02*
G01*
X127976367Y-108264899D01*
X128011103Y-108283466D01*
X128041548Y-108308452D01*
X128066534Y-108338897D01*
X128085101Y-108373633D01*
X128096535Y-108411326D01*
X128101000Y-108456661D01*
X128101000Y-109543339D01*
X128096535Y-109588674D01*
X128085101Y-109626367D01*
X128066534Y-109661103D01*
X128041548Y-109691548D01*
X128011103Y-109716534D01*
X127976367Y-109735101D01*
X127938674Y-109746535D01*
X127893339Y-109751000D01*
X127056661Y-109751000D01*
X127011326Y-109746535D01*
X126973633Y-109735101D01*
X126938897Y-109716534D01*
X126908452Y-109691548D01*
X126883466Y-109661103D01*
X126864899Y-109626367D01*
X126853465Y-109588674D01*
X126849000Y-109543339D01*
X126849000Y-108456661D01*
X126853465Y-108411326D01*
X126864899Y-108373633D01*
X126883466Y-108338897D01*
X126908452Y-108308452D01*
X126938897Y-108283466D01*
X126973633Y-108264899D01*
X127011326Y-108253465D01*
X127056661Y-108249000D01*
X127893339Y-108249000D01*
X127938674Y-108253465D01*
X127938674Y-108253465D01*
G37*
G36*
X165488674Y-108253465D02*
G01*
X165526367Y-108264899D01*
X165561103Y-108283466D01*
X165591548Y-108308452D01*
X165616534Y-108338897D01*
X165635101Y-108373633D01*
X165646535Y-108411326D01*
X165651000Y-108456661D01*
X165651000Y-109543339D01*
X165646535Y-109588674D01*
X165635101Y-109626367D01*
X165616534Y-109661103D01*
X165591548Y-109691548D01*
X165561103Y-109716534D01*
X165526367Y-109735101D01*
X165488674Y-109746535D01*
X165443339Y-109751000D01*
X164606661Y-109751000D01*
X164561326Y-109746535D01*
X164523633Y-109735101D01*
X164488897Y-109716534D01*
X164458452Y-109691548D01*
X164433466Y-109661103D01*
X164414899Y-109626367D01*
X164403465Y-109588674D01*
X164399000Y-109543339D01*
X164399000Y-108456661D01*
X164403465Y-108411326D01*
X164414899Y-108373633D01*
X164433466Y-108338897D01*
X164458452Y-108308452D01*
X164488897Y-108283466D01*
X164523633Y-108264899D01*
X164561326Y-108253465D01*
X164606661Y-108249000D01*
X165443339Y-108249000D01*
X165488674Y-108253465D01*
X165488674Y-108253465D01*
G37*
G36*
X151488674Y-108253465D02*
G01*
X151526367Y-108264899D01*
X151561103Y-108283466D01*
X151591548Y-108308452D01*
X151616534Y-108338897D01*
X151635101Y-108373633D01*
X151646535Y-108411326D01*
X151651000Y-108456661D01*
X151651000Y-109543339D01*
X151646535Y-109588674D01*
X151635101Y-109626367D01*
X151616534Y-109661103D01*
X151591548Y-109691548D01*
X151561103Y-109716534D01*
X151526367Y-109735101D01*
X151488674Y-109746535D01*
X151443339Y-109751000D01*
X150606661Y-109751000D01*
X150561326Y-109746535D01*
X150523633Y-109735101D01*
X150488897Y-109716534D01*
X150458452Y-109691548D01*
X150433466Y-109661103D01*
X150414899Y-109626367D01*
X150403465Y-109588674D01*
X150399000Y-109543339D01*
X150399000Y-108456661D01*
X150403465Y-108411326D01*
X150414899Y-108373633D01*
X150433466Y-108338897D01*
X150458452Y-108308452D01*
X150488897Y-108283466D01*
X150523633Y-108264899D01*
X150561326Y-108253465D01*
X150606661Y-108249000D01*
X151443339Y-108249000D01*
X151488674Y-108253465D01*
X151488674Y-108253465D01*
G37*
G36*
X163438674Y-108253465D02*
G01*
X163476367Y-108264899D01*
X163511103Y-108283466D01*
X163541548Y-108308452D01*
X163566534Y-108338897D01*
X163585101Y-108373633D01*
X163596535Y-108411326D01*
X163601000Y-108456661D01*
X163601000Y-109543339D01*
X163596535Y-109588674D01*
X163585101Y-109626367D01*
X163566534Y-109661103D01*
X163541548Y-109691548D01*
X163511103Y-109716534D01*
X163476367Y-109735101D01*
X163438674Y-109746535D01*
X163393339Y-109751000D01*
X162556661Y-109751000D01*
X162511326Y-109746535D01*
X162473633Y-109735101D01*
X162438897Y-109716534D01*
X162408452Y-109691548D01*
X162383466Y-109661103D01*
X162364899Y-109626367D01*
X162353465Y-109588674D01*
X162349000Y-109543339D01*
X162349000Y-108456661D01*
X162353465Y-108411326D01*
X162364899Y-108373633D01*
X162383466Y-108338897D01*
X162408452Y-108308452D01*
X162438897Y-108283466D01*
X162473633Y-108264899D01*
X162511326Y-108253465D01*
X162556661Y-108249000D01*
X163393339Y-108249000D01*
X163438674Y-108253465D01*
X163438674Y-108253465D01*
G37*
G36*
X149438674Y-108253465D02*
G01*
X149476367Y-108264899D01*
X149511103Y-108283466D01*
X149541548Y-108308452D01*
X149566534Y-108338897D01*
X149585101Y-108373633D01*
X149596535Y-108411326D01*
X149601000Y-108456661D01*
X149601000Y-109543339D01*
X149596535Y-109588674D01*
X149585101Y-109626367D01*
X149566534Y-109661103D01*
X149541548Y-109691548D01*
X149511103Y-109716534D01*
X149476367Y-109735101D01*
X149438674Y-109746535D01*
X149393339Y-109751000D01*
X148556661Y-109751000D01*
X148511326Y-109746535D01*
X148473633Y-109735101D01*
X148438897Y-109716534D01*
X148408452Y-109691548D01*
X148383466Y-109661103D01*
X148364899Y-109626367D01*
X148353465Y-109588674D01*
X148349000Y-109543339D01*
X148349000Y-108456661D01*
X148353465Y-108411326D01*
X148364899Y-108373633D01*
X148383466Y-108338897D01*
X148408452Y-108308452D01*
X148438897Y-108283466D01*
X148473633Y-108264899D01*
X148511326Y-108253465D01*
X148556661Y-108249000D01*
X149393339Y-108249000D01*
X149438674Y-108253465D01*
X149438674Y-108253465D01*
G37*
G36*
X129988674Y-108253465D02*
G01*
X130026367Y-108264899D01*
X130061103Y-108283466D01*
X130091548Y-108308452D01*
X130116534Y-108338897D01*
X130135101Y-108373633D01*
X130146535Y-108411326D01*
X130151000Y-108456661D01*
X130151000Y-109543339D01*
X130146535Y-109588674D01*
X130135101Y-109626367D01*
X130116534Y-109661103D01*
X130091548Y-109691548D01*
X130061103Y-109716534D01*
X130026367Y-109735101D01*
X129988674Y-109746535D01*
X129943339Y-109751000D01*
X129106661Y-109751000D01*
X129061326Y-109746535D01*
X129023633Y-109735101D01*
X128988897Y-109716534D01*
X128958452Y-109691548D01*
X128933466Y-109661103D01*
X128914899Y-109626367D01*
X128903465Y-109588674D01*
X128899000Y-109543339D01*
X128899000Y-108456661D01*
X128903465Y-108411326D01*
X128914899Y-108373633D01*
X128933466Y-108338897D01*
X128958452Y-108308452D01*
X128988897Y-108283466D01*
X129023633Y-108264899D01*
X129061326Y-108253465D01*
X129106661Y-108249000D01*
X129943339Y-108249000D01*
X129988674Y-108253465D01*
X129988674Y-108253465D01*
G37*
G36*
X192570443Y-107405519D02*
G01*
X192636627Y-107412037D01*
X192806466Y-107463557D01*
X192962991Y-107547222D01*
X192997845Y-107575826D01*
X193100186Y-107659814D01*
X193183448Y-107761271D01*
X193212778Y-107797009D01*
X193296443Y-107953534D01*
X193347963Y-108123373D01*
X193365359Y-108300000D01*
X193347963Y-108476627D01*
X193296443Y-108646466D01*
X193212778Y-108802991D01*
X193195536Y-108824000D01*
X193100186Y-108940186D01*
X192998729Y-109023448D01*
X192962991Y-109052778D01*
X192806466Y-109136443D01*
X192636627Y-109187963D01*
X192570442Y-109194482D01*
X192504260Y-109201000D01*
X192415740Y-109201000D01*
X192349558Y-109194482D01*
X192283373Y-109187963D01*
X192113534Y-109136443D01*
X191957009Y-109052778D01*
X191921271Y-109023448D01*
X191819814Y-108940186D01*
X191724464Y-108824000D01*
X191707222Y-108802991D01*
X191623557Y-108646466D01*
X191572037Y-108476627D01*
X191554641Y-108300000D01*
X191572037Y-108123373D01*
X191623557Y-107953534D01*
X191707222Y-107797009D01*
X191736552Y-107761271D01*
X191819814Y-107659814D01*
X191922155Y-107575826D01*
X191957009Y-107547222D01*
X192113534Y-107463557D01*
X192283373Y-107412037D01*
X192349557Y-107405519D01*
X192415740Y-107399000D01*
X192504260Y-107399000D01*
X192570443Y-107405519D01*
X192570443Y-107405519D01*
G37*
G36*
X195110443Y-107405519D02*
G01*
X195176627Y-107412037D01*
X195346466Y-107463557D01*
X195502991Y-107547222D01*
X195537845Y-107575826D01*
X195640186Y-107659814D01*
X195723448Y-107761271D01*
X195752778Y-107797009D01*
X195836443Y-107953534D01*
X195887963Y-108123373D01*
X195905359Y-108300000D01*
X195887963Y-108476627D01*
X195836443Y-108646466D01*
X195752778Y-108802991D01*
X195735536Y-108824000D01*
X195640186Y-108940186D01*
X195538729Y-109023448D01*
X195502991Y-109052778D01*
X195346466Y-109136443D01*
X195176627Y-109187963D01*
X195110442Y-109194482D01*
X195044260Y-109201000D01*
X194955740Y-109201000D01*
X194889558Y-109194482D01*
X194823373Y-109187963D01*
X194653534Y-109136443D01*
X194497009Y-109052778D01*
X194461271Y-109023448D01*
X194359814Y-108940186D01*
X194264464Y-108824000D01*
X194247222Y-108802991D01*
X194163557Y-108646466D01*
X194112037Y-108476627D01*
X194094641Y-108300000D01*
X194112037Y-108123373D01*
X194163557Y-107953534D01*
X194247222Y-107797009D01*
X194276552Y-107761271D01*
X194359814Y-107659814D01*
X194462155Y-107575826D01*
X194497009Y-107547222D01*
X194653534Y-107463557D01*
X194823373Y-107412037D01*
X194889557Y-107405519D01*
X194955740Y-107399000D01*
X195044260Y-107399000D01*
X195110443Y-107405519D01*
X195110443Y-107405519D01*
G37*
G36*
X169775562Y-107240681D02*
G01*
X169810481Y-107251274D01*
X169842663Y-107268476D01*
X169870873Y-107291627D01*
X169894024Y-107319837D01*
X169911226Y-107352019D01*
X169921819Y-107386938D01*
X169926000Y-107429395D01*
X169926000Y-108570605D01*
X169921819Y-108613062D01*
X169911226Y-108647981D01*
X169894024Y-108680163D01*
X169870873Y-108708373D01*
X169842663Y-108731524D01*
X169810481Y-108748726D01*
X169775562Y-108759319D01*
X169733105Y-108763500D01*
X168266895Y-108763500D01*
X168224438Y-108759319D01*
X168189519Y-108748726D01*
X168157337Y-108731524D01*
X168129127Y-108708373D01*
X168105976Y-108680163D01*
X168088774Y-108647981D01*
X168078181Y-108613062D01*
X168074000Y-108570605D01*
X168074000Y-107429395D01*
X168078181Y-107386938D01*
X168088774Y-107352019D01*
X168105976Y-107319837D01*
X168129127Y-107291627D01*
X168157337Y-107268476D01*
X168189519Y-107251274D01*
X168224438Y-107240681D01*
X168266895Y-107236500D01*
X169733105Y-107236500D01*
X169775562Y-107240681D01*
X169775562Y-107240681D01*
G37*
G36*
X112651560Y-106299064D02*
G01*
X112803027Y-106329193D01*
X113017045Y-106417842D01*
X113017046Y-106417843D01*
X113209654Y-106546539D01*
X113373461Y-106710346D01*
X113438268Y-106807337D01*
X113502158Y-106902955D01*
X113590807Y-107116973D01*
X113636000Y-107344174D01*
X113636000Y-107575826D01*
X113590807Y-107803027D01*
X113502158Y-108017045D01*
X113502157Y-108017046D01*
X113373461Y-108209654D01*
X113209654Y-108373461D01*
X113085136Y-108456661D01*
X113017045Y-108502158D01*
X112803027Y-108590807D01*
X112691143Y-108613062D01*
X112575827Y-108636000D01*
X112344173Y-108636000D01*
X112228857Y-108613062D01*
X112116973Y-108590807D01*
X111902955Y-108502158D01*
X111834864Y-108456661D01*
X111710346Y-108373461D01*
X111546539Y-108209654D01*
X111417843Y-108017046D01*
X111417842Y-108017045D01*
X111329193Y-107803027D01*
X111284000Y-107575826D01*
X111284000Y-107344174D01*
X111329193Y-107116973D01*
X111417842Y-106902955D01*
X111481732Y-106807337D01*
X111546539Y-106710346D01*
X111710346Y-106546539D01*
X111902954Y-106417843D01*
X111902955Y-106417842D01*
X112116973Y-106329193D01*
X112268440Y-106299064D01*
X112344173Y-106284000D01*
X112575827Y-106284000D01*
X112651560Y-106299064D01*
X112651560Y-106299064D01*
G37*
G36*
X117731560Y-106299064D02*
G01*
X117883027Y-106329193D01*
X118097045Y-106417842D01*
X118097046Y-106417843D01*
X118289654Y-106546539D01*
X118453461Y-106710346D01*
X118518268Y-106807337D01*
X118582158Y-106902955D01*
X118670807Y-107116973D01*
X118716000Y-107344174D01*
X118716000Y-107575826D01*
X118670807Y-107803027D01*
X118582158Y-108017045D01*
X118582157Y-108017046D01*
X118453461Y-108209654D01*
X118289654Y-108373461D01*
X118165136Y-108456661D01*
X118097045Y-108502158D01*
X117883027Y-108590807D01*
X117771143Y-108613062D01*
X117655827Y-108636000D01*
X117424173Y-108636000D01*
X117308857Y-108613062D01*
X117196973Y-108590807D01*
X116982955Y-108502158D01*
X116914864Y-108456661D01*
X116790346Y-108373461D01*
X116626539Y-108209654D01*
X116497843Y-108017046D01*
X116497842Y-108017045D01*
X116409193Y-107803027D01*
X116364000Y-107575826D01*
X116364000Y-107344174D01*
X116409193Y-107116973D01*
X116497842Y-106902955D01*
X116561732Y-106807337D01*
X116626539Y-106710346D01*
X116790346Y-106546539D01*
X116982954Y-106417843D01*
X116982955Y-106417842D01*
X117196973Y-106329193D01*
X117348440Y-106299064D01*
X117424173Y-106284000D01*
X117655827Y-106284000D01*
X117731560Y-106299064D01*
X117731560Y-106299064D01*
G37*
G36*
X159451000Y-108501000D02*
G01*
X158549000Y-108501000D01*
X158549000Y-107499000D01*
X159451000Y-107499000D01*
X159451000Y-108501000D01*
X159451000Y-108501000D01*
G37*
G36*
X133275562Y-106728181D02*
G01*
X133310481Y-106738774D01*
X133342663Y-106755976D01*
X133370873Y-106779127D01*
X133394024Y-106807337D01*
X133411226Y-106839519D01*
X133421819Y-106874438D01*
X133426000Y-106916895D01*
X133426000Y-108058105D01*
X133421819Y-108100562D01*
X133411226Y-108135481D01*
X133394024Y-108167663D01*
X133370873Y-108195873D01*
X133342663Y-108219024D01*
X133310481Y-108236226D01*
X133275562Y-108246819D01*
X133233105Y-108251000D01*
X131766895Y-108251000D01*
X131724438Y-108246819D01*
X131689519Y-108236226D01*
X131657337Y-108219024D01*
X131629127Y-108195873D01*
X131605976Y-108167663D01*
X131588774Y-108135481D01*
X131578181Y-108100562D01*
X131574000Y-108058105D01*
X131574000Y-106916895D01*
X131578181Y-106874438D01*
X131588774Y-106839519D01*
X131605976Y-106807337D01*
X131629127Y-106779127D01*
X131657337Y-106755976D01*
X131689519Y-106738774D01*
X131724438Y-106728181D01*
X131766895Y-106724000D01*
X133233105Y-106724000D01*
X133275562Y-106728181D01*
X133275562Y-106728181D01*
G37*
G36*
X154775562Y-106728181D02*
G01*
X154810481Y-106738774D01*
X154842663Y-106755976D01*
X154870873Y-106779127D01*
X154894024Y-106807337D01*
X154911226Y-106839519D01*
X154921819Y-106874438D01*
X154926000Y-106916895D01*
X154926000Y-108058105D01*
X154921819Y-108100562D01*
X154911226Y-108135481D01*
X154894024Y-108167663D01*
X154870873Y-108195873D01*
X154842663Y-108219024D01*
X154810481Y-108236226D01*
X154775562Y-108246819D01*
X154733105Y-108251000D01*
X153266895Y-108251000D01*
X153224438Y-108246819D01*
X153189519Y-108236226D01*
X153157337Y-108219024D01*
X153129127Y-108195873D01*
X153105976Y-108167663D01*
X153088774Y-108135481D01*
X153078181Y-108100562D01*
X153074000Y-108058105D01*
X153074000Y-106916895D01*
X153078181Y-106874438D01*
X153088774Y-106839519D01*
X153105976Y-106807337D01*
X153129127Y-106779127D01*
X153157337Y-106755976D01*
X153189519Y-106738774D01*
X153224438Y-106728181D01*
X153266895Y-106724000D01*
X154733105Y-106724000D01*
X154775562Y-106728181D01*
X154775562Y-106728181D01*
G37*
G36*
X144588674Y-105903465D02*
G01*
X144626367Y-105914899D01*
X144661103Y-105933466D01*
X144691548Y-105958452D01*
X144716534Y-105988897D01*
X144735101Y-106023633D01*
X144746535Y-106061326D01*
X144751000Y-106106661D01*
X144751000Y-106943339D01*
X144746535Y-106988674D01*
X144735101Y-107026367D01*
X144716534Y-107061103D01*
X144691548Y-107091548D01*
X144661103Y-107116534D01*
X144626367Y-107135101D01*
X144588674Y-107146535D01*
X144543339Y-107151000D01*
X143456661Y-107151000D01*
X143411326Y-107146535D01*
X143373633Y-107135101D01*
X143338897Y-107116534D01*
X143308452Y-107091548D01*
X143283466Y-107061103D01*
X143264899Y-107026367D01*
X143253465Y-106988674D01*
X143249000Y-106943339D01*
X143249000Y-106106661D01*
X143253465Y-106061326D01*
X143264899Y-106023633D01*
X143283466Y-105988897D01*
X143308452Y-105958452D01*
X143338897Y-105933466D01*
X143373633Y-105914899D01*
X143411326Y-105903465D01*
X143456661Y-105899000D01*
X144543339Y-105899000D01*
X144588674Y-105903465D01*
X144588674Y-105903465D01*
G37*
G36*
X146588674Y-105903465D02*
G01*
X146626367Y-105914899D01*
X146661103Y-105933466D01*
X146691548Y-105958452D01*
X146716534Y-105988897D01*
X146735101Y-106023633D01*
X146746535Y-106061326D01*
X146751000Y-106106661D01*
X146751000Y-106943339D01*
X146746535Y-106988674D01*
X146735101Y-107026367D01*
X146716534Y-107061103D01*
X146691548Y-107091548D01*
X146661103Y-107116534D01*
X146626367Y-107135101D01*
X146588674Y-107146535D01*
X146543339Y-107151000D01*
X145456661Y-107151000D01*
X145411326Y-107146535D01*
X145373633Y-107135101D01*
X145338897Y-107116534D01*
X145308452Y-107091548D01*
X145283466Y-107061103D01*
X145264899Y-107026367D01*
X145253465Y-106988674D01*
X145249000Y-106943339D01*
X145249000Y-106106661D01*
X145253465Y-106061326D01*
X145264899Y-106023633D01*
X145283466Y-105988897D01*
X145308452Y-105958452D01*
X145338897Y-105933466D01*
X145373633Y-105914899D01*
X145411326Y-105903465D01*
X145456661Y-105899000D01*
X146543339Y-105899000D01*
X146588674Y-105903465D01*
X146588674Y-105903465D01*
G37*
G36*
X192570442Y-104865518D02*
G01*
X192636627Y-104872037D01*
X192806466Y-104923557D01*
X192962991Y-105007222D01*
X192980123Y-105021282D01*
X193100186Y-105119814D01*
X193163969Y-105197535D01*
X193212778Y-105257009D01*
X193296443Y-105413534D01*
X193347963Y-105583373D01*
X193365359Y-105760000D01*
X193347963Y-105936627D01*
X193296443Y-106106466D01*
X193212778Y-106262991D01*
X193195536Y-106284000D01*
X193100186Y-106400186D01*
X192998729Y-106483448D01*
X192962991Y-106512778D01*
X192806466Y-106596443D01*
X192636627Y-106647963D01*
X192570443Y-106654481D01*
X192504260Y-106661000D01*
X192415740Y-106661000D01*
X192349557Y-106654481D01*
X192283373Y-106647963D01*
X192113534Y-106596443D01*
X191957009Y-106512778D01*
X191921271Y-106483448D01*
X191819814Y-106400186D01*
X191724464Y-106284000D01*
X191707222Y-106262991D01*
X191623557Y-106106466D01*
X191572037Y-105936627D01*
X191554641Y-105760000D01*
X191572037Y-105583373D01*
X191623557Y-105413534D01*
X191707222Y-105257009D01*
X191756031Y-105197535D01*
X191819814Y-105119814D01*
X191939877Y-105021282D01*
X191957009Y-105007222D01*
X192113534Y-104923557D01*
X192283373Y-104872037D01*
X192349558Y-104865518D01*
X192415740Y-104859000D01*
X192504260Y-104859000D01*
X192570442Y-104865518D01*
X192570442Y-104865518D01*
G37*
G36*
X195110442Y-104865518D02*
G01*
X195176627Y-104872037D01*
X195346466Y-104923557D01*
X195502991Y-105007222D01*
X195520123Y-105021282D01*
X195640186Y-105119814D01*
X195703969Y-105197535D01*
X195752778Y-105257009D01*
X195836443Y-105413534D01*
X195887963Y-105583373D01*
X195905359Y-105760000D01*
X195887963Y-105936627D01*
X195836443Y-106106466D01*
X195752778Y-106262991D01*
X195735536Y-106284000D01*
X195640186Y-106400186D01*
X195538729Y-106483448D01*
X195502991Y-106512778D01*
X195346466Y-106596443D01*
X195176627Y-106647963D01*
X195110443Y-106654481D01*
X195044260Y-106661000D01*
X194955740Y-106661000D01*
X194889557Y-106654481D01*
X194823373Y-106647963D01*
X194653534Y-106596443D01*
X194497009Y-106512778D01*
X194461271Y-106483448D01*
X194359814Y-106400186D01*
X194264464Y-106284000D01*
X194247222Y-106262991D01*
X194163557Y-106106466D01*
X194112037Y-105936627D01*
X194094641Y-105760000D01*
X194112037Y-105583373D01*
X194163557Y-105413534D01*
X194247222Y-105257009D01*
X194296031Y-105197535D01*
X194359814Y-105119814D01*
X194479877Y-105021282D01*
X194497009Y-105007222D01*
X194653534Y-104923557D01*
X194823373Y-104872037D01*
X194889558Y-104865518D01*
X194955740Y-104859000D01*
X195044260Y-104859000D01*
X195110442Y-104865518D01*
X195110442Y-104865518D01*
G37*
G36*
X160401000Y-106501000D02*
G01*
X159499000Y-106501000D01*
X159499000Y-105499000D01*
X160401000Y-105499000D01*
X160401000Y-106501000D01*
X160401000Y-106501000D01*
G37*
G36*
X158501000Y-106501000D02*
G01*
X157599000Y-106501000D01*
X157599000Y-105499000D01*
X158501000Y-105499000D01*
X158501000Y-106501000D01*
X158501000Y-106501000D01*
G37*
G36*
X169775562Y-104265681D02*
G01*
X169810481Y-104276274D01*
X169842663Y-104293476D01*
X169870873Y-104316627D01*
X169894024Y-104344837D01*
X169911226Y-104377019D01*
X169921819Y-104411938D01*
X169926000Y-104454395D01*
X169926000Y-105595605D01*
X169921819Y-105638062D01*
X169911226Y-105672981D01*
X169894024Y-105705163D01*
X169870873Y-105733373D01*
X169842663Y-105756524D01*
X169810481Y-105773726D01*
X169775562Y-105784319D01*
X169733105Y-105788500D01*
X168266895Y-105788500D01*
X168224438Y-105784319D01*
X168189519Y-105773726D01*
X168157337Y-105756524D01*
X168129127Y-105733373D01*
X168105976Y-105705163D01*
X168088774Y-105672981D01*
X168078181Y-105638062D01*
X168074000Y-105595605D01*
X168074000Y-104454395D01*
X168078181Y-104411938D01*
X168088774Y-104377019D01*
X168105976Y-104344837D01*
X168129127Y-104316627D01*
X168157337Y-104293476D01*
X168189519Y-104276274D01*
X168224438Y-104265681D01*
X168266895Y-104261500D01*
X169733105Y-104261500D01*
X169775562Y-104265681D01*
X169775562Y-104265681D01*
G37*
G36*
X180088674Y-104403465D02*
G01*
X180126367Y-104414899D01*
X180161103Y-104433466D01*
X180191548Y-104458452D01*
X180216534Y-104488897D01*
X180235101Y-104523633D01*
X180246535Y-104561326D01*
X180251000Y-104606661D01*
X180251000Y-105443339D01*
X180246535Y-105488674D01*
X180235101Y-105526367D01*
X180216534Y-105561103D01*
X180191548Y-105591548D01*
X180161103Y-105616534D01*
X180126367Y-105635101D01*
X180088674Y-105646535D01*
X180043339Y-105651000D01*
X178956661Y-105651000D01*
X178911326Y-105646535D01*
X178873633Y-105635101D01*
X178838897Y-105616534D01*
X178808452Y-105591548D01*
X178783466Y-105561103D01*
X178764899Y-105526367D01*
X178753465Y-105488674D01*
X178749000Y-105443339D01*
X178749000Y-104606661D01*
X178753465Y-104561326D01*
X178764899Y-104523633D01*
X178783466Y-104488897D01*
X178808452Y-104458452D01*
X178838897Y-104433466D01*
X178873633Y-104414899D01*
X178911326Y-104403465D01*
X178956661Y-104399000D01*
X180043339Y-104399000D01*
X180088674Y-104403465D01*
X180088674Y-104403465D01*
G37*
G36*
X173588674Y-104378465D02*
G01*
X173626367Y-104389899D01*
X173661103Y-104408466D01*
X173691548Y-104433452D01*
X173716534Y-104463897D01*
X173735101Y-104498633D01*
X173746535Y-104536326D01*
X173751000Y-104581661D01*
X173751000Y-105418339D01*
X173746535Y-105463674D01*
X173735101Y-105501367D01*
X173716534Y-105536103D01*
X173691548Y-105566548D01*
X173661103Y-105591534D01*
X173626367Y-105610101D01*
X173588674Y-105621535D01*
X173543339Y-105626000D01*
X172456661Y-105626000D01*
X172411326Y-105621535D01*
X172373633Y-105610101D01*
X172338897Y-105591534D01*
X172308452Y-105566548D01*
X172283466Y-105536103D01*
X172264899Y-105501367D01*
X172253465Y-105463674D01*
X172249000Y-105418339D01*
X172249000Y-104581661D01*
X172253465Y-104536326D01*
X172264899Y-104498633D01*
X172283466Y-104463897D01*
X172308452Y-104433452D01*
X172338897Y-104408466D01*
X172373633Y-104389899D01*
X172411326Y-104378465D01*
X172456661Y-104374000D01*
X173543339Y-104374000D01*
X173588674Y-104378465D01*
X173588674Y-104378465D01*
G37*
G36*
X154775562Y-103753181D02*
G01*
X154810481Y-103763774D01*
X154842663Y-103780976D01*
X154870873Y-103804127D01*
X154894024Y-103832337D01*
X154911226Y-103864519D01*
X154921819Y-103899438D01*
X154926000Y-103941895D01*
X154926000Y-105083105D01*
X154921819Y-105125562D01*
X154911226Y-105160481D01*
X154894024Y-105192663D01*
X154870873Y-105220873D01*
X154842663Y-105244024D01*
X154810481Y-105261226D01*
X154775562Y-105271819D01*
X154733105Y-105276000D01*
X153266895Y-105276000D01*
X153224438Y-105271819D01*
X153189519Y-105261226D01*
X153157337Y-105244024D01*
X153129127Y-105220873D01*
X153105976Y-105192663D01*
X153088774Y-105160481D01*
X153078181Y-105125562D01*
X153074000Y-105083105D01*
X153074000Y-103941895D01*
X153078181Y-103899438D01*
X153088774Y-103864519D01*
X153105976Y-103832337D01*
X153129127Y-103804127D01*
X153157337Y-103780976D01*
X153189519Y-103763774D01*
X153224438Y-103753181D01*
X153266895Y-103749000D01*
X154733105Y-103749000D01*
X154775562Y-103753181D01*
X154775562Y-103753181D01*
G37*
G36*
X133275562Y-103753181D02*
G01*
X133310481Y-103763774D01*
X133342663Y-103780976D01*
X133370873Y-103804127D01*
X133394024Y-103832337D01*
X133411226Y-103864519D01*
X133421819Y-103899438D01*
X133426000Y-103941895D01*
X133426000Y-105083105D01*
X133421819Y-105125562D01*
X133411226Y-105160481D01*
X133394024Y-105192663D01*
X133370873Y-105220873D01*
X133342663Y-105244024D01*
X133310481Y-105261226D01*
X133275562Y-105271819D01*
X133233105Y-105276000D01*
X131766895Y-105276000D01*
X131724438Y-105271819D01*
X131689519Y-105261226D01*
X131657337Y-105244024D01*
X131629127Y-105220873D01*
X131605976Y-105192663D01*
X131588774Y-105160481D01*
X131578181Y-105125562D01*
X131574000Y-105083105D01*
X131574000Y-103941895D01*
X131578181Y-103899438D01*
X131588774Y-103864519D01*
X131605976Y-103832337D01*
X131629127Y-103804127D01*
X131657337Y-103780976D01*
X131689519Y-103763774D01*
X131724438Y-103753181D01*
X131766895Y-103749000D01*
X133233105Y-103749000D01*
X133275562Y-103753181D01*
X133275562Y-103753181D01*
G37*
G36*
X144588674Y-103853465D02*
G01*
X144626367Y-103864899D01*
X144661103Y-103883466D01*
X144691548Y-103908452D01*
X144716534Y-103938897D01*
X144735101Y-103973633D01*
X144746535Y-104011326D01*
X144751000Y-104056661D01*
X144751000Y-104893339D01*
X144746535Y-104938674D01*
X144735101Y-104976367D01*
X144716534Y-105011103D01*
X144691548Y-105041548D01*
X144661103Y-105066534D01*
X144626367Y-105085101D01*
X144588674Y-105096535D01*
X144543339Y-105101000D01*
X143456661Y-105101000D01*
X143411326Y-105096535D01*
X143373633Y-105085101D01*
X143338897Y-105066534D01*
X143308452Y-105041548D01*
X143283466Y-105011103D01*
X143264899Y-104976367D01*
X143253465Y-104938674D01*
X143249000Y-104893339D01*
X143249000Y-104056661D01*
X143253465Y-104011326D01*
X143264899Y-103973633D01*
X143283466Y-103938897D01*
X143308452Y-103908452D01*
X143338897Y-103883466D01*
X143373633Y-103864899D01*
X143411326Y-103853465D01*
X143456661Y-103849000D01*
X144543339Y-103849000D01*
X144588674Y-103853465D01*
X144588674Y-103853465D01*
G37*
G36*
X146588674Y-103853465D02*
G01*
X146626367Y-103864899D01*
X146661103Y-103883466D01*
X146691548Y-103908452D01*
X146716534Y-103938897D01*
X146735101Y-103973633D01*
X146746535Y-104011326D01*
X146751000Y-104056661D01*
X146751000Y-104893339D01*
X146746535Y-104938674D01*
X146735101Y-104976367D01*
X146716534Y-105011103D01*
X146691548Y-105041548D01*
X146661103Y-105066534D01*
X146626367Y-105085101D01*
X146588674Y-105096535D01*
X146543339Y-105101000D01*
X145456661Y-105101000D01*
X145411326Y-105096535D01*
X145373633Y-105085101D01*
X145338897Y-105066534D01*
X145308452Y-105041548D01*
X145283466Y-105011103D01*
X145264899Y-104976367D01*
X145253465Y-104938674D01*
X145249000Y-104893339D01*
X145249000Y-104056661D01*
X145253465Y-104011326D01*
X145264899Y-103973633D01*
X145283466Y-103938897D01*
X145308452Y-103908452D01*
X145338897Y-103883466D01*
X145373633Y-103864899D01*
X145411326Y-103853465D01*
X145456661Y-103849000D01*
X146543339Y-103849000D01*
X146588674Y-103853465D01*
X146588674Y-103853465D01*
G37*
G36*
X192555025Y-102324000D02*
G01*
X192636627Y-102332037D01*
X192806466Y-102383557D01*
X192962991Y-102467222D01*
X192998729Y-102496552D01*
X193100186Y-102579814D01*
X193183448Y-102681271D01*
X193212778Y-102717009D01*
X193296443Y-102873534D01*
X193347963Y-103043373D01*
X193365359Y-103220000D01*
X193347963Y-103396627D01*
X193296443Y-103566466D01*
X193296442Y-103566468D01*
X193293734Y-103571535D01*
X193212778Y-103722991D01*
X193187208Y-103754148D01*
X193100186Y-103860186D01*
X193034154Y-103914376D01*
X192962991Y-103972778D01*
X192806466Y-104056443D01*
X192636627Y-104107963D01*
X192570443Y-104114481D01*
X192504260Y-104121000D01*
X192415740Y-104121000D01*
X192349558Y-104114482D01*
X192283373Y-104107963D01*
X192113534Y-104056443D01*
X191957009Y-103972778D01*
X191885846Y-103914376D01*
X191819814Y-103860186D01*
X191732792Y-103754148D01*
X191707222Y-103722991D01*
X191626266Y-103571535D01*
X191623558Y-103566468D01*
X191623557Y-103566466D01*
X191572037Y-103396627D01*
X191554641Y-103220000D01*
X191572037Y-103043373D01*
X191623557Y-102873534D01*
X191707222Y-102717009D01*
X191736552Y-102681271D01*
X191819814Y-102579814D01*
X191921271Y-102496552D01*
X191957009Y-102467222D01*
X192113534Y-102383557D01*
X192283373Y-102332037D01*
X192364975Y-102324000D01*
X192415740Y-102319000D01*
X192504260Y-102319000D01*
X192555025Y-102324000D01*
X192555025Y-102324000D01*
G37*
G36*
X195095025Y-102324000D02*
G01*
X195176627Y-102332037D01*
X195346466Y-102383557D01*
X195502991Y-102467222D01*
X195538729Y-102496552D01*
X195640186Y-102579814D01*
X195723448Y-102681271D01*
X195752778Y-102717009D01*
X195836443Y-102873534D01*
X195887963Y-103043373D01*
X195905359Y-103220000D01*
X195887963Y-103396627D01*
X195836443Y-103566466D01*
X195836442Y-103566468D01*
X195833734Y-103571535D01*
X195752778Y-103722991D01*
X195727208Y-103754148D01*
X195640186Y-103860186D01*
X195574154Y-103914376D01*
X195502991Y-103972778D01*
X195346466Y-104056443D01*
X195176627Y-104107963D01*
X195110443Y-104114481D01*
X195044260Y-104121000D01*
X194955740Y-104121000D01*
X194889558Y-104114482D01*
X194823373Y-104107963D01*
X194653534Y-104056443D01*
X194497009Y-103972778D01*
X194425846Y-103914376D01*
X194359814Y-103860186D01*
X194272792Y-103754148D01*
X194247222Y-103722991D01*
X194166266Y-103571535D01*
X194163558Y-103566468D01*
X194163557Y-103566466D01*
X194112037Y-103396627D01*
X194094641Y-103220000D01*
X194112037Y-103043373D01*
X194163557Y-102873534D01*
X194247222Y-102717009D01*
X194276552Y-102681271D01*
X194359814Y-102579814D01*
X194461271Y-102496552D01*
X194497009Y-102467222D01*
X194653534Y-102383557D01*
X194823373Y-102332037D01*
X194904975Y-102324000D01*
X194955740Y-102319000D01*
X195044260Y-102319000D01*
X195095025Y-102324000D01*
X195095025Y-102324000D01*
G37*
G36*
X180088674Y-102353465D02*
G01*
X180126367Y-102364899D01*
X180161103Y-102383466D01*
X180191548Y-102408452D01*
X180216534Y-102438897D01*
X180235101Y-102473633D01*
X180246535Y-102511326D01*
X180251000Y-102556661D01*
X180251000Y-103393339D01*
X180246535Y-103438674D01*
X180235101Y-103476367D01*
X180216534Y-103511103D01*
X180191548Y-103541548D01*
X180161103Y-103566534D01*
X180126367Y-103585101D01*
X180088674Y-103596535D01*
X180043339Y-103601000D01*
X178956661Y-103601000D01*
X178911326Y-103596535D01*
X178873633Y-103585101D01*
X178838897Y-103566534D01*
X178808452Y-103541548D01*
X178783466Y-103511103D01*
X178764899Y-103476367D01*
X178753465Y-103438674D01*
X178749000Y-103393339D01*
X178749000Y-102556661D01*
X178753465Y-102511326D01*
X178764899Y-102473633D01*
X178783466Y-102438897D01*
X178808452Y-102408452D01*
X178838897Y-102383466D01*
X178873633Y-102364899D01*
X178911326Y-102353465D01*
X178956661Y-102349000D01*
X180043339Y-102349000D01*
X180088674Y-102353465D01*
X180088674Y-102353465D01*
G37*
G36*
X173588674Y-102328465D02*
G01*
X173626367Y-102339899D01*
X173661103Y-102358466D01*
X173691548Y-102383452D01*
X173716534Y-102413897D01*
X173735101Y-102448633D01*
X173746535Y-102486326D01*
X173751000Y-102531661D01*
X173751000Y-103368339D01*
X173746535Y-103413674D01*
X173735101Y-103451367D01*
X173716534Y-103486103D01*
X173691548Y-103516548D01*
X173661103Y-103541534D01*
X173626367Y-103560101D01*
X173588674Y-103571535D01*
X173543339Y-103576000D01*
X172456661Y-103576000D01*
X172411326Y-103571535D01*
X172373633Y-103560101D01*
X172338897Y-103541534D01*
X172308452Y-103516548D01*
X172283466Y-103486103D01*
X172264899Y-103451367D01*
X172253465Y-103413674D01*
X172249000Y-103368339D01*
X172249000Y-102531661D01*
X172253465Y-102486326D01*
X172264899Y-102448633D01*
X172283466Y-102413897D01*
X172308452Y-102383452D01*
X172338897Y-102358466D01*
X172373633Y-102339899D01*
X172411326Y-102328465D01*
X172456661Y-102324000D01*
X173543339Y-102324000D01*
X173588674Y-102328465D01*
X173588674Y-102328465D01*
G37*
G36*
X146751000Y-101976000D02*
G01*
X144249000Y-101976000D01*
X144249000Y-100424000D01*
X146751000Y-100424000D01*
X146751000Y-101976000D01*
X146751000Y-101976000D01*
G37*
G36*
X168438674Y-100253465D02*
G01*
X168476367Y-100264899D01*
X168511103Y-100283466D01*
X168541548Y-100308452D01*
X168566534Y-100338897D01*
X168585101Y-100373633D01*
X168596535Y-100411326D01*
X168601000Y-100456661D01*
X168601000Y-101543339D01*
X168596535Y-101588674D01*
X168585101Y-101626367D01*
X168566534Y-101661103D01*
X168541548Y-101691548D01*
X168511103Y-101716534D01*
X168476367Y-101735101D01*
X168438674Y-101746535D01*
X168393339Y-101751000D01*
X167556661Y-101751000D01*
X167511326Y-101746535D01*
X167473633Y-101735101D01*
X167438897Y-101716534D01*
X167408452Y-101691548D01*
X167383466Y-101661103D01*
X167364899Y-101626367D01*
X167353465Y-101588674D01*
X167349000Y-101543339D01*
X167349000Y-100456661D01*
X167353465Y-100411326D01*
X167364899Y-100373633D01*
X167383466Y-100338897D01*
X167408452Y-100308452D01*
X167438897Y-100283466D01*
X167473633Y-100264899D01*
X167511326Y-100253465D01*
X167556661Y-100249000D01*
X168393339Y-100249000D01*
X168438674Y-100253465D01*
X168438674Y-100253465D01*
G37*
G36*
X150438674Y-100253465D02*
G01*
X150476367Y-100264899D01*
X150511103Y-100283466D01*
X150541548Y-100308452D01*
X150566534Y-100338897D01*
X150585101Y-100373633D01*
X150596535Y-100411326D01*
X150601000Y-100456661D01*
X150601000Y-101543339D01*
X150596535Y-101588674D01*
X150585101Y-101626367D01*
X150566534Y-101661103D01*
X150541548Y-101691548D01*
X150511103Y-101716534D01*
X150476367Y-101735101D01*
X150438674Y-101746535D01*
X150393339Y-101751000D01*
X149556661Y-101751000D01*
X149511326Y-101746535D01*
X149473633Y-101735101D01*
X149438897Y-101716534D01*
X149408452Y-101691548D01*
X149383466Y-101661103D01*
X149364899Y-101626367D01*
X149353465Y-101588674D01*
X149349000Y-101543339D01*
X149349000Y-100456661D01*
X149353465Y-100411326D01*
X149364899Y-100373633D01*
X149383466Y-100338897D01*
X149408452Y-100308452D01*
X149438897Y-100283466D01*
X149473633Y-100264899D01*
X149511326Y-100253465D01*
X149556661Y-100249000D01*
X150393339Y-100249000D01*
X150438674Y-100253465D01*
X150438674Y-100253465D01*
G37*
G36*
X170488674Y-100253465D02*
G01*
X170526367Y-100264899D01*
X170561103Y-100283466D01*
X170591548Y-100308452D01*
X170616534Y-100338897D01*
X170635101Y-100373633D01*
X170646535Y-100411326D01*
X170651000Y-100456661D01*
X170651000Y-101543339D01*
X170646535Y-101588674D01*
X170635101Y-101626367D01*
X170616534Y-101661103D01*
X170591548Y-101691548D01*
X170561103Y-101716534D01*
X170526367Y-101735101D01*
X170488674Y-101746535D01*
X170443339Y-101751000D01*
X169606661Y-101751000D01*
X169561326Y-101746535D01*
X169523633Y-101735101D01*
X169488897Y-101716534D01*
X169458452Y-101691548D01*
X169433466Y-101661103D01*
X169414899Y-101626367D01*
X169403465Y-101588674D01*
X169399000Y-101543339D01*
X169399000Y-100456661D01*
X169403465Y-100411326D01*
X169414899Y-100373633D01*
X169433466Y-100338897D01*
X169458452Y-100308452D01*
X169488897Y-100283466D01*
X169523633Y-100264899D01*
X169561326Y-100253465D01*
X169606661Y-100249000D01*
X170443339Y-100249000D01*
X170488674Y-100253465D01*
X170488674Y-100253465D01*
G37*
G36*
X152488674Y-100253465D02*
G01*
X152526367Y-100264899D01*
X152561103Y-100283466D01*
X152591548Y-100308452D01*
X152616534Y-100338897D01*
X152635101Y-100373633D01*
X152646535Y-100411326D01*
X152651000Y-100456661D01*
X152651000Y-101543339D01*
X152646535Y-101588674D01*
X152635101Y-101626367D01*
X152616534Y-101661103D01*
X152591548Y-101691548D01*
X152561103Y-101716534D01*
X152526367Y-101735101D01*
X152488674Y-101746535D01*
X152443339Y-101751000D01*
X151606661Y-101751000D01*
X151561326Y-101746535D01*
X151523633Y-101735101D01*
X151488897Y-101716534D01*
X151458452Y-101691548D01*
X151433466Y-101661103D01*
X151414899Y-101626367D01*
X151403465Y-101588674D01*
X151399000Y-101543339D01*
X151399000Y-100456661D01*
X151403465Y-100411326D01*
X151414899Y-100373633D01*
X151433466Y-100338897D01*
X151458452Y-100308452D01*
X151488897Y-100283466D01*
X151523633Y-100264899D01*
X151561326Y-100253465D01*
X151606661Y-100249000D01*
X152443339Y-100249000D01*
X152488674Y-100253465D01*
X152488674Y-100253465D01*
G37*
G36*
X195110443Y-99785519D02*
G01*
X195176627Y-99792037D01*
X195346466Y-99843557D01*
X195502991Y-99927222D01*
X195533342Y-99952131D01*
X195640186Y-100039814D01*
X195723448Y-100141271D01*
X195752778Y-100177009D01*
X195836443Y-100333534D01*
X195887963Y-100503373D01*
X195905359Y-100680000D01*
X195887963Y-100856627D01*
X195836443Y-101026466D01*
X195752778Y-101182991D01*
X195731947Y-101208373D01*
X195640186Y-101320186D01*
X195538729Y-101403448D01*
X195502991Y-101432778D01*
X195346466Y-101516443D01*
X195176627Y-101567963D01*
X195110442Y-101574482D01*
X195044260Y-101581000D01*
X194955740Y-101581000D01*
X194889557Y-101574481D01*
X194823373Y-101567963D01*
X194653534Y-101516443D01*
X194497009Y-101432778D01*
X194461271Y-101403448D01*
X194359814Y-101320186D01*
X194268053Y-101208373D01*
X194247222Y-101182991D01*
X194163557Y-101026466D01*
X194112037Y-100856627D01*
X194094641Y-100680000D01*
X194112037Y-100503373D01*
X194163557Y-100333534D01*
X194247222Y-100177009D01*
X194276552Y-100141271D01*
X194359814Y-100039814D01*
X194466658Y-99952131D01*
X194497009Y-99927222D01*
X194653534Y-99843557D01*
X194823373Y-99792037D01*
X194889558Y-99785518D01*
X194955740Y-99779000D01*
X195044260Y-99779000D01*
X195110443Y-99785519D01*
X195110443Y-99785519D01*
G37*
G36*
X192570443Y-99785519D02*
G01*
X192636627Y-99792037D01*
X192806466Y-99843557D01*
X192962991Y-99927222D01*
X192993342Y-99952131D01*
X193100186Y-100039814D01*
X193183448Y-100141271D01*
X193212778Y-100177009D01*
X193296443Y-100333534D01*
X193347963Y-100503373D01*
X193365359Y-100680000D01*
X193347963Y-100856627D01*
X193296443Y-101026466D01*
X193212778Y-101182991D01*
X193191947Y-101208373D01*
X193100186Y-101320186D01*
X192998729Y-101403448D01*
X192962991Y-101432778D01*
X192806466Y-101516443D01*
X192636627Y-101567963D01*
X192570442Y-101574482D01*
X192504260Y-101581000D01*
X192415740Y-101581000D01*
X192349557Y-101574481D01*
X192283373Y-101567963D01*
X192113534Y-101516443D01*
X191957009Y-101432778D01*
X191921271Y-101403448D01*
X191819814Y-101320186D01*
X191728053Y-101208373D01*
X191707222Y-101182991D01*
X191623557Y-101026466D01*
X191572037Y-100856627D01*
X191554641Y-100680000D01*
X191572037Y-100503373D01*
X191623557Y-100333534D01*
X191707222Y-100177009D01*
X191736552Y-100141271D01*
X191819814Y-100039814D01*
X191926658Y-99952131D01*
X191957009Y-99927222D01*
X192113534Y-99843557D01*
X192283373Y-99792037D01*
X192349558Y-99785518D01*
X192415740Y-99779000D01*
X192504260Y-99779000D01*
X192570443Y-99785519D01*
X192570443Y-99785519D01*
G37*
G36*
X139275562Y-99740681D02*
G01*
X139310481Y-99751274D01*
X139342663Y-99768476D01*
X139370873Y-99791627D01*
X139394024Y-99819837D01*
X139411226Y-99852019D01*
X139421819Y-99886938D01*
X139426000Y-99929395D01*
X139426000Y-101070605D01*
X139421819Y-101113062D01*
X139411226Y-101147981D01*
X139394024Y-101180163D01*
X139370873Y-101208373D01*
X139342663Y-101231524D01*
X139310481Y-101248726D01*
X139275562Y-101259319D01*
X139233105Y-101263500D01*
X137766895Y-101263500D01*
X137724438Y-101259319D01*
X137689519Y-101248726D01*
X137657337Y-101231524D01*
X137629127Y-101208373D01*
X137605976Y-101180163D01*
X137588774Y-101147981D01*
X137578181Y-101113062D01*
X137574000Y-101070605D01*
X137574000Y-99929395D01*
X137578181Y-99886938D01*
X137588774Y-99852019D01*
X137605976Y-99819837D01*
X137629127Y-99791627D01*
X137657337Y-99768476D01*
X137689519Y-99751274D01*
X137724438Y-99740681D01*
X137766895Y-99736500D01*
X139233105Y-99736500D01*
X139275562Y-99740681D01*
X139275562Y-99740681D01*
G37*
G36*
X192570443Y-97245519D02*
G01*
X192636627Y-97252037D01*
X192806466Y-97303557D01*
X192962991Y-97387222D01*
X192998729Y-97416552D01*
X193100186Y-97499814D01*
X193162709Y-97576000D01*
X193212778Y-97637009D01*
X193296443Y-97793534D01*
X193347963Y-97963373D01*
X193365359Y-98140000D01*
X193347963Y-98316627D01*
X193296443Y-98486466D01*
X193212778Y-98642991D01*
X193183448Y-98678729D01*
X193100186Y-98780186D01*
X192998729Y-98863448D01*
X192962991Y-98892778D01*
X192806466Y-98976443D01*
X192636627Y-99027963D01*
X192570442Y-99034482D01*
X192504260Y-99041000D01*
X192415740Y-99041000D01*
X192349557Y-99034481D01*
X192283373Y-99027963D01*
X192113534Y-98976443D01*
X191957009Y-98892778D01*
X191921271Y-98863448D01*
X191819814Y-98780186D01*
X191736552Y-98678729D01*
X191707222Y-98642991D01*
X191623557Y-98486466D01*
X191572037Y-98316627D01*
X191554641Y-98140000D01*
X191572037Y-97963373D01*
X191623557Y-97793534D01*
X191707222Y-97637009D01*
X191757291Y-97576000D01*
X191819814Y-97499814D01*
X191921271Y-97416552D01*
X191957009Y-97387222D01*
X192113534Y-97303557D01*
X192283373Y-97252037D01*
X192349557Y-97245519D01*
X192415740Y-97239000D01*
X192504260Y-97239000D01*
X192570443Y-97245519D01*
X192570443Y-97245519D01*
G37*
G36*
X195110443Y-97245519D02*
G01*
X195176627Y-97252037D01*
X195346466Y-97303557D01*
X195502991Y-97387222D01*
X195538729Y-97416552D01*
X195640186Y-97499814D01*
X195702709Y-97576000D01*
X195752778Y-97637009D01*
X195836443Y-97793534D01*
X195887963Y-97963373D01*
X195905359Y-98140000D01*
X195887963Y-98316627D01*
X195836443Y-98486466D01*
X195752778Y-98642991D01*
X195723448Y-98678729D01*
X195640186Y-98780186D01*
X195538729Y-98863448D01*
X195502991Y-98892778D01*
X195346466Y-98976443D01*
X195176627Y-99027963D01*
X195110442Y-99034482D01*
X195044260Y-99041000D01*
X194955740Y-99041000D01*
X194889557Y-99034481D01*
X194823373Y-99027963D01*
X194653534Y-98976443D01*
X194497009Y-98892778D01*
X194461271Y-98863448D01*
X194359814Y-98780186D01*
X194276552Y-98678729D01*
X194247222Y-98642991D01*
X194163557Y-98486466D01*
X194112037Y-98316627D01*
X194094641Y-98140000D01*
X194112037Y-97963373D01*
X194163557Y-97793534D01*
X194247222Y-97637009D01*
X194297291Y-97576000D01*
X194359814Y-97499814D01*
X194461271Y-97416552D01*
X194497009Y-97387222D01*
X194653534Y-97303557D01*
X194823373Y-97252037D01*
X194889557Y-97245519D01*
X194955740Y-97239000D01*
X195044260Y-97239000D01*
X195110443Y-97245519D01*
X195110443Y-97245519D01*
G37*
G36*
X159301000Y-98776000D02*
G01*
X158599000Y-98776000D01*
X158599000Y-98224000D01*
X159301000Y-98224000D01*
X159301000Y-98776000D01*
X159301000Y-98776000D01*
G37*
G36*
X161401000Y-98776000D02*
G01*
X160699000Y-98776000D01*
X160699000Y-98224000D01*
X161401000Y-98224000D01*
X161401000Y-98776000D01*
X161401000Y-98776000D01*
G37*
G36*
X139275562Y-96765681D02*
G01*
X139310481Y-96776274D01*
X139342663Y-96793476D01*
X139370873Y-96816627D01*
X139394024Y-96844837D01*
X139411226Y-96877019D01*
X139421819Y-96911938D01*
X139426000Y-96954395D01*
X139426000Y-98095605D01*
X139421819Y-98138062D01*
X139411226Y-98172981D01*
X139394024Y-98205163D01*
X139370873Y-98233373D01*
X139342663Y-98256524D01*
X139310481Y-98273726D01*
X139275562Y-98284319D01*
X139233105Y-98288500D01*
X137766895Y-98288500D01*
X137724438Y-98284319D01*
X137689519Y-98273726D01*
X137657337Y-98256524D01*
X137629127Y-98233373D01*
X137605976Y-98205163D01*
X137588774Y-98172981D01*
X137578181Y-98138062D01*
X137574000Y-98095605D01*
X137574000Y-96954395D01*
X137578181Y-96911938D01*
X137588774Y-96877019D01*
X137605976Y-96844837D01*
X137629127Y-96816627D01*
X137657337Y-96793476D01*
X137689519Y-96776274D01*
X137724438Y-96765681D01*
X137766895Y-96761500D01*
X139233105Y-96761500D01*
X139275562Y-96765681D01*
X139275562Y-96765681D01*
G37*
G36*
X146751000Y-97576000D02*
G01*
X144249000Y-97576000D01*
X144249000Y-96024000D01*
X146751000Y-96024000D01*
X146751000Y-97576000D01*
X146751000Y-97576000D01*
G37*
G36*
X170488674Y-95753465D02*
G01*
X170526367Y-95764899D01*
X170561103Y-95783466D01*
X170591548Y-95808452D01*
X170616534Y-95838897D01*
X170635101Y-95873633D01*
X170646535Y-95911326D01*
X170651000Y-95956661D01*
X170651000Y-97043339D01*
X170646535Y-97088674D01*
X170635101Y-97126367D01*
X170616534Y-97161103D01*
X170591548Y-97191548D01*
X170561103Y-97216534D01*
X170526367Y-97235101D01*
X170488674Y-97246535D01*
X170443339Y-97251000D01*
X169606661Y-97251000D01*
X169561326Y-97246535D01*
X169523633Y-97235101D01*
X169488897Y-97216534D01*
X169458452Y-97191548D01*
X169433466Y-97161103D01*
X169414899Y-97126367D01*
X169403465Y-97088674D01*
X169399000Y-97043339D01*
X169399000Y-95956661D01*
X169403465Y-95911326D01*
X169414899Y-95873633D01*
X169433466Y-95838897D01*
X169458452Y-95808452D01*
X169488897Y-95783466D01*
X169523633Y-95764899D01*
X169561326Y-95753465D01*
X169606661Y-95749000D01*
X170443339Y-95749000D01*
X170488674Y-95753465D01*
X170488674Y-95753465D01*
G37*
G36*
X168438674Y-95753465D02*
G01*
X168476367Y-95764899D01*
X168511103Y-95783466D01*
X168541548Y-95808452D01*
X168566534Y-95838897D01*
X168585101Y-95873633D01*
X168596535Y-95911326D01*
X168601000Y-95956661D01*
X168601000Y-97043339D01*
X168596535Y-97088674D01*
X168585101Y-97126367D01*
X168566534Y-97161103D01*
X168541548Y-97191548D01*
X168511103Y-97216534D01*
X168476367Y-97235101D01*
X168438674Y-97246535D01*
X168393339Y-97251000D01*
X167556661Y-97251000D01*
X167511326Y-97246535D01*
X167473633Y-97235101D01*
X167438897Y-97216534D01*
X167408452Y-97191548D01*
X167383466Y-97161103D01*
X167364899Y-97126367D01*
X167353465Y-97088674D01*
X167349000Y-97043339D01*
X167349000Y-95956661D01*
X167353465Y-95911326D01*
X167364899Y-95873633D01*
X167383466Y-95838897D01*
X167408452Y-95808452D01*
X167438897Y-95783466D01*
X167473633Y-95764899D01*
X167511326Y-95753465D01*
X167556661Y-95749000D01*
X168393339Y-95749000D01*
X168438674Y-95753465D01*
X168438674Y-95753465D01*
G37*
G36*
X169354928Y-91951764D02*
G01*
X169376009Y-91958160D01*
X169395445Y-91968548D01*
X169412476Y-91982524D01*
X169426452Y-91999555D01*
X169436840Y-92018991D01*
X169443236Y-92040072D01*
X169446000Y-92068140D01*
X169446000Y-93881860D01*
X169443236Y-93909928D01*
X169436840Y-93931009D01*
X169426452Y-93950445D01*
X169412476Y-93967476D01*
X169395445Y-93981452D01*
X169376009Y-93991840D01*
X169354928Y-93998236D01*
X169326860Y-94001000D01*
X168863140Y-94001000D01*
X168835072Y-93998236D01*
X168813991Y-93991840D01*
X168794555Y-93981452D01*
X168777524Y-93967476D01*
X168763548Y-93950445D01*
X168753160Y-93931009D01*
X168746764Y-93909928D01*
X168744000Y-93881860D01*
X168744000Y-92068140D01*
X168746764Y-92040072D01*
X168753160Y-92018991D01*
X168763548Y-91999555D01*
X168777524Y-91982524D01*
X168794555Y-91968548D01*
X168813991Y-91958160D01*
X168835072Y-91951764D01*
X168863140Y-91949000D01*
X169326860Y-91949000D01*
X169354928Y-91951764D01*
X169354928Y-91951764D01*
G37*
G36*
X171894928Y-91951764D02*
G01*
X171916009Y-91958160D01*
X171935445Y-91968548D01*
X171952476Y-91982524D01*
X171966452Y-91999555D01*
X171976840Y-92018991D01*
X171983236Y-92040072D01*
X171986000Y-92068140D01*
X171986000Y-93881860D01*
X171983236Y-93909928D01*
X171976840Y-93931009D01*
X171966452Y-93950445D01*
X171952476Y-93967476D01*
X171935445Y-93981452D01*
X171916009Y-93991840D01*
X171894928Y-93998236D01*
X171866860Y-94001000D01*
X171403140Y-94001000D01*
X171375072Y-93998236D01*
X171353991Y-93991840D01*
X171334555Y-93981452D01*
X171317524Y-93967476D01*
X171303548Y-93950445D01*
X171293160Y-93931009D01*
X171286764Y-93909928D01*
X171284000Y-93881860D01*
X171284000Y-92068140D01*
X171286764Y-92040072D01*
X171293160Y-92018991D01*
X171303548Y-91999555D01*
X171317524Y-91982524D01*
X171334555Y-91968548D01*
X171353991Y-91958160D01*
X171375072Y-91951764D01*
X171403140Y-91949000D01*
X171866860Y-91949000D01*
X171894928Y-91951764D01*
X171894928Y-91951764D01*
G37*
G36*
X170624928Y-91951764D02*
G01*
X170646009Y-91958160D01*
X170665445Y-91968548D01*
X170682476Y-91982524D01*
X170696452Y-91999555D01*
X170706840Y-92018991D01*
X170713236Y-92040072D01*
X170716000Y-92068140D01*
X170716000Y-93881860D01*
X170713236Y-93909928D01*
X170706840Y-93931009D01*
X170696452Y-93950445D01*
X170682476Y-93967476D01*
X170665445Y-93981452D01*
X170646009Y-93991840D01*
X170624928Y-93998236D01*
X170596860Y-94001000D01*
X170133140Y-94001000D01*
X170105072Y-93998236D01*
X170083991Y-93991840D01*
X170064555Y-93981452D01*
X170047524Y-93967476D01*
X170033548Y-93950445D01*
X170023160Y-93931009D01*
X170016764Y-93909928D01*
X170014000Y-93881860D01*
X170014000Y-92068140D01*
X170016764Y-92040072D01*
X170023160Y-92018991D01*
X170033548Y-91999555D01*
X170047524Y-91982524D01*
X170064555Y-91968548D01*
X170083991Y-91958160D01*
X170105072Y-91951764D01*
X170133140Y-91949000D01*
X170596860Y-91949000D01*
X170624928Y-91951764D01*
X170624928Y-91951764D01*
G37*
G36*
X173164928Y-91951764D02*
G01*
X173186009Y-91958160D01*
X173205445Y-91968548D01*
X173222476Y-91982524D01*
X173236452Y-91999555D01*
X173246840Y-92018991D01*
X173253236Y-92040072D01*
X173256000Y-92068140D01*
X173256000Y-93881860D01*
X173253236Y-93909928D01*
X173246840Y-93931009D01*
X173236452Y-93950445D01*
X173222476Y-93967476D01*
X173205445Y-93981452D01*
X173186009Y-93991840D01*
X173164928Y-93998236D01*
X173136860Y-94001000D01*
X172673140Y-94001000D01*
X172645072Y-93998236D01*
X172623991Y-93991840D01*
X172604555Y-93981452D01*
X172587524Y-93967476D01*
X172573548Y-93950445D01*
X172563160Y-93931009D01*
X172556764Y-93909928D01*
X172554000Y-93881860D01*
X172554000Y-92068140D01*
X172556764Y-92040072D01*
X172563160Y-92018991D01*
X172573548Y-91999555D01*
X172587524Y-91982524D01*
X172604555Y-91968548D01*
X172623991Y-91958160D01*
X172645072Y-91951764D01*
X172673140Y-91949000D01*
X173136860Y-91949000D01*
X173164928Y-91951764D01*
X173164928Y-91951764D01*
G37*
G36*
X145588674Y-92403465D02*
G01*
X145626367Y-92414899D01*
X145661103Y-92433466D01*
X145691548Y-92458452D01*
X145716534Y-92488897D01*
X145735101Y-92523633D01*
X145746535Y-92561326D01*
X145751000Y-92606661D01*
X145751000Y-93443339D01*
X145746535Y-93488674D01*
X145735101Y-93526367D01*
X145716534Y-93561103D01*
X145691548Y-93591548D01*
X145661103Y-93616534D01*
X145626367Y-93635101D01*
X145588674Y-93646535D01*
X145543339Y-93651000D01*
X144456661Y-93651000D01*
X144411326Y-93646535D01*
X144373633Y-93635101D01*
X144338897Y-93616534D01*
X144308452Y-93591548D01*
X144283466Y-93561103D01*
X144264899Y-93526367D01*
X144253465Y-93488674D01*
X144249000Y-93443339D01*
X144249000Y-92606661D01*
X144253465Y-92561326D01*
X144264899Y-92523633D01*
X144283466Y-92488897D01*
X144308452Y-92458452D01*
X144338897Y-92433466D01*
X144373633Y-92414899D01*
X144411326Y-92403465D01*
X144456661Y-92399000D01*
X145543339Y-92399000D01*
X145588674Y-92403465D01*
X145588674Y-92403465D01*
G37*
G36*
X165775562Y-91228181D02*
G01*
X165810481Y-91238774D01*
X165842663Y-91255976D01*
X165870873Y-91279127D01*
X165894024Y-91307337D01*
X165911226Y-91339519D01*
X165921819Y-91374438D01*
X165926000Y-91416895D01*
X165926000Y-92558105D01*
X165921819Y-92600562D01*
X165911226Y-92635481D01*
X165894024Y-92667663D01*
X165870873Y-92695873D01*
X165842663Y-92719024D01*
X165810481Y-92736226D01*
X165775562Y-92746819D01*
X165733105Y-92751000D01*
X164266895Y-92751000D01*
X164224438Y-92746819D01*
X164189519Y-92736226D01*
X164157337Y-92719024D01*
X164129127Y-92695873D01*
X164105976Y-92667663D01*
X164088774Y-92635481D01*
X164078181Y-92600562D01*
X164074000Y-92558105D01*
X164074000Y-91416895D01*
X164078181Y-91374438D01*
X164088774Y-91339519D01*
X164105976Y-91307337D01*
X164129127Y-91279127D01*
X164157337Y-91255976D01*
X164189519Y-91238774D01*
X164224438Y-91228181D01*
X164266895Y-91224000D01*
X165733105Y-91224000D01*
X165775562Y-91228181D01*
X165775562Y-91228181D01*
G37*
G36*
X145588674Y-90353465D02*
G01*
X145626367Y-90364899D01*
X145661103Y-90383466D01*
X145691548Y-90408452D01*
X145716534Y-90438897D01*
X145735101Y-90473633D01*
X145746535Y-90511326D01*
X145751000Y-90556661D01*
X145751000Y-91393339D01*
X145746535Y-91438674D01*
X145735101Y-91476367D01*
X145716534Y-91511103D01*
X145691548Y-91541548D01*
X145661103Y-91566534D01*
X145626367Y-91585101D01*
X145588674Y-91596535D01*
X145543339Y-91601000D01*
X144456661Y-91601000D01*
X144411326Y-91596535D01*
X144373633Y-91585101D01*
X144338897Y-91566534D01*
X144308452Y-91541548D01*
X144283466Y-91511103D01*
X144264899Y-91476367D01*
X144253465Y-91438674D01*
X144249000Y-91393339D01*
X144249000Y-90556661D01*
X144253465Y-90511326D01*
X144264899Y-90473633D01*
X144283466Y-90438897D01*
X144308452Y-90408452D01*
X144338897Y-90383466D01*
X144373633Y-90364899D01*
X144411326Y-90353465D01*
X144456661Y-90349000D01*
X145543339Y-90349000D01*
X145588674Y-90353465D01*
X145588674Y-90353465D01*
G37*
G36*
X165775562Y-88253181D02*
G01*
X165810481Y-88263774D01*
X165842663Y-88280976D01*
X165870873Y-88304127D01*
X165894024Y-88332337D01*
X165911226Y-88364519D01*
X165921819Y-88399438D01*
X165926000Y-88441895D01*
X165926000Y-89583105D01*
X165921819Y-89625562D01*
X165911226Y-89660481D01*
X165894024Y-89692663D01*
X165870873Y-89720873D01*
X165842663Y-89744024D01*
X165810481Y-89761226D01*
X165775562Y-89771819D01*
X165733105Y-89776000D01*
X164266895Y-89776000D01*
X164224438Y-89771819D01*
X164189519Y-89761226D01*
X164157337Y-89744024D01*
X164129127Y-89720873D01*
X164105976Y-89692663D01*
X164088774Y-89660481D01*
X164078181Y-89625562D01*
X164074000Y-89583105D01*
X164074000Y-88441895D01*
X164078181Y-88399438D01*
X164088774Y-88364519D01*
X164105976Y-88332337D01*
X164129127Y-88304127D01*
X164157337Y-88280976D01*
X164189519Y-88263774D01*
X164224438Y-88253181D01*
X164266895Y-88249000D01*
X165733105Y-88249000D01*
X165775562Y-88253181D01*
X165775562Y-88253181D01*
G37*
G36*
X169354928Y-87001764D02*
G01*
X169376009Y-87008160D01*
X169395445Y-87018548D01*
X169412476Y-87032524D01*
X169426452Y-87049555D01*
X169436840Y-87068991D01*
X169443236Y-87090072D01*
X169446000Y-87118140D01*
X169446000Y-88931860D01*
X169443236Y-88959928D01*
X169436840Y-88981009D01*
X169426452Y-89000445D01*
X169412476Y-89017476D01*
X169395445Y-89031452D01*
X169376009Y-89041840D01*
X169354928Y-89048236D01*
X169326860Y-89051000D01*
X168863140Y-89051000D01*
X168835072Y-89048236D01*
X168813991Y-89041840D01*
X168794555Y-89031452D01*
X168777524Y-89017476D01*
X168763548Y-89000445D01*
X168753160Y-88981009D01*
X168746764Y-88959928D01*
X168744000Y-88931860D01*
X168744000Y-87118140D01*
X168746764Y-87090072D01*
X168753160Y-87068991D01*
X168763548Y-87049555D01*
X168777524Y-87032524D01*
X168794555Y-87018548D01*
X168813991Y-87008160D01*
X168835072Y-87001764D01*
X168863140Y-86999000D01*
X169326860Y-86999000D01*
X169354928Y-87001764D01*
X169354928Y-87001764D01*
G37*
G36*
X170624928Y-87001764D02*
G01*
X170646009Y-87008160D01*
X170665445Y-87018548D01*
X170682476Y-87032524D01*
X170696452Y-87049555D01*
X170706840Y-87068991D01*
X170713236Y-87090072D01*
X170716000Y-87118140D01*
X170716000Y-88931860D01*
X170713236Y-88959928D01*
X170706840Y-88981009D01*
X170696452Y-89000445D01*
X170682476Y-89017476D01*
X170665445Y-89031452D01*
X170646009Y-89041840D01*
X170624928Y-89048236D01*
X170596860Y-89051000D01*
X170133140Y-89051000D01*
X170105072Y-89048236D01*
X170083991Y-89041840D01*
X170064555Y-89031452D01*
X170047524Y-89017476D01*
X170033548Y-89000445D01*
X170023160Y-88981009D01*
X170016764Y-88959928D01*
X170014000Y-88931860D01*
X170014000Y-87118140D01*
X170016764Y-87090072D01*
X170023160Y-87068991D01*
X170033548Y-87049555D01*
X170047524Y-87032524D01*
X170064555Y-87018548D01*
X170083991Y-87008160D01*
X170105072Y-87001764D01*
X170133140Y-86999000D01*
X170596860Y-86999000D01*
X170624928Y-87001764D01*
X170624928Y-87001764D01*
G37*
G36*
X171894928Y-87001764D02*
G01*
X171916009Y-87008160D01*
X171935445Y-87018548D01*
X171952476Y-87032524D01*
X171966452Y-87049555D01*
X171976840Y-87068991D01*
X171983236Y-87090072D01*
X171986000Y-87118140D01*
X171986000Y-88931860D01*
X171983236Y-88959928D01*
X171976840Y-88981009D01*
X171966452Y-89000445D01*
X171952476Y-89017476D01*
X171935445Y-89031452D01*
X171916009Y-89041840D01*
X171894928Y-89048236D01*
X171866860Y-89051000D01*
X171403140Y-89051000D01*
X171375072Y-89048236D01*
X171353991Y-89041840D01*
X171334555Y-89031452D01*
X171317524Y-89017476D01*
X171303548Y-89000445D01*
X171293160Y-88981009D01*
X171286764Y-88959928D01*
X171284000Y-88931860D01*
X171284000Y-87118140D01*
X171286764Y-87090072D01*
X171293160Y-87068991D01*
X171303548Y-87049555D01*
X171317524Y-87032524D01*
X171334555Y-87018548D01*
X171353991Y-87008160D01*
X171375072Y-87001764D01*
X171403140Y-86999000D01*
X171866860Y-86999000D01*
X171894928Y-87001764D01*
X171894928Y-87001764D01*
G37*
G36*
X173164928Y-87001764D02*
G01*
X173186009Y-87008160D01*
X173205445Y-87018548D01*
X173222476Y-87032524D01*
X173236452Y-87049555D01*
X173246840Y-87068991D01*
X173253236Y-87090072D01*
X173256000Y-87118140D01*
X173256000Y-88931860D01*
X173253236Y-88959928D01*
X173246840Y-88981009D01*
X173236452Y-89000445D01*
X173222476Y-89017476D01*
X173205445Y-89031452D01*
X173186009Y-89041840D01*
X173164928Y-89048236D01*
X173136860Y-89051000D01*
X172673140Y-89051000D01*
X172645072Y-89048236D01*
X172623991Y-89041840D01*
X172604555Y-89031452D01*
X172587524Y-89017476D01*
X172573548Y-89000445D01*
X172563160Y-88981009D01*
X172556764Y-88959928D01*
X172554000Y-88931860D01*
X172554000Y-87118140D01*
X172556764Y-87090072D01*
X172563160Y-87068991D01*
X172573548Y-87049555D01*
X172587524Y-87032524D01*
X172604555Y-87018548D01*
X172623991Y-87008160D01*
X172645072Y-87001764D01*
X172673140Y-86999000D01*
X173136860Y-86999000D01*
X173164928Y-87001764D01*
X173164928Y-87001764D01*
G37*
G36*
X159988674Y-84753465D02*
G01*
X160026367Y-84764899D01*
X160061103Y-84783466D01*
X160091548Y-84808452D01*
X160116534Y-84838897D01*
X160135101Y-84873633D01*
X160146535Y-84911326D01*
X160151000Y-84956661D01*
X160151000Y-86043339D01*
X160146535Y-86088674D01*
X160135101Y-86126367D01*
X160116534Y-86161103D01*
X160091548Y-86191548D01*
X160061103Y-86216534D01*
X160026367Y-86235101D01*
X159988674Y-86246535D01*
X159943339Y-86251000D01*
X159106661Y-86251000D01*
X159061326Y-86246535D01*
X159023633Y-86235101D01*
X158988897Y-86216534D01*
X158958452Y-86191548D01*
X158933466Y-86161103D01*
X158914899Y-86126367D01*
X158903465Y-86088674D01*
X158899000Y-86043339D01*
X158899000Y-84956661D01*
X158903465Y-84911326D01*
X158914899Y-84873633D01*
X158933466Y-84838897D01*
X158958452Y-84808452D01*
X158988897Y-84783466D01*
X159023633Y-84764899D01*
X159061326Y-84753465D01*
X159106661Y-84749000D01*
X159943339Y-84749000D01*
X159988674Y-84753465D01*
X159988674Y-84753465D01*
G37*
G36*
X157938674Y-84753465D02*
G01*
X157976367Y-84764899D01*
X158011103Y-84783466D01*
X158041548Y-84808452D01*
X158066534Y-84838897D01*
X158085101Y-84873633D01*
X158096535Y-84911326D01*
X158101000Y-84956661D01*
X158101000Y-86043339D01*
X158096535Y-86088674D01*
X158085101Y-86126367D01*
X158066534Y-86161103D01*
X158041548Y-86191548D01*
X158011103Y-86216534D01*
X157976367Y-86235101D01*
X157938674Y-86246535D01*
X157893339Y-86251000D01*
X157056661Y-86251000D01*
X157011326Y-86246535D01*
X156973633Y-86235101D01*
X156938897Y-86216534D01*
X156908452Y-86191548D01*
X156883466Y-86161103D01*
X156864899Y-86126367D01*
X156853465Y-86088674D01*
X156849000Y-86043339D01*
X156849000Y-84956661D01*
X156853465Y-84911326D01*
X156864899Y-84873633D01*
X156883466Y-84838897D01*
X156908452Y-84808452D01*
X156938897Y-84783466D01*
X156973633Y-84764899D01*
X157011326Y-84753465D01*
X157056661Y-84749000D01*
X157893339Y-84749000D01*
X157938674Y-84753465D01*
X157938674Y-84753465D01*
G37*
G36*
X154988674Y-84753465D02*
G01*
X155026367Y-84764899D01*
X155061103Y-84783466D01*
X155091548Y-84808452D01*
X155116534Y-84838897D01*
X155135101Y-84873633D01*
X155146535Y-84911326D01*
X155151000Y-84956661D01*
X155151000Y-86043339D01*
X155146535Y-86088674D01*
X155135101Y-86126367D01*
X155116534Y-86161103D01*
X155091548Y-86191548D01*
X155061103Y-86216534D01*
X155026367Y-86235101D01*
X154988674Y-86246535D01*
X154943339Y-86251000D01*
X154106661Y-86251000D01*
X154061326Y-86246535D01*
X154023633Y-86235101D01*
X153988897Y-86216534D01*
X153958452Y-86191548D01*
X153933466Y-86161103D01*
X153914899Y-86126367D01*
X153903465Y-86088674D01*
X153899000Y-86043339D01*
X153899000Y-84956661D01*
X153903465Y-84911326D01*
X153914899Y-84873633D01*
X153933466Y-84838897D01*
X153958452Y-84808452D01*
X153988897Y-84783466D01*
X154023633Y-84764899D01*
X154061326Y-84753465D01*
X154106661Y-84749000D01*
X154943339Y-84749000D01*
X154988674Y-84753465D01*
X154988674Y-84753465D01*
G37*
G36*
X152938674Y-84753465D02*
G01*
X152976367Y-84764899D01*
X153011103Y-84783466D01*
X153041548Y-84808452D01*
X153066534Y-84838897D01*
X153085101Y-84873633D01*
X153096535Y-84911326D01*
X153101000Y-84956661D01*
X153101000Y-86043339D01*
X153096535Y-86088674D01*
X153085101Y-86126367D01*
X153066534Y-86161103D01*
X153041548Y-86191548D01*
X153011103Y-86216534D01*
X152976367Y-86235101D01*
X152938674Y-86246535D01*
X152893339Y-86251000D01*
X152056661Y-86251000D01*
X152011326Y-86246535D01*
X151973633Y-86235101D01*
X151938897Y-86216534D01*
X151908452Y-86191548D01*
X151883466Y-86161103D01*
X151864899Y-86126367D01*
X151853465Y-86088674D01*
X151849000Y-86043339D01*
X151849000Y-84956661D01*
X151853465Y-84911326D01*
X151864899Y-84873633D01*
X151883466Y-84838897D01*
X151908452Y-84808452D01*
X151938897Y-84783466D01*
X151973633Y-84764899D01*
X152011326Y-84753465D01*
X152056661Y-84749000D01*
X152893339Y-84749000D01*
X152938674Y-84753465D01*
X152938674Y-84753465D01*
G37*
M02*
