G04 #@! TF.GenerationSoftware,KiCad,Pcbnew,5.1.4-e60b266~84~ubuntu18.04.1*
G04 #@! TF.CreationDate,2019-09-09T22:31:15+02:00*
G04 #@! TF.ProjectId,Frontend_test,46726f6e-7465-46e6-945f-746573742e6b,rev?*
G04 #@! TF.SameCoordinates,Original*
G04 #@! TF.FileFunction,Soldermask,Bot*
G04 #@! TF.FilePolarity,Negative*
%FSLAX46Y46*%
G04 Gerber Fmt 4.6, Leading zero omitted, Abs format (unit mm)*
G04 Created by KiCad (PCBNEW 5.1.4-e60b266~84~ubuntu18.04.1) date 2019-09-09 22:31:15*
%MOMM*%
%LPD*%
G04 APERTURE LIST*
%ADD10C,0.150000*%
G04 APERTURE END LIST*
D10*
G36*
X165176627Y-133487037D02*
G01*
X165346466Y-133538557D01*
X165502991Y-133622222D01*
X165538729Y-133651552D01*
X165640186Y-133734814D01*
X165723448Y-133836271D01*
X165752778Y-133872009D01*
X165836443Y-134028534D01*
X165887963Y-134198374D01*
X165901000Y-134330743D01*
X165901000Y-134669258D01*
X165887963Y-134801627D01*
X165836443Y-134971466D01*
X165752778Y-135127991D01*
X165723448Y-135163729D01*
X165640186Y-135265186D01*
X165502989Y-135377779D01*
X165346467Y-135461442D01*
X165346465Y-135461443D01*
X165176626Y-135512963D01*
X165000000Y-135530359D01*
X164823373Y-135512963D01*
X164653534Y-135461443D01*
X164497009Y-135377778D01*
X164454750Y-135343097D01*
X164359814Y-135265186D01*
X164247221Y-135127989D01*
X164163558Y-134971467D01*
X164163557Y-134971465D01*
X164112037Y-134801626D01*
X164099000Y-134669257D01*
X164099000Y-134330742D01*
X164112037Y-134198373D01*
X164163557Y-134028534D01*
X164247222Y-133872009D01*
X164359815Y-133734815D01*
X164497010Y-133622222D01*
X164653535Y-133538557D01*
X164823374Y-133487037D01*
X165000000Y-133469641D01*
X165176627Y-133487037D01*
X165176627Y-133487037D01*
G37*
G36*
X167676627Y-133487037D02*
G01*
X167846466Y-133538557D01*
X168002991Y-133622222D01*
X168038729Y-133651552D01*
X168140186Y-133734814D01*
X168223448Y-133836271D01*
X168252778Y-133872009D01*
X168336443Y-134028534D01*
X168387963Y-134198374D01*
X168401000Y-134330743D01*
X168401000Y-134669258D01*
X168387963Y-134801627D01*
X168336443Y-134971466D01*
X168252778Y-135127991D01*
X168223448Y-135163729D01*
X168140186Y-135265186D01*
X168002989Y-135377779D01*
X167846467Y-135461442D01*
X167846465Y-135461443D01*
X167676626Y-135512963D01*
X167500000Y-135530359D01*
X167323373Y-135512963D01*
X167153534Y-135461443D01*
X166997009Y-135377778D01*
X166954750Y-135343097D01*
X166859814Y-135265186D01*
X166747221Y-135127989D01*
X166663558Y-134971467D01*
X166663557Y-134971465D01*
X166612037Y-134801626D01*
X166599000Y-134669257D01*
X166599000Y-134330742D01*
X166612037Y-134198373D01*
X166663557Y-134028534D01*
X166747222Y-133872009D01*
X166859815Y-133734815D01*
X166997010Y-133622222D01*
X167153535Y-133538557D01*
X167323374Y-133487037D01*
X167500000Y-133469641D01*
X167676627Y-133487037D01*
X167676627Y-133487037D01*
G37*
G36*
X170758600Y-133477989D02*
G01*
X170791652Y-133488015D01*
X170822103Y-133504292D01*
X170848799Y-133526201D01*
X170870708Y-133552897D01*
X170886985Y-133583348D01*
X170897011Y-133616400D01*
X170901000Y-133656903D01*
X170901000Y-135343097D01*
X170897011Y-135383600D01*
X170886985Y-135416652D01*
X170870708Y-135447103D01*
X170848799Y-135473799D01*
X170822103Y-135495708D01*
X170791652Y-135511985D01*
X170758600Y-135522011D01*
X170718097Y-135526000D01*
X169281903Y-135526000D01*
X169241400Y-135522011D01*
X169208348Y-135511985D01*
X169177897Y-135495708D01*
X169151201Y-135473799D01*
X169129292Y-135447103D01*
X169113015Y-135416652D01*
X169102989Y-135383600D01*
X169099000Y-135343097D01*
X169099000Y-133656903D01*
X169102989Y-133616400D01*
X169113015Y-133583348D01*
X169129292Y-133552897D01*
X169151201Y-133526201D01*
X169177897Y-133504292D01*
X169208348Y-133488015D01*
X169241400Y-133477989D01*
X169281903Y-133474000D01*
X170718097Y-133474000D01*
X170758600Y-133477989D01*
X170758600Y-133477989D01*
G37*
G36*
X195901000Y-121901000D02*
G01*
X194099000Y-121901000D01*
X194099000Y-120099000D01*
X195901000Y-120099000D01*
X195901000Y-121901000D01*
X195901000Y-121901000D01*
G37*
G36*
X192570442Y-120105518D02*
G01*
X192636627Y-120112037D01*
X192806466Y-120163557D01*
X192962991Y-120247222D01*
X192998729Y-120276552D01*
X193100186Y-120359814D01*
X193183448Y-120461271D01*
X193212778Y-120497009D01*
X193296443Y-120653534D01*
X193347963Y-120823373D01*
X193365359Y-121000000D01*
X193347963Y-121176627D01*
X193296443Y-121346466D01*
X193212778Y-121502991D01*
X193183448Y-121538729D01*
X193100186Y-121640186D01*
X192998729Y-121723448D01*
X192962991Y-121752778D01*
X192806466Y-121836443D01*
X192636627Y-121887963D01*
X192570442Y-121894482D01*
X192504260Y-121901000D01*
X192415740Y-121901000D01*
X192349558Y-121894482D01*
X192283373Y-121887963D01*
X192113534Y-121836443D01*
X191957009Y-121752778D01*
X191921271Y-121723448D01*
X191819814Y-121640186D01*
X191736552Y-121538729D01*
X191707222Y-121502991D01*
X191623557Y-121346466D01*
X191572037Y-121176627D01*
X191554641Y-121000000D01*
X191572037Y-120823373D01*
X191623557Y-120653534D01*
X191707222Y-120497009D01*
X191736552Y-120461271D01*
X191819814Y-120359814D01*
X191921271Y-120276552D01*
X191957009Y-120247222D01*
X192113534Y-120163557D01*
X192283373Y-120112037D01*
X192349558Y-120105518D01*
X192415740Y-120099000D01*
X192504260Y-120099000D01*
X192570442Y-120105518D01*
X192570442Y-120105518D01*
G37*
G36*
X195110443Y-117565519D02*
G01*
X195176627Y-117572037D01*
X195346466Y-117623557D01*
X195502991Y-117707222D01*
X195538729Y-117736552D01*
X195640186Y-117819814D01*
X195723448Y-117921271D01*
X195752778Y-117957009D01*
X195836443Y-118113534D01*
X195887963Y-118283373D01*
X195905359Y-118460000D01*
X195887963Y-118636627D01*
X195836443Y-118806466D01*
X195752778Y-118962991D01*
X195723448Y-118998729D01*
X195640186Y-119100186D01*
X195538729Y-119183448D01*
X195502991Y-119212778D01*
X195346466Y-119296443D01*
X195176627Y-119347963D01*
X195110443Y-119354481D01*
X195044260Y-119361000D01*
X194955740Y-119361000D01*
X194889557Y-119354481D01*
X194823373Y-119347963D01*
X194653534Y-119296443D01*
X194497009Y-119212778D01*
X194461271Y-119183448D01*
X194359814Y-119100186D01*
X194276552Y-118998729D01*
X194247222Y-118962991D01*
X194163557Y-118806466D01*
X194112037Y-118636627D01*
X194094641Y-118460000D01*
X194112037Y-118283373D01*
X194163557Y-118113534D01*
X194247222Y-117957009D01*
X194276552Y-117921271D01*
X194359814Y-117819814D01*
X194461271Y-117736552D01*
X194497009Y-117707222D01*
X194653534Y-117623557D01*
X194823373Y-117572037D01*
X194889557Y-117565519D01*
X194955740Y-117559000D01*
X195044260Y-117559000D01*
X195110443Y-117565519D01*
X195110443Y-117565519D01*
G37*
G36*
X192570443Y-117565519D02*
G01*
X192636627Y-117572037D01*
X192806466Y-117623557D01*
X192962991Y-117707222D01*
X192998729Y-117736552D01*
X193100186Y-117819814D01*
X193183448Y-117921271D01*
X193212778Y-117957009D01*
X193296443Y-118113534D01*
X193347963Y-118283373D01*
X193365359Y-118460000D01*
X193347963Y-118636627D01*
X193296443Y-118806466D01*
X193212778Y-118962991D01*
X193183448Y-118998729D01*
X193100186Y-119100186D01*
X192998729Y-119183448D01*
X192962991Y-119212778D01*
X192806466Y-119296443D01*
X192636627Y-119347963D01*
X192570443Y-119354481D01*
X192504260Y-119361000D01*
X192415740Y-119361000D01*
X192349557Y-119354481D01*
X192283373Y-119347963D01*
X192113534Y-119296443D01*
X191957009Y-119212778D01*
X191921271Y-119183448D01*
X191819814Y-119100186D01*
X191736552Y-118998729D01*
X191707222Y-118962991D01*
X191623557Y-118806466D01*
X191572037Y-118636627D01*
X191554641Y-118460000D01*
X191572037Y-118283373D01*
X191623557Y-118113534D01*
X191707222Y-117957009D01*
X191736552Y-117921271D01*
X191819814Y-117819814D01*
X191921271Y-117736552D01*
X191957009Y-117707222D01*
X192113534Y-117623557D01*
X192283373Y-117572037D01*
X192349557Y-117565519D01*
X192415740Y-117559000D01*
X192504260Y-117559000D01*
X192570443Y-117565519D01*
X192570443Y-117565519D01*
G37*
G36*
X192570442Y-115025518D02*
G01*
X192636627Y-115032037D01*
X192806466Y-115083557D01*
X192962991Y-115167222D01*
X192998729Y-115196552D01*
X193100186Y-115279814D01*
X193183448Y-115381271D01*
X193212778Y-115417009D01*
X193296443Y-115573534D01*
X193347963Y-115743373D01*
X193365359Y-115920000D01*
X193347963Y-116096627D01*
X193296443Y-116266466D01*
X193212778Y-116422991D01*
X193183448Y-116458729D01*
X193100186Y-116560186D01*
X192998729Y-116643448D01*
X192962991Y-116672778D01*
X192806466Y-116756443D01*
X192636627Y-116807963D01*
X192570443Y-116814481D01*
X192504260Y-116821000D01*
X192415740Y-116821000D01*
X192349557Y-116814481D01*
X192283373Y-116807963D01*
X192113534Y-116756443D01*
X191957009Y-116672778D01*
X191921271Y-116643448D01*
X191819814Y-116560186D01*
X191736552Y-116458729D01*
X191707222Y-116422991D01*
X191623557Y-116266466D01*
X191572037Y-116096627D01*
X191554641Y-115920000D01*
X191572037Y-115743373D01*
X191623557Y-115573534D01*
X191707222Y-115417009D01*
X191736552Y-115381271D01*
X191819814Y-115279814D01*
X191921271Y-115196552D01*
X191957009Y-115167222D01*
X192113534Y-115083557D01*
X192283373Y-115032037D01*
X192349558Y-115025518D01*
X192415740Y-115019000D01*
X192504260Y-115019000D01*
X192570442Y-115025518D01*
X192570442Y-115025518D01*
G37*
G36*
X195110442Y-115025518D02*
G01*
X195176627Y-115032037D01*
X195346466Y-115083557D01*
X195502991Y-115167222D01*
X195538729Y-115196552D01*
X195640186Y-115279814D01*
X195723448Y-115381271D01*
X195752778Y-115417009D01*
X195836443Y-115573534D01*
X195887963Y-115743373D01*
X195905359Y-115920000D01*
X195887963Y-116096627D01*
X195836443Y-116266466D01*
X195752778Y-116422991D01*
X195723448Y-116458729D01*
X195640186Y-116560186D01*
X195538729Y-116643448D01*
X195502991Y-116672778D01*
X195346466Y-116756443D01*
X195176627Y-116807963D01*
X195110443Y-116814481D01*
X195044260Y-116821000D01*
X194955740Y-116821000D01*
X194889557Y-116814481D01*
X194823373Y-116807963D01*
X194653534Y-116756443D01*
X194497009Y-116672778D01*
X194461271Y-116643448D01*
X194359814Y-116560186D01*
X194276552Y-116458729D01*
X194247222Y-116422991D01*
X194163557Y-116266466D01*
X194112037Y-116096627D01*
X194094641Y-115920000D01*
X194112037Y-115743373D01*
X194163557Y-115573534D01*
X194247222Y-115417009D01*
X194276552Y-115381271D01*
X194359814Y-115279814D01*
X194461271Y-115196552D01*
X194497009Y-115167222D01*
X194653534Y-115083557D01*
X194823373Y-115032037D01*
X194889558Y-115025518D01*
X194955740Y-115019000D01*
X195044260Y-115019000D01*
X195110442Y-115025518D01*
X195110442Y-115025518D01*
G37*
G36*
X124401000Y-115901000D02*
G01*
X122599000Y-115901000D01*
X122599000Y-114099000D01*
X124401000Y-114099000D01*
X124401000Y-115901000D01*
X124401000Y-115901000D01*
G37*
G36*
X195110442Y-112485518D02*
G01*
X195176627Y-112492037D01*
X195346466Y-112543557D01*
X195502991Y-112627222D01*
X195537845Y-112655826D01*
X195640186Y-112739814D01*
X195723448Y-112841271D01*
X195752778Y-112877009D01*
X195836443Y-113033534D01*
X195887963Y-113203373D01*
X195905359Y-113380000D01*
X195887963Y-113556627D01*
X195836443Y-113726466D01*
X195752778Y-113882991D01*
X195723448Y-113918729D01*
X195640186Y-114020186D01*
X195544149Y-114099000D01*
X195502991Y-114132778D01*
X195346466Y-114216443D01*
X195176627Y-114267963D01*
X195110442Y-114274482D01*
X195044260Y-114281000D01*
X194955740Y-114281000D01*
X194889558Y-114274482D01*
X194823373Y-114267963D01*
X194653534Y-114216443D01*
X194497009Y-114132778D01*
X194455851Y-114099000D01*
X194359814Y-114020186D01*
X194276552Y-113918729D01*
X194247222Y-113882991D01*
X194163557Y-113726466D01*
X194112037Y-113556627D01*
X194094641Y-113380000D01*
X194112037Y-113203373D01*
X194163557Y-113033534D01*
X194247222Y-112877009D01*
X194276552Y-112841271D01*
X194359814Y-112739814D01*
X194462155Y-112655826D01*
X194497009Y-112627222D01*
X194653534Y-112543557D01*
X194823373Y-112492037D01*
X194889558Y-112485518D01*
X194955740Y-112479000D01*
X195044260Y-112479000D01*
X195110442Y-112485518D01*
X195110442Y-112485518D01*
G37*
G36*
X192570442Y-112485518D02*
G01*
X192636627Y-112492037D01*
X192806466Y-112543557D01*
X192962991Y-112627222D01*
X192997845Y-112655826D01*
X193100186Y-112739814D01*
X193183448Y-112841271D01*
X193212778Y-112877009D01*
X193296443Y-113033534D01*
X193347963Y-113203373D01*
X193365359Y-113380000D01*
X193347963Y-113556627D01*
X193296443Y-113726466D01*
X193212778Y-113882991D01*
X193183448Y-113918729D01*
X193100186Y-114020186D01*
X193004149Y-114099000D01*
X192962991Y-114132778D01*
X192806466Y-114216443D01*
X192636627Y-114267963D01*
X192570442Y-114274482D01*
X192504260Y-114281000D01*
X192415740Y-114281000D01*
X192349558Y-114274482D01*
X192283373Y-114267963D01*
X192113534Y-114216443D01*
X191957009Y-114132778D01*
X191915851Y-114099000D01*
X191819814Y-114020186D01*
X191736552Y-113918729D01*
X191707222Y-113882991D01*
X191623557Y-113726466D01*
X191572037Y-113556627D01*
X191554641Y-113380000D01*
X191572037Y-113203373D01*
X191623557Y-113033534D01*
X191707222Y-112877009D01*
X191736552Y-112841271D01*
X191819814Y-112739814D01*
X191922155Y-112655826D01*
X191957009Y-112627222D01*
X192113534Y-112543557D01*
X192283373Y-112492037D01*
X192349558Y-112485518D01*
X192415740Y-112479000D01*
X192504260Y-112479000D01*
X192570442Y-112485518D01*
X192570442Y-112485518D01*
G37*
G36*
X117731560Y-111379064D02*
G01*
X117883027Y-111409193D01*
X118097045Y-111497842D01*
X118097046Y-111497843D01*
X118289654Y-111626539D01*
X118453461Y-111790346D01*
X118473151Y-111819815D01*
X118582158Y-111982955D01*
X118670807Y-112196973D01*
X118716000Y-112424174D01*
X118716000Y-112655826D01*
X118670807Y-112883027D01*
X118582158Y-113097045D01*
X118582157Y-113097046D01*
X118453461Y-113289654D01*
X118289654Y-113453461D01*
X118161249Y-113539258D01*
X118097045Y-113582158D01*
X117883027Y-113670807D01*
X117731560Y-113700936D01*
X117655827Y-113716000D01*
X117424173Y-113716000D01*
X117348440Y-113700936D01*
X117196973Y-113670807D01*
X116982955Y-113582158D01*
X116918751Y-113539258D01*
X116790346Y-113453461D01*
X116626539Y-113289654D01*
X116497843Y-113097046D01*
X116497842Y-113097045D01*
X116409193Y-112883027D01*
X116364000Y-112655826D01*
X116364000Y-112424174D01*
X116409193Y-112196973D01*
X116497842Y-111982955D01*
X116606849Y-111819815D01*
X116626539Y-111790346D01*
X116790346Y-111626539D01*
X116982954Y-111497843D01*
X116982955Y-111497842D01*
X117196973Y-111409193D01*
X117348440Y-111379064D01*
X117424173Y-111364000D01*
X117655827Y-111364000D01*
X117731560Y-111379064D01*
X117731560Y-111379064D01*
G37*
G36*
X112651560Y-111379064D02*
G01*
X112803027Y-111409193D01*
X113017045Y-111497842D01*
X113017046Y-111497843D01*
X113209654Y-111626539D01*
X113373461Y-111790346D01*
X113393151Y-111819815D01*
X113502158Y-111982955D01*
X113590807Y-112196973D01*
X113636000Y-112424174D01*
X113636000Y-112655826D01*
X113590807Y-112883027D01*
X113502158Y-113097045D01*
X113502157Y-113097046D01*
X113373461Y-113289654D01*
X113209654Y-113453461D01*
X113081249Y-113539258D01*
X113017045Y-113582158D01*
X112803027Y-113670807D01*
X112651560Y-113700936D01*
X112575827Y-113716000D01*
X112344173Y-113716000D01*
X112268440Y-113700936D01*
X112116973Y-113670807D01*
X111902955Y-113582158D01*
X111838751Y-113539258D01*
X111710346Y-113453461D01*
X111546539Y-113289654D01*
X111417843Y-113097046D01*
X111417842Y-113097045D01*
X111329193Y-112883027D01*
X111284000Y-112655826D01*
X111284000Y-112424174D01*
X111329193Y-112196973D01*
X111417842Y-111982955D01*
X111526849Y-111819815D01*
X111546539Y-111790346D01*
X111710346Y-111626539D01*
X111902954Y-111497843D01*
X111902955Y-111497842D01*
X112116973Y-111409193D01*
X112268440Y-111379064D01*
X112344173Y-111364000D01*
X112575827Y-111364000D01*
X112651560Y-111379064D01*
X112651560Y-111379064D01*
G37*
G36*
X123610442Y-111565518D02*
G01*
X123676627Y-111572037D01*
X123846466Y-111623557D01*
X124002991Y-111707222D01*
X124028264Y-111727963D01*
X124140186Y-111819814D01*
X124223448Y-111921271D01*
X124252778Y-111957009D01*
X124336443Y-112113534D01*
X124387963Y-112283373D01*
X124405359Y-112460000D01*
X124387963Y-112636627D01*
X124336443Y-112806466D01*
X124252778Y-112962991D01*
X124223448Y-112998729D01*
X124140186Y-113100186D01*
X124038729Y-113183448D01*
X124002991Y-113212778D01*
X124002989Y-113212779D01*
X123859164Y-113289656D01*
X123846466Y-113296443D01*
X123676627Y-113347963D01*
X123610443Y-113354481D01*
X123544260Y-113361000D01*
X123455740Y-113361000D01*
X123389557Y-113354481D01*
X123323373Y-113347963D01*
X123153534Y-113296443D01*
X123140837Y-113289656D01*
X122997011Y-113212779D01*
X122997009Y-113212778D01*
X122961271Y-113183448D01*
X122859814Y-113100186D01*
X122776552Y-112998729D01*
X122747222Y-112962991D01*
X122663557Y-112806466D01*
X122612037Y-112636627D01*
X122594641Y-112460000D01*
X122612037Y-112283373D01*
X122663557Y-112113534D01*
X122747222Y-111957009D01*
X122776552Y-111921271D01*
X122859814Y-111819814D01*
X122971736Y-111727963D01*
X122997009Y-111707222D01*
X123153534Y-111623557D01*
X123323373Y-111572037D01*
X123389558Y-111565518D01*
X123455740Y-111559000D01*
X123544260Y-111559000D01*
X123610442Y-111565518D01*
X123610442Y-111565518D01*
G37*
G36*
X192570443Y-109945519D02*
G01*
X192636627Y-109952037D01*
X192806466Y-110003557D01*
X192962991Y-110087222D01*
X192997845Y-110115826D01*
X193100186Y-110199814D01*
X193183448Y-110301271D01*
X193212778Y-110337009D01*
X193296443Y-110493534D01*
X193347963Y-110663373D01*
X193365359Y-110840000D01*
X193347963Y-111016627D01*
X193296443Y-111186466D01*
X193212778Y-111342991D01*
X193195536Y-111364000D01*
X193100186Y-111480186D01*
X193004149Y-111559000D01*
X192962991Y-111592778D01*
X192806466Y-111676443D01*
X192636627Y-111727963D01*
X192570442Y-111734482D01*
X192504260Y-111741000D01*
X192415740Y-111741000D01*
X192349558Y-111734482D01*
X192283373Y-111727963D01*
X192113534Y-111676443D01*
X191957009Y-111592778D01*
X191915851Y-111559000D01*
X191819814Y-111480186D01*
X191724464Y-111364000D01*
X191707222Y-111342991D01*
X191623557Y-111186466D01*
X191572037Y-111016627D01*
X191554641Y-110840000D01*
X191572037Y-110663373D01*
X191623557Y-110493534D01*
X191707222Y-110337009D01*
X191736552Y-110301271D01*
X191819814Y-110199814D01*
X191922155Y-110115826D01*
X191957009Y-110087222D01*
X192113534Y-110003557D01*
X192283373Y-109952037D01*
X192349557Y-109945519D01*
X192415740Y-109939000D01*
X192504260Y-109939000D01*
X192570443Y-109945519D01*
X192570443Y-109945519D01*
G37*
G36*
X195110443Y-109945519D02*
G01*
X195176627Y-109952037D01*
X195346466Y-110003557D01*
X195502991Y-110087222D01*
X195537845Y-110115826D01*
X195640186Y-110199814D01*
X195723448Y-110301271D01*
X195752778Y-110337009D01*
X195836443Y-110493534D01*
X195887963Y-110663373D01*
X195905359Y-110840000D01*
X195887963Y-111016627D01*
X195836443Y-111186466D01*
X195752778Y-111342991D01*
X195735536Y-111364000D01*
X195640186Y-111480186D01*
X195544149Y-111559000D01*
X195502991Y-111592778D01*
X195346466Y-111676443D01*
X195176627Y-111727963D01*
X195110442Y-111734482D01*
X195044260Y-111741000D01*
X194955740Y-111741000D01*
X194889558Y-111734482D01*
X194823373Y-111727963D01*
X194653534Y-111676443D01*
X194497009Y-111592778D01*
X194455851Y-111559000D01*
X194359814Y-111480186D01*
X194264464Y-111364000D01*
X194247222Y-111342991D01*
X194163557Y-111186466D01*
X194112037Y-111016627D01*
X194094641Y-110840000D01*
X194112037Y-110663373D01*
X194163557Y-110493534D01*
X194247222Y-110337009D01*
X194276552Y-110301271D01*
X194359814Y-110199814D01*
X194462155Y-110115826D01*
X194497009Y-110087222D01*
X194653534Y-110003557D01*
X194823373Y-109952037D01*
X194889557Y-109945519D01*
X194955740Y-109939000D01*
X195044260Y-109939000D01*
X195110443Y-109945519D01*
X195110443Y-109945519D01*
G37*
G36*
X115191560Y-108839064D02*
G01*
X115343027Y-108869193D01*
X115557045Y-108957842D01*
X115557046Y-108957843D01*
X115749654Y-109086539D01*
X115913461Y-109250346D01*
X115999258Y-109378751D01*
X116042158Y-109442955D01*
X116130807Y-109656973D01*
X116176000Y-109884174D01*
X116176000Y-110115826D01*
X116130807Y-110343027D01*
X116042158Y-110557045D01*
X116042157Y-110557046D01*
X115913461Y-110749654D01*
X115749654Y-110913461D01*
X115621249Y-110999258D01*
X115557045Y-111042158D01*
X115343027Y-111130807D01*
X115191560Y-111160936D01*
X115115827Y-111176000D01*
X114884173Y-111176000D01*
X114808440Y-111160936D01*
X114656973Y-111130807D01*
X114442955Y-111042158D01*
X114378751Y-110999258D01*
X114250346Y-110913461D01*
X114086539Y-110749654D01*
X113957843Y-110557046D01*
X113957842Y-110557045D01*
X113869193Y-110343027D01*
X113824000Y-110115826D01*
X113824000Y-109884174D01*
X113869193Y-109656973D01*
X113957842Y-109442955D01*
X114000742Y-109378751D01*
X114086539Y-109250346D01*
X114250346Y-109086539D01*
X114442954Y-108957843D01*
X114442955Y-108957842D01*
X114656973Y-108869193D01*
X114808440Y-108839064D01*
X114884173Y-108824000D01*
X115115827Y-108824000D01*
X115191560Y-108839064D01*
X115191560Y-108839064D01*
G37*
G36*
X192570443Y-107405519D02*
G01*
X192636627Y-107412037D01*
X192806466Y-107463557D01*
X192962991Y-107547222D01*
X192997845Y-107575826D01*
X193100186Y-107659814D01*
X193183448Y-107761271D01*
X193212778Y-107797009D01*
X193296443Y-107953534D01*
X193347963Y-108123373D01*
X193365359Y-108300000D01*
X193347963Y-108476627D01*
X193296443Y-108646466D01*
X193212778Y-108802991D01*
X193195536Y-108824000D01*
X193100186Y-108940186D01*
X192998729Y-109023448D01*
X192962991Y-109052778D01*
X192806466Y-109136443D01*
X192636627Y-109187963D01*
X192570442Y-109194482D01*
X192504260Y-109201000D01*
X192415740Y-109201000D01*
X192349558Y-109194482D01*
X192283373Y-109187963D01*
X192113534Y-109136443D01*
X191957009Y-109052778D01*
X191921271Y-109023448D01*
X191819814Y-108940186D01*
X191724464Y-108824000D01*
X191707222Y-108802991D01*
X191623557Y-108646466D01*
X191572037Y-108476627D01*
X191554641Y-108300000D01*
X191572037Y-108123373D01*
X191623557Y-107953534D01*
X191707222Y-107797009D01*
X191736552Y-107761271D01*
X191819814Y-107659814D01*
X191922155Y-107575826D01*
X191957009Y-107547222D01*
X192113534Y-107463557D01*
X192283373Y-107412037D01*
X192349557Y-107405519D01*
X192415740Y-107399000D01*
X192504260Y-107399000D01*
X192570443Y-107405519D01*
X192570443Y-107405519D01*
G37*
G36*
X195110443Y-107405519D02*
G01*
X195176627Y-107412037D01*
X195346466Y-107463557D01*
X195502991Y-107547222D01*
X195537845Y-107575826D01*
X195640186Y-107659814D01*
X195723448Y-107761271D01*
X195752778Y-107797009D01*
X195836443Y-107953534D01*
X195887963Y-108123373D01*
X195905359Y-108300000D01*
X195887963Y-108476627D01*
X195836443Y-108646466D01*
X195752778Y-108802991D01*
X195735536Y-108824000D01*
X195640186Y-108940186D01*
X195538729Y-109023448D01*
X195502991Y-109052778D01*
X195346466Y-109136443D01*
X195176627Y-109187963D01*
X195110442Y-109194482D01*
X195044260Y-109201000D01*
X194955740Y-109201000D01*
X194889558Y-109194482D01*
X194823373Y-109187963D01*
X194653534Y-109136443D01*
X194497009Y-109052778D01*
X194461271Y-109023448D01*
X194359814Y-108940186D01*
X194264464Y-108824000D01*
X194247222Y-108802991D01*
X194163557Y-108646466D01*
X194112037Y-108476627D01*
X194094641Y-108300000D01*
X194112037Y-108123373D01*
X194163557Y-107953534D01*
X194247222Y-107797009D01*
X194276552Y-107761271D01*
X194359814Y-107659814D01*
X194462155Y-107575826D01*
X194497009Y-107547222D01*
X194653534Y-107463557D01*
X194823373Y-107412037D01*
X194889557Y-107405519D01*
X194955740Y-107399000D01*
X195044260Y-107399000D01*
X195110443Y-107405519D01*
X195110443Y-107405519D01*
G37*
G36*
X117731560Y-106299064D02*
G01*
X117883027Y-106329193D01*
X118097045Y-106417842D01*
X118097046Y-106417843D01*
X118289654Y-106546539D01*
X118453461Y-106710346D01*
X118539258Y-106838751D01*
X118582158Y-106902955D01*
X118670807Y-107116973D01*
X118716000Y-107344174D01*
X118716000Y-107575826D01*
X118670807Y-107803027D01*
X118582158Y-108017045D01*
X118582157Y-108017046D01*
X118453461Y-108209654D01*
X118289654Y-108373461D01*
X118161249Y-108459258D01*
X118097045Y-108502158D01*
X117883027Y-108590807D01*
X117731560Y-108620936D01*
X117655827Y-108636000D01*
X117424173Y-108636000D01*
X117348440Y-108620936D01*
X117196973Y-108590807D01*
X116982955Y-108502158D01*
X116918751Y-108459258D01*
X116790346Y-108373461D01*
X116626539Y-108209654D01*
X116497843Y-108017046D01*
X116497842Y-108017045D01*
X116409193Y-107803027D01*
X116364000Y-107575826D01*
X116364000Y-107344174D01*
X116409193Y-107116973D01*
X116497842Y-106902955D01*
X116540742Y-106838751D01*
X116626539Y-106710346D01*
X116790346Y-106546539D01*
X116982954Y-106417843D01*
X116982955Y-106417842D01*
X117196973Y-106329193D01*
X117348440Y-106299064D01*
X117424173Y-106284000D01*
X117655827Y-106284000D01*
X117731560Y-106299064D01*
X117731560Y-106299064D01*
G37*
G36*
X112651560Y-106299064D02*
G01*
X112803027Y-106329193D01*
X113017045Y-106417842D01*
X113017046Y-106417843D01*
X113209654Y-106546539D01*
X113373461Y-106710346D01*
X113459258Y-106838751D01*
X113502158Y-106902955D01*
X113590807Y-107116973D01*
X113636000Y-107344174D01*
X113636000Y-107575826D01*
X113590807Y-107803027D01*
X113502158Y-108017045D01*
X113502157Y-108017046D01*
X113373461Y-108209654D01*
X113209654Y-108373461D01*
X113081249Y-108459258D01*
X113017045Y-108502158D01*
X112803027Y-108590807D01*
X112651560Y-108620936D01*
X112575827Y-108636000D01*
X112344173Y-108636000D01*
X112268440Y-108620936D01*
X112116973Y-108590807D01*
X111902955Y-108502158D01*
X111838751Y-108459258D01*
X111710346Y-108373461D01*
X111546539Y-108209654D01*
X111417843Y-108017046D01*
X111417842Y-108017045D01*
X111329193Y-107803027D01*
X111284000Y-107575826D01*
X111284000Y-107344174D01*
X111329193Y-107116973D01*
X111417842Y-106902955D01*
X111460742Y-106838751D01*
X111546539Y-106710346D01*
X111710346Y-106546539D01*
X111902954Y-106417843D01*
X111902955Y-106417842D01*
X112116973Y-106329193D01*
X112268440Y-106299064D01*
X112344173Y-106284000D01*
X112575827Y-106284000D01*
X112651560Y-106299064D01*
X112651560Y-106299064D01*
G37*
G36*
X192570442Y-104865518D02*
G01*
X192636627Y-104872037D01*
X192806466Y-104923557D01*
X192962991Y-105007222D01*
X192998729Y-105036552D01*
X193100186Y-105119814D01*
X193183448Y-105221271D01*
X193212778Y-105257009D01*
X193296443Y-105413534D01*
X193347963Y-105583373D01*
X193365359Y-105760000D01*
X193347963Y-105936627D01*
X193296443Y-106106466D01*
X193212778Y-106262991D01*
X193195536Y-106284000D01*
X193100186Y-106400186D01*
X192998729Y-106483448D01*
X192962991Y-106512778D01*
X192806466Y-106596443D01*
X192636627Y-106647963D01*
X192570443Y-106654481D01*
X192504260Y-106661000D01*
X192415740Y-106661000D01*
X192349557Y-106654481D01*
X192283373Y-106647963D01*
X192113534Y-106596443D01*
X191957009Y-106512778D01*
X191921271Y-106483448D01*
X191819814Y-106400186D01*
X191724464Y-106284000D01*
X191707222Y-106262991D01*
X191623557Y-106106466D01*
X191572037Y-105936627D01*
X191554641Y-105760000D01*
X191572037Y-105583373D01*
X191623557Y-105413534D01*
X191707222Y-105257009D01*
X191736552Y-105221271D01*
X191819814Y-105119814D01*
X191921271Y-105036552D01*
X191957009Y-105007222D01*
X192113534Y-104923557D01*
X192283373Y-104872037D01*
X192349558Y-104865518D01*
X192415740Y-104859000D01*
X192504260Y-104859000D01*
X192570442Y-104865518D01*
X192570442Y-104865518D01*
G37*
G36*
X195110442Y-104865518D02*
G01*
X195176627Y-104872037D01*
X195346466Y-104923557D01*
X195502991Y-105007222D01*
X195538729Y-105036552D01*
X195640186Y-105119814D01*
X195723448Y-105221271D01*
X195752778Y-105257009D01*
X195836443Y-105413534D01*
X195887963Y-105583373D01*
X195905359Y-105760000D01*
X195887963Y-105936627D01*
X195836443Y-106106466D01*
X195752778Y-106262991D01*
X195735536Y-106284000D01*
X195640186Y-106400186D01*
X195538729Y-106483448D01*
X195502991Y-106512778D01*
X195346466Y-106596443D01*
X195176627Y-106647963D01*
X195110443Y-106654481D01*
X195044260Y-106661000D01*
X194955740Y-106661000D01*
X194889557Y-106654481D01*
X194823373Y-106647963D01*
X194653534Y-106596443D01*
X194497009Y-106512778D01*
X194461271Y-106483448D01*
X194359814Y-106400186D01*
X194264464Y-106284000D01*
X194247222Y-106262991D01*
X194163557Y-106106466D01*
X194112037Y-105936627D01*
X194094641Y-105760000D01*
X194112037Y-105583373D01*
X194163557Y-105413534D01*
X194247222Y-105257009D01*
X194276552Y-105221271D01*
X194359814Y-105119814D01*
X194461271Y-105036552D01*
X194497009Y-105007222D01*
X194653534Y-104923557D01*
X194823373Y-104872037D01*
X194889558Y-104865518D01*
X194955740Y-104859000D01*
X195044260Y-104859000D01*
X195110442Y-104865518D01*
X195110442Y-104865518D01*
G37*
G36*
X192570442Y-102325518D02*
G01*
X192636627Y-102332037D01*
X192806466Y-102383557D01*
X192962991Y-102467222D01*
X192998729Y-102496552D01*
X193100186Y-102579814D01*
X193183448Y-102681271D01*
X193212778Y-102717009D01*
X193296443Y-102873534D01*
X193347963Y-103043373D01*
X193365359Y-103220000D01*
X193347963Y-103396627D01*
X193296443Y-103566466D01*
X193212778Y-103722991D01*
X193183448Y-103758729D01*
X193100186Y-103860186D01*
X192998729Y-103943448D01*
X192962991Y-103972778D01*
X192806466Y-104056443D01*
X192636627Y-104107963D01*
X192570443Y-104114481D01*
X192504260Y-104121000D01*
X192415740Y-104121000D01*
X192349558Y-104114482D01*
X192283373Y-104107963D01*
X192113534Y-104056443D01*
X191957009Y-103972778D01*
X191921271Y-103943448D01*
X191819814Y-103860186D01*
X191736552Y-103758729D01*
X191707222Y-103722991D01*
X191623557Y-103566466D01*
X191572037Y-103396627D01*
X191554641Y-103220000D01*
X191572037Y-103043373D01*
X191623557Y-102873534D01*
X191707222Y-102717009D01*
X191736552Y-102681271D01*
X191819814Y-102579814D01*
X191921271Y-102496552D01*
X191957009Y-102467222D01*
X192113534Y-102383557D01*
X192283373Y-102332037D01*
X192349557Y-102325519D01*
X192415740Y-102319000D01*
X192504260Y-102319000D01*
X192570442Y-102325518D01*
X192570442Y-102325518D01*
G37*
G36*
X195110442Y-102325518D02*
G01*
X195176627Y-102332037D01*
X195346466Y-102383557D01*
X195502991Y-102467222D01*
X195538729Y-102496552D01*
X195640186Y-102579814D01*
X195723448Y-102681271D01*
X195752778Y-102717009D01*
X195836443Y-102873534D01*
X195887963Y-103043373D01*
X195905359Y-103220000D01*
X195887963Y-103396627D01*
X195836443Y-103566466D01*
X195752778Y-103722991D01*
X195723448Y-103758729D01*
X195640186Y-103860186D01*
X195538729Y-103943448D01*
X195502991Y-103972778D01*
X195346466Y-104056443D01*
X195176627Y-104107963D01*
X195110443Y-104114481D01*
X195044260Y-104121000D01*
X194955740Y-104121000D01*
X194889558Y-104114482D01*
X194823373Y-104107963D01*
X194653534Y-104056443D01*
X194497009Y-103972778D01*
X194461271Y-103943448D01*
X194359814Y-103860186D01*
X194276552Y-103758729D01*
X194247222Y-103722991D01*
X194163557Y-103566466D01*
X194112037Y-103396627D01*
X194094641Y-103220000D01*
X194112037Y-103043373D01*
X194163557Y-102873534D01*
X194247222Y-102717009D01*
X194276552Y-102681271D01*
X194359814Y-102579814D01*
X194461271Y-102496552D01*
X194497009Y-102467222D01*
X194653534Y-102383557D01*
X194823373Y-102332037D01*
X194889557Y-102325519D01*
X194955740Y-102319000D01*
X195044260Y-102319000D01*
X195110442Y-102325518D01*
X195110442Y-102325518D01*
G37*
G36*
X192570443Y-99785519D02*
G01*
X192636627Y-99792037D01*
X192806466Y-99843557D01*
X192962991Y-99927222D01*
X192998729Y-99956552D01*
X193100186Y-100039814D01*
X193183448Y-100141271D01*
X193212778Y-100177009D01*
X193296443Y-100333534D01*
X193347963Y-100503373D01*
X193365359Y-100680000D01*
X193347963Y-100856627D01*
X193296443Y-101026466D01*
X193212778Y-101182991D01*
X193183448Y-101218729D01*
X193100186Y-101320186D01*
X192998729Y-101403448D01*
X192962991Y-101432778D01*
X192806466Y-101516443D01*
X192636627Y-101567963D01*
X192570442Y-101574482D01*
X192504260Y-101581000D01*
X192415740Y-101581000D01*
X192349557Y-101574481D01*
X192283373Y-101567963D01*
X192113534Y-101516443D01*
X191957009Y-101432778D01*
X191921271Y-101403448D01*
X191819814Y-101320186D01*
X191736552Y-101218729D01*
X191707222Y-101182991D01*
X191623557Y-101026466D01*
X191572037Y-100856627D01*
X191554641Y-100680000D01*
X191572037Y-100503373D01*
X191623557Y-100333534D01*
X191707222Y-100177009D01*
X191736552Y-100141271D01*
X191819814Y-100039814D01*
X191921271Y-99956552D01*
X191957009Y-99927222D01*
X192113534Y-99843557D01*
X192283373Y-99792037D01*
X192349558Y-99785518D01*
X192415740Y-99779000D01*
X192504260Y-99779000D01*
X192570443Y-99785519D01*
X192570443Y-99785519D01*
G37*
G36*
X195110443Y-99785519D02*
G01*
X195176627Y-99792037D01*
X195346466Y-99843557D01*
X195502991Y-99927222D01*
X195538729Y-99956552D01*
X195640186Y-100039814D01*
X195723448Y-100141271D01*
X195752778Y-100177009D01*
X195836443Y-100333534D01*
X195887963Y-100503373D01*
X195905359Y-100680000D01*
X195887963Y-100856627D01*
X195836443Y-101026466D01*
X195752778Y-101182991D01*
X195723448Y-101218729D01*
X195640186Y-101320186D01*
X195538729Y-101403448D01*
X195502991Y-101432778D01*
X195346466Y-101516443D01*
X195176627Y-101567963D01*
X195110442Y-101574482D01*
X195044260Y-101581000D01*
X194955740Y-101581000D01*
X194889557Y-101574481D01*
X194823373Y-101567963D01*
X194653534Y-101516443D01*
X194497009Y-101432778D01*
X194461271Y-101403448D01*
X194359814Y-101320186D01*
X194276552Y-101218729D01*
X194247222Y-101182991D01*
X194163557Y-101026466D01*
X194112037Y-100856627D01*
X194094641Y-100680000D01*
X194112037Y-100503373D01*
X194163557Y-100333534D01*
X194247222Y-100177009D01*
X194276552Y-100141271D01*
X194359814Y-100039814D01*
X194461271Y-99956552D01*
X194497009Y-99927222D01*
X194653534Y-99843557D01*
X194823373Y-99792037D01*
X194889558Y-99785518D01*
X194955740Y-99779000D01*
X195044260Y-99779000D01*
X195110443Y-99785519D01*
X195110443Y-99785519D01*
G37*
G36*
X195110443Y-97245519D02*
G01*
X195176627Y-97252037D01*
X195346466Y-97303557D01*
X195502991Y-97387222D01*
X195538729Y-97416552D01*
X195640186Y-97499814D01*
X195723448Y-97601271D01*
X195752778Y-97637009D01*
X195836443Y-97793534D01*
X195887963Y-97963373D01*
X195905359Y-98140000D01*
X195887963Y-98316627D01*
X195836443Y-98486466D01*
X195752778Y-98642991D01*
X195723448Y-98678729D01*
X195640186Y-98780186D01*
X195538729Y-98863448D01*
X195502991Y-98892778D01*
X195346466Y-98976443D01*
X195176627Y-99027963D01*
X195110442Y-99034482D01*
X195044260Y-99041000D01*
X194955740Y-99041000D01*
X194889557Y-99034481D01*
X194823373Y-99027963D01*
X194653534Y-98976443D01*
X194497009Y-98892778D01*
X194461271Y-98863448D01*
X194359814Y-98780186D01*
X194276552Y-98678729D01*
X194247222Y-98642991D01*
X194163557Y-98486466D01*
X194112037Y-98316627D01*
X194094641Y-98140000D01*
X194112037Y-97963373D01*
X194163557Y-97793534D01*
X194247222Y-97637009D01*
X194276552Y-97601271D01*
X194359814Y-97499814D01*
X194461271Y-97416552D01*
X194497009Y-97387222D01*
X194653534Y-97303557D01*
X194823373Y-97252037D01*
X194889557Y-97245519D01*
X194955740Y-97239000D01*
X195044260Y-97239000D01*
X195110443Y-97245519D01*
X195110443Y-97245519D01*
G37*
G36*
X192570443Y-97245519D02*
G01*
X192636627Y-97252037D01*
X192806466Y-97303557D01*
X192962991Y-97387222D01*
X192998729Y-97416552D01*
X193100186Y-97499814D01*
X193183448Y-97601271D01*
X193212778Y-97637009D01*
X193296443Y-97793534D01*
X193347963Y-97963373D01*
X193365359Y-98140000D01*
X193347963Y-98316627D01*
X193296443Y-98486466D01*
X193212778Y-98642991D01*
X193183448Y-98678729D01*
X193100186Y-98780186D01*
X192998729Y-98863448D01*
X192962991Y-98892778D01*
X192806466Y-98976443D01*
X192636627Y-99027963D01*
X192570442Y-99034482D01*
X192504260Y-99041000D01*
X192415740Y-99041000D01*
X192349557Y-99034481D01*
X192283373Y-99027963D01*
X192113534Y-98976443D01*
X191957009Y-98892778D01*
X191921271Y-98863448D01*
X191819814Y-98780186D01*
X191736552Y-98678729D01*
X191707222Y-98642991D01*
X191623557Y-98486466D01*
X191572037Y-98316627D01*
X191554641Y-98140000D01*
X191572037Y-97963373D01*
X191623557Y-97793534D01*
X191707222Y-97637009D01*
X191736552Y-97601271D01*
X191819814Y-97499814D01*
X191921271Y-97416552D01*
X191957009Y-97387222D01*
X192113534Y-97303557D01*
X192283373Y-97252037D01*
X192349557Y-97245519D01*
X192415740Y-97239000D01*
X192504260Y-97239000D01*
X192570443Y-97245519D01*
X192570443Y-97245519D01*
G37*
M02*
