M48
; DRILL file {KiCad 5.1.4-e60b266~84~ubuntu18.04.1} date Mo 09 Sep 2019 22:30:46 CEST
; FORMAT={-:-/ absolute / inch / decimal}
; #@! TF.CreationDate,2019-09-09T22:30:46+02:00
; #@! TF.GenerationSoftware,Kicad,Pcbnew,5.1.4-e60b266~84~ubuntu18.04.1
; #@! TF.FileFunction,Plated,1,2,PTH
FMAT,2
INCH
T1C0.0157
T2C0.0374
T3C0.0394
T4C0.0591
%
G90
G05
T1
X4.7441Y-4.3701
X4.8819Y-4.1929
X5.0591Y-4.5079
X5.2Y-4.7
X5.2165Y-4.311
X5.2953Y-5.0984
X5.4Y-4.85
X5.4331Y-4.4488
X5.4921Y-4.1535
X5.4921Y-4.4488
X5.4921Y-5.3543
X5.5517Y-4.6649
X5.5709Y-3.9961
X5.6083Y-3.9567
X5.6693Y-4.2913
X5.6693Y-4.3504
X5.6693Y-4.6654
X5.7Y-3.4
X5.748Y-4.3701
X5.7677Y-4.5669
X5.8268Y-3.7205
X5.8268Y-4.1929
X5.85Y-3.5
X5.8858Y-3.878
X5.8858Y-4.1142
X5.9055Y-4.4685
X5.9636Y-4.6467
X5.9646Y-3.6417
X5.9843Y-5.2953
X6.063Y-4.3307
X6.122Y-4.6654
X6.1417Y-3.7008
X6.1417Y-4.0157
X6.1614Y-4.2323
X6.2Y-4.9
X6.2795Y-5.0591
X6.2992Y-5.2953
X6.3386Y-4.3307
X6.3583Y-4.4508
X6.3976Y-4.0157
X6.4Y-4.9
X6.4173Y-3.3858
X6.4567Y-3.7795
X6.5157Y-4.6063
X6.5157Y-4.7244
X6.5748Y-4.3307
X6.65Y-3.3
X6.6535Y-4.3307
X6.7Y-4.9
X6.8Y-4.8
X6.8Y-5.1
X6.811Y-3.878
X6.85Y-4.8
X6.85Y-5.1
X7.0Y-4.9
X7.0Y-5.0
X7.05Y-4.9
X7.05Y-5.0
X7.126Y-3.8386
X7.185Y-4.9803
X7.2244Y-4.4094
X7.3031Y-4.1339
X7.4213Y-4.7244
X7.4606Y-4.0157
X7.6969Y-4.9606
T2
X6.4961Y-5.2953
X6.5945Y-5.2953
X6.6929Y-5.2953
T3
X4.8622Y-4.4276
X4.8622Y-4.5276
X7.5772Y-3.8638
X7.5772Y-3.9638
X7.5772Y-4.0638
X7.5772Y-4.1638
X7.5772Y-4.2638
X7.5772Y-4.3638
X7.5772Y-4.4638
X7.5772Y-4.5638
X7.5772Y-4.6638
X7.5772Y-4.7638
X7.6772Y-3.8638
X7.6772Y-3.9638
X7.6772Y-4.0638
X7.6772Y-4.1638
X7.6772Y-4.2638
X7.6772Y-4.3638
X7.6772Y-4.4638
X7.6772Y-4.5638
X7.6772Y-4.6638
X7.6772Y-4.7638
T4
X4.4276Y-4.2307
X4.4276Y-4.4307
X4.5276Y-4.3307
X4.6276Y-4.2307
X4.6276Y-4.4307
T0
M30
