G04 #@! TF.GenerationSoftware,KiCad,Pcbnew,5.1.4-e60b266~84~ubuntu18.04.1*
G04 #@! TF.CreationDate,2019-09-09T22:31:15+02:00*
G04 #@! TF.ProjectId,Frontend_test,46726f6e-7465-46e6-945f-746573742e6b,rev?*
G04 #@! TF.SameCoordinates,Original*
G04 #@! TF.FileFunction,Paste,Top*
G04 #@! TF.FilePolarity,Positive*
%FSLAX46Y46*%
G04 Gerber Fmt 4.6, Leading zero omitted, Abs format (unit mm)*
G04 Created by KiCad (PCBNEW 5.1.4-e60b266~84~ubuntu18.04.1) date 2019-09-09 22:31:15*
%MOMM*%
%LPD*%
G04 APERTURE LIST*
%ADD10C,0.150000*%
%ADD11C,1.150000*%
%ADD12C,1.425000*%
%ADD13R,0.250000X0.700000*%
%ADD14R,0.670000X0.685000*%
%ADD15C,0.600000*%
%ADD16R,0.450000X1.450000*%
%ADD17R,0.600000X0.450000*%
%ADD18R,0.800000X0.900000*%
%ADD19R,2.000000X1.500000*%
%ADD20R,2.000000X3.800000*%
%ADD21R,1.400000X0.300000*%
G04 APERTURE END LIST*
D10*
G36*
X179974505Y-104451204D02*
G01*
X179998773Y-104454804D01*
X180022572Y-104460765D01*
X180045671Y-104469030D01*
X180067850Y-104479520D01*
X180088893Y-104492132D01*
X180108599Y-104506747D01*
X180126777Y-104523223D01*
X180143253Y-104541401D01*
X180157868Y-104561107D01*
X180170480Y-104582150D01*
X180180970Y-104604329D01*
X180189235Y-104627428D01*
X180195196Y-104651227D01*
X180198796Y-104675495D01*
X180200000Y-104699999D01*
X180200000Y-105350001D01*
X180198796Y-105374505D01*
X180195196Y-105398773D01*
X180189235Y-105422572D01*
X180180970Y-105445671D01*
X180170480Y-105467850D01*
X180157868Y-105488893D01*
X180143253Y-105508599D01*
X180126777Y-105526777D01*
X180108599Y-105543253D01*
X180088893Y-105557868D01*
X180067850Y-105570480D01*
X180045671Y-105580970D01*
X180022572Y-105589235D01*
X179998773Y-105595196D01*
X179974505Y-105598796D01*
X179950001Y-105600000D01*
X179049999Y-105600000D01*
X179025495Y-105598796D01*
X179001227Y-105595196D01*
X178977428Y-105589235D01*
X178954329Y-105580970D01*
X178932150Y-105570480D01*
X178911107Y-105557868D01*
X178891401Y-105543253D01*
X178873223Y-105526777D01*
X178856747Y-105508599D01*
X178842132Y-105488893D01*
X178829520Y-105467850D01*
X178819030Y-105445671D01*
X178810765Y-105422572D01*
X178804804Y-105398773D01*
X178801204Y-105374505D01*
X178800000Y-105350001D01*
X178800000Y-104699999D01*
X178801204Y-104675495D01*
X178804804Y-104651227D01*
X178810765Y-104627428D01*
X178819030Y-104604329D01*
X178829520Y-104582150D01*
X178842132Y-104561107D01*
X178856747Y-104541401D01*
X178873223Y-104523223D01*
X178891401Y-104506747D01*
X178911107Y-104492132D01*
X178932150Y-104479520D01*
X178954329Y-104469030D01*
X178977428Y-104460765D01*
X179001227Y-104454804D01*
X179025495Y-104451204D01*
X179049999Y-104450000D01*
X179950001Y-104450000D01*
X179974505Y-104451204D01*
X179974505Y-104451204D01*
G37*
D11*
X179500000Y-105025000D03*
D10*
G36*
X179974505Y-102401204D02*
G01*
X179998773Y-102404804D01*
X180022572Y-102410765D01*
X180045671Y-102419030D01*
X180067850Y-102429520D01*
X180088893Y-102442132D01*
X180108599Y-102456747D01*
X180126777Y-102473223D01*
X180143253Y-102491401D01*
X180157868Y-102511107D01*
X180170480Y-102532150D01*
X180180970Y-102554329D01*
X180189235Y-102577428D01*
X180195196Y-102601227D01*
X180198796Y-102625495D01*
X180200000Y-102649999D01*
X180200000Y-103300001D01*
X180198796Y-103324505D01*
X180195196Y-103348773D01*
X180189235Y-103372572D01*
X180180970Y-103395671D01*
X180170480Y-103417850D01*
X180157868Y-103438893D01*
X180143253Y-103458599D01*
X180126777Y-103476777D01*
X180108599Y-103493253D01*
X180088893Y-103507868D01*
X180067850Y-103520480D01*
X180045671Y-103530970D01*
X180022572Y-103539235D01*
X179998773Y-103545196D01*
X179974505Y-103548796D01*
X179950001Y-103550000D01*
X179049999Y-103550000D01*
X179025495Y-103548796D01*
X179001227Y-103545196D01*
X178977428Y-103539235D01*
X178954329Y-103530970D01*
X178932150Y-103520480D01*
X178911107Y-103507868D01*
X178891401Y-103493253D01*
X178873223Y-103476777D01*
X178856747Y-103458599D01*
X178842132Y-103438893D01*
X178829520Y-103417850D01*
X178819030Y-103395671D01*
X178810765Y-103372572D01*
X178804804Y-103348773D01*
X178801204Y-103324505D01*
X178800000Y-103300001D01*
X178800000Y-102649999D01*
X178801204Y-102625495D01*
X178804804Y-102601227D01*
X178810765Y-102577428D01*
X178819030Y-102554329D01*
X178829520Y-102532150D01*
X178842132Y-102511107D01*
X178856747Y-102491401D01*
X178873223Y-102473223D01*
X178891401Y-102456747D01*
X178911107Y-102442132D01*
X178932150Y-102429520D01*
X178954329Y-102419030D01*
X178977428Y-102410765D01*
X179001227Y-102404804D01*
X179025495Y-102401204D01*
X179049999Y-102400000D01*
X179950001Y-102400000D01*
X179974505Y-102401204D01*
X179974505Y-102401204D01*
G37*
D11*
X179500000Y-102975000D03*
D10*
G36*
X148149504Y-129813704D02*
G01*
X148173773Y-129817304D01*
X148197571Y-129823265D01*
X148220671Y-129831530D01*
X148242849Y-129842020D01*
X148263893Y-129854633D01*
X148283598Y-129869247D01*
X148301777Y-129885723D01*
X148318253Y-129903902D01*
X148332867Y-129923607D01*
X148345480Y-129944651D01*
X148355970Y-129966829D01*
X148364235Y-129989929D01*
X148370196Y-130013727D01*
X148373796Y-130037996D01*
X148375000Y-130062500D01*
X148375000Y-130987500D01*
X148373796Y-131012004D01*
X148370196Y-131036273D01*
X148364235Y-131060071D01*
X148355970Y-131083171D01*
X148345480Y-131105349D01*
X148332867Y-131126393D01*
X148318253Y-131146098D01*
X148301777Y-131164277D01*
X148283598Y-131180753D01*
X148263893Y-131195367D01*
X148242849Y-131207980D01*
X148220671Y-131218470D01*
X148197571Y-131226735D01*
X148173773Y-131232696D01*
X148149504Y-131236296D01*
X148125000Y-131237500D01*
X146875000Y-131237500D01*
X146850496Y-131236296D01*
X146826227Y-131232696D01*
X146802429Y-131226735D01*
X146779329Y-131218470D01*
X146757151Y-131207980D01*
X146736107Y-131195367D01*
X146716402Y-131180753D01*
X146698223Y-131164277D01*
X146681747Y-131146098D01*
X146667133Y-131126393D01*
X146654520Y-131105349D01*
X146644030Y-131083171D01*
X146635765Y-131060071D01*
X146629804Y-131036273D01*
X146626204Y-131012004D01*
X146625000Y-130987500D01*
X146625000Y-130062500D01*
X146626204Y-130037996D01*
X146629804Y-130013727D01*
X146635765Y-129989929D01*
X146644030Y-129966829D01*
X146654520Y-129944651D01*
X146667133Y-129923607D01*
X146681747Y-129903902D01*
X146698223Y-129885723D01*
X146716402Y-129869247D01*
X146736107Y-129854633D01*
X146757151Y-129842020D01*
X146779329Y-129831530D01*
X146802429Y-129823265D01*
X146826227Y-129817304D01*
X146850496Y-129813704D01*
X146875000Y-129812500D01*
X148125000Y-129812500D01*
X148149504Y-129813704D01*
X148149504Y-129813704D01*
G37*
D12*
X147500000Y-130525000D03*
D10*
G36*
X148149504Y-132788704D02*
G01*
X148173773Y-132792304D01*
X148197571Y-132798265D01*
X148220671Y-132806530D01*
X148242849Y-132817020D01*
X148263893Y-132829633D01*
X148283598Y-132844247D01*
X148301777Y-132860723D01*
X148318253Y-132878902D01*
X148332867Y-132898607D01*
X148345480Y-132919651D01*
X148355970Y-132941829D01*
X148364235Y-132964929D01*
X148370196Y-132988727D01*
X148373796Y-133012996D01*
X148375000Y-133037500D01*
X148375000Y-133962500D01*
X148373796Y-133987004D01*
X148370196Y-134011273D01*
X148364235Y-134035071D01*
X148355970Y-134058171D01*
X148345480Y-134080349D01*
X148332867Y-134101393D01*
X148318253Y-134121098D01*
X148301777Y-134139277D01*
X148283598Y-134155753D01*
X148263893Y-134170367D01*
X148242849Y-134182980D01*
X148220671Y-134193470D01*
X148197571Y-134201735D01*
X148173773Y-134207696D01*
X148149504Y-134211296D01*
X148125000Y-134212500D01*
X146875000Y-134212500D01*
X146850496Y-134211296D01*
X146826227Y-134207696D01*
X146802429Y-134201735D01*
X146779329Y-134193470D01*
X146757151Y-134182980D01*
X146736107Y-134170367D01*
X146716402Y-134155753D01*
X146698223Y-134139277D01*
X146681747Y-134121098D01*
X146667133Y-134101393D01*
X146654520Y-134080349D01*
X146644030Y-134058171D01*
X146635765Y-134035071D01*
X146629804Y-134011273D01*
X146626204Y-133987004D01*
X146625000Y-133962500D01*
X146625000Y-133037500D01*
X146626204Y-133012996D01*
X146629804Y-132988727D01*
X146635765Y-132964929D01*
X146644030Y-132941829D01*
X146654520Y-132919651D01*
X146667133Y-132898607D01*
X146681747Y-132878902D01*
X146698223Y-132860723D01*
X146716402Y-132844247D01*
X146736107Y-132829633D01*
X146757151Y-132817020D01*
X146779329Y-132806530D01*
X146802429Y-132798265D01*
X146826227Y-132792304D01*
X146850496Y-132788704D01*
X146875000Y-132787500D01*
X148125000Y-132787500D01*
X148149504Y-132788704D01*
X148149504Y-132788704D01*
G37*
D12*
X147500000Y-133500000D03*
D10*
G36*
X151799505Y-129301204D02*
G01*
X151823773Y-129304804D01*
X151847572Y-129310765D01*
X151870671Y-129319030D01*
X151892850Y-129329520D01*
X151913893Y-129342132D01*
X151933599Y-129356747D01*
X151951777Y-129373223D01*
X151968253Y-129391401D01*
X151982868Y-129411107D01*
X151995480Y-129432150D01*
X152005970Y-129454329D01*
X152014235Y-129477428D01*
X152020196Y-129501227D01*
X152023796Y-129525495D01*
X152025000Y-129549999D01*
X152025000Y-130450001D01*
X152023796Y-130474505D01*
X152020196Y-130498773D01*
X152014235Y-130522572D01*
X152005970Y-130545671D01*
X151995480Y-130567850D01*
X151982868Y-130588893D01*
X151968253Y-130608599D01*
X151951777Y-130626777D01*
X151933599Y-130643253D01*
X151913893Y-130657868D01*
X151892850Y-130670480D01*
X151870671Y-130680970D01*
X151847572Y-130689235D01*
X151823773Y-130695196D01*
X151799505Y-130698796D01*
X151775001Y-130700000D01*
X151124999Y-130700000D01*
X151100495Y-130698796D01*
X151076227Y-130695196D01*
X151052428Y-130689235D01*
X151029329Y-130680970D01*
X151007150Y-130670480D01*
X150986107Y-130657868D01*
X150966401Y-130643253D01*
X150948223Y-130626777D01*
X150931747Y-130608599D01*
X150917132Y-130588893D01*
X150904520Y-130567850D01*
X150894030Y-130545671D01*
X150885765Y-130522572D01*
X150879804Y-130498773D01*
X150876204Y-130474505D01*
X150875000Y-130450001D01*
X150875000Y-129549999D01*
X150876204Y-129525495D01*
X150879804Y-129501227D01*
X150885765Y-129477428D01*
X150894030Y-129454329D01*
X150904520Y-129432150D01*
X150917132Y-129411107D01*
X150931747Y-129391401D01*
X150948223Y-129373223D01*
X150966401Y-129356747D01*
X150986107Y-129342132D01*
X151007150Y-129329520D01*
X151029329Y-129319030D01*
X151052428Y-129310765D01*
X151076227Y-129304804D01*
X151100495Y-129301204D01*
X151124999Y-129300000D01*
X151775001Y-129300000D01*
X151799505Y-129301204D01*
X151799505Y-129301204D01*
G37*
D11*
X151450000Y-130000000D03*
D10*
G36*
X153849505Y-129301204D02*
G01*
X153873773Y-129304804D01*
X153897572Y-129310765D01*
X153920671Y-129319030D01*
X153942850Y-129329520D01*
X153963893Y-129342132D01*
X153983599Y-129356747D01*
X154001777Y-129373223D01*
X154018253Y-129391401D01*
X154032868Y-129411107D01*
X154045480Y-129432150D01*
X154055970Y-129454329D01*
X154064235Y-129477428D01*
X154070196Y-129501227D01*
X154073796Y-129525495D01*
X154075000Y-129549999D01*
X154075000Y-130450001D01*
X154073796Y-130474505D01*
X154070196Y-130498773D01*
X154064235Y-130522572D01*
X154055970Y-130545671D01*
X154045480Y-130567850D01*
X154032868Y-130588893D01*
X154018253Y-130608599D01*
X154001777Y-130626777D01*
X153983599Y-130643253D01*
X153963893Y-130657868D01*
X153942850Y-130670480D01*
X153920671Y-130680970D01*
X153897572Y-130689235D01*
X153873773Y-130695196D01*
X153849505Y-130698796D01*
X153825001Y-130700000D01*
X153174999Y-130700000D01*
X153150495Y-130698796D01*
X153126227Y-130695196D01*
X153102428Y-130689235D01*
X153079329Y-130680970D01*
X153057150Y-130670480D01*
X153036107Y-130657868D01*
X153016401Y-130643253D01*
X152998223Y-130626777D01*
X152981747Y-130608599D01*
X152967132Y-130588893D01*
X152954520Y-130567850D01*
X152944030Y-130545671D01*
X152935765Y-130522572D01*
X152929804Y-130498773D01*
X152926204Y-130474505D01*
X152925000Y-130450001D01*
X152925000Y-129549999D01*
X152926204Y-129525495D01*
X152929804Y-129501227D01*
X152935765Y-129477428D01*
X152944030Y-129454329D01*
X152954520Y-129432150D01*
X152967132Y-129411107D01*
X152981747Y-129391401D01*
X152998223Y-129373223D01*
X153016401Y-129356747D01*
X153036107Y-129342132D01*
X153057150Y-129329520D01*
X153079329Y-129319030D01*
X153102428Y-129310765D01*
X153126227Y-129304804D01*
X153150495Y-129301204D01*
X153174999Y-129300000D01*
X153825001Y-129300000D01*
X153849505Y-129301204D01*
X153849505Y-129301204D01*
G37*
D11*
X153500000Y-130000000D03*
D10*
G36*
X148149504Y-120776204D02*
G01*
X148173773Y-120779804D01*
X148197571Y-120785765D01*
X148220671Y-120794030D01*
X148242849Y-120804520D01*
X148263893Y-120817133D01*
X148283598Y-120831747D01*
X148301777Y-120848223D01*
X148318253Y-120866402D01*
X148332867Y-120886107D01*
X148345480Y-120907151D01*
X148355970Y-120929329D01*
X148364235Y-120952429D01*
X148370196Y-120976227D01*
X148373796Y-121000496D01*
X148375000Y-121025000D01*
X148375000Y-121950000D01*
X148373796Y-121974504D01*
X148370196Y-121998773D01*
X148364235Y-122022571D01*
X148355970Y-122045671D01*
X148345480Y-122067849D01*
X148332867Y-122088893D01*
X148318253Y-122108598D01*
X148301777Y-122126777D01*
X148283598Y-122143253D01*
X148263893Y-122157867D01*
X148242849Y-122170480D01*
X148220671Y-122180970D01*
X148197571Y-122189235D01*
X148173773Y-122195196D01*
X148149504Y-122198796D01*
X148125000Y-122200000D01*
X146875000Y-122200000D01*
X146850496Y-122198796D01*
X146826227Y-122195196D01*
X146802429Y-122189235D01*
X146779329Y-122180970D01*
X146757151Y-122170480D01*
X146736107Y-122157867D01*
X146716402Y-122143253D01*
X146698223Y-122126777D01*
X146681747Y-122108598D01*
X146667133Y-122088893D01*
X146654520Y-122067849D01*
X146644030Y-122045671D01*
X146635765Y-122022571D01*
X146629804Y-121998773D01*
X146626204Y-121974504D01*
X146625000Y-121950000D01*
X146625000Y-121025000D01*
X146626204Y-121000496D01*
X146629804Y-120976227D01*
X146635765Y-120952429D01*
X146644030Y-120929329D01*
X146654520Y-120907151D01*
X146667133Y-120886107D01*
X146681747Y-120866402D01*
X146698223Y-120848223D01*
X146716402Y-120831747D01*
X146736107Y-120817133D01*
X146757151Y-120804520D01*
X146779329Y-120794030D01*
X146802429Y-120785765D01*
X146826227Y-120779804D01*
X146850496Y-120776204D01*
X146875000Y-120775000D01*
X148125000Y-120775000D01*
X148149504Y-120776204D01*
X148149504Y-120776204D01*
G37*
D12*
X147500000Y-121487500D03*
D10*
G36*
X148149504Y-117801204D02*
G01*
X148173773Y-117804804D01*
X148197571Y-117810765D01*
X148220671Y-117819030D01*
X148242849Y-117829520D01*
X148263893Y-117842133D01*
X148283598Y-117856747D01*
X148301777Y-117873223D01*
X148318253Y-117891402D01*
X148332867Y-117911107D01*
X148345480Y-117932151D01*
X148355970Y-117954329D01*
X148364235Y-117977429D01*
X148370196Y-118001227D01*
X148373796Y-118025496D01*
X148375000Y-118050000D01*
X148375000Y-118975000D01*
X148373796Y-118999504D01*
X148370196Y-119023773D01*
X148364235Y-119047571D01*
X148355970Y-119070671D01*
X148345480Y-119092849D01*
X148332867Y-119113893D01*
X148318253Y-119133598D01*
X148301777Y-119151777D01*
X148283598Y-119168253D01*
X148263893Y-119182867D01*
X148242849Y-119195480D01*
X148220671Y-119205970D01*
X148197571Y-119214235D01*
X148173773Y-119220196D01*
X148149504Y-119223796D01*
X148125000Y-119225000D01*
X146875000Y-119225000D01*
X146850496Y-119223796D01*
X146826227Y-119220196D01*
X146802429Y-119214235D01*
X146779329Y-119205970D01*
X146757151Y-119195480D01*
X146736107Y-119182867D01*
X146716402Y-119168253D01*
X146698223Y-119151777D01*
X146681747Y-119133598D01*
X146667133Y-119113893D01*
X146654520Y-119092849D01*
X146644030Y-119070671D01*
X146635765Y-119047571D01*
X146629804Y-119023773D01*
X146626204Y-118999504D01*
X146625000Y-118975000D01*
X146625000Y-118050000D01*
X146626204Y-118025496D01*
X146629804Y-118001227D01*
X146635765Y-117977429D01*
X146644030Y-117954329D01*
X146654520Y-117932151D01*
X146667133Y-117911107D01*
X146681747Y-117891402D01*
X146698223Y-117873223D01*
X146716402Y-117856747D01*
X146736107Y-117842133D01*
X146757151Y-117829520D01*
X146779329Y-117819030D01*
X146802429Y-117810765D01*
X146826227Y-117804804D01*
X146850496Y-117801204D01*
X146875000Y-117800000D01*
X148125000Y-117800000D01*
X148149504Y-117801204D01*
X148149504Y-117801204D01*
G37*
D12*
X147500000Y-118512500D03*
D10*
G36*
X165374505Y-110301204D02*
G01*
X165398773Y-110304804D01*
X165422572Y-110310765D01*
X165445671Y-110319030D01*
X165467850Y-110329520D01*
X165488893Y-110342132D01*
X165508599Y-110356747D01*
X165526777Y-110373223D01*
X165543253Y-110391401D01*
X165557868Y-110411107D01*
X165570480Y-110432150D01*
X165580970Y-110454329D01*
X165589235Y-110477428D01*
X165595196Y-110501227D01*
X165598796Y-110525495D01*
X165600000Y-110549999D01*
X165600000Y-111450001D01*
X165598796Y-111474505D01*
X165595196Y-111498773D01*
X165589235Y-111522572D01*
X165580970Y-111545671D01*
X165570480Y-111567850D01*
X165557868Y-111588893D01*
X165543253Y-111608599D01*
X165526777Y-111626777D01*
X165508599Y-111643253D01*
X165488893Y-111657868D01*
X165467850Y-111670480D01*
X165445671Y-111680970D01*
X165422572Y-111689235D01*
X165398773Y-111695196D01*
X165374505Y-111698796D01*
X165350001Y-111700000D01*
X164699999Y-111700000D01*
X164675495Y-111698796D01*
X164651227Y-111695196D01*
X164627428Y-111689235D01*
X164604329Y-111680970D01*
X164582150Y-111670480D01*
X164561107Y-111657868D01*
X164541401Y-111643253D01*
X164523223Y-111626777D01*
X164506747Y-111608599D01*
X164492132Y-111588893D01*
X164479520Y-111567850D01*
X164469030Y-111545671D01*
X164460765Y-111522572D01*
X164454804Y-111498773D01*
X164451204Y-111474505D01*
X164450000Y-111450001D01*
X164450000Y-110549999D01*
X164451204Y-110525495D01*
X164454804Y-110501227D01*
X164460765Y-110477428D01*
X164469030Y-110454329D01*
X164479520Y-110432150D01*
X164492132Y-110411107D01*
X164506747Y-110391401D01*
X164523223Y-110373223D01*
X164541401Y-110356747D01*
X164561107Y-110342132D01*
X164582150Y-110329520D01*
X164604329Y-110319030D01*
X164627428Y-110310765D01*
X164651227Y-110304804D01*
X164675495Y-110301204D01*
X164699999Y-110300000D01*
X165350001Y-110300000D01*
X165374505Y-110301204D01*
X165374505Y-110301204D01*
G37*
D11*
X165025000Y-111000000D03*
D10*
G36*
X163324505Y-110301204D02*
G01*
X163348773Y-110304804D01*
X163372572Y-110310765D01*
X163395671Y-110319030D01*
X163417850Y-110329520D01*
X163438893Y-110342132D01*
X163458599Y-110356747D01*
X163476777Y-110373223D01*
X163493253Y-110391401D01*
X163507868Y-110411107D01*
X163520480Y-110432150D01*
X163530970Y-110454329D01*
X163539235Y-110477428D01*
X163545196Y-110501227D01*
X163548796Y-110525495D01*
X163550000Y-110549999D01*
X163550000Y-111450001D01*
X163548796Y-111474505D01*
X163545196Y-111498773D01*
X163539235Y-111522572D01*
X163530970Y-111545671D01*
X163520480Y-111567850D01*
X163507868Y-111588893D01*
X163493253Y-111608599D01*
X163476777Y-111626777D01*
X163458599Y-111643253D01*
X163438893Y-111657868D01*
X163417850Y-111670480D01*
X163395671Y-111680970D01*
X163372572Y-111689235D01*
X163348773Y-111695196D01*
X163324505Y-111698796D01*
X163300001Y-111700000D01*
X162649999Y-111700000D01*
X162625495Y-111698796D01*
X162601227Y-111695196D01*
X162577428Y-111689235D01*
X162554329Y-111680970D01*
X162532150Y-111670480D01*
X162511107Y-111657868D01*
X162491401Y-111643253D01*
X162473223Y-111626777D01*
X162456747Y-111608599D01*
X162442132Y-111588893D01*
X162429520Y-111567850D01*
X162419030Y-111545671D01*
X162410765Y-111522572D01*
X162404804Y-111498773D01*
X162401204Y-111474505D01*
X162400000Y-111450001D01*
X162400000Y-110549999D01*
X162401204Y-110525495D01*
X162404804Y-110501227D01*
X162410765Y-110477428D01*
X162419030Y-110454329D01*
X162429520Y-110432150D01*
X162442132Y-110411107D01*
X162456747Y-110391401D01*
X162473223Y-110373223D01*
X162491401Y-110356747D01*
X162511107Y-110342132D01*
X162532150Y-110329520D01*
X162554329Y-110319030D01*
X162577428Y-110310765D01*
X162601227Y-110304804D01*
X162625495Y-110301204D01*
X162649999Y-110300000D01*
X163300001Y-110300000D01*
X163324505Y-110301204D01*
X163324505Y-110301204D01*
G37*
D11*
X162975000Y-111000000D03*
D13*
X149000000Y-124550000D03*
X148500000Y-124550000D03*
X148000000Y-124550000D03*
X147500000Y-124550000D03*
X147000000Y-124550000D03*
X146500000Y-124550000D03*
X146000000Y-124550000D03*
X146000000Y-127450000D03*
X146500000Y-127450000D03*
X147000000Y-127450000D03*
X147500000Y-127450000D03*
X148000000Y-127450000D03*
X148500000Y-127450000D03*
X149000000Y-127450000D03*
D14*
X148737500Y-125575000D03*
X148737500Y-126425000D03*
X146262500Y-126425000D03*
X146262500Y-125575000D03*
D10*
G36*
X173069703Y-92000722D02*
G01*
X173084264Y-92002882D01*
X173098543Y-92006459D01*
X173112403Y-92011418D01*
X173125710Y-92017712D01*
X173138336Y-92025280D01*
X173150159Y-92034048D01*
X173161066Y-92043934D01*
X173170952Y-92054841D01*
X173179720Y-92066664D01*
X173187288Y-92079290D01*
X173193582Y-92092597D01*
X173198541Y-92106457D01*
X173202118Y-92120736D01*
X173204278Y-92135297D01*
X173205000Y-92150000D01*
X173205000Y-93800000D01*
X173204278Y-93814703D01*
X173202118Y-93829264D01*
X173198541Y-93843543D01*
X173193582Y-93857403D01*
X173187288Y-93870710D01*
X173179720Y-93883336D01*
X173170952Y-93895159D01*
X173161066Y-93906066D01*
X173150159Y-93915952D01*
X173138336Y-93924720D01*
X173125710Y-93932288D01*
X173112403Y-93938582D01*
X173098543Y-93943541D01*
X173084264Y-93947118D01*
X173069703Y-93949278D01*
X173055000Y-93950000D01*
X172755000Y-93950000D01*
X172740297Y-93949278D01*
X172725736Y-93947118D01*
X172711457Y-93943541D01*
X172697597Y-93938582D01*
X172684290Y-93932288D01*
X172671664Y-93924720D01*
X172659841Y-93915952D01*
X172648934Y-93906066D01*
X172639048Y-93895159D01*
X172630280Y-93883336D01*
X172622712Y-93870710D01*
X172616418Y-93857403D01*
X172611459Y-93843543D01*
X172607882Y-93829264D01*
X172605722Y-93814703D01*
X172605000Y-93800000D01*
X172605000Y-92150000D01*
X172605722Y-92135297D01*
X172607882Y-92120736D01*
X172611459Y-92106457D01*
X172616418Y-92092597D01*
X172622712Y-92079290D01*
X172630280Y-92066664D01*
X172639048Y-92054841D01*
X172648934Y-92043934D01*
X172659841Y-92034048D01*
X172671664Y-92025280D01*
X172684290Y-92017712D01*
X172697597Y-92011418D01*
X172711457Y-92006459D01*
X172725736Y-92002882D01*
X172740297Y-92000722D01*
X172755000Y-92000000D01*
X173055000Y-92000000D01*
X173069703Y-92000722D01*
X173069703Y-92000722D01*
G37*
D15*
X172905000Y-92975000D03*
D10*
G36*
X171799703Y-92000722D02*
G01*
X171814264Y-92002882D01*
X171828543Y-92006459D01*
X171842403Y-92011418D01*
X171855710Y-92017712D01*
X171868336Y-92025280D01*
X171880159Y-92034048D01*
X171891066Y-92043934D01*
X171900952Y-92054841D01*
X171909720Y-92066664D01*
X171917288Y-92079290D01*
X171923582Y-92092597D01*
X171928541Y-92106457D01*
X171932118Y-92120736D01*
X171934278Y-92135297D01*
X171935000Y-92150000D01*
X171935000Y-93800000D01*
X171934278Y-93814703D01*
X171932118Y-93829264D01*
X171928541Y-93843543D01*
X171923582Y-93857403D01*
X171917288Y-93870710D01*
X171909720Y-93883336D01*
X171900952Y-93895159D01*
X171891066Y-93906066D01*
X171880159Y-93915952D01*
X171868336Y-93924720D01*
X171855710Y-93932288D01*
X171842403Y-93938582D01*
X171828543Y-93943541D01*
X171814264Y-93947118D01*
X171799703Y-93949278D01*
X171785000Y-93950000D01*
X171485000Y-93950000D01*
X171470297Y-93949278D01*
X171455736Y-93947118D01*
X171441457Y-93943541D01*
X171427597Y-93938582D01*
X171414290Y-93932288D01*
X171401664Y-93924720D01*
X171389841Y-93915952D01*
X171378934Y-93906066D01*
X171369048Y-93895159D01*
X171360280Y-93883336D01*
X171352712Y-93870710D01*
X171346418Y-93857403D01*
X171341459Y-93843543D01*
X171337882Y-93829264D01*
X171335722Y-93814703D01*
X171335000Y-93800000D01*
X171335000Y-92150000D01*
X171335722Y-92135297D01*
X171337882Y-92120736D01*
X171341459Y-92106457D01*
X171346418Y-92092597D01*
X171352712Y-92079290D01*
X171360280Y-92066664D01*
X171369048Y-92054841D01*
X171378934Y-92043934D01*
X171389841Y-92034048D01*
X171401664Y-92025280D01*
X171414290Y-92017712D01*
X171427597Y-92011418D01*
X171441457Y-92006459D01*
X171455736Y-92002882D01*
X171470297Y-92000722D01*
X171485000Y-92000000D01*
X171785000Y-92000000D01*
X171799703Y-92000722D01*
X171799703Y-92000722D01*
G37*
D15*
X171635000Y-92975000D03*
D10*
G36*
X170529703Y-92000722D02*
G01*
X170544264Y-92002882D01*
X170558543Y-92006459D01*
X170572403Y-92011418D01*
X170585710Y-92017712D01*
X170598336Y-92025280D01*
X170610159Y-92034048D01*
X170621066Y-92043934D01*
X170630952Y-92054841D01*
X170639720Y-92066664D01*
X170647288Y-92079290D01*
X170653582Y-92092597D01*
X170658541Y-92106457D01*
X170662118Y-92120736D01*
X170664278Y-92135297D01*
X170665000Y-92150000D01*
X170665000Y-93800000D01*
X170664278Y-93814703D01*
X170662118Y-93829264D01*
X170658541Y-93843543D01*
X170653582Y-93857403D01*
X170647288Y-93870710D01*
X170639720Y-93883336D01*
X170630952Y-93895159D01*
X170621066Y-93906066D01*
X170610159Y-93915952D01*
X170598336Y-93924720D01*
X170585710Y-93932288D01*
X170572403Y-93938582D01*
X170558543Y-93943541D01*
X170544264Y-93947118D01*
X170529703Y-93949278D01*
X170515000Y-93950000D01*
X170215000Y-93950000D01*
X170200297Y-93949278D01*
X170185736Y-93947118D01*
X170171457Y-93943541D01*
X170157597Y-93938582D01*
X170144290Y-93932288D01*
X170131664Y-93924720D01*
X170119841Y-93915952D01*
X170108934Y-93906066D01*
X170099048Y-93895159D01*
X170090280Y-93883336D01*
X170082712Y-93870710D01*
X170076418Y-93857403D01*
X170071459Y-93843543D01*
X170067882Y-93829264D01*
X170065722Y-93814703D01*
X170065000Y-93800000D01*
X170065000Y-92150000D01*
X170065722Y-92135297D01*
X170067882Y-92120736D01*
X170071459Y-92106457D01*
X170076418Y-92092597D01*
X170082712Y-92079290D01*
X170090280Y-92066664D01*
X170099048Y-92054841D01*
X170108934Y-92043934D01*
X170119841Y-92034048D01*
X170131664Y-92025280D01*
X170144290Y-92017712D01*
X170157597Y-92011418D01*
X170171457Y-92006459D01*
X170185736Y-92002882D01*
X170200297Y-92000722D01*
X170215000Y-92000000D01*
X170515000Y-92000000D01*
X170529703Y-92000722D01*
X170529703Y-92000722D01*
G37*
D15*
X170365000Y-92975000D03*
D10*
G36*
X169259703Y-92000722D02*
G01*
X169274264Y-92002882D01*
X169288543Y-92006459D01*
X169302403Y-92011418D01*
X169315710Y-92017712D01*
X169328336Y-92025280D01*
X169340159Y-92034048D01*
X169351066Y-92043934D01*
X169360952Y-92054841D01*
X169369720Y-92066664D01*
X169377288Y-92079290D01*
X169383582Y-92092597D01*
X169388541Y-92106457D01*
X169392118Y-92120736D01*
X169394278Y-92135297D01*
X169395000Y-92150000D01*
X169395000Y-93800000D01*
X169394278Y-93814703D01*
X169392118Y-93829264D01*
X169388541Y-93843543D01*
X169383582Y-93857403D01*
X169377288Y-93870710D01*
X169369720Y-93883336D01*
X169360952Y-93895159D01*
X169351066Y-93906066D01*
X169340159Y-93915952D01*
X169328336Y-93924720D01*
X169315710Y-93932288D01*
X169302403Y-93938582D01*
X169288543Y-93943541D01*
X169274264Y-93947118D01*
X169259703Y-93949278D01*
X169245000Y-93950000D01*
X168945000Y-93950000D01*
X168930297Y-93949278D01*
X168915736Y-93947118D01*
X168901457Y-93943541D01*
X168887597Y-93938582D01*
X168874290Y-93932288D01*
X168861664Y-93924720D01*
X168849841Y-93915952D01*
X168838934Y-93906066D01*
X168829048Y-93895159D01*
X168820280Y-93883336D01*
X168812712Y-93870710D01*
X168806418Y-93857403D01*
X168801459Y-93843543D01*
X168797882Y-93829264D01*
X168795722Y-93814703D01*
X168795000Y-93800000D01*
X168795000Y-92150000D01*
X168795722Y-92135297D01*
X168797882Y-92120736D01*
X168801459Y-92106457D01*
X168806418Y-92092597D01*
X168812712Y-92079290D01*
X168820280Y-92066664D01*
X168829048Y-92054841D01*
X168838934Y-92043934D01*
X168849841Y-92034048D01*
X168861664Y-92025280D01*
X168874290Y-92017712D01*
X168887597Y-92011418D01*
X168901457Y-92006459D01*
X168915736Y-92002882D01*
X168930297Y-92000722D01*
X168945000Y-92000000D01*
X169245000Y-92000000D01*
X169259703Y-92000722D01*
X169259703Y-92000722D01*
G37*
D15*
X169095000Y-92975000D03*
D10*
G36*
X169259703Y-87050722D02*
G01*
X169274264Y-87052882D01*
X169288543Y-87056459D01*
X169302403Y-87061418D01*
X169315710Y-87067712D01*
X169328336Y-87075280D01*
X169340159Y-87084048D01*
X169351066Y-87093934D01*
X169360952Y-87104841D01*
X169369720Y-87116664D01*
X169377288Y-87129290D01*
X169383582Y-87142597D01*
X169388541Y-87156457D01*
X169392118Y-87170736D01*
X169394278Y-87185297D01*
X169395000Y-87200000D01*
X169395000Y-88850000D01*
X169394278Y-88864703D01*
X169392118Y-88879264D01*
X169388541Y-88893543D01*
X169383582Y-88907403D01*
X169377288Y-88920710D01*
X169369720Y-88933336D01*
X169360952Y-88945159D01*
X169351066Y-88956066D01*
X169340159Y-88965952D01*
X169328336Y-88974720D01*
X169315710Y-88982288D01*
X169302403Y-88988582D01*
X169288543Y-88993541D01*
X169274264Y-88997118D01*
X169259703Y-88999278D01*
X169245000Y-89000000D01*
X168945000Y-89000000D01*
X168930297Y-88999278D01*
X168915736Y-88997118D01*
X168901457Y-88993541D01*
X168887597Y-88988582D01*
X168874290Y-88982288D01*
X168861664Y-88974720D01*
X168849841Y-88965952D01*
X168838934Y-88956066D01*
X168829048Y-88945159D01*
X168820280Y-88933336D01*
X168812712Y-88920710D01*
X168806418Y-88907403D01*
X168801459Y-88893543D01*
X168797882Y-88879264D01*
X168795722Y-88864703D01*
X168795000Y-88850000D01*
X168795000Y-87200000D01*
X168795722Y-87185297D01*
X168797882Y-87170736D01*
X168801459Y-87156457D01*
X168806418Y-87142597D01*
X168812712Y-87129290D01*
X168820280Y-87116664D01*
X168829048Y-87104841D01*
X168838934Y-87093934D01*
X168849841Y-87084048D01*
X168861664Y-87075280D01*
X168874290Y-87067712D01*
X168887597Y-87061418D01*
X168901457Y-87056459D01*
X168915736Y-87052882D01*
X168930297Y-87050722D01*
X168945000Y-87050000D01*
X169245000Y-87050000D01*
X169259703Y-87050722D01*
X169259703Y-87050722D01*
G37*
D15*
X169095000Y-88025000D03*
D10*
G36*
X170529703Y-87050722D02*
G01*
X170544264Y-87052882D01*
X170558543Y-87056459D01*
X170572403Y-87061418D01*
X170585710Y-87067712D01*
X170598336Y-87075280D01*
X170610159Y-87084048D01*
X170621066Y-87093934D01*
X170630952Y-87104841D01*
X170639720Y-87116664D01*
X170647288Y-87129290D01*
X170653582Y-87142597D01*
X170658541Y-87156457D01*
X170662118Y-87170736D01*
X170664278Y-87185297D01*
X170665000Y-87200000D01*
X170665000Y-88850000D01*
X170664278Y-88864703D01*
X170662118Y-88879264D01*
X170658541Y-88893543D01*
X170653582Y-88907403D01*
X170647288Y-88920710D01*
X170639720Y-88933336D01*
X170630952Y-88945159D01*
X170621066Y-88956066D01*
X170610159Y-88965952D01*
X170598336Y-88974720D01*
X170585710Y-88982288D01*
X170572403Y-88988582D01*
X170558543Y-88993541D01*
X170544264Y-88997118D01*
X170529703Y-88999278D01*
X170515000Y-89000000D01*
X170215000Y-89000000D01*
X170200297Y-88999278D01*
X170185736Y-88997118D01*
X170171457Y-88993541D01*
X170157597Y-88988582D01*
X170144290Y-88982288D01*
X170131664Y-88974720D01*
X170119841Y-88965952D01*
X170108934Y-88956066D01*
X170099048Y-88945159D01*
X170090280Y-88933336D01*
X170082712Y-88920710D01*
X170076418Y-88907403D01*
X170071459Y-88893543D01*
X170067882Y-88879264D01*
X170065722Y-88864703D01*
X170065000Y-88850000D01*
X170065000Y-87200000D01*
X170065722Y-87185297D01*
X170067882Y-87170736D01*
X170071459Y-87156457D01*
X170076418Y-87142597D01*
X170082712Y-87129290D01*
X170090280Y-87116664D01*
X170099048Y-87104841D01*
X170108934Y-87093934D01*
X170119841Y-87084048D01*
X170131664Y-87075280D01*
X170144290Y-87067712D01*
X170157597Y-87061418D01*
X170171457Y-87056459D01*
X170185736Y-87052882D01*
X170200297Y-87050722D01*
X170215000Y-87050000D01*
X170515000Y-87050000D01*
X170529703Y-87050722D01*
X170529703Y-87050722D01*
G37*
D15*
X170365000Y-88025000D03*
D10*
G36*
X171799703Y-87050722D02*
G01*
X171814264Y-87052882D01*
X171828543Y-87056459D01*
X171842403Y-87061418D01*
X171855710Y-87067712D01*
X171868336Y-87075280D01*
X171880159Y-87084048D01*
X171891066Y-87093934D01*
X171900952Y-87104841D01*
X171909720Y-87116664D01*
X171917288Y-87129290D01*
X171923582Y-87142597D01*
X171928541Y-87156457D01*
X171932118Y-87170736D01*
X171934278Y-87185297D01*
X171935000Y-87200000D01*
X171935000Y-88850000D01*
X171934278Y-88864703D01*
X171932118Y-88879264D01*
X171928541Y-88893543D01*
X171923582Y-88907403D01*
X171917288Y-88920710D01*
X171909720Y-88933336D01*
X171900952Y-88945159D01*
X171891066Y-88956066D01*
X171880159Y-88965952D01*
X171868336Y-88974720D01*
X171855710Y-88982288D01*
X171842403Y-88988582D01*
X171828543Y-88993541D01*
X171814264Y-88997118D01*
X171799703Y-88999278D01*
X171785000Y-89000000D01*
X171485000Y-89000000D01*
X171470297Y-88999278D01*
X171455736Y-88997118D01*
X171441457Y-88993541D01*
X171427597Y-88988582D01*
X171414290Y-88982288D01*
X171401664Y-88974720D01*
X171389841Y-88965952D01*
X171378934Y-88956066D01*
X171369048Y-88945159D01*
X171360280Y-88933336D01*
X171352712Y-88920710D01*
X171346418Y-88907403D01*
X171341459Y-88893543D01*
X171337882Y-88879264D01*
X171335722Y-88864703D01*
X171335000Y-88850000D01*
X171335000Y-87200000D01*
X171335722Y-87185297D01*
X171337882Y-87170736D01*
X171341459Y-87156457D01*
X171346418Y-87142597D01*
X171352712Y-87129290D01*
X171360280Y-87116664D01*
X171369048Y-87104841D01*
X171378934Y-87093934D01*
X171389841Y-87084048D01*
X171401664Y-87075280D01*
X171414290Y-87067712D01*
X171427597Y-87061418D01*
X171441457Y-87056459D01*
X171455736Y-87052882D01*
X171470297Y-87050722D01*
X171485000Y-87050000D01*
X171785000Y-87050000D01*
X171799703Y-87050722D01*
X171799703Y-87050722D01*
G37*
D15*
X171635000Y-88025000D03*
D10*
G36*
X173069703Y-87050722D02*
G01*
X173084264Y-87052882D01*
X173098543Y-87056459D01*
X173112403Y-87061418D01*
X173125710Y-87067712D01*
X173138336Y-87075280D01*
X173150159Y-87084048D01*
X173161066Y-87093934D01*
X173170952Y-87104841D01*
X173179720Y-87116664D01*
X173187288Y-87129290D01*
X173193582Y-87142597D01*
X173198541Y-87156457D01*
X173202118Y-87170736D01*
X173204278Y-87185297D01*
X173205000Y-87200000D01*
X173205000Y-88850000D01*
X173204278Y-88864703D01*
X173202118Y-88879264D01*
X173198541Y-88893543D01*
X173193582Y-88907403D01*
X173187288Y-88920710D01*
X173179720Y-88933336D01*
X173170952Y-88945159D01*
X173161066Y-88956066D01*
X173150159Y-88965952D01*
X173138336Y-88974720D01*
X173125710Y-88982288D01*
X173112403Y-88988582D01*
X173098543Y-88993541D01*
X173084264Y-88997118D01*
X173069703Y-88999278D01*
X173055000Y-89000000D01*
X172755000Y-89000000D01*
X172740297Y-88999278D01*
X172725736Y-88997118D01*
X172711457Y-88993541D01*
X172697597Y-88988582D01*
X172684290Y-88982288D01*
X172671664Y-88974720D01*
X172659841Y-88965952D01*
X172648934Y-88956066D01*
X172639048Y-88945159D01*
X172630280Y-88933336D01*
X172622712Y-88920710D01*
X172616418Y-88907403D01*
X172611459Y-88893543D01*
X172607882Y-88879264D01*
X172605722Y-88864703D01*
X172605000Y-88850000D01*
X172605000Y-87200000D01*
X172605722Y-87185297D01*
X172607882Y-87170736D01*
X172611459Y-87156457D01*
X172616418Y-87142597D01*
X172622712Y-87129290D01*
X172630280Y-87116664D01*
X172639048Y-87104841D01*
X172648934Y-87093934D01*
X172659841Y-87084048D01*
X172671664Y-87075280D01*
X172684290Y-87067712D01*
X172697597Y-87061418D01*
X172711457Y-87056459D01*
X172725736Y-87052882D01*
X172740297Y-87050722D01*
X172755000Y-87050000D01*
X173055000Y-87050000D01*
X173069703Y-87050722D01*
X173069703Y-87050722D01*
G37*
D15*
X172905000Y-88025000D03*
D16*
X144525000Y-96800000D03*
X145175000Y-96800000D03*
X145825000Y-96800000D03*
X146475000Y-96800000D03*
X146475000Y-101200000D03*
X145825000Y-101200000D03*
X145175000Y-101200000D03*
X144525000Y-101200000D03*
D10*
G36*
X159874505Y-84801204D02*
G01*
X159898773Y-84804804D01*
X159922572Y-84810765D01*
X159945671Y-84819030D01*
X159967850Y-84829520D01*
X159988893Y-84842132D01*
X160008599Y-84856747D01*
X160026777Y-84873223D01*
X160043253Y-84891401D01*
X160057868Y-84911107D01*
X160070480Y-84932150D01*
X160080970Y-84954329D01*
X160089235Y-84977428D01*
X160095196Y-85001227D01*
X160098796Y-85025495D01*
X160100000Y-85049999D01*
X160100000Y-85950001D01*
X160098796Y-85974505D01*
X160095196Y-85998773D01*
X160089235Y-86022572D01*
X160080970Y-86045671D01*
X160070480Y-86067850D01*
X160057868Y-86088893D01*
X160043253Y-86108599D01*
X160026777Y-86126777D01*
X160008599Y-86143253D01*
X159988893Y-86157868D01*
X159967850Y-86170480D01*
X159945671Y-86180970D01*
X159922572Y-86189235D01*
X159898773Y-86195196D01*
X159874505Y-86198796D01*
X159850001Y-86200000D01*
X159199999Y-86200000D01*
X159175495Y-86198796D01*
X159151227Y-86195196D01*
X159127428Y-86189235D01*
X159104329Y-86180970D01*
X159082150Y-86170480D01*
X159061107Y-86157868D01*
X159041401Y-86143253D01*
X159023223Y-86126777D01*
X159006747Y-86108599D01*
X158992132Y-86088893D01*
X158979520Y-86067850D01*
X158969030Y-86045671D01*
X158960765Y-86022572D01*
X158954804Y-85998773D01*
X158951204Y-85974505D01*
X158950000Y-85950001D01*
X158950000Y-85049999D01*
X158951204Y-85025495D01*
X158954804Y-85001227D01*
X158960765Y-84977428D01*
X158969030Y-84954329D01*
X158979520Y-84932150D01*
X158992132Y-84911107D01*
X159006747Y-84891401D01*
X159023223Y-84873223D01*
X159041401Y-84856747D01*
X159061107Y-84842132D01*
X159082150Y-84829520D01*
X159104329Y-84819030D01*
X159127428Y-84810765D01*
X159151227Y-84804804D01*
X159175495Y-84801204D01*
X159199999Y-84800000D01*
X159850001Y-84800000D01*
X159874505Y-84801204D01*
X159874505Y-84801204D01*
G37*
D11*
X159525000Y-85500000D03*
D10*
G36*
X157824505Y-84801204D02*
G01*
X157848773Y-84804804D01*
X157872572Y-84810765D01*
X157895671Y-84819030D01*
X157917850Y-84829520D01*
X157938893Y-84842132D01*
X157958599Y-84856747D01*
X157976777Y-84873223D01*
X157993253Y-84891401D01*
X158007868Y-84911107D01*
X158020480Y-84932150D01*
X158030970Y-84954329D01*
X158039235Y-84977428D01*
X158045196Y-85001227D01*
X158048796Y-85025495D01*
X158050000Y-85049999D01*
X158050000Y-85950001D01*
X158048796Y-85974505D01*
X158045196Y-85998773D01*
X158039235Y-86022572D01*
X158030970Y-86045671D01*
X158020480Y-86067850D01*
X158007868Y-86088893D01*
X157993253Y-86108599D01*
X157976777Y-86126777D01*
X157958599Y-86143253D01*
X157938893Y-86157868D01*
X157917850Y-86170480D01*
X157895671Y-86180970D01*
X157872572Y-86189235D01*
X157848773Y-86195196D01*
X157824505Y-86198796D01*
X157800001Y-86200000D01*
X157149999Y-86200000D01*
X157125495Y-86198796D01*
X157101227Y-86195196D01*
X157077428Y-86189235D01*
X157054329Y-86180970D01*
X157032150Y-86170480D01*
X157011107Y-86157868D01*
X156991401Y-86143253D01*
X156973223Y-86126777D01*
X156956747Y-86108599D01*
X156942132Y-86088893D01*
X156929520Y-86067850D01*
X156919030Y-86045671D01*
X156910765Y-86022572D01*
X156904804Y-85998773D01*
X156901204Y-85974505D01*
X156900000Y-85950001D01*
X156900000Y-85049999D01*
X156901204Y-85025495D01*
X156904804Y-85001227D01*
X156910765Y-84977428D01*
X156919030Y-84954329D01*
X156929520Y-84932150D01*
X156942132Y-84911107D01*
X156956747Y-84891401D01*
X156973223Y-84873223D01*
X156991401Y-84856747D01*
X157011107Y-84842132D01*
X157032150Y-84829520D01*
X157054329Y-84819030D01*
X157077428Y-84810765D01*
X157101227Y-84804804D01*
X157125495Y-84801204D01*
X157149999Y-84800000D01*
X157800001Y-84800000D01*
X157824505Y-84801204D01*
X157824505Y-84801204D01*
G37*
D11*
X157475000Y-85500000D03*
D10*
G36*
X154874505Y-84801204D02*
G01*
X154898773Y-84804804D01*
X154922572Y-84810765D01*
X154945671Y-84819030D01*
X154967850Y-84829520D01*
X154988893Y-84842132D01*
X155008599Y-84856747D01*
X155026777Y-84873223D01*
X155043253Y-84891401D01*
X155057868Y-84911107D01*
X155070480Y-84932150D01*
X155080970Y-84954329D01*
X155089235Y-84977428D01*
X155095196Y-85001227D01*
X155098796Y-85025495D01*
X155100000Y-85049999D01*
X155100000Y-85950001D01*
X155098796Y-85974505D01*
X155095196Y-85998773D01*
X155089235Y-86022572D01*
X155080970Y-86045671D01*
X155070480Y-86067850D01*
X155057868Y-86088893D01*
X155043253Y-86108599D01*
X155026777Y-86126777D01*
X155008599Y-86143253D01*
X154988893Y-86157868D01*
X154967850Y-86170480D01*
X154945671Y-86180970D01*
X154922572Y-86189235D01*
X154898773Y-86195196D01*
X154874505Y-86198796D01*
X154850001Y-86200000D01*
X154199999Y-86200000D01*
X154175495Y-86198796D01*
X154151227Y-86195196D01*
X154127428Y-86189235D01*
X154104329Y-86180970D01*
X154082150Y-86170480D01*
X154061107Y-86157868D01*
X154041401Y-86143253D01*
X154023223Y-86126777D01*
X154006747Y-86108599D01*
X153992132Y-86088893D01*
X153979520Y-86067850D01*
X153969030Y-86045671D01*
X153960765Y-86022572D01*
X153954804Y-85998773D01*
X153951204Y-85974505D01*
X153950000Y-85950001D01*
X153950000Y-85049999D01*
X153951204Y-85025495D01*
X153954804Y-85001227D01*
X153960765Y-84977428D01*
X153969030Y-84954329D01*
X153979520Y-84932150D01*
X153992132Y-84911107D01*
X154006747Y-84891401D01*
X154023223Y-84873223D01*
X154041401Y-84856747D01*
X154061107Y-84842132D01*
X154082150Y-84829520D01*
X154104329Y-84819030D01*
X154127428Y-84810765D01*
X154151227Y-84804804D01*
X154175495Y-84801204D01*
X154199999Y-84800000D01*
X154850001Y-84800000D01*
X154874505Y-84801204D01*
X154874505Y-84801204D01*
G37*
D11*
X154525000Y-85500000D03*
D10*
G36*
X152824505Y-84801204D02*
G01*
X152848773Y-84804804D01*
X152872572Y-84810765D01*
X152895671Y-84819030D01*
X152917850Y-84829520D01*
X152938893Y-84842132D01*
X152958599Y-84856747D01*
X152976777Y-84873223D01*
X152993253Y-84891401D01*
X153007868Y-84911107D01*
X153020480Y-84932150D01*
X153030970Y-84954329D01*
X153039235Y-84977428D01*
X153045196Y-85001227D01*
X153048796Y-85025495D01*
X153050000Y-85049999D01*
X153050000Y-85950001D01*
X153048796Y-85974505D01*
X153045196Y-85998773D01*
X153039235Y-86022572D01*
X153030970Y-86045671D01*
X153020480Y-86067850D01*
X153007868Y-86088893D01*
X152993253Y-86108599D01*
X152976777Y-86126777D01*
X152958599Y-86143253D01*
X152938893Y-86157868D01*
X152917850Y-86170480D01*
X152895671Y-86180970D01*
X152872572Y-86189235D01*
X152848773Y-86195196D01*
X152824505Y-86198796D01*
X152800001Y-86200000D01*
X152149999Y-86200000D01*
X152125495Y-86198796D01*
X152101227Y-86195196D01*
X152077428Y-86189235D01*
X152054329Y-86180970D01*
X152032150Y-86170480D01*
X152011107Y-86157868D01*
X151991401Y-86143253D01*
X151973223Y-86126777D01*
X151956747Y-86108599D01*
X151942132Y-86088893D01*
X151929520Y-86067850D01*
X151919030Y-86045671D01*
X151910765Y-86022572D01*
X151904804Y-85998773D01*
X151901204Y-85974505D01*
X151900000Y-85950001D01*
X151900000Y-85049999D01*
X151901204Y-85025495D01*
X151904804Y-85001227D01*
X151910765Y-84977428D01*
X151919030Y-84954329D01*
X151929520Y-84932150D01*
X151942132Y-84911107D01*
X151956747Y-84891401D01*
X151973223Y-84873223D01*
X151991401Y-84856747D01*
X152011107Y-84842132D01*
X152032150Y-84829520D01*
X152054329Y-84819030D01*
X152077428Y-84810765D01*
X152101227Y-84804804D01*
X152125495Y-84801204D01*
X152149999Y-84800000D01*
X152800001Y-84800000D01*
X152824505Y-84801204D01*
X152824505Y-84801204D01*
G37*
D11*
X152475000Y-85500000D03*
D10*
G36*
X165374505Y-108301204D02*
G01*
X165398773Y-108304804D01*
X165422572Y-108310765D01*
X165445671Y-108319030D01*
X165467850Y-108329520D01*
X165488893Y-108342132D01*
X165508599Y-108356747D01*
X165526777Y-108373223D01*
X165543253Y-108391401D01*
X165557868Y-108411107D01*
X165570480Y-108432150D01*
X165580970Y-108454329D01*
X165589235Y-108477428D01*
X165595196Y-108501227D01*
X165598796Y-108525495D01*
X165600000Y-108549999D01*
X165600000Y-109450001D01*
X165598796Y-109474505D01*
X165595196Y-109498773D01*
X165589235Y-109522572D01*
X165580970Y-109545671D01*
X165570480Y-109567850D01*
X165557868Y-109588893D01*
X165543253Y-109608599D01*
X165526777Y-109626777D01*
X165508599Y-109643253D01*
X165488893Y-109657868D01*
X165467850Y-109670480D01*
X165445671Y-109680970D01*
X165422572Y-109689235D01*
X165398773Y-109695196D01*
X165374505Y-109698796D01*
X165350001Y-109700000D01*
X164699999Y-109700000D01*
X164675495Y-109698796D01*
X164651227Y-109695196D01*
X164627428Y-109689235D01*
X164604329Y-109680970D01*
X164582150Y-109670480D01*
X164561107Y-109657868D01*
X164541401Y-109643253D01*
X164523223Y-109626777D01*
X164506747Y-109608599D01*
X164492132Y-109588893D01*
X164479520Y-109567850D01*
X164469030Y-109545671D01*
X164460765Y-109522572D01*
X164454804Y-109498773D01*
X164451204Y-109474505D01*
X164450000Y-109450001D01*
X164450000Y-108549999D01*
X164451204Y-108525495D01*
X164454804Y-108501227D01*
X164460765Y-108477428D01*
X164469030Y-108454329D01*
X164479520Y-108432150D01*
X164492132Y-108411107D01*
X164506747Y-108391401D01*
X164523223Y-108373223D01*
X164541401Y-108356747D01*
X164561107Y-108342132D01*
X164582150Y-108329520D01*
X164604329Y-108319030D01*
X164627428Y-108310765D01*
X164651227Y-108304804D01*
X164675495Y-108301204D01*
X164699999Y-108300000D01*
X165350001Y-108300000D01*
X165374505Y-108301204D01*
X165374505Y-108301204D01*
G37*
D11*
X165025000Y-109000000D03*
D10*
G36*
X163324505Y-108301204D02*
G01*
X163348773Y-108304804D01*
X163372572Y-108310765D01*
X163395671Y-108319030D01*
X163417850Y-108329520D01*
X163438893Y-108342132D01*
X163458599Y-108356747D01*
X163476777Y-108373223D01*
X163493253Y-108391401D01*
X163507868Y-108411107D01*
X163520480Y-108432150D01*
X163530970Y-108454329D01*
X163539235Y-108477428D01*
X163545196Y-108501227D01*
X163548796Y-108525495D01*
X163550000Y-108549999D01*
X163550000Y-109450001D01*
X163548796Y-109474505D01*
X163545196Y-109498773D01*
X163539235Y-109522572D01*
X163530970Y-109545671D01*
X163520480Y-109567850D01*
X163507868Y-109588893D01*
X163493253Y-109608599D01*
X163476777Y-109626777D01*
X163458599Y-109643253D01*
X163438893Y-109657868D01*
X163417850Y-109670480D01*
X163395671Y-109680970D01*
X163372572Y-109689235D01*
X163348773Y-109695196D01*
X163324505Y-109698796D01*
X163300001Y-109700000D01*
X162649999Y-109700000D01*
X162625495Y-109698796D01*
X162601227Y-109695196D01*
X162577428Y-109689235D01*
X162554329Y-109680970D01*
X162532150Y-109670480D01*
X162511107Y-109657868D01*
X162491401Y-109643253D01*
X162473223Y-109626777D01*
X162456747Y-109608599D01*
X162442132Y-109588893D01*
X162429520Y-109567850D01*
X162419030Y-109545671D01*
X162410765Y-109522572D01*
X162404804Y-109498773D01*
X162401204Y-109474505D01*
X162400000Y-109450001D01*
X162400000Y-108549999D01*
X162401204Y-108525495D01*
X162404804Y-108501227D01*
X162410765Y-108477428D01*
X162419030Y-108454329D01*
X162429520Y-108432150D01*
X162442132Y-108411107D01*
X162456747Y-108391401D01*
X162473223Y-108373223D01*
X162491401Y-108356747D01*
X162511107Y-108342132D01*
X162532150Y-108329520D01*
X162554329Y-108319030D01*
X162577428Y-108310765D01*
X162601227Y-108304804D01*
X162625495Y-108301204D01*
X162649999Y-108300000D01*
X163300001Y-108300000D01*
X163324505Y-108301204D01*
X163324505Y-108301204D01*
G37*
D11*
X162975000Y-109000000D03*
D10*
G36*
X151374505Y-110301204D02*
G01*
X151398773Y-110304804D01*
X151422572Y-110310765D01*
X151445671Y-110319030D01*
X151467850Y-110329520D01*
X151488893Y-110342132D01*
X151508599Y-110356747D01*
X151526777Y-110373223D01*
X151543253Y-110391401D01*
X151557868Y-110411107D01*
X151570480Y-110432150D01*
X151580970Y-110454329D01*
X151589235Y-110477428D01*
X151595196Y-110501227D01*
X151598796Y-110525495D01*
X151600000Y-110549999D01*
X151600000Y-111450001D01*
X151598796Y-111474505D01*
X151595196Y-111498773D01*
X151589235Y-111522572D01*
X151580970Y-111545671D01*
X151570480Y-111567850D01*
X151557868Y-111588893D01*
X151543253Y-111608599D01*
X151526777Y-111626777D01*
X151508599Y-111643253D01*
X151488893Y-111657868D01*
X151467850Y-111670480D01*
X151445671Y-111680970D01*
X151422572Y-111689235D01*
X151398773Y-111695196D01*
X151374505Y-111698796D01*
X151350001Y-111700000D01*
X150699999Y-111700000D01*
X150675495Y-111698796D01*
X150651227Y-111695196D01*
X150627428Y-111689235D01*
X150604329Y-111680970D01*
X150582150Y-111670480D01*
X150561107Y-111657868D01*
X150541401Y-111643253D01*
X150523223Y-111626777D01*
X150506747Y-111608599D01*
X150492132Y-111588893D01*
X150479520Y-111567850D01*
X150469030Y-111545671D01*
X150460765Y-111522572D01*
X150454804Y-111498773D01*
X150451204Y-111474505D01*
X150450000Y-111450001D01*
X150450000Y-110549999D01*
X150451204Y-110525495D01*
X150454804Y-110501227D01*
X150460765Y-110477428D01*
X150469030Y-110454329D01*
X150479520Y-110432150D01*
X150492132Y-110411107D01*
X150506747Y-110391401D01*
X150523223Y-110373223D01*
X150541401Y-110356747D01*
X150561107Y-110342132D01*
X150582150Y-110329520D01*
X150604329Y-110319030D01*
X150627428Y-110310765D01*
X150651227Y-110304804D01*
X150675495Y-110301204D01*
X150699999Y-110300000D01*
X151350001Y-110300000D01*
X151374505Y-110301204D01*
X151374505Y-110301204D01*
G37*
D11*
X151025000Y-111000000D03*
D10*
G36*
X149324505Y-110301204D02*
G01*
X149348773Y-110304804D01*
X149372572Y-110310765D01*
X149395671Y-110319030D01*
X149417850Y-110329520D01*
X149438893Y-110342132D01*
X149458599Y-110356747D01*
X149476777Y-110373223D01*
X149493253Y-110391401D01*
X149507868Y-110411107D01*
X149520480Y-110432150D01*
X149530970Y-110454329D01*
X149539235Y-110477428D01*
X149545196Y-110501227D01*
X149548796Y-110525495D01*
X149550000Y-110549999D01*
X149550000Y-111450001D01*
X149548796Y-111474505D01*
X149545196Y-111498773D01*
X149539235Y-111522572D01*
X149530970Y-111545671D01*
X149520480Y-111567850D01*
X149507868Y-111588893D01*
X149493253Y-111608599D01*
X149476777Y-111626777D01*
X149458599Y-111643253D01*
X149438893Y-111657868D01*
X149417850Y-111670480D01*
X149395671Y-111680970D01*
X149372572Y-111689235D01*
X149348773Y-111695196D01*
X149324505Y-111698796D01*
X149300001Y-111700000D01*
X148649999Y-111700000D01*
X148625495Y-111698796D01*
X148601227Y-111695196D01*
X148577428Y-111689235D01*
X148554329Y-111680970D01*
X148532150Y-111670480D01*
X148511107Y-111657868D01*
X148491401Y-111643253D01*
X148473223Y-111626777D01*
X148456747Y-111608599D01*
X148442132Y-111588893D01*
X148429520Y-111567850D01*
X148419030Y-111545671D01*
X148410765Y-111522572D01*
X148404804Y-111498773D01*
X148401204Y-111474505D01*
X148400000Y-111450001D01*
X148400000Y-110549999D01*
X148401204Y-110525495D01*
X148404804Y-110501227D01*
X148410765Y-110477428D01*
X148419030Y-110454329D01*
X148429520Y-110432150D01*
X148442132Y-110411107D01*
X148456747Y-110391401D01*
X148473223Y-110373223D01*
X148491401Y-110356747D01*
X148511107Y-110342132D01*
X148532150Y-110329520D01*
X148554329Y-110319030D01*
X148577428Y-110310765D01*
X148601227Y-110304804D01*
X148625495Y-110301204D01*
X148649999Y-110300000D01*
X149300001Y-110300000D01*
X149324505Y-110301204D01*
X149324505Y-110301204D01*
G37*
D11*
X148975000Y-111000000D03*
D10*
G36*
X151374505Y-108301204D02*
G01*
X151398773Y-108304804D01*
X151422572Y-108310765D01*
X151445671Y-108319030D01*
X151467850Y-108329520D01*
X151488893Y-108342132D01*
X151508599Y-108356747D01*
X151526777Y-108373223D01*
X151543253Y-108391401D01*
X151557868Y-108411107D01*
X151570480Y-108432150D01*
X151580970Y-108454329D01*
X151589235Y-108477428D01*
X151595196Y-108501227D01*
X151598796Y-108525495D01*
X151600000Y-108549999D01*
X151600000Y-109450001D01*
X151598796Y-109474505D01*
X151595196Y-109498773D01*
X151589235Y-109522572D01*
X151580970Y-109545671D01*
X151570480Y-109567850D01*
X151557868Y-109588893D01*
X151543253Y-109608599D01*
X151526777Y-109626777D01*
X151508599Y-109643253D01*
X151488893Y-109657868D01*
X151467850Y-109670480D01*
X151445671Y-109680970D01*
X151422572Y-109689235D01*
X151398773Y-109695196D01*
X151374505Y-109698796D01*
X151350001Y-109700000D01*
X150699999Y-109700000D01*
X150675495Y-109698796D01*
X150651227Y-109695196D01*
X150627428Y-109689235D01*
X150604329Y-109680970D01*
X150582150Y-109670480D01*
X150561107Y-109657868D01*
X150541401Y-109643253D01*
X150523223Y-109626777D01*
X150506747Y-109608599D01*
X150492132Y-109588893D01*
X150479520Y-109567850D01*
X150469030Y-109545671D01*
X150460765Y-109522572D01*
X150454804Y-109498773D01*
X150451204Y-109474505D01*
X150450000Y-109450001D01*
X150450000Y-108549999D01*
X150451204Y-108525495D01*
X150454804Y-108501227D01*
X150460765Y-108477428D01*
X150469030Y-108454329D01*
X150479520Y-108432150D01*
X150492132Y-108411107D01*
X150506747Y-108391401D01*
X150523223Y-108373223D01*
X150541401Y-108356747D01*
X150561107Y-108342132D01*
X150582150Y-108329520D01*
X150604329Y-108319030D01*
X150627428Y-108310765D01*
X150651227Y-108304804D01*
X150675495Y-108301204D01*
X150699999Y-108300000D01*
X151350001Y-108300000D01*
X151374505Y-108301204D01*
X151374505Y-108301204D01*
G37*
D11*
X151025000Y-109000000D03*
D10*
G36*
X149324505Y-108301204D02*
G01*
X149348773Y-108304804D01*
X149372572Y-108310765D01*
X149395671Y-108319030D01*
X149417850Y-108329520D01*
X149438893Y-108342132D01*
X149458599Y-108356747D01*
X149476777Y-108373223D01*
X149493253Y-108391401D01*
X149507868Y-108411107D01*
X149520480Y-108432150D01*
X149530970Y-108454329D01*
X149539235Y-108477428D01*
X149545196Y-108501227D01*
X149548796Y-108525495D01*
X149550000Y-108549999D01*
X149550000Y-109450001D01*
X149548796Y-109474505D01*
X149545196Y-109498773D01*
X149539235Y-109522572D01*
X149530970Y-109545671D01*
X149520480Y-109567850D01*
X149507868Y-109588893D01*
X149493253Y-109608599D01*
X149476777Y-109626777D01*
X149458599Y-109643253D01*
X149438893Y-109657868D01*
X149417850Y-109670480D01*
X149395671Y-109680970D01*
X149372572Y-109689235D01*
X149348773Y-109695196D01*
X149324505Y-109698796D01*
X149300001Y-109700000D01*
X148649999Y-109700000D01*
X148625495Y-109698796D01*
X148601227Y-109695196D01*
X148577428Y-109689235D01*
X148554329Y-109680970D01*
X148532150Y-109670480D01*
X148511107Y-109657868D01*
X148491401Y-109643253D01*
X148473223Y-109626777D01*
X148456747Y-109608599D01*
X148442132Y-109588893D01*
X148429520Y-109567850D01*
X148419030Y-109545671D01*
X148410765Y-109522572D01*
X148404804Y-109498773D01*
X148401204Y-109474505D01*
X148400000Y-109450001D01*
X148400000Y-108549999D01*
X148401204Y-108525495D01*
X148404804Y-108501227D01*
X148410765Y-108477428D01*
X148419030Y-108454329D01*
X148429520Y-108432150D01*
X148442132Y-108411107D01*
X148456747Y-108391401D01*
X148473223Y-108373223D01*
X148491401Y-108356747D01*
X148511107Y-108342132D01*
X148532150Y-108329520D01*
X148554329Y-108319030D01*
X148577428Y-108310765D01*
X148601227Y-108304804D01*
X148625495Y-108301204D01*
X148649999Y-108300000D01*
X149300001Y-108300000D01*
X149324505Y-108301204D01*
X149324505Y-108301204D01*
G37*
D11*
X148975000Y-109000000D03*
D10*
G36*
X146474505Y-103901204D02*
G01*
X146498773Y-103904804D01*
X146522572Y-103910765D01*
X146545671Y-103919030D01*
X146567850Y-103929520D01*
X146588893Y-103942132D01*
X146608599Y-103956747D01*
X146626777Y-103973223D01*
X146643253Y-103991401D01*
X146657868Y-104011107D01*
X146670480Y-104032150D01*
X146680970Y-104054329D01*
X146689235Y-104077428D01*
X146695196Y-104101227D01*
X146698796Y-104125495D01*
X146700000Y-104149999D01*
X146700000Y-104800001D01*
X146698796Y-104824505D01*
X146695196Y-104848773D01*
X146689235Y-104872572D01*
X146680970Y-104895671D01*
X146670480Y-104917850D01*
X146657868Y-104938893D01*
X146643253Y-104958599D01*
X146626777Y-104976777D01*
X146608599Y-104993253D01*
X146588893Y-105007868D01*
X146567850Y-105020480D01*
X146545671Y-105030970D01*
X146522572Y-105039235D01*
X146498773Y-105045196D01*
X146474505Y-105048796D01*
X146450001Y-105050000D01*
X145549999Y-105050000D01*
X145525495Y-105048796D01*
X145501227Y-105045196D01*
X145477428Y-105039235D01*
X145454329Y-105030970D01*
X145432150Y-105020480D01*
X145411107Y-105007868D01*
X145391401Y-104993253D01*
X145373223Y-104976777D01*
X145356747Y-104958599D01*
X145342132Y-104938893D01*
X145329520Y-104917850D01*
X145319030Y-104895671D01*
X145310765Y-104872572D01*
X145304804Y-104848773D01*
X145301204Y-104824505D01*
X145300000Y-104800001D01*
X145300000Y-104149999D01*
X145301204Y-104125495D01*
X145304804Y-104101227D01*
X145310765Y-104077428D01*
X145319030Y-104054329D01*
X145329520Y-104032150D01*
X145342132Y-104011107D01*
X145356747Y-103991401D01*
X145373223Y-103973223D01*
X145391401Y-103956747D01*
X145411107Y-103942132D01*
X145432150Y-103929520D01*
X145454329Y-103919030D01*
X145477428Y-103910765D01*
X145501227Y-103904804D01*
X145525495Y-103901204D01*
X145549999Y-103900000D01*
X146450001Y-103900000D01*
X146474505Y-103901204D01*
X146474505Y-103901204D01*
G37*
D11*
X146000000Y-104475000D03*
D10*
G36*
X146474505Y-105951204D02*
G01*
X146498773Y-105954804D01*
X146522572Y-105960765D01*
X146545671Y-105969030D01*
X146567850Y-105979520D01*
X146588893Y-105992132D01*
X146608599Y-106006747D01*
X146626777Y-106023223D01*
X146643253Y-106041401D01*
X146657868Y-106061107D01*
X146670480Y-106082150D01*
X146680970Y-106104329D01*
X146689235Y-106127428D01*
X146695196Y-106151227D01*
X146698796Y-106175495D01*
X146700000Y-106199999D01*
X146700000Y-106850001D01*
X146698796Y-106874505D01*
X146695196Y-106898773D01*
X146689235Y-106922572D01*
X146680970Y-106945671D01*
X146670480Y-106967850D01*
X146657868Y-106988893D01*
X146643253Y-107008599D01*
X146626777Y-107026777D01*
X146608599Y-107043253D01*
X146588893Y-107057868D01*
X146567850Y-107070480D01*
X146545671Y-107080970D01*
X146522572Y-107089235D01*
X146498773Y-107095196D01*
X146474505Y-107098796D01*
X146450001Y-107100000D01*
X145549999Y-107100000D01*
X145525495Y-107098796D01*
X145501227Y-107095196D01*
X145477428Y-107089235D01*
X145454329Y-107080970D01*
X145432150Y-107070480D01*
X145411107Y-107057868D01*
X145391401Y-107043253D01*
X145373223Y-107026777D01*
X145356747Y-107008599D01*
X145342132Y-106988893D01*
X145329520Y-106967850D01*
X145319030Y-106945671D01*
X145310765Y-106922572D01*
X145304804Y-106898773D01*
X145301204Y-106874505D01*
X145300000Y-106850001D01*
X145300000Y-106199999D01*
X145301204Y-106175495D01*
X145304804Y-106151227D01*
X145310765Y-106127428D01*
X145319030Y-106104329D01*
X145329520Y-106082150D01*
X145342132Y-106061107D01*
X145356747Y-106041401D01*
X145373223Y-106023223D01*
X145391401Y-106006747D01*
X145411107Y-105992132D01*
X145432150Y-105979520D01*
X145454329Y-105969030D01*
X145477428Y-105960765D01*
X145501227Y-105954804D01*
X145525495Y-105951204D01*
X145549999Y-105950000D01*
X146450001Y-105950000D01*
X146474505Y-105951204D01*
X146474505Y-105951204D01*
G37*
D11*
X146000000Y-106525000D03*
D10*
G36*
X144474505Y-103901204D02*
G01*
X144498773Y-103904804D01*
X144522572Y-103910765D01*
X144545671Y-103919030D01*
X144567850Y-103929520D01*
X144588893Y-103942132D01*
X144608599Y-103956747D01*
X144626777Y-103973223D01*
X144643253Y-103991401D01*
X144657868Y-104011107D01*
X144670480Y-104032150D01*
X144680970Y-104054329D01*
X144689235Y-104077428D01*
X144695196Y-104101227D01*
X144698796Y-104125495D01*
X144700000Y-104149999D01*
X144700000Y-104800001D01*
X144698796Y-104824505D01*
X144695196Y-104848773D01*
X144689235Y-104872572D01*
X144680970Y-104895671D01*
X144670480Y-104917850D01*
X144657868Y-104938893D01*
X144643253Y-104958599D01*
X144626777Y-104976777D01*
X144608599Y-104993253D01*
X144588893Y-105007868D01*
X144567850Y-105020480D01*
X144545671Y-105030970D01*
X144522572Y-105039235D01*
X144498773Y-105045196D01*
X144474505Y-105048796D01*
X144450001Y-105050000D01*
X143549999Y-105050000D01*
X143525495Y-105048796D01*
X143501227Y-105045196D01*
X143477428Y-105039235D01*
X143454329Y-105030970D01*
X143432150Y-105020480D01*
X143411107Y-105007868D01*
X143391401Y-104993253D01*
X143373223Y-104976777D01*
X143356747Y-104958599D01*
X143342132Y-104938893D01*
X143329520Y-104917850D01*
X143319030Y-104895671D01*
X143310765Y-104872572D01*
X143304804Y-104848773D01*
X143301204Y-104824505D01*
X143300000Y-104800001D01*
X143300000Y-104149999D01*
X143301204Y-104125495D01*
X143304804Y-104101227D01*
X143310765Y-104077428D01*
X143319030Y-104054329D01*
X143329520Y-104032150D01*
X143342132Y-104011107D01*
X143356747Y-103991401D01*
X143373223Y-103973223D01*
X143391401Y-103956747D01*
X143411107Y-103942132D01*
X143432150Y-103929520D01*
X143454329Y-103919030D01*
X143477428Y-103910765D01*
X143501227Y-103904804D01*
X143525495Y-103901204D01*
X143549999Y-103900000D01*
X144450001Y-103900000D01*
X144474505Y-103901204D01*
X144474505Y-103901204D01*
G37*
D11*
X144000000Y-104475000D03*
D10*
G36*
X144474505Y-105951204D02*
G01*
X144498773Y-105954804D01*
X144522572Y-105960765D01*
X144545671Y-105969030D01*
X144567850Y-105979520D01*
X144588893Y-105992132D01*
X144608599Y-106006747D01*
X144626777Y-106023223D01*
X144643253Y-106041401D01*
X144657868Y-106061107D01*
X144670480Y-106082150D01*
X144680970Y-106104329D01*
X144689235Y-106127428D01*
X144695196Y-106151227D01*
X144698796Y-106175495D01*
X144700000Y-106199999D01*
X144700000Y-106850001D01*
X144698796Y-106874505D01*
X144695196Y-106898773D01*
X144689235Y-106922572D01*
X144680970Y-106945671D01*
X144670480Y-106967850D01*
X144657868Y-106988893D01*
X144643253Y-107008599D01*
X144626777Y-107026777D01*
X144608599Y-107043253D01*
X144588893Y-107057868D01*
X144567850Y-107070480D01*
X144545671Y-107080970D01*
X144522572Y-107089235D01*
X144498773Y-107095196D01*
X144474505Y-107098796D01*
X144450001Y-107100000D01*
X143549999Y-107100000D01*
X143525495Y-107098796D01*
X143501227Y-107095196D01*
X143477428Y-107089235D01*
X143454329Y-107080970D01*
X143432150Y-107070480D01*
X143411107Y-107057868D01*
X143391401Y-107043253D01*
X143373223Y-107026777D01*
X143356747Y-107008599D01*
X143342132Y-106988893D01*
X143329520Y-106967850D01*
X143319030Y-106945671D01*
X143310765Y-106922572D01*
X143304804Y-106898773D01*
X143301204Y-106874505D01*
X143300000Y-106850001D01*
X143300000Y-106199999D01*
X143301204Y-106175495D01*
X143304804Y-106151227D01*
X143310765Y-106127428D01*
X143319030Y-106104329D01*
X143329520Y-106082150D01*
X143342132Y-106061107D01*
X143356747Y-106041401D01*
X143373223Y-106023223D01*
X143391401Y-106006747D01*
X143411107Y-105992132D01*
X143432150Y-105979520D01*
X143454329Y-105969030D01*
X143477428Y-105960765D01*
X143501227Y-105954804D01*
X143525495Y-105951204D01*
X143549999Y-105950000D01*
X144450001Y-105950000D01*
X144474505Y-105951204D01*
X144474505Y-105951204D01*
G37*
D11*
X144000000Y-106525000D03*
D10*
G36*
X127849505Y-110301204D02*
G01*
X127873773Y-110304804D01*
X127897572Y-110310765D01*
X127920671Y-110319030D01*
X127942850Y-110329520D01*
X127963893Y-110342132D01*
X127983599Y-110356747D01*
X128001777Y-110373223D01*
X128018253Y-110391401D01*
X128032868Y-110411107D01*
X128045480Y-110432150D01*
X128055970Y-110454329D01*
X128064235Y-110477428D01*
X128070196Y-110501227D01*
X128073796Y-110525495D01*
X128075000Y-110549999D01*
X128075000Y-111450001D01*
X128073796Y-111474505D01*
X128070196Y-111498773D01*
X128064235Y-111522572D01*
X128055970Y-111545671D01*
X128045480Y-111567850D01*
X128032868Y-111588893D01*
X128018253Y-111608599D01*
X128001777Y-111626777D01*
X127983599Y-111643253D01*
X127963893Y-111657868D01*
X127942850Y-111670480D01*
X127920671Y-111680970D01*
X127897572Y-111689235D01*
X127873773Y-111695196D01*
X127849505Y-111698796D01*
X127825001Y-111700000D01*
X127174999Y-111700000D01*
X127150495Y-111698796D01*
X127126227Y-111695196D01*
X127102428Y-111689235D01*
X127079329Y-111680970D01*
X127057150Y-111670480D01*
X127036107Y-111657868D01*
X127016401Y-111643253D01*
X126998223Y-111626777D01*
X126981747Y-111608599D01*
X126967132Y-111588893D01*
X126954520Y-111567850D01*
X126944030Y-111545671D01*
X126935765Y-111522572D01*
X126929804Y-111498773D01*
X126926204Y-111474505D01*
X126925000Y-111450001D01*
X126925000Y-110549999D01*
X126926204Y-110525495D01*
X126929804Y-110501227D01*
X126935765Y-110477428D01*
X126944030Y-110454329D01*
X126954520Y-110432150D01*
X126967132Y-110411107D01*
X126981747Y-110391401D01*
X126998223Y-110373223D01*
X127016401Y-110356747D01*
X127036107Y-110342132D01*
X127057150Y-110329520D01*
X127079329Y-110319030D01*
X127102428Y-110310765D01*
X127126227Y-110304804D01*
X127150495Y-110301204D01*
X127174999Y-110300000D01*
X127825001Y-110300000D01*
X127849505Y-110301204D01*
X127849505Y-110301204D01*
G37*
D11*
X127500000Y-111000000D03*
D10*
G36*
X129899505Y-110301204D02*
G01*
X129923773Y-110304804D01*
X129947572Y-110310765D01*
X129970671Y-110319030D01*
X129992850Y-110329520D01*
X130013893Y-110342132D01*
X130033599Y-110356747D01*
X130051777Y-110373223D01*
X130068253Y-110391401D01*
X130082868Y-110411107D01*
X130095480Y-110432150D01*
X130105970Y-110454329D01*
X130114235Y-110477428D01*
X130120196Y-110501227D01*
X130123796Y-110525495D01*
X130125000Y-110549999D01*
X130125000Y-111450001D01*
X130123796Y-111474505D01*
X130120196Y-111498773D01*
X130114235Y-111522572D01*
X130105970Y-111545671D01*
X130095480Y-111567850D01*
X130082868Y-111588893D01*
X130068253Y-111608599D01*
X130051777Y-111626777D01*
X130033599Y-111643253D01*
X130013893Y-111657868D01*
X129992850Y-111670480D01*
X129970671Y-111680970D01*
X129947572Y-111689235D01*
X129923773Y-111695196D01*
X129899505Y-111698796D01*
X129875001Y-111700000D01*
X129224999Y-111700000D01*
X129200495Y-111698796D01*
X129176227Y-111695196D01*
X129152428Y-111689235D01*
X129129329Y-111680970D01*
X129107150Y-111670480D01*
X129086107Y-111657868D01*
X129066401Y-111643253D01*
X129048223Y-111626777D01*
X129031747Y-111608599D01*
X129017132Y-111588893D01*
X129004520Y-111567850D01*
X128994030Y-111545671D01*
X128985765Y-111522572D01*
X128979804Y-111498773D01*
X128976204Y-111474505D01*
X128975000Y-111450001D01*
X128975000Y-110549999D01*
X128976204Y-110525495D01*
X128979804Y-110501227D01*
X128985765Y-110477428D01*
X128994030Y-110454329D01*
X129004520Y-110432150D01*
X129017132Y-110411107D01*
X129031747Y-110391401D01*
X129048223Y-110373223D01*
X129066401Y-110356747D01*
X129086107Y-110342132D01*
X129107150Y-110329520D01*
X129129329Y-110319030D01*
X129152428Y-110310765D01*
X129176227Y-110304804D01*
X129200495Y-110301204D01*
X129224999Y-110300000D01*
X129875001Y-110300000D01*
X129899505Y-110301204D01*
X129899505Y-110301204D01*
G37*
D11*
X129550000Y-111000000D03*
D10*
G36*
X127824505Y-108301204D02*
G01*
X127848773Y-108304804D01*
X127872572Y-108310765D01*
X127895671Y-108319030D01*
X127917850Y-108329520D01*
X127938893Y-108342132D01*
X127958599Y-108356747D01*
X127976777Y-108373223D01*
X127993253Y-108391401D01*
X128007868Y-108411107D01*
X128020480Y-108432150D01*
X128030970Y-108454329D01*
X128039235Y-108477428D01*
X128045196Y-108501227D01*
X128048796Y-108525495D01*
X128050000Y-108549999D01*
X128050000Y-109450001D01*
X128048796Y-109474505D01*
X128045196Y-109498773D01*
X128039235Y-109522572D01*
X128030970Y-109545671D01*
X128020480Y-109567850D01*
X128007868Y-109588893D01*
X127993253Y-109608599D01*
X127976777Y-109626777D01*
X127958599Y-109643253D01*
X127938893Y-109657868D01*
X127917850Y-109670480D01*
X127895671Y-109680970D01*
X127872572Y-109689235D01*
X127848773Y-109695196D01*
X127824505Y-109698796D01*
X127800001Y-109700000D01*
X127149999Y-109700000D01*
X127125495Y-109698796D01*
X127101227Y-109695196D01*
X127077428Y-109689235D01*
X127054329Y-109680970D01*
X127032150Y-109670480D01*
X127011107Y-109657868D01*
X126991401Y-109643253D01*
X126973223Y-109626777D01*
X126956747Y-109608599D01*
X126942132Y-109588893D01*
X126929520Y-109567850D01*
X126919030Y-109545671D01*
X126910765Y-109522572D01*
X126904804Y-109498773D01*
X126901204Y-109474505D01*
X126900000Y-109450001D01*
X126900000Y-108549999D01*
X126901204Y-108525495D01*
X126904804Y-108501227D01*
X126910765Y-108477428D01*
X126919030Y-108454329D01*
X126929520Y-108432150D01*
X126942132Y-108411107D01*
X126956747Y-108391401D01*
X126973223Y-108373223D01*
X126991401Y-108356747D01*
X127011107Y-108342132D01*
X127032150Y-108329520D01*
X127054329Y-108319030D01*
X127077428Y-108310765D01*
X127101227Y-108304804D01*
X127125495Y-108301204D01*
X127149999Y-108300000D01*
X127800001Y-108300000D01*
X127824505Y-108301204D01*
X127824505Y-108301204D01*
G37*
D11*
X127475000Y-109000000D03*
D10*
G36*
X129874505Y-108301204D02*
G01*
X129898773Y-108304804D01*
X129922572Y-108310765D01*
X129945671Y-108319030D01*
X129967850Y-108329520D01*
X129988893Y-108342132D01*
X130008599Y-108356747D01*
X130026777Y-108373223D01*
X130043253Y-108391401D01*
X130057868Y-108411107D01*
X130070480Y-108432150D01*
X130080970Y-108454329D01*
X130089235Y-108477428D01*
X130095196Y-108501227D01*
X130098796Y-108525495D01*
X130100000Y-108549999D01*
X130100000Y-109450001D01*
X130098796Y-109474505D01*
X130095196Y-109498773D01*
X130089235Y-109522572D01*
X130080970Y-109545671D01*
X130070480Y-109567850D01*
X130057868Y-109588893D01*
X130043253Y-109608599D01*
X130026777Y-109626777D01*
X130008599Y-109643253D01*
X129988893Y-109657868D01*
X129967850Y-109670480D01*
X129945671Y-109680970D01*
X129922572Y-109689235D01*
X129898773Y-109695196D01*
X129874505Y-109698796D01*
X129850001Y-109700000D01*
X129199999Y-109700000D01*
X129175495Y-109698796D01*
X129151227Y-109695196D01*
X129127428Y-109689235D01*
X129104329Y-109680970D01*
X129082150Y-109670480D01*
X129061107Y-109657868D01*
X129041401Y-109643253D01*
X129023223Y-109626777D01*
X129006747Y-109608599D01*
X128992132Y-109588893D01*
X128979520Y-109567850D01*
X128969030Y-109545671D01*
X128960765Y-109522572D01*
X128954804Y-109498773D01*
X128951204Y-109474505D01*
X128950000Y-109450001D01*
X128950000Y-108549999D01*
X128951204Y-108525495D01*
X128954804Y-108501227D01*
X128960765Y-108477428D01*
X128969030Y-108454329D01*
X128979520Y-108432150D01*
X128992132Y-108411107D01*
X129006747Y-108391401D01*
X129023223Y-108373223D01*
X129041401Y-108356747D01*
X129061107Y-108342132D01*
X129082150Y-108329520D01*
X129104329Y-108319030D01*
X129127428Y-108310765D01*
X129151227Y-108304804D01*
X129175495Y-108301204D01*
X129199999Y-108300000D01*
X129850001Y-108300000D01*
X129874505Y-108301204D01*
X129874505Y-108301204D01*
G37*
D11*
X129525000Y-109000000D03*
D17*
X158950000Y-98500000D03*
X161050000Y-98500000D03*
D18*
X159000000Y-112000000D03*
X159950000Y-114000000D03*
X158050000Y-114000000D03*
X159000000Y-108000000D03*
X158050000Y-106000000D03*
X159950000Y-106000000D03*
D10*
G36*
X168324505Y-100301204D02*
G01*
X168348773Y-100304804D01*
X168372572Y-100310765D01*
X168395671Y-100319030D01*
X168417850Y-100329520D01*
X168438893Y-100342132D01*
X168458599Y-100356747D01*
X168476777Y-100373223D01*
X168493253Y-100391401D01*
X168507868Y-100411107D01*
X168520480Y-100432150D01*
X168530970Y-100454329D01*
X168539235Y-100477428D01*
X168545196Y-100501227D01*
X168548796Y-100525495D01*
X168550000Y-100549999D01*
X168550000Y-101450001D01*
X168548796Y-101474505D01*
X168545196Y-101498773D01*
X168539235Y-101522572D01*
X168530970Y-101545671D01*
X168520480Y-101567850D01*
X168507868Y-101588893D01*
X168493253Y-101608599D01*
X168476777Y-101626777D01*
X168458599Y-101643253D01*
X168438893Y-101657868D01*
X168417850Y-101670480D01*
X168395671Y-101680970D01*
X168372572Y-101689235D01*
X168348773Y-101695196D01*
X168324505Y-101698796D01*
X168300001Y-101700000D01*
X167649999Y-101700000D01*
X167625495Y-101698796D01*
X167601227Y-101695196D01*
X167577428Y-101689235D01*
X167554329Y-101680970D01*
X167532150Y-101670480D01*
X167511107Y-101657868D01*
X167491401Y-101643253D01*
X167473223Y-101626777D01*
X167456747Y-101608599D01*
X167442132Y-101588893D01*
X167429520Y-101567850D01*
X167419030Y-101545671D01*
X167410765Y-101522572D01*
X167404804Y-101498773D01*
X167401204Y-101474505D01*
X167400000Y-101450001D01*
X167400000Y-100549999D01*
X167401204Y-100525495D01*
X167404804Y-100501227D01*
X167410765Y-100477428D01*
X167419030Y-100454329D01*
X167429520Y-100432150D01*
X167442132Y-100411107D01*
X167456747Y-100391401D01*
X167473223Y-100373223D01*
X167491401Y-100356747D01*
X167511107Y-100342132D01*
X167532150Y-100329520D01*
X167554329Y-100319030D01*
X167577428Y-100310765D01*
X167601227Y-100304804D01*
X167625495Y-100301204D01*
X167649999Y-100300000D01*
X168300001Y-100300000D01*
X168324505Y-100301204D01*
X168324505Y-100301204D01*
G37*
D11*
X167975000Y-101000000D03*
D10*
G36*
X170374505Y-100301204D02*
G01*
X170398773Y-100304804D01*
X170422572Y-100310765D01*
X170445671Y-100319030D01*
X170467850Y-100329520D01*
X170488893Y-100342132D01*
X170508599Y-100356747D01*
X170526777Y-100373223D01*
X170543253Y-100391401D01*
X170557868Y-100411107D01*
X170570480Y-100432150D01*
X170580970Y-100454329D01*
X170589235Y-100477428D01*
X170595196Y-100501227D01*
X170598796Y-100525495D01*
X170600000Y-100549999D01*
X170600000Y-101450001D01*
X170598796Y-101474505D01*
X170595196Y-101498773D01*
X170589235Y-101522572D01*
X170580970Y-101545671D01*
X170570480Y-101567850D01*
X170557868Y-101588893D01*
X170543253Y-101608599D01*
X170526777Y-101626777D01*
X170508599Y-101643253D01*
X170488893Y-101657868D01*
X170467850Y-101670480D01*
X170445671Y-101680970D01*
X170422572Y-101689235D01*
X170398773Y-101695196D01*
X170374505Y-101698796D01*
X170350001Y-101700000D01*
X169699999Y-101700000D01*
X169675495Y-101698796D01*
X169651227Y-101695196D01*
X169627428Y-101689235D01*
X169604329Y-101680970D01*
X169582150Y-101670480D01*
X169561107Y-101657868D01*
X169541401Y-101643253D01*
X169523223Y-101626777D01*
X169506747Y-101608599D01*
X169492132Y-101588893D01*
X169479520Y-101567850D01*
X169469030Y-101545671D01*
X169460765Y-101522572D01*
X169454804Y-101498773D01*
X169451204Y-101474505D01*
X169450000Y-101450001D01*
X169450000Y-100549999D01*
X169451204Y-100525495D01*
X169454804Y-100501227D01*
X169460765Y-100477428D01*
X169469030Y-100454329D01*
X169479520Y-100432150D01*
X169492132Y-100411107D01*
X169506747Y-100391401D01*
X169523223Y-100373223D01*
X169541401Y-100356747D01*
X169561107Y-100342132D01*
X169582150Y-100329520D01*
X169604329Y-100319030D01*
X169627428Y-100310765D01*
X169651227Y-100304804D01*
X169675495Y-100301204D01*
X169699999Y-100300000D01*
X170350001Y-100300000D01*
X170374505Y-100301204D01*
X170374505Y-100301204D01*
G37*
D11*
X170025000Y-101000000D03*
D10*
G36*
X189474505Y-123901204D02*
G01*
X189498773Y-123904804D01*
X189522572Y-123910765D01*
X189545671Y-123919030D01*
X189567850Y-123929520D01*
X189588893Y-123942132D01*
X189608599Y-123956747D01*
X189626777Y-123973223D01*
X189643253Y-123991401D01*
X189657868Y-124011107D01*
X189670480Y-124032150D01*
X189680970Y-124054329D01*
X189689235Y-124077428D01*
X189695196Y-124101227D01*
X189698796Y-124125495D01*
X189700000Y-124149999D01*
X189700000Y-124800001D01*
X189698796Y-124824505D01*
X189695196Y-124848773D01*
X189689235Y-124872572D01*
X189680970Y-124895671D01*
X189670480Y-124917850D01*
X189657868Y-124938893D01*
X189643253Y-124958599D01*
X189626777Y-124976777D01*
X189608599Y-124993253D01*
X189588893Y-125007868D01*
X189567850Y-125020480D01*
X189545671Y-125030970D01*
X189522572Y-125039235D01*
X189498773Y-125045196D01*
X189474505Y-125048796D01*
X189450001Y-125050000D01*
X188549999Y-125050000D01*
X188525495Y-125048796D01*
X188501227Y-125045196D01*
X188477428Y-125039235D01*
X188454329Y-125030970D01*
X188432150Y-125020480D01*
X188411107Y-125007868D01*
X188391401Y-124993253D01*
X188373223Y-124976777D01*
X188356747Y-124958599D01*
X188342132Y-124938893D01*
X188329520Y-124917850D01*
X188319030Y-124895671D01*
X188310765Y-124872572D01*
X188304804Y-124848773D01*
X188301204Y-124824505D01*
X188300000Y-124800001D01*
X188300000Y-124149999D01*
X188301204Y-124125495D01*
X188304804Y-124101227D01*
X188310765Y-124077428D01*
X188319030Y-124054329D01*
X188329520Y-124032150D01*
X188342132Y-124011107D01*
X188356747Y-123991401D01*
X188373223Y-123973223D01*
X188391401Y-123956747D01*
X188411107Y-123942132D01*
X188432150Y-123929520D01*
X188454329Y-123919030D01*
X188477428Y-123910765D01*
X188501227Y-123904804D01*
X188525495Y-123901204D01*
X188549999Y-123900000D01*
X189450001Y-123900000D01*
X189474505Y-123901204D01*
X189474505Y-123901204D01*
G37*
D11*
X189000000Y-124475000D03*
D10*
G36*
X189474505Y-125951204D02*
G01*
X189498773Y-125954804D01*
X189522572Y-125960765D01*
X189545671Y-125969030D01*
X189567850Y-125979520D01*
X189588893Y-125992132D01*
X189608599Y-126006747D01*
X189626777Y-126023223D01*
X189643253Y-126041401D01*
X189657868Y-126061107D01*
X189670480Y-126082150D01*
X189680970Y-126104329D01*
X189689235Y-126127428D01*
X189695196Y-126151227D01*
X189698796Y-126175495D01*
X189700000Y-126199999D01*
X189700000Y-126850001D01*
X189698796Y-126874505D01*
X189695196Y-126898773D01*
X189689235Y-126922572D01*
X189680970Y-126945671D01*
X189670480Y-126967850D01*
X189657868Y-126988893D01*
X189643253Y-127008599D01*
X189626777Y-127026777D01*
X189608599Y-127043253D01*
X189588893Y-127057868D01*
X189567850Y-127070480D01*
X189545671Y-127080970D01*
X189522572Y-127089235D01*
X189498773Y-127095196D01*
X189474505Y-127098796D01*
X189450001Y-127100000D01*
X188549999Y-127100000D01*
X188525495Y-127098796D01*
X188501227Y-127095196D01*
X188477428Y-127089235D01*
X188454329Y-127080970D01*
X188432150Y-127070480D01*
X188411107Y-127057868D01*
X188391401Y-127043253D01*
X188373223Y-127026777D01*
X188356747Y-127008599D01*
X188342132Y-126988893D01*
X188329520Y-126967850D01*
X188319030Y-126945671D01*
X188310765Y-126922572D01*
X188304804Y-126898773D01*
X188301204Y-126874505D01*
X188300000Y-126850001D01*
X188300000Y-126199999D01*
X188301204Y-126175495D01*
X188304804Y-126151227D01*
X188310765Y-126127428D01*
X188319030Y-126104329D01*
X188329520Y-126082150D01*
X188342132Y-126061107D01*
X188356747Y-126041401D01*
X188373223Y-126023223D01*
X188391401Y-126006747D01*
X188411107Y-125992132D01*
X188432150Y-125979520D01*
X188454329Y-125969030D01*
X188477428Y-125960765D01*
X188501227Y-125954804D01*
X188525495Y-125951204D01*
X188549999Y-125950000D01*
X189450001Y-125950000D01*
X189474505Y-125951204D01*
X189474505Y-125951204D01*
G37*
D11*
X189000000Y-126525000D03*
D10*
G36*
X168324505Y-95801204D02*
G01*
X168348773Y-95804804D01*
X168372572Y-95810765D01*
X168395671Y-95819030D01*
X168417850Y-95829520D01*
X168438893Y-95842132D01*
X168458599Y-95856747D01*
X168476777Y-95873223D01*
X168493253Y-95891401D01*
X168507868Y-95911107D01*
X168520480Y-95932150D01*
X168530970Y-95954329D01*
X168539235Y-95977428D01*
X168545196Y-96001227D01*
X168548796Y-96025495D01*
X168550000Y-96049999D01*
X168550000Y-96950001D01*
X168548796Y-96974505D01*
X168545196Y-96998773D01*
X168539235Y-97022572D01*
X168530970Y-97045671D01*
X168520480Y-97067850D01*
X168507868Y-97088893D01*
X168493253Y-97108599D01*
X168476777Y-97126777D01*
X168458599Y-97143253D01*
X168438893Y-97157868D01*
X168417850Y-97170480D01*
X168395671Y-97180970D01*
X168372572Y-97189235D01*
X168348773Y-97195196D01*
X168324505Y-97198796D01*
X168300001Y-97200000D01*
X167649999Y-97200000D01*
X167625495Y-97198796D01*
X167601227Y-97195196D01*
X167577428Y-97189235D01*
X167554329Y-97180970D01*
X167532150Y-97170480D01*
X167511107Y-97157868D01*
X167491401Y-97143253D01*
X167473223Y-97126777D01*
X167456747Y-97108599D01*
X167442132Y-97088893D01*
X167429520Y-97067850D01*
X167419030Y-97045671D01*
X167410765Y-97022572D01*
X167404804Y-96998773D01*
X167401204Y-96974505D01*
X167400000Y-96950001D01*
X167400000Y-96049999D01*
X167401204Y-96025495D01*
X167404804Y-96001227D01*
X167410765Y-95977428D01*
X167419030Y-95954329D01*
X167429520Y-95932150D01*
X167442132Y-95911107D01*
X167456747Y-95891401D01*
X167473223Y-95873223D01*
X167491401Y-95856747D01*
X167511107Y-95842132D01*
X167532150Y-95829520D01*
X167554329Y-95819030D01*
X167577428Y-95810765D01*
X167601227Y-95804804D01*
X167625495Y-95801204D01*
X167649999Y-95800000D01*
X168300001Y-95800000D01*
X168324505Y-95801204D01*
X168324505Y-95801204D01*
G37*
D11*
X167975000Y-96500000D03*
D10*
G36*
X170374505Y-95801204D02*
G01*
X170398773Y-95804804D01*
X170422572Y-95810765D01*
X170445671Y-95819030D01*
X170467850Y-95829520D01*
X170488893Y-95842132D01*
X170508599Y-95856747D01*
X170526777Y-95873223D01*
X170543253Y-95891401D01*
X170557868Y-95911107D01*
X170570480Y-95932150D01*
X170580970Y-95954329D01*
X170589235Y-95977428D01*
X170595196Y-96001227D01*
X170598796Y-96025495D01*
X170600000Y-96049999D01*
X170600000Y-96950001D01*
X170598796Y-96974505D01*
X170595196Y-96998773D01*
X170589235Y-97022572D01*
X170580970Y-97045671D01*
X170570480Y-97067850D01*
X170557868Y-97088893D01*
X170543253Y-97108599D01*
X170526777Y-97126777D01*
X170508599Y-97143253D01*
X170488893Y-97157868D01*
X170467850Y-97170480D01*
X170445671Y-97180970D01*
X170422572Y-97189235D01*
X170398773Y-97195196D01*
X170374505Y-97198796D01*
X170350001Y-97200000D01*
X169699999Y-97200000D01*
X169675495Y-97198796D01*
X169651227Y-97195196D01*
X169627428Y-97189235D01*
X169604329Y-97180970D01*
X169582150Y-97170480D01*
X169561107Y-97157868D01*
X169541401Y-97143253D01*
X169523223Y-97126777D01*
X169506747Y-97108599D01*
X169492132Y-97088893D01*
X169479520Y-97067850D01*
X169469030Y-97045671D01*
X169460765Y-97022572D01*
X169454804Y-96998773D01*
X169451204Y-96974505D01*
X169450000Y-96950001D01*
X169450000Y-96049999D01*
X169451204Y-96025495D01*
X169454804Y-96001227D01*
X169460765Y-95977428D01*
X169469030Y-95954329D01*
X169479520Y-95932150D01*
X169492132Y-95911107D01*
X169506747Y-95891401D01*
X169523223Y-95873223D01*
X169541401Y-95856747D01*
X169561107Y-95842132D01*
X169582150Y-95829520D01*
X169604329Y-95819030D01*
X169627428Y-95810765D01*
X169651227Y-95804804D01*
X169675495Y-95801204D01*
X169699999Y-95800000D01*
X170350001Y-95800000D01*
X170374505Y-95801204D01*
X170374505Y-95801204D01*
G37*
D11*
X170025000Y-96500000D03*
D10*
G36*
X173474505Y-102376204D02*
G01*
X173498773Y-102379804D01*
X173522572Y-102385765D01*
X173545671Y-102394030D01*
X173567850Y-102404520D01*
X173588893Y-102417132D01*
X173608599Y-102431747D01*
X173626777Y-102448223D01*
X173643253Y-102466401D01*
X173657868Y-102486107D01*
X173670480Y-102507150D01*
X173680970Y-102529329D01*
X173689235Y-102552428D01*
X173695196Y-102576227D01*
X173698796Y-102600495D01*
X173700000Y-102624999D01*
X173700000Y-103275001D01*
X173698796Y-103299505D01*
X173695196Y-103323773D01*
X173689235Y-103347572D01*
X173680970Y-103370671D01*
X173670480Y-103392850D01*
X173657868Y-103413893D01*
X173643253Y-103433599D01*
X173626777Y-103451777D01*
X173608599Y-103468253D01*
X173588893Y-103482868D01*
X173567850Y-103495480D01*
X173545671Y-103505970D01*
X173522572Y-103514235D01*
X173498773Y-103520196D01*
X173474505Y-103523796D01*
X173450001Y-103525000D01*
X172549999Y-103525000D01*
X172525495Y-103523796D01*
X172501227Y-103520196D01*
X172477428Y-103514235D01*
X172454329Y-103505970D01*
X172432150Y-103495480D01*
X172411107Y-103482868D01*
X172391401Y-103468253D01*
X172373223Y-103451777D01*
X172356747Y-103433599D01*
X172342132Y-103413893D01*
X172329520Y-103392850D01*
X172319030Y-103370671D01*
X172310765Y-103347572D01*
X172304804Y-103323773D01*
X172301204Y-103299505D01*
X172300000Y-103275001D01*
X172300000Y-102624999D01*
X172301204Y-102600495D01*
X172304804Y-102576227D01*
X172310765Y-102552428D01*
X172319030Y-102529329D01*
X172329520Y-102507150D01*
X172342132Y-102486107D01*
X172356747Y-102466401D01*
X172373223Y-102448223D01*
X172391401Y-102431747D01*
X172411107Y-102417132D01*
X172432150Y-102404520D01*
X172454329Y-102394030D01*
X172477428Y-102385765D01*
X172501227Y-102379804D01*
X172525495Y-102376204D01*
X172549999Y-102375000D01*
X173450001Y-102375000D01*
X173474505Y-102376204D01*
X173474505Y-102376204D01*
G37*
D11*
X173000000Y-102950000D03*
D10*
G36*
X173474505Y-104426204D02*
G01*
X173498773Y-104429804D01*
X173522572Y-104435765D01*
X173545671Y-104444030D01*
X173567850Y-104454520D01*
X173588893Y-104467132D01*
X173608599Y-104481747D01*
X173626777Y-104498223D01*
X173643253Y-104516401D01*
X173657868Y-104536107D01*
X173670480Y-104557150D01*
X173680970Y-104579329D01*
X173689235Y-104602428D01*
X173695196Y-104626227D01*
X173698796Y-104650495D01*
X173700000Y-104674999D01*
X173700000Y-105325001D01*
X173698796Y-105349505D01*
X173695196Y-105373773D01*
X173689235Y-105397572D01*
X173680970Y-105420671D01*
X173670480Y-105442850D01*
X173657868Y-105463893D01*
X173643253Y-105483599D01*
X173626777Y-105501777D01*
X173608599Y-105518253D01*
X173588893Y-105532868D01*
X173567850Y-105545480D01*
X173545671Y-105555970D01*
X173522572Y-105564235D01*
X173498773Y-105570196D01*
X173474505Y-105573796D01*
X173450001Y-105575000D01*
X172549999Y-105575000D01*
X172525495Y-105573796D01*
X172501227Y-105570196D01*
X172477428Y-105564235D01*
X172454329Y-105555970D01*
X172432150Y-105545480D01*
X172411107Y-105532868D01*
X172391401Y-105518253D01*
X172373223Y-105501777D01*
X172356747Y-105483599D01*
X172342132Y-105463893D01*
X172329520Y-105442850D01*
X172319030Y-105420671D01*
X172310765Y-105397572D01*
X172304804Y-105373773D01*
X172301204Y-105349505D01*
X172300000Y-105325001D01*
X172300000Y-104674999D01*
X172301204Y-104650495D01*
X172304804Y-104626227D01*
X172310765Y-104602428D01*
X172319030Y-104579329D01*
X172329520Y-104557150D01*
X172342132Y-104536107D01*
X172356747Y-104516401D01*
X172373223Y-104498223D01*
X172391401Y-104481747D01*
X172411107Y-104467132D01*
X172432150Y-104454520D01*
X172454329Y-104444030D01*
X172477428Y-104435765D01*
X172501227Y-104429804D01*
X172525495Y-104426204D01*
X172549999Y-104425000D01*
X173450001Y-104425000D01*
X173474505Y-104426204D01*
X173474505Y-104426204D01*
G37*
D11*
X173000000Y-105000000D03*
D10*
G36*
X165649504Y-91276204D02*
G01*
X165673773Y-91279804D01*
X165697571Y-91285765D01*
X165720671Y-91294030D01*
X165742849Y-91304520D01*
X165763893Y-91317133D01*
X165783598Y-91331747D01*
X165801777Y-91348223D01*
X165818253Y-91366402D01*
X165832867Y-91386107D01*
X165845480Y-91407151D01*
X165855970Y-91429329D01*
X165864235Y-91452429D01*
X165870196Y-91476227D01*
X165873796Y-91500496D01*
X165875000Y-91525000D01*
X165875000Y-92450000D01*
X165873796Y-92474504D01*
X165870196Y-92498773D01*
X165864235Y-92522571D01*
X165855970Y-92545671D01*
X165845480Y-92567849D01*
X165832867Y-92588893D01*
X165818253Y-92608598D01*
X165801777Y-92626777D01*
X165783598Y-92643253D01*
X165763893Y-92657867D01*
X165742849Y-92670480D01*
X165720671Y-92680970D01*
X165697571Y-92689235D01*
X165673773Y-92695196D01*
X165649504Y-92698796D01*
X165625000Y-92700000D01*
X164375000Y-92700000D01*
X164350496Y-92698796D01*
X164326227Y-92695196D01*
X164302429Y-92689235D01*
X164279329Y-92680970D01*
X164257151Y-92670480D01*
X164236107Y-92657867D01*
X164216402Y-92643253D01*
X164198223Y-92626777D01*
X164181747Y-92608598D01*
X164167133Y-92588893D01*
X164154520Y-92567849D01*
X164144030Y-92545671D01*
X164135765Y-92522571D01*
X164129804Y-92498773D01*
X164126204Y-92474504D01*
X164125000Y-92450000D01*
X164125000Y-91525000D01*
X164126204Y-91500496D01*
X164129804Y-91476227D01*
X164135765Y-91452429D01*
X164144030Y-91429329D01*
X164154520Y-91407151D01*
X164167133Y-91386107D01*
X164181747Y-91366402D01*
X164198223Y-91348223D01*
X164216402Y-91331747D01*
X164236107Y-91317133D01*
X164257151Y-91304520D01*
X164279329Y-91294030D01*
X164302429Y-91285765D01*
X164326227Y-91279804D01*
X164350496Y-91276204D01*
X164375000Y-91275000D01*
X165625000Y-91275000D01*
X165649504Y-91276204D01*
X165649504Y-91276204D01*
G37*
D12*
X165000000Y-91987500D03*
D10*
G36*
X165649504Y-88301204D02*
G01*
X165673773Y-88304804D01*
X165697571Y-88310765D01*
X165720671Y-88319030D01*
X165742849Y-88329520D01*
X165763893Y-88342133D01*
X165783598Y-88356747D01*
X165801777Y-88373223D01*
X165818253Y-88391402D01*
X165832867Y-88411107D01*
X165845480Y-88432151D01*
X165855970Y-88454329D01*
X165864235Y-88477429D01*
X165870196Y-88501227D01*
X165873796Y-88525496D01*
X165875000Y-88550000D01*
X165875000Y-89475000D01*
X165873796Y-89499504D01*
X165870196Y-89523773D01*
X165864235Y-89547571D01*
X165855970Y-89570671D01*
X165845480Y-89592849D01*
X165832867Y-89613893D01*
X165818253Y-89633598D01*
X165801777Y-89651777D01*
X165783598Y-89668253D01*
X165763893Y-89682867D01*
X165742849Y-89695480D01*
X165720671Y-89705970D01*
X165697571Y-89714235D01*
X165673773Y-89720196D01*
X165649504Y-89723796D01*
X165625000Y-89725000D01*
X164375000Y-89725000D01*
X164350496Y-89723796D01*
X164326227Y-89720196D01*
X164302429Y-89714235D01*
X164279329Y-89705970D01*
X164257151Y-89695480D01*
X164236107Y-89682867D01*
X164216402Y-89668253D01*
X164198223Y-89651777D01*
X164181747Y-89633598D01*
X164167133Y-89613893D01*
X164154520Y-89592849D01*
X164144030Y-89570671D01*
X164135765Y-89547571D01*
X164129804Y-89523773D01*
X164126204Y-89499504D01*
X164125000Y-89475000D01*
X164125000Y-88550000D01*
X164126204Y-88525496D01*
X164129804Y-88501227D01*
X164135765Y-88477429D01*
X164144030Y-88454329D01*
X164154520Y-88432151D01*
X164167133Y-88411107D01*
X164181747Y-88391402D01*
X164198223Y-88373223D01*
X164216402Y-88356747D01*
X164236107Y-88342133D01*
X164257151Y-88329520D01*
X164279329Y-88319030D01*
X164302429Y-88310765D01*
X164326227Y-88304804D01*
X164350496Y-88301204D01*
X164375000Y-88300000D01*
X165625000Y-88300000D01*
X165649504Y-88301204D01*
X165649504Y-88301204D01*
G37*
D12*
X165000000Y-89012500D03*
D10*
G36*
X169649504Y-111313704D02*
G01*
X169673773Y-111317304D01*
X169697571Y-111323265D01*
X169720671Y-111331530D01*
X169742849Y-111342020D01*
X169763893Y-111354633D01*
X169783598Y-111369247D01*
X169801777Y-111385723D01*
X169818253Y-111403902D01*
X169832867Y-111423607D01*
X169845480Y-111444651D01*
X169855970Y-111466829D01*
X169864235Y-111489929D01*
X169870196Y-111513727D01*
X169873796Y-111537996D01*
X169875000Y-111562500D01*
X169875000Y-112487500D01*
X169873796Y-112512004D01*
X169870196Y-112536273D01*
X169864235Y-112560071D01*
X169855970Y-112583171D01*
X169845480Y-112605349D01*
X169832867Y-112626393D01*
X169818253Y-112646098D01*
X169801777Y-112664277D01*
X169783598Y-112680753D01*
X169763893Y-112695367D01*
X169742849Y-112707980D01*
X169720671Y-112718470D01*
X169697571Y-112726735D01*
X169673773Y-112732696D01*
X169649504Y-112736296D01*
X169625000Y-112737500D01*
X168375000Y-112737500D01*
X168350496Y-112736296D01*
X168326227Y-112732696D01*
X168302429Y-112726735D01*
X168279329Y-112718470D01*
X168257151Y-112707980D01*
X168236107Y-112695367D01*
X168216402Y-112680753D01*
X168198223Y-112664277D01*
X168181747Y-112646098D01*
X168167133Y-112626393D01*
X168154520Y-112605349D01*
X168144030Y-112583171D01*
X168135765Y-112560071D01*
X168129804Y-112536273D01*
X168126204Y-112512004D01*
X168125000Y-112487500D01*
X168125000Y-111562500D01*
X168126204Y-111537996D01*
X168129804Y-111513727D01*
X168135765Y-111489929D01*
X168144030Y-111466829D01*
X168154520Y-111444651D01*
X168167133Y-111423607D01*
X168181747Y-111403902D01*
X168198223Y-111385723D01*
X168216402Y-111369247D01*
X168236107Y-111354633D01*
X168257151Y-111342020D01*
X168279329Y-111331530D01*
X168302429Y-111323265D01*
X168326227Y-111317304D01*
X168350496Y-111313704D01*
X168375000Y-111312500D01*
X169625000Y-111312500D01*
X169649504Y-111313704D01*
X169649504Y-111313704D01*
G37*
D12*
X169000000Y-112025000D03*
D10*
G36*
X169649504Y-114288704D02*
G01*
X169673773Y-114292304D01*
X169697571Y-114298265D01*
X169720671Y-114306530D01*
X169742849Y-114317020D01*
X169763893Y-114329633D01*
X169783598Y-114344247D01*
X169801777Y-114360723D01*
X169818253Y-114378902D01*
X169832867Y-114398607D01*
X169845480Y-114419651D01*
X169855970Y-114441829D01*
X169864235Y-114464929D01*
X169870196Y-114488727D01*
X169873796Y-114512996D01*
X169875000Y-114537500D01*
X169875000Y-115462500D01*
X169873796Y-115487004D01*
X169870196Y-115511273D01*
X169864235Y-115535071D01*
X169855970Y-115558171D01*
X169845480Y-115580349D01*
X169832867Y-115601393D01*
X169818253Y-115621098D01*
X169801777Y-115639277D01*
X169783598Y-115655753D01*
X169763893Y-115670367D01*
X169742849Y-115682980D01*
X169720671Y-115693470D01*
X169697571Y-115701735D01*
X169673773Y-115707696D01*
X169649504Y-115711296D01*
X169625000Y-115712500D01*
X168375000Y-115712500D01*
X168350496Y-115711296D01*
X168326227Y-115707696D01*
X168302429Y-115701735D01*
X168279329Y-115693470D01*
X168257151Y-115682980D01*
X168236107Y-115670367D01*
X168216402Y-115655753D01*
X168198223Y-115639277D01*
X168181747Y-115621098D01*
X168167133Y-115601393D01*
X168154520Y-115580349D01*
X168144030Y-115558171D01*
X168135765Y-115535071D01*
X168129804Y-115511273D01*
X168126204Y-115487004D01*
X168125000Y-115462500D01*
X168125000Y-114537500D01*
X168126204Y-114512996D01*
X168129804Y-114488727D01*
X168135765Y-114464929D01*
X168144030Y-114441829D01*
X168154520Y-114419651D01*
X168167133Y-114398607D01*
X168181747Y-114378902D01*
X168198223Y-114360723D01*
X168216402Y-114344247D01*
X168236107Y-114329633D01*
X168257151Y-114317020D01*
X168279329Y-114306530D01*
X168302429Y-114298265D01*
X168326227Y-114292304D01*
X168350496Y-114288704D01*
X168375000Y-114287500D01*
X169625000Y-114287500D01*
X169649504Y-114288704D01*
X169649504Y-114288704D01*
G37*
D12*
X169000000Y-115000000D03*
D10*
G36*
X169649504Y-107288704D02*
G01*
X169673773Y-107292304D01*
X169697571Y-107298265D01*
X169720671Y-107306530D01*
X169742849Y-107317020D01*
X169763893Y-107329633D01*
X169783598Y-107344247D01*
X169801777Y-107360723D01*
X169818253Y-107378902D01*
X169832867Y-107398607D01*
X169845480Y-107419651D01*
X169855970Y-107441829D01*
X169864235Y-107464929D01*
X169870196Y-107488727D01*
X169873796Y-107512996D01*
X169875000Y-107537500D01*
X169875000Y-108462500D01*
X169873796Y-108487004D01*
X169870196Y-108511273D01*
X169864235Y-108535071D01*
X169855970Y-108558171D01*
X169845480Y-108580349D01*
X169832867Y-108601393D01*
X169818253Y-108621098D01*
X169801777Y-108639277D01*
X169783598Y-108655753D01*
X169763893Y-108670367D01*
X169742849Y-108682980D01*
X169720671Y-108693470D01*
X169697571Y-108701735D01*
X169673773Y-108707696D01*
X169649504Y-108711296D01*
X169625000Y-108712500D01*
X168375000Y-108712500D01*
X168350496Y-108711296D01*
X168326227Y-108707696D01*
X168302429Y-108701735D01*
X168279329Y-108693470D01*
X168257151Y-108682980D01*
X168236107Y-108670367D01*
X168216402Y-108655753D01*
X168198223Y-108639277D01*
X168181747Y-108621098D01*
X168167133Y-108601393D01*
X168154520Y-108580349D01*
X168144030Y-108558171D01*
X168135765Y-108535071D01*
X168129804Y-108511273D01*
X168126204Y-108487004D01*
X168125000Y-108462500D01*
X168125000Y-107537500D01*
X168126204Y-107512996D01*
X168129804Y-107488727D01*
X168135765Y-107464929D01*
X168144030Y-107441829D01*
X168154520Y-107419651D01*
X168167133Y-107398607D01*
X168181747Y-107378902D01*
X168198223Y-107360723D01*
X168216402Y-107344247D01*
X168236107Y-107329633D01*
X168257151Y-107317020D01*
X168279329Y-107306530D01*
X168302429Y-107298265D01*
X168326227Y-107292304D01*
X168350496Y-107288704D01*
X168375000Y-107287500D01*
X169625000Y-107287500D01*
X169649504Y-107288704D01*
X169649504Y-107288704D01*
G37*
D12*
X169000000Y-108000000D03*
D10*
G36*
X169649504Y-104313704D02*
G01*
X169673773Y-104317304D01*
X169697571Y-104323265D01*
X169720671Y-104331530D01*
X169742849Y-104342020D01*
X169763893Y-104354633D01*
X169783598Y-104369247D01*
X169801777Y-104385723D01*
X169818253Y-104403902D01*
X169832867Y-104423607D01*
X169845480Y-104444651D01*
X169855970Y-104466829D01*
X169864235Y-104489929D01*
X169870196Y-104513727D01*
X169873796Y-104537996D01*
X169875000Y-104562500D01*
X169875000Y-105487500D01*
X169873796Y-105512004D01*
X169870196Y-105536273D01*
X169864235Y-105560071D01*
X169855970Y-105583171D01*
X169845480Y-105605349D01*
X169832867Y-105626393D01*
X169818253Y-105646098D01*
X169801777Y-105664277D01*
X169783598Y-105680753D01*
X169763893Y-105695367D01*
X169742849Y-105707980D01*
X169720671Y-105718470D01*
X169697571Y-105726735D01*
X169673773Y-105732696D01*
X169649504Y-105736296D01*
X169625000Y-105737500D01*
X168375000Y-105737500D01*
X168350496Y-105736296D01*
X168326227Y-105732696D01*
X168302429Y-105726735D01*
X168279329Y-105718470D01*
X168257151Y-105707980D01*
X168236107Y-105695367D01*
X168216402Y-105680753D01*
X168198223Y-105664277D01*
X168181747Y-105646098D01*
X168167133Y-105626393D01*
X168154520Y-105605349D01*
X168144030Y-105583171D01*
X168135765Y-105560071D01*
X168129804Y-105536273D01*
X168126204Y-105512004D01*
X168125000Y-105487500D01*
X168125000Y-104562500D01*
X168126204Y-104537996D01*
X168129804Y-104513727D01*
X168135765Y-104489929D01*
X168144030Y-104466829D01*
X168154520Y-104444651D01*
X168167133Y-104423607D01*
X168181747Y-104403902D01*
X168198223Y-104385723D01*
X168216402Y-104369247D01*
X168236107Y-104354633D01*
X168257151Y-104342020D01*
X168279329Y-104331530D01*
X168302429Y-104323265D01*
X168326227Y-104317304D01*
X168350496Y-104313704D01*
X168375000Y-104312500D01*
X169625000Y-104312500D01*
X169649504Y-104313704D01*
X169649504Y-104313704D01*
G37*
D12*
X169000000Y-105025000D03*
D10*
G36*
X154649504Y-111801204D02*
G01*
X154673773Y-111804804D01*
X154697571Y-111810765D01*
X154720671Y-111819030D01*
X154742849Y-111829520D01*
X154763893Y-111842133D01*
X154783598Y-111856747D01*
X154801777Y-111873223D01*
X154818253Y-111891402D01*
X154832867Y-111911107D01*
X154845480Y-111932151D01*
X154855970Y-111954329D01*
X154864235Y-111977429D01*
X154870196Y-112001227D01*
X154873796Y-112025496D01*
X154875000Y-112050000D01*
X154875000Y-112975000D01*
X154873796Y-112999504D01*
X154870196Y-113023773D01*
X154864235Y-113047571D01*
X154855970Y-113070671D01*
X154845480Y-113092849D01*
X154832867Y-113113893D01*
X154818253Y-113133598D01*
X154801777Y-113151777D01*
X154783598Y-113168253D01*
X154763893Y-113182867D01*
X154742849Y-113195480D01*
X154720671Y-113205970D01*
X154697571Y-113214235D01*
X154673773Y-113220196D01*
X154649504Y-113223796D01*
X154625000Y-113225000D01*
X153375000Y-113225000D01*
X153350496Y-113223796D01*
X153326227Y-113220196D01*
X153302429Y-113214235D01*
X153279329Y-113205970D01*
X153257151Y-113195480D01*
X153236107Y-113182867D01*
X153216402Y-113168253D01*
X153198223Y-113151777D01*
X153181747Y-113133598D01*
X153167133Y-113113893D01*
X153154520Y-113092849D01*
X153144030Y-113070671D01*
X153135765Y-113047571D01*
X153129804Y-113023773D01*
X153126204Y-112999504D01*
X153125000Y-112975000D01*
X153125000Y-112050000D01*
X153126204Y-112025496D01*
X153129804Y-112001227D01*
X153135765Y-111977429D01*
X153144030Y-111954329D01*
X153154520Y-111932151D01*
X153167133Y-111911107D01*
X153181747Y-111891402D01*
X153198223Y-111873223D01*
X153216402Y-111856747D01*
X153236107Y-111842133D01*
X153257151Y-111829520D01*
X153279329Y-111819030D01*
X153302429Y-111810765D01*
X153326227Y-111804804D01*
X153350496Y-111801204D01*
X153375000Y-111800000D01*
X154625000Y-111800000D01*
X154649504Y-111801204D01*
X154649504Y-111801204D01*
G37*
D12*
X154000000Y-112512500D03*
D10*
G36*
X154649504Y-114776204D02*
G01*
X154673773Y-114779804D01*
X154697571Y-114785765D01*
X154720671Y-114794030D01*
X154742849Y-114804520D01*
X154763893Y-114817133D01*
X154783598Y-114831747D01*
X154801777Y-114848223D01*
X154818253Y-114866402D01*
X154832867Y-114886107D01*
X154845480Y-114907151D01*
X154855970Y-114929329D01*
X154864235Y-114952429D01*
X154870196Y-114976227D01*
X154873796Y-115000496D01*
X154875000Y-115025000D01*
X154875000Y-115950000D01*
X154873796Y-115974504D01*
X154870196Y-115998773D01*
X154864235Y-116022571D01*
X154855970Y-116045671D01*
X154845480Y-116067849D01*
X154832867Y-116088893D01*
X154818253Y-116108598D01*
X154801777Y-116126777D01*
X154783598Y-116143253D01*
X154763893Y-116157867D01*
X154742849Y-116170480D01*
X154720671Y-116180970D01*
X154697571Y-116189235D01*
X154673773Y-116195196D01*
X154649504Y-116198796D01*
X154625000Y-116200000D01*
X153375000Y-116200000D01*
X153350496Y-116198796D01*
X153326227Y-116195196D01*
X153302429Y-116189235D01*
X153279329Y-116180970D01*
X153257151Y-116170480D01*
X153236107Y-116157867D01*
X153216402Y-116143253D01*
X153198223Y-116126777D01*
X153181747Y-116108598D01*
X153167133Y-116088893D01*
X153154520Y-116067849D01*
X153144030Y-116045671D01*
X153135765Y-116022571D01*
X153129804Y-115998773D01*
X153126204Y-115974504D01*
X153125000Y-115950000D01*
X153125000Y-115025000D01*
X153126204Y-115000496D01*
X153129804Y-114976227D01*
X153135765Y-114952429D01*
X153144030Y-114929329D01*
X153154520Y-114907151D01*
X153167133Y-114886107D01*
X153181747Y-114866402D01*
X153198223Y-114848223D01*
X153216402Y-114831747D01*
X153236107Y-114817133D01*
X153257151Y-114804520D01*
X153279329Y-114794030D01*
X153302429Y-114785765D01*
X153326227Y-114779804D01*
X153350496Y-114776204D01*
X153375000Y-114775000D01*
X154625000Y-114775000D01*
X154649504Y-114776204D01*
X154649504Y-114776204D01*
G37*
D12*
X154000000Y-115487500D03*
D10*
G36*
X154649504Y-106776204D02*
G01*
X154673773Y-106779804D01*
X154697571Y-106785765D01*
X154720671Y-106794030D01*
X154742849Y-106804520D01*
X154763893Y-106817133D01*
X154783598Y-106831747D01*
X154801777Y-106848223D01*
X154818253Y-106866402D01*
X154832867Y-106886107D01*
X154845480Y-106907151D01*
X154855970Y-106929329D01*
X154864235Y-106952429D01*
X154870196Y-106976227D01*
X154873796Y-107000496D01*
X154875000Y-107025000D01*
X154875000Y-107950000D01*
X154873796Y-107974504D01*
X154870196Y-107998773D01*
X154864235Y-108022571D01*
X154855970Y-108045671D01*
X154845480Y-108067849D01*
X154832867Y-108088893D01*
X154818253Y-108108598D01*
X154801777Y-108126777D01*
X154783598Y-108143253D01*
X154763893Y-108157867D01*
X154742849Y-108170480D01*
X154720671Y-108180970D01*
X154697571Y-108189235D01*
X154673773Y-108195196D01*
X154649504Y-108198796D01*
X154625000Y-108200000D01*
X153375000Y-108200000D01*
X153350496Y-108198796D01*
X153326227Y-108195196D01*
X153302429Y-108189235D01*
X153279329Y-108180970D01*
X153257151Y-108170480D01*
X153236107Y-108157867D01*
X153216402Y-108143253D01*
X153198223Y-108126777D01*
X153181747Y-108108598D01*
X153167133Y-108088893D01*
X153154520Y-108067849D01*
X153144030Y-108045671D01*
X153135765Y-108022571D01*
X153129804Y-107998773D01*
X153126204Y-107974504D01*
X153125000Y-107950000D01*
X153125000Y-107025000D01*
X153126204Y-107000496D01*
X153129804Y-106976227D01*
X153135765Y-106952429D01*
X153144030Y-106929329D01*
X153154520Y-106907151D01*
X153167133Y-106886107D01*
X153181747Y-106866402D01*
X153198223Y-106848223D01*
X153216402Y-106831747D01*
X153236107Y-106817133D01*
X153257151Y-106804520D01*
X153279329Y-106794030D01*
X153302429Y-106785765D01*
X153326227Y-106779804D01*
X153350496Y-106776204D01*
X153375000Y-106775000D01*
X154625000Y-106775000D01*
X154649504Y-106776204D01*
X154649504Y-106776204D01*
G37*
D12*
X154000000Y-107487500D03*
D10*
G36*
X154649504Y-103801204D02*
G01*
X154673773Y-103804804D01*
X154697571Y-103810765D01*
X154720671Y-103819030D01*
X154742849Y-103829520D01*
X154763893Y-103842133D01*
X154783598Y-103856747D01*
X154801777Y-103873223D01*
X154818253Y-103891402D01*
X154832867Y-103911107D01*
X154845480Y-103932151D01*
X154855970Y-103954329D01*
X154864235Y-103977429D01*
X154870196Y-104001227D01*
X154873796Y-104025496D01*
X154875000Y-104050000D01*
X154875000Y-104975000D01*
X154873796Y-104999504D01*
X154870196Y-105023773D01*
X154864235Y-105047571D01*
X154855970Y-105070671D01*
X154845480Y-105092849D01*
X154832867Y-105113893D01*
X154818253Y-105133598D01*
X154801777Y-105151777D01*
X154783598Y-105168253D01*
X154763893Y-105182867D01*
X154742849Y-105195480D01*
X154720671Y-105205970D01*
X154697571Y-105214235D01*
X154673773Y-105220196D01*
X154649504Y-105223796D01*
X154625000Y-105225000D01*
X153375000Y-105225000D01*
X153350496Y-105223796D01*
X153326227Y-105220196D01*
X153302429Y-105214235D01*
X153279329Y-105205970D01*
X153257151Y-105195480D01*
X153236107Y-105182867D01*
X153216402Y-105168253D01*
X153198223Y-105151777D01*
X153181747Y-105133598D01*
X153167133Y-105113893D01*
X153154520Y-105092849D01*
X153144030Y-105070671D01*
X153135765Y-105047571D01*
X153129804Y-105023773D01*
X153126204Y-104999504D01*
X153125000Y-104975000D01*
X153125000Y-104050000D01*
X153126204Y-104025496D01*
X153129804Y-104001227D01*
X153135765Y-103977429D01*
X153144030Y-103954329D01*
X153154520Y-103932151D01*
X153167133Y-103911107D01*
X153181747Y-103891402D01*
X153198223Y-103873223D01*
X153216402Y-103856747D01*
X153236107Y-103842133D01*
X153257151Y-103829520D01*
X153279329Y-103819030D01*
X153302429Y-103810765D01*
X153326227Y-103804804D01*
X153350496Y-103801204D01*
X153375000Y-103800000D01*
X154625000Y-103800000D01*
X154649504Y-103801204D01*
X154649504Y-103801204D01*
G37*
D12*
X154000000Y-104512500D03*
D10*
G36*
X136474505Y-112901204D02*
G01*
X136498773Y-112904804D01*
X136522572Y-112910765D01*
X136545671Y-112919030D01*
X136567850Y-112929520D01*
X136588893Y-112942132D01*
X136608599Y-112956747D01*
X136626777Y-112973223D01*
X136643253Y-112991401D01*
X136657868Y-113011107D01*
X136670480Y-113032150D01*
X136680970Y-113054329D01*
X136689235Y-113077428D01*
X136695196Y-113101227D01*
X136698796Y-113125495D01*
X136700000Y-113149999D01*
X136700000Y-113800001D01*
X136698796Y-113824505D01*
X136695196Y-113848773D01*
X136689235Y-113872572D01*
X136680970Y-113895671D01*
X136670480Y-113917850D01*
X136657868Y-113938893D01*
X136643253Y-113958599D01*
X136626777Y-113976777D01*
X136608599Y-113993253D01*
X136588893Y-114007868D01*
X136567850Y-114020480D01*
X136545671Y-114030970D01*
X136522572Y-114039235D01*
X136498773Y-114045196D01*
X136474505Y-114048796D01*
X136450001Y-114050000D01*
X135549999Y-114050000D01*
X135525495Y-114048796D01*
X135501227Y-114045196D01*
X135477428Y-114039235D01*
X135454329Y-114030970D01*
X135432150Y-114020480D01*
X135411107Y-114007868D01*
X135391401Y-113993253D01*
X135373223Y-113976777D01*
X135356747Y-113958599D01*
X135342132Y-113938893D01*
X135329520Y-113917850D01*
X135319030Y-113895671D01*
X135310765Y-113872572D01*
X135304804Y-113848773D01*
X135301204Y-113824505D01*
X135300000Y-113800001D01*
X135300000Y-113149999D01*
X135301204Y-113125495D01*
X135304804Y-113101227D01*
X135310765Y-113077428D01*
X135319030Y-113054329D01*
X135329520Y-113032150D01*
X135342132Y-113011107D01*
X135356747Y-112991401D01*
X135373223Y-112973223D01*
X135391401Y-112956747D01*
X135411107Y-112942132D01*
X135432150Y-112929520D01*
X135454329Y-112919030D01*
X135477428Y-112910765D01*
X135501227Y-112904804D01*
X135525495Y-112901204D01*
X135549999Y-112900000D01*
X136450001Y-112900000D01*
X136474505Y-112901204D01*
X136474505Y-112901204D01*
G37*
D11*
X136000000Y-113475000D03*
D10*
G36*
X136474505Y-114951204D02*
G01*
X136498773Y-114954804D01*
X136522572Y-114960765D01*
X136545671Y-114969030D01*
X136567850Y-114979520D01*
X136588893Y-114992132D01*
X136608599Y-115006747D01*
X136626777Y-115023223D01*
X136643253Y-115041401D01*
X136657868Y-115061107D01*
X136670480Y-115082150D01*
X136680970Y-115104329D01*
X136689235Y-115127428D01*
X136695196Y-115151227D01*
X136698796Y-115175495D01*
X136700000Y-115199999D01*
X136700000Y-115850001D01*
X136698796Y-115874505D01*
X136695196Y-115898773D01*
X136689235Y-115922572D01*
X136680970Y-115945671D01*
X136670480Y-115967850D01*
X136657868Y-115988893D01*
X136643253Y-116008599D01*
X136626777Y-116026777D01*
X136608599Y-116043253D01*
X136588893Y-116057868D01*
X136567850Y-116070480D01*
X136545671Y-116080970D01*
X136522572Y-116089235D01*
X136498773Y-116095196D01*
X136474505Y-116098796D01*
X136450001Y-116100000D01*
X135549999Y-116100000D01*
X135525495Y-116098796D01*
X135501227Y-116095196D01*
X135477428Y-116089235D01*
X135454329Y-116080970D01*
X135432150Y-116070480D01*
X135411107Y-116057868D01*
X135391401Y-116043253D01*
X135373223Y-116026777D01*
X135356747Y-116008599D01*
X135342132Y-115988893D01*
X135329520Y-115967850D01*
X135319030Y-115945671D01*
X135310765Y-115922572D01*
X135304804Y-115898773D01*
X135301204Y-115874505D01*
X135300000Y-115850001D01*
X135300000Y-115199999D01*
X135301204Y-115175495D01*
X135304804Y-115151227D01*
X135310765Y-115127428D01*
X135319030Y-115104329D01*
X135329520Y-115082150D01*
X135342132Y-115061107D01*
X135356747Y-115041401D01*
X135373223Y-115023223D01*
X135391401Y-115006747D01*
X135411107Y-114992132D01*
X135432150Y-114979520D01*
X135454329Y-114969030D01*
X135477428Y-114960765D01*
X135501227Y-114954804D01*
X135525495Y-114951204D01*
X135549999Y-114950000D01*
X136450001Y-114950000D01*
X136474505Y-114951204D01*
X136474505Y-114951204D01*
G37*
D11*
X136000000Y-115525000D03*
D10*
G36*
X139149504Y-99788704D02*
G01*
X139173773Y-99792304D01*
X139197571Y-99798265D01*
X139220671Y-99806530D01*
X139242849Y-99817020D01*
X139263893Y-99829633D01*
X139283598Y-99844247D01*
X139301777Y-99860723D01*
X139318253Y-99878902D01*
X139332867Y-99898607D01*
X139345480Y-99919651D01*
X139355970Y-99941829D01*
X139364235Y-99964929D01*
X139370196Y-99988727D01*
X139373796Y-100012996D01*
X139375000Y-100037500D01*
X139375000Y-100962500D01*
X139373796Y-100987004D01*
X139370196Y-101011273D01*
X139364235Y-101035071D01*
X139355970Y-101058171D01*
X139345480Y-101080349D01*
X139332867Y-101101393D01*
X139318253Y-101121098D01*
X139301777Y-101139277D01*
X139283598Y-101155753D01*
X139263893Y-101170367D01*
X139242849Y-101182980D01*
X139220671Y-101193470D01*
X139197571Y-101201735D01*
X139173773Y-101207696D01*
X139149504Y-101211296D01*
X139125000Y-101212500D01*
X137875000Y-101212500D01*
X137850496Y-101211296D01*
X137826227Y-101207696D01*
X137802429Y-101201735D01*
X137779329Y-101193470D01*
X137757151Y-101182980D01*
X137736107Y-101170367D01*
X137716402Y-101155753D01*
X137698223Y-101139277D01*
X137681747Y-101121098D01*
X137667133Y-101101393D01*
X137654520Y-101080349D01*
X137644030Y-101058171D01*
X137635765Y-101035071D01*
X137629804Y-101011273D01*
X137626204Y-100987004D01*
X137625000Y-100962500D01*
X137625000Y-100037500D01*
X137626204Y-100012996D01*
X137629804Y-99988727D01*
X137635765Y-99964929D01*
X137644030Y-99941829D01*
X137654520Y-99919651D01*
X137667133Y-99898607D01*
X137681747Y-99878902D01*
X137698223Y-99860723D01*
X137716402Y-99844247D01*
X137736107Y-99829633D01*
X137757151Y-99817020D01*
X137779329Y-99806530D01*
X137802429Y-99798265D01*
X137826227Y-99792304D01*
X137850496Y-99788704D01*
X137875000Y-99787500D01*
X139125000Y-99787500D01*
X139149504Y-99788704D01*
X139149504Y-99788704D01*
G37*
D12*
X138500000Y-100500000D03*
D10*
G36*
X139149504Y-96813704D02*
G01*
X139173773Y-96817304D01*
X139197571Y-96823265D01*
X139220671Y-96831530D01*
X139242849Y-96842020D01*
X139263893Y-96854633D01*
X139283598Y-96869247D01*
X139301777Y-96885723D01*
X139318253Y-96903902D01*
X139332867Y-96923607D01*
X139345480Y-96944651D01*
X139355970Y-96966829D01*
X139364235Y-96989929D01*
X139370196Y-97013727D01*
X139373796Y-97037996D01*
X139375000Y-97062500D01*
X139375000Y-97987500D01*
X139373796Y-98012004D01*
X139370196Y-98036273D01*
X139364235Y-98060071D01*
X139355970Y-98083171D01*
X139345480Y-98105349D01*
X139332867Y-98126393D01*
X139318253Y-98146098D01*
X139301777Y-98164277D01*
X139283598Y-98180753D01*
X139263893Y-98195367D01*
X139242849Y-98207980D01*
X139220671Y-98218470D01*
X139197571Y-98226735D01*
X139173773Y-98232696D01*
X139149504Y-98236296D01*
X139125000Y-98237500D01*
X137875000Y-98237500D01*
X137850496Y-98236296D01*
X137826227Y-98232696D01*
X137802429Y-98226735D01*
X137779329Y-98218470D01*
X137757151Y-98207980D01*
X137736107Y-98195367D01*
X137716402Y-98180753D01*
X137698223Y-98164277D01*
X137681747Y-98146098D01*
X137667133Y-98126393D01*
X137654520Y-98105349D01*
X137644030Y-98083171D01*
X137635765Y-98060071D01*
X137629804Y-98036273D01*
X137626204Y-98012004D01*
X137625000Y-97987500D01*
X137625000Y-97062500D01*
X137626204Y-97037996D01*
X137629804Y-97013727D01*
X137635765Y-96989929D01*
X137644030Y-96966829D01*
X137654520Y-96944651D01*
X137667133Y-96923607D01*
X137681747Y-96903902D01*
X137698223Y-96885723D01*
X137716402Y-96869247D01*
X137736107Y-96854633D01*
X137757151Y-96842020D01*
X137779329Y-96831530D01*
X137802429Y-96823265D01*
X137826227Y-96817304D01*
X137850496Y-96813704D01*
X137875000Y-96812500D01*
X139125000Y-96812500D01*
X139149504Y-96813704D01*
X139149504Y-96813704D01*
G37*
D12*
X138500000Y-97525000D03*
D10*
G36*
X150324505Y-100301204D02*
G01*
X150348773Y-100304804D01*
X150372572Y-100310765D01*
X150395671Y-100319030D01*
X150417850Y-100329520D01*
X150438893Y-100342132D01*
X150458599Y-100356747D01*
X150476777Y-100373223D01*
X150493253Y-100391401D01*
X150507868Y-100411107D01*
X150520480Y-100432150D01*
X150530970Y-100454329D01*
X150539235Y-100477428D01*
X150545196Y-100501227D01*
X150548796Y-100525495D01*
X150550000Y-100549999D01*
X150550000Y-101450001D01*
X150548796Y-101474505D01*
X150545196Y-101498773D01*
X150539235Y-101522572D01*
X150530970Y-101545671D01*
X150520480Y-101567850D01*
X150507868Y-101588893D01*
X150493253Y-101608599D01*
X150476777Y-101626777D01*
X150458599Y-101643253D01*
X150438893Y-101657868D01*
X150417850Y-101670480D01*
X150395671Y-101680970D01*
X150372572Y-101689235D01*
X150348773Y-101695196D01*
X150324505Y-101698796D01*
X150300001Y-101700000D01*
X149649999Y-101700000D01*
X149625495Y-101698796D01*
X149601227Y-101695196D01*
X149577428Y-101689235D01*
X149554329Y-101680970D01*
X149532150Y-101670480D01*
X149511107Y-101657868D01*
X149491401Y-101643253D01*
X149473223Y-101626777D01*
X149456747Y-101608599D01*
X149442132Y-101588893D01*
X149429520Y-101567850D01*
X149419030Y-101545671D01*
X149410765Y-101522572D01*
X149404804Y-101498773D01*
X149401204Y-101474505D01*
X149400000Y-101450001D01*
X149400000Y-100549999D01*
X149401204Y-100525495D01*
X149404804Y-100501227D01*
X149410765Y-100477428D01*
X149419030Y-100454329D01*
X149429520Y-100432150D01*
X149442132Y-100411107D01*
X149456747Y-100391401D01*
X149473223Y-100373223D01*
X149491401Y-100356747D01*
X149511107Y-100342132D01*
X149532150Y-100329520D01*
X149554329Y-100319030D01*
X149577428Y-100310765D01*
X149601227Y-100304804D01*
X149625495Y-100301204D01*
X149649999Y-100300000D01*
X150300001Y-100300000D01*
X150324505Y-100301204D01*
X150324505Y-100301204D01*
G37*
D11*
X149975000Y-101000000D03*
D10*
G36*
X152374505Y-100301204D02*
G01*
X152398773Y-100304804D01*
X152422572Y-100310765D01*
X152445671Y-100319030D01*
X152467850Y-100329520D01*
X152488893Y-100342132D01*
X152508599Y-100356747D01*
X152526777Y-100373223D01*
X152543253Y-100391401D01*
X152557868Y-100411107D01*
X152570480Y-100432150D01*
X152580970Y-100454329D01*
X152589235Y-100477428D01*
X152595196Y-100501227D01*
X152598796Y-100525495D01*
X152600000Y-100549999D01*
X152600000Y-101450001D01*
X152598796Y-101474505D01*
X152595196Y-101498773D01*
X152589235Y-101522572D01*
X152580970Y-101545671D01*
X152570480Y-101567850D01*
X152557868Y-101588893D01*
X152543253Y-101608599D01*
X152526777Y-101626777D01*
X152508599Y-101643253D01*
X152488893Y-101657868D01*
X152467850Y-101670480D01*
X152445671Y-101680970D01*
X152422572Y-101689235D01*
X152398773Y-101695196D01*
X152374505Y-101698796D01*
X152350001Y-101700000D01*
X151699999Y-101700000D01*
X151675495Y-101698796D01*
X151651227Y-101695196D01*
X151627428Y-101689235D01*
X151604329Y-101680970D01*
X151582150Y-101670480D01*
X151561107Y-101657868D01*
X151541401Y-101643253D01*
X151523223Y-101626777D01*
X151506747Y-101608599D01*
X151492132Y-101588893D01*
X151479520Y-101567850D01*
X151469030Y-101545671D01*
X151460765Y-101522572D01*
X151454804Y-101498773D01*
X151451204Y-101474505D01*
X151450000Y-101450001D01*
X151450000Y-100549999D01*
X151451204Y-100525495D01*
X151454804Y-100501227D01*
X151460765Y-100477428D01*
X151469030Y-100454329D01*
X151479520Y-100432150D01*
X151492132Y-100411107D01*
X151506747Y-100391401D01*
X151523223Y-100373223D01*
X151541401Y-100356747D01*
X151561107Y-100342132D01*
X151582150Y-100329520D01*
X151604329Y-100319030D01*
X151627428Y-100310765D01*
X151651227Y-100304804D01*
X151675495Y-100301204D01*
X151699999Y-100300000D01*
X152350001Y-100300000D01*
X152374505Y-100301204D01*
X152374505Y-100301204D01*
G37*
D11*
X152025000Y-101000000D03*
D10*
G36*
X143874505Y-121301204D02*
G01*
X143898773Y-121304804D01*
X143922572Y-121310765D01*
X143945671Y-121319030D01*
X143967850Y-121329520D01*
X143988893Y-121342132D01*
X144008599Y-121356747D01*
X144026777Y-121373223D01*
X144043253Y-121391401D01*
X144057868Y-121411107D01*
X144070480Y-121432150D01*
X144080970Y-121454329D01*
X144089235Y-121477428D01*
X144095196Y-121501227D01*
X144098796Y-121525495D01*
X144100000Y-121549999D01*
X144100000Y-122450001D01*
X144098796Y-122474505D01*
X144095196Y-122498773D01*
X144089235Y-122522572D01*
X144080970Y-122545671D01*
X144070480Y-122567850D01*
X144057868Y-122588893D01*
X144043253Y-122608599D01*
X144026777Y-122626777D01*
X144008599Y-122643253D01*
X143988893Y-122657868D01*
X143967850Y-122670480D01*
X143945671Y-122680970D01*
X143922572Y-122689235D01*
X143898773Y-122695196D01*
X143874505Y-122698796D01*
X143850001Y-122700000D01*
X143199999Y-122700000D01*
X143175495Y-122698796D01*
X143151227Y-122695196D01*
X143127428Y-122689235D01*
X143104329Y-122680970D01*
X143082150Y-122670480D01*
X143061107Y-122657868D01*
X143041401Y-122643253D01*
X143023223Y-122626777D01*
X143006747Y-122608599D01*
X142992132Y-122588893D01*
X142979520Y-122567850D01*
X142969030Y-122545671D01*
X142960765Y-122522572D01*
X142954804Y-122498773D01*
X142951204Y-122474505D01*
X142950000Y-122450001D01*
X142950000Y-121549999D01*
X142951204Y-121525495D01*
X142954804Y-121501227D01*
X142960765Y-121477428D01*
X142969030Y-121454329D01*
X142979520Y-121432150D01*
X142992132Y-121411107D01*
X143006747Y-121391401D01*
X143023223Y-121373223D01*
X143041401Y-121356747D01*
X143061107Y-121342132D01*
X143082150Y-121329520D01*
X143104329Y-121319030D01*
X143127428Y-121310765D01*
X143151227Y-121304804D01*
X143175495Y-121301204D01*
X143199999Y-121300000D01*
X143850001Y-121300000D01*
X143874505Y-121301204D01*
X143874505Y-121301204D01*
G37*
D11*
X143525000Y-122000000D03*
D10*
G36*
X141824505Y-121301204D02*
G01*
X141848773Y-121304804D01*
X141872572Y-121310765D01*
X141895671Y-121319030D01*
X141917850Y-121329520D01*
X141938893Y-121342132D01*
X141958599Y-121356747D01*
X141976777Y-121373223D01*
X141993253Y-121391401D01*
X142007868Y-121411107D01*
X142020480Y-121432150D01*
X142030970Y-121454329D01*
X142039235Y-121477428D01*
X142045196Y-121501227D01*
X142048796Y-121525495D01*
X142050000Y-121549999D01*
X142050000Y-122450001D01*
X142048796Y-122474505D01*
X142045196Y-122498773D01*
X142039235Y-122522572D01*
X142030970Y-122545671D01*
X142020480Y-122567850D01*
X142007868Y-122588893D01*
X141993253Y-122608599D01*
X141976777Y-122626777D01*
X141958599Y-122643253D01*
X141938893Y-122657868D01*
X141917850Y-122670480D01*
X141895671Y-122680970D01*
X141872572Y-122689235D01*
X141848773Y-122695196D01*
X141824505Y-122698796D01*
X141800001Y-122700000D01*
X141149999Y-122700000D01*
X141125495Y-122698796D01*
X141101227Y-122695196D01*
X141077428Y-122689235D01*
X141054329Y-122680970D01*
X141032150Y-122670480D01*
X141011107Y-122657868D01*
X140991401Y-122643253D01*
X140973223Y-122626777D01*
X140956747Y-122608599D01*
X140942132Y-122588893D01*
X140929520Y-122567850D01*
X140919030Y-122545671D01*
X140910765Y-122522572D01*
X140904804Y-122498773D01*
X140901204Y-122474505D01*
X140900000Y-122450001D01*
X140900000Y-121549999D01*
X140901204Y-121525495D01*
X140904804Y-121501227D01*
X140910765Y-121477428D01*
X140919030Y-121454329D01*
X140929520Y-121432150D01*
X140942132Y-121411107D01*
X140956747Y-121391401D01*
X140973223Y-121373223D01*
X140991401Y-121356747D01*
X141011107Y-121342132D01*
X141032150Y-121329520D01*
X141054329Y-121319030D01*
X141077428Y-121310765D01*
X141101227Y-121304804D01*
X141125495Y-121301204D01*
X141149999Y-121300000D01*
X141800001Y-121300000D01*
X141824505Y-121301204D01*
X141824505Y-121301204D01*
G37*
D11*
X141475000Y-122000000D03*
D10*
G36*
X141974505Y-112926204D02*
G01*
X141998773Y-112929804D01*
X142022572Y-112935765D01*
X142045671Y-112944030D01*
X142067850Y-112954520D01*
X142088893Y-112967132D01*
X142108599Y-112981747D01*
X142126777Y-112998223D01*
X142143253Y-113016401D01*
X142157868Y-113036107D01*
X142170480Y-113057150D01*
X142180970Y-113079329D01*
X142189235Y-113102428D01*
X142195196Y-113126227D01*
X142198796Y-113150495D01*
X142200000Y-113174999D01*
X142200000Y-113825001D01*
X142198796Y-113849505D01*
X142195196Y-113873773D01*
X142189235Y-113897572D01*
X142180970Y-113920671D01*
X142170480Y-113942850D01*
X142157868Y-113963893D01*
X142143253Y-113983599D01*
X142126777Y-114001777D01*
X142108599Y-114018253D01*
X142088893Y-114032868D01*
X142067850Y-114045480D01*
X142045671Y-114055970D01*
X142022572Y-114064235D01*
X141998773Y-114070196D01*
X141974505Y-114073796D01*
X141950001Y-114075000D01*
X141049999Y-114075000D01*
X141025495Y-114073796D01*
X141001227Y-114070196D01*
X140977428Y-114064235D01*
X140954329Y-114055970D01*
X140932150Y-114045480D01*
X140911107Y-114032868D01*
X140891401Y-114018253D01*
X140873223Y-114001777D01*
X140856747Y-113983599D01*
X140842132Y-113963893D01*
X140829520Y-113942850D01*
X140819030Y-113920671D01*
X140810765Y-113897572D01*
X140804804Y-113873773D01*
X140801204Y-113849505D01*
X140800000Y-113825001D01*
X140800000Y-113174999D01*
X140801204Y-113150495D01*
X140804804Y-113126227D01*
X140810765Y-113102428D01*
X140819030Y-113079329D01*
X140829520Y-113057150D01*
X140842132Y-113036107D01*
X140856747Y-113016401D01*
X140873223Y-112998223D01*
X140891401Y-112981747D01*
X140911107Y-112967132D01*
X140932150Y-112954520D01*
X140954329Y-112944030D01*
X140977428Y-112935765D01*
X141001227Y-112929804D01*
X141025495Y-112926204D01*
X141049999Y-112925000D01*
X141950001Y-112925000D01*
X141974505Y-112926204D01*
X141974505Y-112926204D01*
G37*
D11*
X141500000Y-113500000D03*
D10*
G36*
X141974505Y-114976204D02*
G01*
X141998773Y-114979804D01*
X142022572Y-114985765D01*
X142045671Y-114994030D01*
X142067850Y-115004520D01*
X142088893Y-115017132D01*
X142108599Y-115031747D01*
X142126777Y-115048223D01*
X142143253Y-115066401D01*
X142157868Y-115086107D01*
X142170480Y-115107150D01*
X142180970Y-115129329D01*
X142189235Y-115152428D01*
X142195196Y-115176227D01*
X142198796Y-115200495D01*
X142200000Y-115224999D01*
X142200000Y-115875001D01*
X142198796Y-115899505D01*
X142195196Y-115923773D01*
X142189235Y-115947572D01*
X142180970Y-115970671D01*
X142170480Y-115992850D01*
X142157868Y-116013893D01*
X142143253Y-116033599D01*
X142126777Y-116051777D01*
X142108599Y-116068253D01*
X142088893Y-116082868D01*
X142067850Y-116095480D01*
X142045671Y-116105970D01*
X142022572Y-116114235D01*
X141998773Y-116120196D01*
X141974505Y-116123796D01*
X141950001Y-116125000D01*
X141049999Y-116125000D01*
X141025495Y-116123796D01*
X141001227Y-116120196D01*
X140977428Y-116114235D01*
X140954329Y-116105970D01*
X140932150Y-116095480D01*
X140911107Y-116082868D01*
X140891401Y-116068253D01*
X140873223Y-116051777D01*
X140856747Y-116033599D01*
X140842132Y-116013893D01*
X140829520Y-115992850D01*
X140819030Y-115970671D01*
X140810765Y-115947572D01*
X140804804Y-115923773D01*
X140801204Y-115899505D01*
X140800000Y-115875001D01*
X140800000Y-115224999D01*
X140801204Y-115200495D01*
X140804804Y-115176227D01*
X140810765Y-115152428D01*
X140819030Y-115129329D01*
X140829520Y-115107150D01*
X140842132Y-115086107D01*
X140856747Y-115066401D01*
X140873223Y-115048223D01*
X140891401Y-115031747D01*
X140911107Y-115017132D01*
X140932150Y-115004520D01*
X140954329Y-114994030D01*
X140977428Y-114985765D01*
X141001227Y-114979804D01*
X141025495Y-114976204D01*
X141049999Y-114975000D01*
X141950001Y-114975000D01*
X141974505Y-114976204D01*
X141974505Y-114976204D01*
G37*
D11*
X141500000Y-115550000D03*
D10*
G36*
X145474505Y-92451204D02*
G01*
X145498773Y-92454804D01*
X145522572Y-92460765D01*
X145545671Y-92469030D01*
X145567850Y-92479520D01*
X145588893Y-92492132D01*
X145608599Y-92506747D01*
X145626777Y-92523223D01*
X145643253Y-92541401D01*
X145657868Y-92561107D01*
X145670480Y-92582150D01*
X145680970Y-92604329D01*
X145689235Y-92627428D01*
X145695196Y-92651227D01*
X145698796Y-92675495D01*
X145700000Y-92699999D01*
X145700000Y-93350001D01*
X145698796Y-93374505D01*
X145695196Y-93398773D01*
X145689235Y-93422572D01*
X145680970Y-93445671D01*
X145670480Y-93467850D01*
X145657868Y-93488893D01*
X145643253Y-93508599D01*
X145626777Y-93526777D01*
X145608599Y-93543253D01*
X145588893Y-93557868D01*
X145567850Y-93570480D01*
X145545671Y-93580970D01*
X145522572Y-93589235D01*
X145498773Y-93595196D01*
X145474505Y-93598796D01*
X145450001Y-93600000D01*
X144549999Y-93600000D01*
X144525495Y-93598796D01*
X144501227Y-93595196D01*
X144477428Y-93589235D01*
X144454329Y-93580970D01*
X144432150Y-93570480D01*
X144411107Y-93557868D01*
X144391401Y-93543253D01*
X144373223Y-93526777D01*
X144356747Y-93508599D01*
X144342132Y-93488893D01*
X144329520Y-93467850D01*
X144319030Y-93445671D01*
X144310765Y-93422572D01*
X144304804Y-93398773D01*
X144301204Y-93374505D01*
X144300000Y-93350001D01*
X144300000Y-92699999D01*
X144301204Y-92675495D01*
X144304804Y-92651227D01*
X144310765Y-92627428D01*
X144319030Y-92604329D01*
X144329520Y-92582150D01*
X144342132Y-92561107D01*
X144356747Y-92541401D01*
X144373223Y-92523223D01*
X144391401Y-92506747D01*
X144411107Y-92492132D01*
X144432150Y-92479520D01*
X144454329Y-92469030D01*
X144477428Y-92460765D01*
X144501227Y-92454804D01*
X144525495Y-92451204D01*
X144549999Y-92450000D01*
X145450001Y-92450000D01*
X145474505Y-92451204D01*
X145474505Y-92451204D01*
G37*
D11*
X145000000Y-93025000D03*
D10*
G36*
X145474505Y-90401204D02*
G01*
X145498773Y-90404804D01*
X145522572Y-90410765D01*
X145545671Y-90419030D01*
X145567850Y-90429520D01*
X145588893Y-90442132D01*
X145608599Y-90456747D01*
X145626777Y-90473223D01*
X145643253Y-90491401D01*
X145657868Y-90511107D01*
X145670480Y-90532150D01*
X145680970Y-90554329D01*
X145689235Y-90577428D01*
X145695196Y-90601227D01*
X145698796Y-90625495D01*
X145700000Y-90649999D01*
X145700000Y-91300001D01*
X145698796Y-91324505D01*
X145695196Y-91348773D01*
X145689235Y-91372572D01*
X145680970Y-91395671D01*
X145670480Y-91417850D01*
X145657868Y-91438893D01*
X145643253Y-91458599D01*
X145626777Y-91476777D01*
X145608599Y-91493253D01*
X145588893Y-91507868D01*
X145567850Y-91520480D01*
X145545671Y-91530970D01*
X145522572Y-91539235D01*
X145498773Y-91545196D01*
X145474505Y-91548796D01*
X145450001Y-91550000D01*
X144549999Y-91550000D01*
X144525495Y-91548796D01*
X144501227Y-91545196D01*
X144477428Y-91539235D01*
X144454329Y-91530970D01*
X144432150Y-91520480D01*
X144411107Y-91507868D01*
X144391401Y-91493253D01*
X144373223Y-91476777D01*
X144356747Y-91458599D01*
X144342132Y-91438893D01*
X144329520Y-91417850D01*
X144319030Y-91395671D01*
X144310765Y-91372572D01*
X144304804Y-91348773D01*
X144301204Y-91324505D01*
X144300000Y-91300001D01*
X144300000Y-90649999D01*
X144301204Y-90625495D01*
X144304804Y-90601227D01*
X144310765Y-90577428D01*
X144319030Y-90554329D01*
X144329520Y-90532150D01*
X144342132Y-90511107D01*
X144356747Y-90491401D01*
X144373223Y-90473223D01*
X144391401Y-90456747D01*
X144411107Y-90442132D01*
X144432150Y-90429520D01*
X144454329Y-90419030D01*
X144477428Y-90410765D01*
X144501227Y-90404804D01*
X144525495Y-90401204D01*
X144549999Y-90400000D01*
X145450001Y-90400000D01*
X145474505Y-90401204D01*
X145474505Y-90401204D01*
G37*
D11*
X145000000Y-90975000D03*
D10*
G36*
X151824505Y-121301204D02*
G01*
X151848773Y-121304804D01*
X151872572Y-121310765D01*
X151895671Y-121319030D01*
X151917850Y-121329520D01*
X151938893Y-121342132D01*
X151958599Y-121356747D01*
X151976777Y-121373223D01*
X151993253Y-121391401D01*
X152007868Y-121411107D01*
X152020480Y-121432150D01*
X152030970Y-121454329D01*
X152039235Y-121477428D01*
X152045196Y-121501227D01*
X152048796Y-121525495D01*
X152050000Y-121549999D01*
X152050000Y-122450001D01*
X152048796Y-122474505D01*
X152045196Y-122498773D01*
X152039235Y-122522572D01*
X152030970Y-122545671D01*
X152020480Y-122567850D01*
X152007868Y-122588893D01*
X151993253Y-122608599D01*
X151976777Y-122626777D01*
X151958599Y-122643253D01*
X151938893Y-122657868D01*
X151917850Y-122670480D01*
X151895671Y-122680970D01*
X151872572Y-122689235D01*
X151848773Y-122695196D01*
X151824505Y-122698796D01*
X151800001Y-122700000D01*
X151149999Y-122700000D01*
X151125495Y-122698796D01*
X151101227Y-122695196D01*
X151077428Y-122689235D01*
X151054329Y-122680970D01*
X151032150Y-122670480D01*
X151011107Y-122657868D01*
X150991401Y-122643253D01*
X150973223Y-122626777D01*
X150956747Y-122608599D01*
X150942132Y-122588893D01*
X150929520Y-122567850D01*
X150919030Y-122545671D01*
X150910765Y-122522572D01*
X150904804Y-122498773D01*
X150901204Y-122474505D01*
X150900000Y-122450001D01*
X150900000Y-121549999D01*
X150901204Y-121525495D01*
X150904804Y-121501227D01*
X150910765Y-121477428D01*
X150919030Y-121454329D01*
X150929520Y-121432150D01*
X150942132Y-121411107D01*
X150956747Y-121391401D01*
X150973223Y-121373223D01*
X150991401Y-121356747D01*
X151011107Y-121342132D01*
X151032150Y-121329520D01*
X151054329Y-121319030D01*
X151077428Y-121310765D01*
X151101227Y-121304804D01*
X151125495Y-121301204D01*
X151149999Y-121300000D01*
X151800001Y-121300000D01*
X151824505Y-121301204D01*
X151824505Y-121301204D01*
G37*
D11*
X151475000Y-122000000D03*
D10*
G36*
X153874505Y-121301204D02*
G01*
X153898773Y-121304804D01*
X153922572Y-121310765D01*
X153945671Y-121319030D01*
X153967850Y-121329520D01*
X153988893Y-121342132D01*
X154008599Y-121356747D01*
X154026777Y-121373223D01*
X154043253Y-121391401D01*
X154057868Y-121411107D01*
X154070480Y-121432150D01*
X154080970Y-121454329D01*
X154089235Y-121477428D01*
X154095196Y-121501227D01*
X154098796Y-121525495D01*
X154100000Y-121549999D01*
X154100000Y-122450001D01*
X154098796Y-122474505D01*
X154095196Y-122498773D01*
X154089235Y-122522572D01*
X154080970Y-122545671D01*
X154070480Y-122567850D01*
X154057868Y-122588893D01*
X154043253Y-122608599D01*
X154026777Y-122626777D01*
X154008599Y-122643253D01*
X153988893Y-122657868D01*
X153967850Y-122670480D01*
X153945671Y-122680970D01*
X153922572Y-122689235D01*
X153898773Y-122695196D01*
X153874505Y-122698796D01*
X153850001Y-122700000D01*
X153199999Y-122700000D01*
X153175495Y-122698796D01*
X153151227Y-122695196D01*
X153127428Y-122689235D01*
X153104329Y-122680970D01*
X153082150Y-122670480D01*
X153061107Y-122657868D01*
X153041401Y-122643253D01*
X153023223Y-122626777D01*
X153006747Y-122608599D01*
X152992132Y-122588893D01*
X152979520Y-122567850D01*
X152969030Y-122545671D01*
X152960765Y-122522572D01*
X152954804Y-122498773D01*
X152951204Y-122474505D01*
X152950000Y-122450001D01*
X152950000Y-121549999D01*
X152951204Y-121525495D01*
X152954804Y-121501227D01*
X152960765Y-121477428D01*
X152969030Y-121454329D01*
X152979520Y-121432150D01*
X152992132Y-121411107D01*
X153006747Y-121391401D01*
X153023223Y-121373223D01*
X153041401Y-121356747D01*
X153061107Y-121342132D01*
X153082150Y-121329520D01*
X153104329Y-121319030D01*
X153127428Y-121310765D01*
X153151227Y-121304804D01*
X153175495Y-121301204D01*
X153199999Y-121300000D01*
X153850001Y-121300000D01*
X153874505Y-121301204D01*
X153874505Y-121301204D01*
G37*
D11*
X153525000Y-122000000D03*
D10*
G36*
X141824505Y-129301204D02*
G01*
X141848773Y-129304804D01*
X141872572Y-129310765D01*
X141895671Y-129319030D01*
X141917850Y-129329520D01*
X141938893Y-129342132D01*
X141958599Y-129356747D01*
X141976777Y-129373223D01*
X141993253Y-129391401D01*
X142007868Y-129411107D01*
X142020480Y-129432150D01*
X142030970Y-129454329D01*
X142039235Y-129477428D01*
X142045196Y-129501227D01*
X142048796Y-129525495D01*
X142050000Y-129549999D01*
X142050000Y-130450001D01*
X142048796Y-130474505D01*
X142045196Y-130498773D01*
X142039235Y-130522572D01*
X142030970Y-130545671D01*
X142020480Y-130567850D01*
X142007868Y-130588893D01*
X141993253Y-130608599D01*
X141976777Y-130626777D01*
X141958599Y-130643253D01*
X141938893Y-130657868D01*
X141917850Y-130670480D01*
X141895671Y-130680970D01*
X141872572Y-130689235D01*
X141848773Y-130695196D01*
X141824505Y-130698796D01*
X141800001Y-130700000D01*
X141149999Y-130700000D01*
X141125495Y-130698796D01*
X141101227Y-130695196D01*
X141077428Y-130689235D01*
X141054329Y-130680970D01*
X141032150Y-130670480D01*
X141011107Y-130657868D01*
X140991401Y-130643253D01*
X140973223Y-130626777D01*
X140956747Y-130608599D01*
X140942132Y-130588893D01*
X140929520Y-130567850D01*
X140919030Y-130545671D01*
X140910765Y-130522572D01*
X140904804Y-130498773D01*
X140901204Y-130474505D01*
X140900000Y-130450001D01*
X140900000Y-129549999D01*
X140901204Y-129525495D01*
X140904804Y-129501227D01*
X140910765Y-129477428D01*
X140919030Y-129454329D01*
X140929520Y-129432150D01*
X140942132Y-129411107D01*
X140956747Y-129391401D01*
X140973223Y-129373223D01*
X140991401Y-129356747D01*
X141011107Y-129342132D01*
X141032150Y-129329520D01*
X141054329Y-129319030D01*
X141077428Y-129310765D01*
X141101227Y-129304804D01*
X141125495Y-129301204D01*
X141149999Y-129300000D01*
X141800001Y-129300000D01*
X141824505Y-129301204D01*
X141824505Y-129301204D01*
G37*
D11*
X141475000Y-130000000D03*
D10*
G36*
X143874505Y-129301204D02*
G01*
X143898773Y-129304804D01*
X143922572Y-129310765D01*
X143945671Y-129319030D01*
X143967850Y-129329520D01*
X143988893Y-129342132D01*
X144008599Y-129356747D01*
X144026777Y-129373223D01*
X144043253Y-129391401D01*
X144057868Y-129411107D01*
X144070480Y-129432150D01*
X144080970Y-129454329D01*
X144089235Y-129477428D01*
X144095196Y-129501227D01*
X144098796Y-129525495D01*
X144100000Y-129549999D01*
X144100000Y-130450001D01*
X144098796Y-130474505D01*
X144095196Y-130498773D01*
X144089235Y-130522572D01*
X144080970Y-130545671D01*
X144070480Y-130567850D01*
X144057868Y-130588893D01*
X144043253Y-130608599D01*
X144026777Y-130626777D01*
X144008599Y-130643253D01*
X143988893Y-130657868D01*
X143967850Y-130670480D01*
X143945671Y-130680970D01*
X143922572Y-130689235D01*
X143898773Y-130695196D01*
X143874505Y-130698796D01*
X143850001Y-130700000D01*
X143199999Y-130700000D01*
X143175495Y-130698796D01*
X143151227Y-130695196D01*
X143127428Y-130689235D01*
X143104329Y-130680970D01*
X143082150Y-130670480D01*
X143061107Y-130657868D01*
X143041401Y-130643253D01*
X143023223Y-130626777D01*
X143006747Y-130608599D01*
X142992132Y-130588893D01*
X142979520Y-130567850D01*
X142969030Y-130545671D01*
X142960765Y-130522572D01*
X142954804Y-130498773D01*
X142951204Y-130474505D01*
X142950000Y-130450001D01*
X142950000Y-129549999D01*
X142951204Y-129525495D01*
X142954804Y-129501227D01*
X142960765Y-129477428D01*
X142969030Y-129454329D01*
X142979520Y-129432150D01*
X142992132Y-129411107D01*
X143006747Y-129391401D01*
X143023223Y-129373223D01*
X143041401Y-129356747D01*
X143061107Y-129342132D01*
X143082150Y-129329520D01*
X143104329Y-129319030D01*
X143127428Y-129310765D01*
X143151227Y-129304804D01*
X143175495Y-129301204D01*
X143199999Y-129300000D01*
X143850001Y-129300000D01*
X143874505Y-129301204D01*
X143874505Y-129301204D01*
G37*
D11*
X143525000Y-130000000D03*
D10*
G36*
X133149504Y-114776204D02*
G01*
X133173773Y-114779804D01*
X133197571Y-114785765D01*
X133220671Y-114794030D01*
X133242849Y-114804520D01*
X133263893Y-114817133D01*
X133283598Y-114831747D01*
X133301777Y-114848223D01*
X133318253Y-114866402D01*
X133332867Y-114886107D01*
X133345480Y-114907151D01*
X133355970Y-114929329D01*
X133364235Y-114952429D01*
X133370196Y-114976227D01*
X133373796Y-115000496D01*
X133375000Y-115025000D01*
X133375000Y-115950000D01*
X133373796Y-115974504D01*
X133370196Y-115998773D01*
X133364235Y-116022571D01*
X133355970Y-116045671D01*
X133345480Y-116067849D01*
X133332867Y-116088893D01*
X133318253Y-116108598D01*
X133301777Y-116126777D01*
X133283598Y-116143253D01*
X133263893Y-116157867D01*
X133242849Y-116170480D01*
X133220671Y-116180970D01*
X133197571Y-116189235D01*
X133173773Y-116195196D01*
X133149504Y-116198796D01*
X133125000Y-116200000D01*
X131875000Y-116200000D01*
X131850496Y-116198796D01*
X131826227Y-116195196D01*
X131802429Y-116189235D01*
X131779329Y-116180970D01*
X131757151Y-116170480D01*
X131736107Y-116157867D01*
X131716402Y-116143253D01*
X131698223Y-116126777D01*
X131681747Y-116108598D01*
X131667133Y-116088893D01*
X131654520Y-116067849D01*
X131644030Y-116045671D01*
X131635765Y-116022571D01*
X131629804Y-115998773D01*
X131626204Y-115974504D01*
X131625000Y-115950000D01*
X131625000Y-115025000D01*
X131626204Y-115000496D01*
X131629804Y-114976227D01*
X131635765Y-114952429D01*
X131644030Y-114929329D01*
X131654520Y-114907151D01*
X131667133Y-114886107D01*
X131681747Y-114866402D01*
X131698223Y-114848223D01*
X131716402Y-114831747D01*
X131736107Y-114817133D01*
X131757151Y-114804520D01*
X131779329Y-114794030D01*
X131802429Y-114785765D01*
X131826227Y-114779804D01*
X131850496Y-114776204D01*
X131875000Y-114775000D01*
X133125000Y-114775000D01*
X133149504Y-114776204D01*
X133149504Y-114776204D01*
G37*
D12*
X132500000Y-115487500D03*
D10*
G36*
X133149504Y-111801204D02*
G01*
X133173773Y-111804804D01*
X133197571Y-111810765D01*
X133220671Y-111819030D01*
X133242849Y-111829520D01*
X133263893Y-111842133D01*
X133283598Y-111856747D01*
X133301777Y-111873223D01*
X133318253Y-111891402D01*
X133332867Y-111911107D01*
X133345480Y-111932151D01*
X133355970Y-111954329D01*
X133364235Y-111977429D01*
X133370196Y-112001227D01*
X133373796Y-112025496D01*
X133375000Y-112050000D01*
X133375000Y-112975000D01*
X133373796Y-112999504D01*
X133370196Y-113023773D01*
X133364235Y-113047571D01*
X133355970Y-113070671D01*
X133345480Y-113092849D01*
X133332867Y-113113893D01*
X133318253Y-113133598D01*
X133301777Y-113151777D01*
X133283598Y-113168253D01*
X133263893Y-113182867D01*
X133242849Y-113195480D01*
X133220671Y-113205970D01*
X133197571Y-113214235D01*
X133173773Y-113220196D01*
X133149504Y-113223796D01*
X133125000Y-113225000D01*
X131875000Y-113225000D01*
X131850496Y-113223796D01*
X131826227Y-113220196D01*
X131802429Y-113214235D01*
X131779329Y-113205970D01*
X131757151Y-113195480D01*
X131736107Y-113182867D01*
X131716402Y-113168253D01*
X131698223Y-113151777D01*
X131681747Y-113133598D01*
X131667133Y-113113893D01*
X131654520Y-113092849D01*
X131644030Y-113070671D01*
X131635765Y-113047571D01*
X131629804Y-113023773D01*
X131626204Y-112999504D01*
X131625000Y-112975000D01*
X131625000Y-112050000D01*
X131626204Y-112025496D01*
X131629804Y-112001227D01*
X131635765Y-111977429D01*
X131644030Y-111954329D01*
X131654520Y-111932151D01*
X131667133Y-111911107D01*
X131681747Y-111891402D01*
X131698223Y-111873223D01*
X131716402Y-111856747D01*
X131736107Y-111842133D01*
X131757151Y-111829520D01*
X131779329Y-111819030D01*
X131802429Y-111810765D01*
X131826227Y-111804804D01*
X131850496Y-111801204D01*
X131875000Y-111800000D01*
X133125000Y-111800000D01*
X133149504Y-111801204D01*
X133149504Y-111801204D01*
G37*
D12*
X132500000Y-112512500D03*
D10*
G36*
X133149504Y-106776204D02*
G01*
X133173773Y-106779804D01*
X133197571Y-106785765D01*
X133220671Y-106794030D01*
X133242849Y-106804520D01*
X133263893Y-106817133D01*
X133283598Y-106831747D01*
X133301777Y-106848223D01*
X133318253Y-106866402D01*
X133332867Y-106886107D01*
X133345480Y-106907151D01*
X133355970Y-106929329D01*
X133364235Y-106952429D01*
X133370196Y-106976227D01*
X133373796Y-107000496D01*
X133375000Y-107025000D01*
X133375000Y-107950000D01*
X133373796Y-107974504D01*
X133370196Y-107998773D01*
X133364235Y-108022571D01*
X133355970Y-108045671D01*
X133345480Y-108067849D01*
X133332867Y-108088893D01*
X133318253Y-108108598D01*
X133301777Y-108126777D01*
X133283598Y-108143253D01*
X133263893Y-108157867D01*
X133242849Y-108170480D01*
X133220671Y-108180970D01*
X133197571Y-108189235D01*
X133173773Y-108195196D01*
X133149504Y-108198796D01*
X133125000Y-108200000D01*
X131875000Y-108200000D01*
X131850496Y-108198796D01*
X131826227Y-108195196D01*
X131802429Y-108189235D01*
X131779329Y-108180970D01*
X131757151Y-108170480D01*
X131736107Y-108157867D01*
X131716402Y-108143253D01*
X131698223Y-108126777D01*
X131681747Y-108108598D01*
X131667133Y-108088893D01*
X131654520Y-108067849D01*
X131644030Y-108045671D01*
X131635765Y-108022571D01*
X131629804Y-107998773D01*
X131626204Y-107974504D01*
X131625000Y-107950000D01*
X131625000Y-107025000D01*
X131626204Y-107000496D01*
X131629804Y-106976227D01*
X131635765Y-106952429D01*
X131644030Y-106929329D01*
X131654520Y-106907151D01*
X131667133Y-106886107D01*
X131681747Y-106866402D01*
X131698223Y-106848223D01*
X131716402Y-106831747D01*
X131736107Y-106817133D01*
X131757151Y-106804520D01*
X131779329Y-106794030D01*
X131802429Y-106785765D01*
X131826227Y-106779804D01*
X131850496Y-106776204D01*
X131875000Y-106775000D01*
X133125000Y-106775000D01*
X133149504Y-106776204D01*
X133149504Y-106776204D01*
G37*
D12*
X132500000Y-107487500D03*
D10*
G36*
X133149504Y-103801204D02*
G01*
X133173773Y-103804804D01*
X133197571Y-103810765D01*
X133220671Y-103819030D01*
X133242849Y-103829520D01*
X133263893Y-103842133D01*
X133283598Y-103856747D01*
X133301777Y-103873223D01*
X133318253Y-103891402D01*
X133332867Y-103911107D01*
X133345480Y-103932151D01*
X133355970Y-103954329D01*
X133364235Y-103977429D01*
X133370196Y-104001227D01*
X133373796Y-104025496D01*
X133375000Y-104050000D01*
X133375000Y-104975000D01*
X133373796Y-104999504D01*
X133370196Y-105023773D01*
X133364235Y-105047571D01*
X133355970Y-105070671D01*
X133345480Y-105092849D01*
X133332867Y-105113893D01*
X133318253Y-105133598D01*
X133301777Y-105151777D01*
X133283598Y-105168253D01*
X133263893Y-105182867D01*
X133242849Y-105195480D01*
X133220671Y-105205970D01*
X133197571Y-105214235D01*
X133173773Y-105220196D01*
X133149504Y-105223796D01*
X133125000Y-105225000D01*
X131875000Y-105225000D01*
X131850496Y-105223796D01*
X131826227Y-105220196D01*
X131802429Y-105214235D01*
X131779329Y-105205970D01*
X131757151Y-105195480D01*
X131736107Y-105182867D01*
X131716402Y-105168253D01*
X131698223Y-105151777D01*
X131681747Y-105133598D01*
X131667133Y-105113893D01*
X131654520Y-105092849D01*
X131644030Y-105070671D01*
X131635765Y-105047571D01*
X131629804Y-105023773D01*
X131626204Y-104999504D01*
X131625000Y-104975000D01*
X131625000Y-104050000D01*
X131626204Y-104025496D01*
X131629804Y-104001227D01*
X131635765Y-103977429D01*
X131644030Y-103954329D01*
X131654520Y-103932151D01*
X131667133Y-103911107D01*
X131681747Y-103891402D01*
X131698223Y-103873223D01*
X131716402Y-103856747D01*
X131736107Y-103842133D01*
X131757151Y-103829520D01*
X131779329Y-103819030D01*
X131802429Y-103810765D01*
X131826227Y-103804804D01*
X131850496Y-103801204D01*
X131875000Y-103800000D01*
X133125000Y-103800000D01*
X133149504Y-103801204D01*
X133149504Y-103801204D01*
G37*
D12*
X132500000Y-104512500D03*
D19*
X185150000Y-121800000D03*
X185150000Y-117200000D03*
X185150000Y-119500000D03*
D20*
X178850000Y-119500000D03*
D21*
X178200000Y-109000000D03*
X178200000Y-109500000D03*
X178200000Y-110000000D03*
X178200000Y-110500000D03*
X178200000Y-111000000D03*
X173800000Y-111000000D03*
X173800000Y-110500000D03*
X173800000Y-110000000D03*
X173800000Y-109500000D03*
X173800000Y-109000000D03*
X141200000Y-109000000D03*
X141200000Y-109500000D03*
X141200000Y-110000000D03*
X141200000Y-110500000D03*
X141200000Y-111000000D03*
X136800000Y-111000000D03*
X136800000Y-110500000D03*
X136800000Y-110000000D03*
X136800000Y-109500000D03*
X136800000Y-109000000D03*
M02*
