G04 #@! TF.GenerationSoftware,KiCad,Pcbnew,5.1.4-e60b266~84~ubuntu18.04.1*
G04 #@! TF.CreationDate,2019-09-09T22:31:15+02:00*
G04 #@! TF.ProjectId,Frontend_test,46726f6e-7465-46e6-945f-746573742e6b,rev?*
G04 #@! TF.SameCoordinates,Original*
G04 #@! TF.FileFunction,Copper,L2,Bot*
G04 #@! TF.FilePolarity,Positive*
%FSLAX46Y46*%
G04 Gerber Fmt 4.6, Leading zero omitted, Abs format (unit mm)*
G04 Created by KiCad (PCBNEW 5.1.4-e60b266~84~ubuntu18.04.1) date 2019-09-09 22:31:15*
%MOMM*%
%LPD*%
G04 APERTURE LIST*
%ADD10O,1.700000X1.700000*%
%ADD11R,1.700000X1.700000*%
%ADD12O,1.700000X1.950000*%
%ADD13C,0.150000*%
%ADD14C,1.700000*%
%ADD15C,2.250000*%
%ADD16C,0.800000*%
%ADD17C,0.200000*%
%ADD18C,0.254000*%
G04 APERTURE END LIST*
D10*
X192460000Y-98140000D03*
X195000000Y-98140000D03*
X192460000Y-100680000D03*
X195000000Y-100680000D03*
X192460000Y-103220000D03*
X195000000Y-103220000D03*
X192460000Y-105760000D03*
X195000000Y-105760000D03*
X192460000Y-108300000D03*
X195000000Y-108300000D03*
X192460000Y-110840000D03*
X195000000Y-110840000D03*
X192460000Y-113380000D03*
X195000000Y-113380000D03*
X192460000Y-115920000D03*
X195000000Y-115920000D03*
X192460000Y-118460000D03*
X195000000Y-118460000D03*
X192460000Y-121000000D03*
D11*
X195000000Y-121000000D03*
D12*
X165000000Y-134500000D03*
X167500000Y-134500000D03*
D13*
G36*
X170624504Y-133526204D02*
G01*
X170648773Y-133529804D01*
X170672571Y-133535765D01*
X170695671Y-133544030D01*
X170717849Y-133554520D01*
X170738893Y-133567133D01*
X170758598Y-133581747D01*
X170776777Y-133598223D01*
X170793253Y-133616402D01*
X170807867Y-133636107D01*
X170820480Y-133657151D01*
X170830970Y-133679329D01*
X170839235Y-133702429D01*
X170845196Y-133726227D01*
X170848796Y-133750496D01*
X170850000Y-133775000D01*
X170850000Y-135225000D01*
X170848796Y-135249504D01*
X170845196Y-135273773D01*
X170839235Y-135297571D01*
X170830970Y-135320671D01*
X170820480Y-135342849D01*
X170807867Y-135363893D01*
X170793253Y-135383598D01*
X170776777Y-135401777D01*
X170758598Y-135418253D01*
X170738893Y-135432867D01*
X170717849Y-135445480D01*
X170695671Y-135455970D01*
X170672571Y-135464235D01*
X170648773Y-135470196D01*
X170624504Y-135473796D01*
X170600000Y-135475000D01*
X169400000Y-135475000D01*
X169375496Y-135473796D01*
X169351227Y-135470196D01*
X169327429Y-135464235D01*
X169304329Y-135455970D01*
X169282151Y-135445480D01*
X169261107Y-135432867D01*
X169241402Y-135418253D01*
X169223223Y-135401777D01*
X169206747Y-135383598D01*
X169192133Y-135363893D01*
X169179520Y-135342849D01*
X169169030Y-135320671D01*
X169160765Y-135297571D01*
X169154804Y-135273773D01*
X169151204Y-135249504D01*
X169150000Y-135225000D01*
X169150000Y-133775000D01*
X169151204Y-133750496D01*
X169154804Y-133726227D01*
X169160765Y-133702429D01*
X169169030Y-133679329D01*
X169179520Y-133657151D01*
X169192133Y-133636107D01*
X169206747Y-133616402D01*
X169223223Y-133598223D01*
X169241402Y-133581747D01*
X169261107Y-133567133D01*
X169282151Y-133554520D01*
X169304329Y-133544030D01*
X169327429Y-133535765D01*
X169351227Y-133529804D01*
X169375496Y-133526204D01*
X169400000Y-133525000D01*
X170600000Y-133525000D01*
X170624504Y-133526204D01*
X170624504Y-133526204D01*
G37*
D14*
X170000000Y-134500000D03*
D10*
X123500000Y-112460000D03*
D11*
X123500000Y-115000000D03*
D15*
X117540000Y-112540000D03*
X112460000Y-112540000D03*
X112460000Y-107460000D03*
X117540000Y-107460000D03*
X115000000Y-110000000D03*
D16*
X150000000Y-113500000D03*
X148000000Y-106500000D03*
X139500000Y-105500000D03*
X141500000Y-101500000D03*
X149500000Y-98500000D03*
X156000000Y-102000000D03*
X162500000Y-102000000D03*
X154000000Y-110000000D03*
X161000000Y-110000000D03*
X167000000Y-110000000D03*
X169000000Y-110000000D03*
X132500000Y-109500000D03*
X128500000Y-114500000D03*
X120500000Y-111000000D03*
X124000000Y-106500000D03*
X165500000Y-117000000D03*
X156000000Y-94000000D03*
X148000000Y-94500000D03*
X164000000Y-96000000D03*
X173000000Y-98500000D03*
X160000000Y-134500000D03*
X152000000Y-134500000D03*
X139500000Y-136000000D03*
X159500000Y-128500000D03*
X134500000Y-129500000D03*
X188500000Y-120000000D03*
X183500000Y-112000000D03*
X185500000Y-105000000D03*
X189500000Y-102000000D03*
X181000000Y-97500000D03*
X182500000Y-126500000D03*
X195500000Y-126000000D03*
X146500000Y-116000000D03*
X144000000Y-118500000D03*
X155500000Y-118500000D03*
X165500000Y-120000000D03*
X173990000Y-121920000D03*
X172720000Y-121920000D03*
X173990000Y-129540000D03*
X172720000Y-129540000D03*
X177800000Y-127000000D03*
X179070000Y-127000000D03*
X179070000Y-124460000D03*
X177800000Y-124460000D03*
X170180000Y-124460000D03*
X162560000Y-124460000D03*
X157480000Y-124460000D03*
X137160000Y-123190000D03*
X132080000Y-119380000D03*
X144780000Y-86360000D03*
X148590000Y-88900000D03*
X168910000Y-83820000D03*
X151475000Y-118025000D03*
X163000000Y-86000000D03*
X151500000Y-92500000D03*
X141012500Y-118487500D03*
X149500000Y-104500000D03*
X142450000Y-100500000D03*
X146000000Y-111000000D03*
X161500000Y-113050000D03*
X156500000Y-107500000D03*
X144000000Y-110500000D03*
X144000000Y-109000000D03*
X138000000Y-113000000D03*
X139500000Y-113000000D03*
D17*
X151475000Y-118025000D02*
X151475000Y-92525000D01*
X151475000Y-92525000D02*
X151500000Y-92500000D01*
X153500000Y-90500000D02*
X158500000Y-90500000D01*
X158500000Y-90500000D02*
X163000000Y-86000000D01*
X151500000Y-92500000D02*
X153500000Y-90500000D01*
X141012500Y-118487500D02*
X149500000Y-110000000D01*
X149500000Y-110000000D02*
X149500000Y-104500000D01*
X142450000Y-100500000D02*
X146000000Y-104050000D01*
X146000000Y-104050000D02*
X146000000Y-111000000D01*
X161500000Y-113050000D02*
X156500000Y-108050000D01*
X156500000Y-108050000D02*
X156500000Y-107500000D01*
X144000000Y-110500000D02*
X144000000Y-109000000D01*
X185760000Y-115000000D02*
X192460000Y-108300000D01*
X177500000Y-115000000D02*
X185760000Y-115000000D01*
X141000000Y-123000000D02*
X169500000Y-123000000D01*
X138000000Y-120000000D02*
X141000000Y-123000000D01*
X138000000Y-113000000D02*
X138000000Y-120000000D01*
X169500000Y-123000000D02*
X177500000Y-115000000D01*
X193849999Y-106910001D02*
X195000000Y-105760000D01*
X191589999Y-106910001D02*
X193849999Y-106910001D01*
X185000000Y-113500000D02*
X191589999Y-106910001D01*
X177000000Y-113500000D02*
X185000000Y-113500000D01*
X141500000Y-121500000D02*
X169000000Y-121500000D01*
X139500000Y-119500000D02*
X141500000Y-121500000D01*
X139500000Y-113000000D02*
X139500000Y-119500000D01*
X169000000Y-121500000D02*
X177000000Y-113500000D01*
D18*
G36*
X174873000Y-115023131D02*
G01*
X168823132Y-121073000D01*
X141676869Y-121073000D01*
X139927000Y-119323132D01*
X139927000Y-118415897D01*
X140285500Y-118415897D01*
X140285500Y-118559103D01*
X140313438Y-118699558D01*
X140368241Y-118831864D01*
X140447802Y-118950936D01*
X140549064Y-119052198D01*
X140668136Y-119131759D01*
X140800442Y-119186562D01*
X140940897Y-119214500D01*
X141084103Y-119214500D01*
X141224558Y-119186562D01*
X141356864Y-119131759D01*
X141475936Y-119052198D01*
X141577198Y-118950936D01*
X141656759Y-118831864D01*
X141711562Y-118699558D01*
X141739500Y-118559103D01*
X141739500Y-118415897D01*
X141730951Y-118372917D01*
X142150471Y-117953397D01*
X150748000Y-117953397D01*
X150748000Y-118096603D01*
X150775938Y-118237058D01*
X150830741Y-118369364D01*
X150910302Y-118488436D01*
X151011564Y-118589698D01*
X151130636Y-118669259D01*
X151262942Y-118724062D01*
X151403397Y-118752000D01*
X151546603Y-118752000D01*
X151687058Y-118724062D01*
X151819364Y-118669259D01*
X151938436Y-118589698D01*
X152039698Y-118488436D01*
X152119259Y-118369364D01*
X152174062Y-118237058D01*
X152202000Y-118096603D01*
X152202000Y-117953397D01*
X152174062Y-117812942D01*
X152119259Y-117680636D01*
X152039698Y-117561564D01*
X151938436Y-117460302D01*
X151902000Y-117435956D01*
X151902000Y-107428397D01*
X155773000Y-107428397D01*
X155773000Y-107571603D01*
X155800938Y-107712058D01*
X155855741Y-107844364D01*
X155935302Y-107963436D01*
X156036564Y-108064698D01*
X156074905Y-108090316D01*
X156079178Y-108133706D01*
X156103595Y-108214195D01*
X156122052Y-108248726D01*
X156143245Y-108288376D01*
X156183232Y-108337100D01*
X156196605Y-108353395D01*
X156212900Y-108366768D01*
X160781549Y-112935418D01*
X160773000Y-112978397D01*
X160773000Y-113121603D01*
X160800938Y-113262058D01*
X160855741Y-113394364D01*
X160935302Y-113513436D01*
X161036564Y-113614698D01*
X161155636Y-113694259D01*
X161287942Y-113749062D01*
X161428397Y-113777000D01*
X161571603Y-113777000D01*
X161712058Y-113749062D01*
X161844364Y-113694259D01*
X161963436Y-113614698D01*
X162064698Y-113513436D01*
X162144259Y-113394364D01*
X162199062Y-113262058D01*
X162227000Y-113121603D01*
X162227000Y-112978397D01*
X162199062Y-112837942D01*
X162144259Y-112705636D01*
X162064698Y-112586564D01*
X161963436Y-112485302D01*
X161844364Y-112405741D01*
X161712058Y-112350938D01*
X161571603Y-112323000D01*
X161428397Y-112323000D01*
X161385418Y-112331549D01*
X157041001Y-107987133D01*
X157064698Y-107963436D01*
X157144259Y-107844364D01*
X157199062Y-107712058D01*
X157227000Y-107571603D01*
X157227000Y-107428397D01*
X157199062Y-107287942D01*
X157144259Y-107155636D01*
X157064698Y-107036564D01*
X156963436Y-106935302D01*
X156844364Y-106855741D01*
X156712058Y-106800938D01*
X156571603Y-106773000D01*
X156428397Y-106773000D01*
X156287942Y-106800938D01*
X156155636Y-106855741D01*
X156036564Y-106935302D01*
X155935302Y-107036564D01*
X155855741Y-107155636D01*
X155800938Y-107287942D01*
X155773000Y-107428397D01*
X151902000Y-107428397D01*
X151902000Y-93105748D01*
X151963436Y-93064698D01*
X152064698Y-92963436D01*
X152144259Y-92844364D01*
X152199062Y-92712058D01*
X152227000Y-92571603D01*
X152227000Y-92428397D01*
X152218451Y-92385417D01*
X153676869Y-90927000D01*
X158479033Y-90927000D01*
X158500000Y-90929065D01*
X158520967Y-90927000D01*
X158520978Y-90927000D01*
X158583707Y-90920822D01*
X158664196Y-90896405D01*
X158738376Y-90856755D01*
X158803395Y-90803395D01*
X158816768Y-90787100D01*
X162885418Y-86718451D01*
X162928397Y-86727000D01*
X163071603Y-86727000D01*
X163212058Y-86699062D01*
X163344364Y-86644259D01*
X163463436Y-86564698D01*
X163564698Y-86463436D01*
X163644259Y-86344364D01*
X163699062Y-86212058D01*
X163727000Y-86071603D01*
X163727000Y-85928397D01*
X163699062Y-85787942D01*
X163644259Y-85655636D01*
X163564698Y-85536564D01*
X163463436Y-85435302D01*
X163344364Y-85355741D01*
X163212058Y-85300938D01*
X163071603Y-85273000D01*
X162928397Y-85273000D01*
X162787942Y-85300938D01*
X162655636Y-85355741D01*
X162536564Y-85435302D01*
X162435302Y-85536564D01*
X162355741Y-85655636D01*
X162300938Y-85787942D01*
X162273000Y-85928397D01*
X162273000Y-86071603D01*
X162281549Y-86114582D01*
X158323132Y-90073000D01*
X153520966Y-90073000D01*
X153499999Y-90070935D01*
X153479032Y-90073000D01*
X153479022Y-90073000D01*
X153416293Y-90079178D01*
X153335804Y-90103595D01*
X153301273Y-90122052D01*
X153261623Y-90143245D01*
X153212899Y-90183232D01*
X153212895Y-90183236D01*
X153196605Y-90196605D01*
X153183236Y-90212895D01*
X151614583Y-91781549D01*
X151571603Y-91773000D01*
X151428397Y-91773000D01*
X151287942Y-91800938D01*
X151155636Y-91855741D01*
X151036564Y-91935302D01*
X150935302Y-92036564D01*
X150855741Y-92155636D01*
X150800938Y-92287942D01*
X150773000Y-92428397D01*
X150773000Y-92571603D01*
X150800938Y-92712058D01*
X150855741Y-92844364D01*
X150935302Y-92963436D01*
X151036564Y-93064698D01*
X151048001Y-93072340D01*
X151048000Y-117435956D01*
X151011564Y-117460302D01*
X150910302Y-117561564D01*
X150830741Y-117680636D01*
X150775938Y-117812942D01*
X150748000Y-117953397D01*
X142150471Y-117953397D01*
X149787107Y-110316762D01*
X149803395Y-110303395D01*
X149816764Y-110287105D01*
X149816768Y-110287101D01*
X149856756Y-110238377D01*
X149896405Y-110164197D01*
X149902832Y-110143010D01*
X149920822Y-110083707D01*
X149927000Y-110020978D01*
X149927000Y-110020967D01*
X149929065Y-110000000D01*
X149927000Y-109979033D01*
X149927000Y-105089044D01*
X149963436Y-105064698D01*
X150064698Y-104963436D01*
X150144259Y-104844364D01*
X150199062Y-104712058D01*
X150227000Y-104571603D01*
X150227000Y-104428397D01*
X150199062Y-104287942D01*
X150144259Y-104155636D01*
X150064698Y-104036564D01*
X149963436Y-103935302D01*
X149844364Y-103855741D01*
X149712058Y-103800938D01*
X149571603Y-103773000D01*
X149428397Y-103773000D01*
X149287942Y-103800938D01*
X149155636Y-103855741D01*
X149036564Y-103935302D01*
X148935302Y-104036564D01*
X148855741Y-104155636D01*
X148800938Y-104287942D01*
X148773000Y-104428397D01*
X148773000Y-104571603D01*
X148800938Y-104712058D01*
X148855741Y-104844364D01*
X148935302Y-104963436D01*
X149036564Y-105064698D01*
X149073001Y-105089044D01*
X149073000Y-109823131D01*
X141127083Y-117769049D01*
X141084103Y-117760500D01*
X140940897Y-117760500D01*
X140800442Y-117788438D01*
X140668136Y-117843241D01*
X140549064Y-117922802D01*
X140447802Y-118024064D01*
X140368241Y-118143136D01*
X140313438Y-118275442D01*
X140285500Y-118415897D01*
X139927000Y-118415897D01*
X139927000Y-113589044D01*
X139963436Y-113564698D01*
X140064698Y-113463436D01*
X140144259Y-113344364D01*
X140199062Y-113212058D01*
X140227000Y-113071603D01*
X140227000Y-112928397D01*
X140199062Y-112787942D01*
X140144259Y-112655636D01*
X140064698Y-112536564D01*
X139963436Y-112435302D01*
X139844364Y-112355741D01*
X139712058Y-112300938D01*
X139571603Y-112273000D01*
X139428397Y-112273000D01*
X139287942Y-112300938D01*
X139155636Y-112355741D01*
X139036564Y-112435302D01*
X138935302Y-112536564D01*
X138855741Y-112655636D01*
X138800938Y-112787942D01*
X138773000Y-112928397D01*
X138773000Y-113071603D01*
X138800938Y-113212058D01*
X138855741Y-113344364D01*
X138935302Y-113463436D01*
X139036564Y-113564698D01*
X139073000Y-113589044D01*
X139073001Y-119479023D01*
X139070935Y-119500000D01*
X139073001Y-119520977D01*
X139073001Y-119520978D01*
X139079179Y-119583707D01*
X139097240Y-119643245D01*
X139103596Y-119664196D01*
X139143245Y-119738376D01*
X139183232Y-119787100D01*
X139183237Y-119787105D01*
X139196606Y-119803395D01*
X139212896Y-119816764D01*
X141183236Y-121787105D01*
X141196605Y-121803395D01*
X141212895Y-121816764D01*
X141212899Y-121816768D01*
X141261623Y-121856755D01*
X141301273Y-121877948D01*
X141335804Y-121896405D01*
X141416293Y-121920822D01*
X141479022Y-121927000D01*
X141479032Y-121927000D01*
X141499999Y-121929065D01*
X141520966Y-121927000D01*
X168979033Y-121927000D01*
X169000000Y-121929065D01*
X169020967Y-121927000D01*
X169020978Y-121927000D01*
X169083707Y-121920822D01*
X169164196Y-121896405D01*
X169238376Y-121856755D01*
X169303395Y-121803395D01*
X169316768Y-121787100D01*
X174873000Y-116230869D01*
X174873000Y-117023131D01*
X169323132Y-122573000D01*
X141176869Y-122573000D01*
X138427000Y-119823132D01*
X138427000Y-113589044D01*
X138463436Y-113564698D01*
X138564698Y-113463436D01*
X138644259Y-113344364D01*
X138699062Y-113212058D01*
X138727000Y-113071603D01*
X138727000Y-112928397D01*
X138699062Y-112787942D01*
X138644259Y-112655636D01*
X138564698Y-112536564D01*
X138463436Y-112435302D01*
X138344364Y-112355741D01*
X138212058Y-112300938D01*
X138071603Y-112273000D01*
X137928397Y-112273000D01*
X137787942Y-112300938D01*
X137655636Y-112355741D01*
X137536564Y-112435302D01*
X137435302Y-112536564D01*
X137355741Y-112655636D01*
X137300938Y-112787942D01*
X137273000Y-112928397D01*
X137273000Y-113071603D01*
X137300938Y-113212058D01*
X137355741Y-113344364D01*
X137435302Y-113463436D01*
X137536564Y-113564698D01*
X137573000Y-113589044D01*
X137573001Y-119979023D01*
X137570935Y-120000000D01*
X137579179Y-120083706D01*
X137603596Y-120164196D01*
X137643245Y-120238376D01*
X137683232Y-120287100D01*
X137683237Y-120287105D01*
X137696606Y-120303395D01*
X137712896Y-120316764D01*
X140683236Y-123287105D01*
X140696605Y-123303395D01*
X140712895Y-123316764D01*
X140712899Y-123316768D01*
X140761623Y-123356756D01*
X140818538Y-123387176D01*
X140835804Y-123396405D01*
X140916293Y-123420822D01*
X140979022Y-123427000D01*
X140979033Y-123427000D01*
X141000000Y-123429065D01*
X141020967Y-123427000D01*
X169479033Y-123427000D01*
X169500000Y-123429065D01*
X169520967Y-123427000D01*
X169520978Y-123427000D01*
X169583707Y-123420822D01*
X169664196Y-123396405D01*
X169738376Y-123356755D01*
X169803395Y-123303395D01*
X169816768Y-123287100D01*
X174873000Y-118230869D01*
X174873000Y-124873000D01*
X110279000Y-124873000D01*
X110279000Y-115850000D01*
X122011928Y-115850000D01*
X122024188Y-115974482D01*
X122060498Y-116094180D01*
X122119463Y-116204494D01*
X122198815Y-116301185D01*
X122295506Y-116380537D01*
X122405820Y-116439502D01*
X122525518Y-116475812D01*
X122650000Y-116488072D01*
X123214250Y-116485000D01*
X123373000Y-116326250D01*
X123373000Y-115127000D01*
X123627000Y-115127000D01*
X123627000Y-116326250D01*
X123785750Y-116485000D01*
X124350000Y-116488072D01*
X124474482Y-116475812D01*
X124594180Y-116439502D01*
X124704494Y-116380537D01*
X124801185Y-116301185D01*
X124880537Y-116204494D01*
X124939502Y-116094180D01*
X124975812Y-115974482D01*
X124988072Y-115850000D01*
X124985000Y-115285750D01*
X124826250Y-115127000D01*
X123627000Y-115127000D01*
X123373000Y-115127000D01*
X122173750Y-115127000D01*
X122015000Y-115285750D01*
X122011928Y-115850000D01*
X110279000Y-115850000D01*
X110279000Y-114150000D01*
X122011928Y-114150000D01*
X122015000Y-114714250D01*
X122173750Y-114873000D01*
X123373000Y-114873000D01*
X123373000Y-114853000D01*
X123627000Y-114853000D01*
X123627000Y-114873000D01*
X124826250Y-114873000D01*
X124985000Y-114714250D01*
X124988072Y-114150000D01*
X124975812Y-114025518D01*
X124939502Y-113905820D01*
X124880537Y-113795506D01*
X124801185Y-113698815D01*
X124704494Y-113619463D01*
X124594180Y-113560498D01*
X124474482Y-113524188D01*
X124350000Y-113511928D01*
X124025509Y-113513695D01*
X124157070Y-113443374D01*
X124336291Y-113296291D01*
X124483374Y-113117070D01*
X124592667Y-112912597D01*
X124659969Y-112690732D01*
X124682694Y-112460000D01*
X124659969Y-112229268D01*
X124592667Y-112007403D01*
X124483374Y-111802930D01*
X124336291Y-111623709D01*
X124157070Y-111476626D01*
X123952597Y-111367333D01*
X123730732Y-111300031D01*
X123557812Y-111283000D01*
X123442188Y-111283000D01*
X123269268Y-111300031D01*
X123047403Y-111367333D01*
X122842930Y-111476626D01*
X122663709Y-111623709D01*
X122516626Y-111802930D01*
X122407333Y-112007403D01*
X122340031Y-112229268D01*
X122317306Y-112460000D01*
X122340031Y-112690732D01*
X122407333Y-112912597D01*
X122516626Y-113117070D01*
X122663709Y-113296291D01*
X122842930Y-113443374D01*
X122974491Y-113513695D01*
X122650000Y-113511928D01*
X122525518Y-113524188D01*
X122405820Y-113560498D01*
X122295506Y-113619463D01*
X122198815Y-113698815D01*
X122119463Y-113795506D01*
X122060498Y-113905820D01*
X122024188Y-114025518D01*
X122011928Y-114150000D01*
X110279000Y-114150000D01*
X110279000Y-112396990D01*
X111008000Y-112396990D01*
X111008000Y-112683010D01*
X111063799Y-112963533D01*
X111173254Y-113227780D01*
X111332158Y-113465596D01*
X111534404Y-113667842D01*
X111772220Y-113826746D01*
X112036467Y-113936201D01*
X112316990Y-113992000D01*
X112603010Y-113992000D01*
X112883533Y-113936201D01*
X113147780Y-113826746D01*
X113385596Y-113667842D01*
X113587842Y-113465596D01*
X113746746Y-113227780D01*
X113856201Y-112963533D01*
X113912000Y-112683010D01*
X113912000Y-112396990D01*
X116088000Y-112396990D01*
X116088000Y-112683010D01*
X116143799Y-112963533D01*
X116253254Y-113227780D01*
X116412158Y-113465596D01*
X116614404Y-113667842D01*
X116852220Y-113826746D01*
X117116467Y-113936201D01*
X117396990Y-113992000D01*
X117683010Y-113992000D01*
X117963533Y-113936201D01*
X118227780Y-113826746D01*
X118465596Y-113667842D01*
X118667842Y-113465596D01*
X118826746Y-113227780D01*
X118936201Y-112963533D01*
X118992000Y-112683010D01*
X118992000Y-112396990D01*
X118936201Y-112116467D01*
X118826746Y-111852220D01*
X118667842Y-111614404D01*
X118465596Y-111412158D01*
X118227780Y-111253254D01*
X117963533Y-111143799D01*
X117683010Y-111088000D01*
X117396990Y-111088000D01*
X117116467Y-111143799D01*
X116852220Y-111253254D01*
X116614404Y-111412158D01*
X116412158Y-111614404D01*
X116253254Y-111852220D01*
X116143799Y-112116467D01*
X116088000Y-112396990D01*
X113912000Y-112396990D01*
X113856201Y-112116467D01*
X113746746Y-111852220D01*
X113587842Y-111614404D01*
X113385596Y-111412158D01*
X113147780Y-111253254D01*
X112883533Y-111143799D01*
X112603010Y-111088000D01*
X112316990Y-111088000D01*
X112036467Y-111143799D01*
X111772220Y-111253254D01*
X111534404Y-111412158D01*
X111332158Y-111614404D01*
X111173254Y-111852220D01*
X111063799Y-112116467D01*
X111008000Y-112396990D01*
X110279000Y-112396990D01*
X110279000Y-109856990D01*
X113548000Y-109856990D01*
X113548000Y-110143010D01*
X113603799Y-110423533D01*
X113713254Y-110687780D01*
X113872158Y-110925596D01*
X114074404Y-111127842D01*
X114312220Y-111286746D01*
X114576467Y-111396201D01*
X114856990Y-111452000D01*
X115143010Y-111452000D01*
X115423533Y-111396201D01*
X115687780Y-111286746D01*
X115925596Y-111127842D01*
X116127842Y-110925596D01*
X116286746Y-110687780D01*
X116396201Y-110423533D01*
X116452000Y-110143010D01*
X116452000Y-109856990D01*
X116396201Y-109576467D01*
X116286746Y-109312220D01*
X116127842Y-109074404D01*
X115981835Y-108928397D01*
X143273000Y-108928397D01*
X143273000Y-109071603D01*
X143300938Y-109212058D01*
X143355741Y-109344364D01*
X143435302Y-109463436D01*
X143536564Y-109564698D01*
X143573001Y-109589044D01*
X143573000Y-109910956D01*
X143536564Y-109935302D01*
X143435302Y-110036564D01*
X143355741Y-110155636D01*
X143300938Y-110287942D01*
X143273000Y-110428397D01*
X143273000Y-110571603D01*
X143300938Y-110712058D01*
X143355741Y-110844364D01*
X143435302Y-110963436D01*
X143536564Y-111064698D01*
X143655636Y-111144259D01*
X143787942Y-111199062D01*
X143928397Y-111227000D01*
X144071603Y-111227000D01*
X144212058Y-111199062D01*
X144344364Y-111144259D01*
X144463436Y-111064698D01*
X144564698Y-110963436D01*
X144644259Y-110844364D01*
X144699062Y-110712058D01*
X144727000Y-110571603D01*
X144727000Y-110428397D01*
X144699062Y-110287942D01*
X144644259Y-110155636D01*
X144564698Y-110036564D01*
X144463436Y-109935302D01*
X144427000Y-109910956D01*
X144427000Y-109589044D01*
X144463436Y-109564698D01*
X144564698Y-109463436D01*
X144644259Y-109344364D01*
X144699062Y-109212058D01*
X144727000Y-109071603D01*
X144727000Y-108928397D01*
X144699062Y-108787942D01*
X144644259Y-108655636D01*
X144564698Y-108536564D01*
X144463436Y-108435302D01*
X144344364Y-108355741D01*
X144212058Y-108300938D01*
X144071603Y-108273000D01*
X143928397Y-108273000D01*
X143787942Y-108300938D01*
X143655636Y-108355741D01*
X143536564Y-108435302D01*
X143435302Y-108536564D01*
X143355741Y-108655636D01*
X143300938Y-108787942D01*
X143273000Y-108928397D01*
X115981835Y-108928397D01*
X115925596Y-108872158D01*
X115687780Y-108713254D01*
X115423533Y-108603799D01*
X115143010Y-108548000D01*
X114856990Y-108548000D01*
X114576467Y-108603799D01*
X114312220Y-108713254D01*
X114074404Y-108872158D01*
X113872158Y-109074404D01*
X113713254Y-109312220D01*
X113603799Y-109576467D01*
X113548000Y-109856990D01*
X110279000Y-109856990D01*
X110279000Y-107316990D01*
X111008000Y-107316990D01*
X111008000Y-107603010D01*
X111063799Y-107883533D01*
X111173254Y-108147780D01*
X111332158Y-108385596D01*
X111534404Y-108587842D01*
X111772220Y-108746746D01*
X112036467Y-108856201D01*
X112316990Y-108912000D01*
X112603010Y-108912000D01*
X112883533Y-108856201D01*
X113147780Y-108746746D01*
X113385596Y-108587842D01*
X113587842Y-108385596D01*
X113746746Y-108147780D01*
X113856201Y-107883533D01*
X113912000Y-107603010D01*
X113912000Y-107316990D01*
X116088000Y-107316990D01*
X116088000Y-107603010D01*
X116143799Y-107883533D01*
X116253254Y-108147780D01*
X116412158Y-108385596D01*
X116614404Y-108587842D01*
X116852220Y-108746746D01*
X117116467Y-108856201D01*
X117396990Y-108912000D01*
X117683010Y-108912000D01*
X117963533Y-108856201D01*
X118227780Y-108746746D01*
X118465596Y-108587842D01*
X118667842Y-108385596D01*
X118826746Y-108147780D01*
X118936201Y-107883533D01*
X118992000Y-107603010D01*
X118992000Y-107316990D01*
X118936201Y-107036467D01*
X118826746Y-106772220D01*
X118667842Y-106534404D01*
X118465596Y-106332158D01*
X118227780Y-106173254D01*
X117963533Y-106063799D01*
X117683010Y-106008000D01*
X117396990Y-106008000D01*
X117116467Y-106063799D01*
X116852220Y-106173254D01*
X116614404Y-106332158D01*
X116412158Y-106534404D01*
X116253254Y-106772220D01*
X116143799Y-107036467D01*
X116088000Y-107316990D01*
X113912000Y-107316990D01*
X113856201Y-107036467D01*
X113746746Y-106772220D01*
X113587842Y-106534404D01*
X113385596Y-106332158D01*
X113147780Y-106173254D01*
X112883533Y-106063799D01*
X112603010Y-106008000D01*
X112316990Y-106008000D01*
X112036467Y-106063799D01*
X111772220Y-106173254D01*
X111534404Y-106332158D01*
X111332158Y-106534404D01*
X111173254Y-106772220D01*
X111063799Y-107036467D01*
X111008000Y-107316990D01*
X110279000Y-107316990D01*
X110279000Y-100428397D01*
X141723000Y-100428397D01*
X141723000Y-100571603D01*
X141750938Y-100712058D01*
X141805741Y-100844364D01*
X141885302Y-100963436D01*
X141986564Y-101064698D01*
X142105636Y-101144259D01*
X142237942Y-101199062D01*
X142378397Y-101227000D01*
X142521603Y-101227000D01*
X142564583Y-101218451D01*
X145573000Y-104226870D01*
X145573001Y-110410956D01*
X145536564Y-110435302D01*
X145435302Y-110536564D01*
X145355741Y-110655636D01*
X145300938Y-110787942D01*
X145273000Y-110928397D01*
X145273000Y-111071603D01*
X145300938Y-111212058D01*
X145355741Y-111344364D01*
X145435302Y-111463436D01*
X145536564Y-111564698D01*
X145655636Y-111644259D01*
X145787942Y-111699062D01*
X145928397Y-111727000D01*
X146071603Y-111727000D01*
X146212058Y-111699062D01*
X146344364Y-111644259D01*
X146463436Y-111564698D01*
X146564698Y-111463436D01*
X146644259Y-111344364D01*
X146699062Y-111212058D01*
X146727000Y-111071603D01*
X146727000Y-110928397D01*
X146699062Y-110787942D01*
X146644259Y-110655636D01*
X146564698Y-110536564D01*
X146463436Y-110435302D01*
X146427000Y-110410956D01*
X146427000Y-104070966D01*
X146429065Y-104049999D01*
X146427000Y-104029032D01*
X146427000Y-104029022D01*
X146420822Y-103966293D01*
X146396405Y-103885804D01*
X146356756Y-103811625D01*
X146356755Y-103811623D01*
X146316768Y-103762898D01*
X146316759Y-103762889D01*
X146303395Y-103746605D01*
X146287112Y-103733242D01*
X143168451Y-100614583D01*
X143177000Y-100571603D01*
X143177000Y-100428397D01*
X143149062Y-100287942D01*
X143094259Y-100155636D01*
X143014698Y-100036564D01*
X142913436Y-99935302D01*
X142794364Y-99855741D01*
X142662058Y-99800938D01*
X142521603Y-99773000D01*
X142378397Y-99773000D01*
X142237942Y-99800938D01*
X142105636Y-99855741D01*
X141986564Y-99935302D01*
X141885302Y-100036564D01*
X141805741Y-100155636D01*
X141750938Y-100287942D01*
X141723000Y-100428397D01*
X110279000Y-100428397D01*
X110279000Y-85012421D01*
X110354703Y-84164184D01*
X110576130Y-83354780D01*
X110937392Y-82597379D01*
X111427065Y-81915927D01*
X112029674Y-81331958D01*
X112726177Y-80863928D01*
X113494548Y-80526636D01*
X114312649Y-80330227D01*
X115010234Y-80279000D01*
X174873000Y-80279000D01*
X174873000Y-115023131D01*
X174873000Y-115023131D01*
G37*
X174873000Y-115023131D02*
X168823132Y-121073000D01*
X141676869Y-121073000D01*
X139927000Y-119323132D01*
X139927000Y-118415897D01*
X140285500Y-118415897D01*
X140285500Y-118559103D01*
X140313438Y-118699558D01*
X140368241Y-118831864D01*
X140447802Y-118950936D01*
X140549064Y-119052198D01*
X140668136Y-119131759D01*
X140800442Y-119186562D01*
X140940897Y-119214500D01*
X141084103Y-119214500D01*
X141224558Y-119186562D01*
X141356864Y-119131759D01*
X141475936Y-119052198D01*
X141577198Y-118950936D01*
X141656759Y-118831864D01*
X141711562Y-118699558D01*
X141739500Y-118559103D01*
X141739500Y-118415897D01*
X141730951Y-118372917D01*
X142150471Y-117953397D01*
X150748000Y-117953397D01*
X150748000Y-118096603D01*
X150775938Y-118237058D01*
X150830741Y-118369364D01*
X150910302Y-118488436D01*
X151011564Y-118589698D01*
X151130636Y-118669259D01*
X151262942Y-118724062D01*
X151403397Y-118752000D01*
X151546603Y-118752000D01*
X151687058Y-118724062D01*
X151819364Y-118669259D01*
X151938436Y-118589698D01*
X152039698Y-118488436D01*
X152119259Y-118369364D01*
X152174062Y-118237058D01*
X152202000Y-118096603D01*
X152202000Y-117953397D01*
X152174062Y-117812942D01*
X152119259Y-117680636D01*
X152039698Y-117561564D01*
X151938436Y-117460302D01*
X151902000Y-117435956D01*
X151902000Y-107428397D01*
X155773000Y-107428397D01*
X155773000Y-107571603D01*
X155800938Y-107712058D01*
X155855741Y-107844364D01*
X155935302Y-107963436D01*
X156036564Y-108064698D01*
X156074905Y-108090316D01*
X156079178Y-108133706D01*
X156103595Y-108214195D01*
X156122052Y-108248726D01*
X156143245Y-108288376D01*
X156183232Y-108337100D01*
X156196605Y-108353395D01*
X156212900Y-108366768D01*
X160781549Y-112935418D01*
X160773000Y-112978397D01*
X160773000Y-113121603D01*
X160800938Y-113262058D01*
X160855741Y-113394364D01*
X160935302Y-113513436D01*
X161036564Y-113614698D01*
X161155636Y-113694259D01*
X161287942Y-113749062D01*
X161428397Y-113777000D01*
X161571603Y-113777000D01*
X161712058Y-113749062D01*
X161844364Y-113694259D01*
X161963436Y-113614698D01*
X162064698Y-113513436D01*
X162144259Y-113394364D01*
X162199062Y-113262058D01*
X162227000Y-113121603D01*
X162227000Y-112978397D01*
X162199062Y-112837942D01*
X162144259Y-112705636D01*
X162064698Y-112586564D01*
X161963436Y-112485302D01*
X161844364Y-112405741D01*
X161712058Y-112350938D01*
X161571603Y-112323000D01*
X161428397Y-112323000D01*
X161385418Y-112331549D01*
X157041001Y-107987133D01*
X157064698Y-107963436D01*
X157144259Y-107844364D01*
X157199062Y-107712058D01*
X157227000Y-107571603D01*
X157227000Y-107428397D01*
X157199062Y-107287942D01*
X157144259Y-107155636D01*
X157064698Y-107036564D01*
X156963436Y-106935302D01*
X156844364Y-106855741D01*
X156712058Y-106800938D01*
X156571603Y-106773000D01*
X156428397Y-106773000D01*
X156287942Y-106800938D01*
X156155636Y-106855741D01*
X156036564Y-106935302D01*
X155935302Y-107036564D01*
X155855741Y-107155636D01*
X155800938Y-107287942D01*
X155773000Y-107428397D01*
X151902000Y-107428397D01*
X151902000Y-93105748D01*
X151963436Y-93064698D01*
X152064698Y-92963436D01*
X152144259Y-92844364D01*
X152199062Y-92712058D01*
X152227000Y-92571603D01*
X152227000Y-92428397D01*
X152218451Y-92385417D01*
X153676869Y-90927000D01*
X158479033Y-90927000D01*
X158500000Y-90929065D01*
X158520967Y-90927000D01*
X158520978Y-90927000D01*
X158583707Y-90920822D01*
X158664196Y-90896405D01*
X158738376Y-90856755D01*
X158803395Y-90803395D01*
X158816768Y-90787100D01*
X162885418Y-86718451D01*
X162928397Y-86727000D01*
X163071603Y-86727000D01*
X163212058Y-86699062D01*
X163344364Y-86644259D01*
X163463436Y-86564698D01*
X163564698Y-86463436D01*
X163644259Y-86344364D01*
X163699062Y-86212058D01*
X163727000Y-86071603D01*
X163727000Y-85928397D01*
X163699062Y-85787942D01*
X163644259Y-85655636D01*
X163564698Y-85536564D01*
X163463436Y-85435302D01*
X163344364Y-85355741D01*
X163212058Y-85300938D01*
X163071603Y-85273000D01*
X162928397Y-85273000D01*
X162787942Y-85300938D01*
X162655636Y-85355741D01*
X162536564Y-85435302D01*
X162435302Y-85536564D01*
X162355741Y-85655636D01*
X162300938Y-85787942D01*
X162273000Y-85928397D01*
X162273000Y-86071603D01*
X162281549Y-86114582D01*
X158323132Y-90073000D01*
X153520966Y-90073000D01*
X153499999Y-90070935D01*
X153479032Y-90073000D01*
X153479022Y-90073000D01*
X153416293Y-90079178D01*
X153335804Y-90103595D01*
X153301273Y-90122052D01*
X153261623Y-90143245D01*
X153212899Y-90183232D01*
X153212895Y-90183236D01*
X153196605Y-90196605D01*
X153183236Y-90212895D01*
X151614583Y-91781549D01*
X151571603Y-91773000D01*
X151428397Y-91773000D01*
X151287942Y-91800938D01*
X151155636Y-91855741D01*
X151036564Y-91935302D01*
X150935302Y-92036564D01*
X150855741Y-92155636D01*
X150800938Y-92287942D01*
X150773000Y-92428397D01*
X150773000Y-92571603D01*
X150800938Y-92712058D01*
X150855741Y-92844364D01*
X150935302Y-92963436D01*
X151036564Y-93064698D01*
X151048001Y-93072340D01*
X151048000Y-117435956D01*
X151011564Y-117460302D01*
X150910302Y-117561564D01*
X150830741Y-117680636D01*
X150775938Y-117812942D01*
X150748000Y-117953397D01*
X142150471Y-117953397D01*
X149787107Y-110316762D01*
X149803395Y-110303395D01*
X149816764Y-110287105D01*
X149816768Y-110287101D01*
X149856756Y-110238377D01*
X149896405Y-110164197D01*
X149902832Y-110143010D01*
X149920822Y-110083707D01*
X149927000Y-110020978D01*
X149927000Y-110020967D01*
X149929065Y-110000000D01*
X149927000Y-109979033D01*
X149927000Y-105089044D01*
X149963436Y-105064698D01*
X150064698Y-104963436D01*
X150144259Y-104844364D01*
X150199062Y-104712058D01*
X150227000Y-104571603D01*
X150227000Y-104428397D01*
X150199062Y-104287942D01*
X150144259Y-104155636D01*
X150064698Y-104036564D01*
X149963436Y-103935302D01*
X149844364Y-103855741D01*
X149712058Y-103800938D01*
X149571603Y-103773000D01*
X149428397Y-103773000D01*
X149287942Y-103800938D01*
X149155636Y-103855741D01*
X149036564Y-103935302D01*
X148935302Y-104036564D01*
X148855741Y-104155636D01*
X148800938Y-104287942D01*
X148773000Y-104428397D01*
X148773000Y-104571603D01*
X148800938Y-104712058D01*
X148855741Y-104844364D01*
X148935302Y-104963436D01*
X149036564Y-105064698D01*
X149073001Y-105089044D01*
X149073000Y-109823131D01*
X141127083Y-117769049D01*
X141084103Y-117760500D01*
X140940897Y-117760500D01*
X140800442Y-117788438D01*
X140668136Y-117843241D01*
X140549064Y-117922802D01*
X140447802Y-118024064D01*
X140368241Y-118143136D01*
X140313438Y-118275442D01*
X140285500Y-118415897D01*
X139927000Y-118415897D01*
X139927000Y-113589044D01*
X139963436Y-113564698D01*
X140064698Y-113463436D01*
X140144259Y-113344364D01*
X140199062Y-113212058D01*
X140227000Y-113071603D01*
X140227000Y-112928397D01*
X140199062Y-112787942D01*
X140144259Y-112655636D01*
X140064698Y-112536564D01*
X139963436Y-112435302D01*
X139844364Y-112355741D01*
X139712058Y-112300938D01*
X139571603Y-112273000D01*
X139428397Y-112273000D01*
X139287942Y-112300938D01*
X139155636Y-112355741D01*
X139036564Y-112435302D01*
X138935302Y-112536564D01*
X138855741Y-112655636D01*
X138800938Y-112787942D01*
X138773000Y-112928397D01*
X138773000Y-113071603D01*
X138800938Y-113212058D01*
X138855741Y-113344364D01*
X138935302Y-113463436D01*
X139036564Y-113564698D01*
X139073000Y-113589044D01*
X139073001Y-119479023D01*
X139070935Y-119500000D01*
X139073001Y-119520977D01*
X139073001Y-119520978D01*
X139079179Y-119583707D01*
X139097240Y-119643245D01*
X139103596Y-119664196D01*
X139143245Y-119738376D01*
X139183232Y-119787100D01*
X139183237Y-119787105D01*
X139196606Y-119803395D01*
X139212896Y-119816764D01*
X141183236Y-121787105D01*
X141196605Y-121803395D01*
X141212895Y-121816764D01*
X141212899Y-121816768D01*
X141261623Y-121856755D01*
X141301273Y-121877948D01*
X141335804Y-121896405D01*
X141416293Y-121920822D01*
X141479022Y-121927000D01*
X141479032Y-121927000D01*
X141499999Y-121929065D01*
X141520966Y-121927000D01*
X168979033Y-121927000D01*
X169000000Y-121929065D01*
X169020967Y-121927000D01*
X169020978Y-121927000D01*
X169083707Y-121920822D01*
X169164196Y-121896405D01*
X169238376Y-121856755D01*
X169303395Y-121803395D01*
X169316768Y-121787100D01*
X174873000Y-116230869D01*
X174873000Y-117023131D01*
X169323132Y-122573000D01*
X141176869Y-122573000D01*
X138427000Y-119823132D01*
X138427000Y-113589044D01*
X138463436Y-113564698D01*
X138564698Y-113463436D01*
X138644259Y-113344364D01*
X138699062Y-113212058D01*
X138727000Y-113071603D01*
X138727000Y-112928397D01*
X138699062Y-112787942D01*
X138644259Y-112655636D01*
X138564698Y-112536564D01*
X138463436Y-112435302D01*
X138344364Y-112355741D01*
X138212058Y-112300938D01*
X138071603Y-112273000D01*
X137928397Y-112273000D01*
X137787942Y-112300938D01*
X137655636Y-112355741D01*
X137536564Y-112435302D01*
X137435302Y-112536564D01*
X137355741Y-112655636D01*
X137300938Y-112787942D01*
X137273000Y-112928397D01*
X137273000Y-113071603D01*
X137300938Y-113212058D01*
X137355741Y-113344364D01*
X137435302Y-113463436D01*
X137536564Y-113564698D01*
X137573000Y-113589044D01*
X137573001Y-119979023D01*
X137570935Y-120000000D01*
X137579179Y-120083706D01*
X137603596Y-120164196D01*
X137643245Y-120238376D01*
X137683232Y-120287100D01*
X137683237Y-120287105D01*
X137696606Y-120303395D01*
X137712896Y-120316764D01*
X140683236Y-123287105D01*
X140696605Y-123303395D01*
X140712895Y-123316764D01*
X140712899Y-123316768D01*
X140761623Y-123356756D01*
X140818538Y-123387176D01*
X140835804Y-123396405D01*
X140916293Y-123420822D01*
X140979022Y-123427000D01*
X140979033Y-123427000D01*
X141000000Y-123429065D01*
X141020967Y-123427000D01*
X169479033Y-123427000D01*
X169500000Y-123429065D01*
X169520967Y-123427000D01*
X169520978Y-123427000D01*
X169583707Y-123420822D01*
X169664196Y-123396405D01*
X169738376Y-123356755D01*
X169803395Y-123303395D01*
X169816768Y-123287100D01*
X174873000Y-118230869D01*
X174873000Y-124873000D01*
X110279000Y-124873000D01*
X110279000Y-115850000D01*
X122011928Y-115850000D01*
X122024188Y-115974482D01*
X122060498Y-116094180D01*
X122119463Y-116204494D01*
X122198815Y-116301185D01*
X122295506Y-116380537D01*
X122405820Y-116439502D01*
X122525518Y-116475812D01*
X122650000Y-116488072D01*
X123214250Y-116485000D01*
X123373000Y-116326250D01*
X123373000Y-115127000D01*
X123627000Y-115127000D01*
X123627000Y-116326250D01*
X123785750Y-116485000D01*
X124350000Y-116488072D01*
X124474482Y-116475812D01*
X124594180Y-116439502D01*
X124704494Y-116380537D01*
X124801185Y-116301185D01*
X124880537Y-116204494D01*
X124939502Y-116094180D01*
X124975812Y-115974482D01*
X124988072Y-115850000D01*
X124985000Y-115285750D01*
X124826250Y-115127000D01*
X123627000Y-115127000D01*
X123373000Y-115127000D01*
X122173750Y-115127000D01*
X122015000Y-115285750D01*
X122011928Y-115850000D01*
X110279000Y-115850000D01*
X110279000Y-114150000D01*
X122011928Y-114150000D01*
X122015000Y-114714250D01*
X122173750Y-114873000D01*
X123373000Y-114873000D01*
X123373000Y-114853000D01*
X123627000Y-114853000D01*
X123627000Y-114873000D01*
X124826250Y-114873000D01*
X124985000Y-114714250D01*
X124988072Y-114150000D01*
X124975812Y-114025518D01*
X124939502Y-113905820D01*
X124880537Y-113795506D01*
X124801185Y-113698815D01*
X124704494Y-113619463D01*
X124594180Y-113560498D01*
X124474482Y-113524188D01*
X124350000Y-113511928D01*
X124025509Y-113513695D01*
X124157070Y-113443374D01*
X124336291Y-113296291D01*
X124483374Y-113117070D01*
X124592667Y-112912597D01*
X124659969Y-112690732D01*
X124682694Y-112460000D01*
X124659969Y-112229268D01*
X124592667Y-112007403D01*
X124483374Y-111802930D01*
X124336291Y-111623709D01*
X124157070Y-111476626D01*
X123952597Y-111367333D01*
X123730732Y-111300031D01*
X123557812Y-111283000D01*
X123442188Y-111283000D01*
X123269268Y-111300031D01*
X123047403Y-111367333D01*
X122842930Y-111476626D01*
X122663709Y-111623709D01*
X122516626Y-111802930D01*
X122407333Y-112007403D01*
X122340031Y-112229268D01*
X122317306Y-112460000D01*
X122340031Y-112690732D01*
X122407333Y-112912597D01*
X122516626Y-113117070D01*
X122663709Y-113296291D01*
X122842930Y-113443374D01*
X122974491Y-113513695D01*
X122650000Y-113511928D01*
X122525518Y-113524188D01*
X122405820Y-113560498D01*
X122295506Y-113619463D01*
X122198815Y-113698815D01*
X122119463Y-113795506D01*
X122060498Y-113905820D01*
X122024188Y-114025518D01*
X122011928Y-114150000D01*
X110279000Y-114150000D01*
X110279000Y-112396990D01*
X111008000Y-112396990D01*
X111008000Y-112683010D01*
X111063799Y-112963533D01*
X111173254Y-113227780D01*
X111332158Y-113465596D01*
X111534404Y-113667842D01*
X111772220Y-113826746D01*
X112036467Y-113936201D01*
X112316990Y-113992000D01*
X112603010Y-113992000D01*
X112883533Y-113936201D01*
X113147780Y-113826746D01*
X113385596Y-113667842D01*
X113587842Y-113465596D01*
X113746746Y-113227780D01*
X113856201Y-112963533D01*
X113912000Y-112683010D01*
X113912000Y-112396990D01*
X116088000Y-112396990D01*
X116088000Y-112683010D01*
X116143799Y-112963533D01*
X116253254Y-113227780D01*
X116412158Y-113465596D01*
X116614404Y-113667842D01*
X116852220Y-113826746D01*
X117116467Y-113936201D01*
X117396990Y-113992000D01*
X117683010Y-113992000D01*
X117963533Y-113936201D01*
X118227780Y-113826746D01*
X118465596Y-113667842D01*
X118667842Y-113465596D01*
X118826746Y-113227780D01*
X118936201Y-112963533D01*
X118992000Y-112683010D01*
X118992000Y-112396990D01*
X118936201Y-112116467D01*
X118826746Y-111852220D01*
X118667842Y-111614404D01*
X118465596Y-111412158D01*
X118227780Y-111253254D01*
X117963533Y-111143799D01*
X117683010Y-111088000D01*
X117396990Y-111088000D01*
X117116467Y-111143799D01*
X116852220Y-111253254D01*
X116614404Y-111412158D01*
X116412158Y-111614404D01*
X116253254Y-111852220D01*
X116143799Y-112116467D01*
X116088000Y-112396990D01*
X113912000Y-112396990D01*
X113856201Y-112116467D01*
X113746746Y-111852220D01*
X113587842Y-111614404D01*
X113385596Y-111412158D01*
X113147780Y-111253254D01*
X112883533Y-111143799D01*
X112603010Y-111088000D01*
X112316990Y-111088000D01*
X112036467Y-111143799D01*
X111772220Y-111253254D01*
X111534404Y-111412158D01*
X111332158Y-111614404D01*
X111173254Y-111852220D01*
X111063799Y-112116467D01*
X111008000Y-112396990D01*
X110279000Y-112396990D01*
X110279000Y-109856990D01*
X113548000Y-109856990D01*
X113548000Y-110143010D01*
X113603799Y-110423533D01*
X113713254Y-110687780D01*
X113872158Y-110925596D01*
X114074404Y-111127842D01*
X114312220Y-111286746D01*
X114576467Y-111396201D01*
X114856990Y-111452000D01*
X115143010Y-111452000D01*
X115423533Y-111396201D01*
X115687780Y-111286746D01*
X115925596Y-111127842D01*
X116127842Y-110925596D01*
X116286746Y-110687780D01*
X116396201Y-110423533D01*
X116452000Y-110143010D01*
X116452000Y-109856990D01*
X116396201Y-109576467D01*
X116286746Y-109312220D01*
X116127842Y-109074404D01*
X115981835Y-108928397D01*
X143273000Y-108928397D01*
X143273000Y-109071603D01*
X143300938Y-109212058D01*
X143355741Y-109344364D01*
X143435302Y-109463436D01*
X143536564Y-109564698D01*
X143573001Y-109589044D01*
X143573000Y-109910956D01*
X143536564Y-109935302D01*
X143435302Y-110036564D01*
X143355741Y-110155636D01*
X143300938Y-110287942D01*
X143273000Y-110428397D01*
X143273000Y-110571603D01*
X143300938Y-110712058D01*
X143355741Y-110844364D01*
X143435302Y-110963436D01*
X143536564Y-111064698D01*
X143655636Y-111144259D01*
X143787942Y-111199062D01*
X143928397Y-111227000D01*
X144071603Y-111227000D01*
X144212058Y-111199062D01*
X144344364Y-111144259D01*
X144463436Y-111064698D01*
X144564698Y-110963436D01*
X144644259Y-110844364D01*
X144699062Y-110712058D01*
X144727000Y-110571603D01*
X144727000Y-110428397D01*
X144699062Y-110287942D01*
X144644259Y-110155636D01*
X144564698Y-110036564D01*
X144463436Y-109935302D01*
X144427000Y-109910956D01*
X144427000Y-109589044D01*
X144463436Y-109564698D01*
X144564698Y-109463436D01*
X144644259Y-109344364D01*
X144699062Y-109212058D01*
X144727000Y-109071603D01*
X144727000Y-108928397D01*
X144699062Y-108787942D01*
X144644259Y-108655636D01*
X144564698Y-108536564D01*
X144463436Y-108435302D01*
X144344364Y-108355741D01*
X144212058Y-108300938D01*
X144071603Y-108273000D01*
X143928397Y-108273000D01*
X143787942Y-108300938D01*
X143655636Y-108355741D01*
X143536564Y-108435302D01*
X143435302Y-108536564D01*
X143355741Y-108655636D01*
X143300938Y-108787942D01*
X143273000Y-108928397D01*
X115981835Y-108928397D01*
X115925596Y-108872158D01*
X115687780Y-108713254D01*
X115423533Y-108603799D01*
X115143010Y-108548000D01*
X114856990Y-108548000D01*
X114576467Y-108603799D01*
X114312220Y-108713254D01*
X114074404Y-108872158D01*
X113872158Y-109074404D01*
X113713254Y-109312220D01*
X113603799Y-109576467D01*
X113548000Y-109856990D01*
X110279000Y-109856990D01*
X110279000Y-107316990D01*
X111008000Y-107316990D01*
X111008000Y-107603010D01*
X111063799Y-107883533D01*
X111173254Y-108147780D01*
X111332158Y-108385596D01*
X111534404Y-108587842D01*
X111772220Y-108746746D01*
X112036467Y-108856201D01*
X112316990Y-108912000D01*
X112603010Y-108912000D01*
X112883533Y-108856201D01*
X113147780Y-108746746D01*
X113385596Y-108587842D01*
X113587842Y-108385596D01*
X113746746Y-108147780D01*
X113856201Y-107883533D01*
X113912000Y-107603010D01*
X113912000Y-107316990D01*
X116088000Y-107316990D01*
X116088000Y-107603010D01*
X116143799Y-107883533D01*
X116253254Y-108147780D01*
X116412158Y-108385596D01*
X116614404Y-108587842D01*
X116852220Y-108746746D01*
X117116467Y-108856201D01*
X117396990Y-108912000D01*
X117683010Y-108912000D01*
X117963533Y-108856201D01*
X118227780Y-108746746D01*
X118465596Y-108587842D01*
X118667842Y-108385596D01*
X118826746Y-108147780D01*
X118936201Y-107883533D01*
X118992000Y-107603010D01*
X118992000Y-107316990D01*
X118936201Y-107036467D01*
X118826746Y-106772220D01*
X118667842Y-106534404D01*
X118465596Y-106332158D01*
X118227780Y-106173254D01*
X117963533Y-106063799D01*
X117683010Y-106008000D01*
X117396990Y-106008000D01*
X117116467Y-106063799D01*
X116852220Y-106173254D01*
X116614404Y-106332158D01*
X116412158Y-106534404D01*
X116253254Y-106772220D01*
X116143799Y-107036467D01*
X116088000Y-107316990D01*
X113912000Y-107316990D01*
X113856201Y-107036467D01*
X113746746Y-106772220D01*
X113587842Y-106534404D01*
X113385596Y-106332158D01*
X113147780Y-106173254D01*
X112883533Y-106063799D01*
X112603010Y-106008000D01*
X112316990Y-106008000D01*
X112036467Y-106063799D01*
X111772220Y-106173254D01*
X111534404Y-106332158D01*
X111332158Y-106534404D01*
X111173254Y-106772220D01*
X111063799Y-107036467D01*
X111008000Y-107316990D01*
X110279000Y-107316990D01*
X110279000Y-100428397D01*
X141723000Y-100428397D01*
X141723000Y-100571603D01*
X141750938Y-100712058D01*
X141805741Y-100844364D01*
X141885302Y-100963436D01*
X141986564Y-101064698D01*
X142105636Y-101144259D01*
X142237942Y-101199062D01*
X142378397Y-101227000D01*
X142521603Y-101227000D01*
X142564583Y-101218451D01*
X145573000Y-104226870D01*
X145573001Y-110410956D01*
X145536564Y-110435302D01*
X145435302Y-110536564D01*
X145355741Y-110655636D01*
X145300938Y-110787942D01*
X145273000Y-110928397D01*
X145273000Y-111071603D01*
X145300938Y-111212058D01*
X145355741Y-111344364D01*
X145435302Y-111463436D01*
X145536564Y-111564698D01*
X145655636Y-111644259D01*
X145787942Y-111699062D01*
X145928397Y-111727000D01*
X146071603Y-111727000D01*
X146212058Y-111699062D01*
X146344364Y-111644259D01*
X146463436Y-111564698D01*
X146564698Y-111463436D01*
X146644259Y-111344364D01*
X146699062Y-111212058D01*
X146727000Y-111071603D01*
X146727000Y-110928397D01*
X146699062Y-110787942D01*
X146644259Y-110655636D01*
X146564698Y-110536564D01*
X146463436Y-110435302D01*
X146427000Y-110410956D01*
X146427000Y-104070966D01*
X146429065Y-104049999D01*
X146427000Y-104029032D01*
X146427000Y-104029022D01*
X146420822Y-103966293D01*
X146396405Y-103885804D01*
X146356756Y-103811625D01*
X146356755Y-103811623D01*
X146316768Y-103762898D01*
X146316759Y-103762889D01*
X146303395Y-103746605D01*
X146287112Y-103733242D01*
X143168451Y-100614583D01*
X143177000Y-100571603D01*
X143177000Y-100428397D01*
X143149062Y-100287942D01*
X143094259Y-100155636D01*
X143014698Y-100036564D01*
X142913436Y-99935302D01*
X142794364Y-99855741D01*
X142662058Y-99800938D01*
X142521603Y-99773000D01*
X142378397Y-99773000D01*
X142237942Y-99800938D01*
X142105636Y-99855741D01*
X141986564Y-99935302D01*
X141885302Y-100036564D01*
X141805741Y-100155636D01*
X141750938Y-100287942D01*
X141723000Y-100428397D01*
X110279000Y-100428397D01*
X110279000Y-85012421D01*
X110354703Y-84164184D01*
X110576130Y-83354780D01*
X110937392Y-82597379D01*
X111427065Y-81915927D01*
X112029674Y-81331958D01*
X112726177Y-80863928D01*
X113494548Y-80526636D01*
X114312649Y-80330227D01*
X115010234Y-80279000D01*
X174873000Y-80279000D01*
X174873000Y-115023131D01*
G36*
X174873000Y-139721000D02*
G01*
X115012420Y-139721000D01*
X114164183Y-139645297D01*
X113354773Y-139423867D01*
X112597379Y-139062608D01*
X111915927Y-138572935D01*
X111331958Y-137970326D01*
X110863928Y-137273823D01*
X110526635Y-136505450D01*
X110330227Y-135687353D01*
X110279000Y-134989767D01*
X110279000Y-134317188D01*
X163823000Y-134317188D01*
X163823000Y-134682811D01*
X163840031Y-134855731D01*
X163907333Y-135077596D01*
X164016626Y-135282069D01*
X164163709Y-135461291D01*
X164342930Y-135608374D01*
X164547403Y-135717667D01*
X164769268Y-135784969D01*
X165000000Y-135807694D01*
X165230731Y-135784969D01*
X165452596Y-135717667D01*
X165657069Y-135608374D01*
X165836291Y-135461291D01*
X165983374Y-135282070D01*
X166091526Y-135079731D01*
X166107558Y-135140830D01*
X166234947Y-135402570D01*
X166410951Y-135634429D01*
X166628807Y-135827496D01*
X166880142Y-135974352D01*
X167143110Y-136066476D01*
X167373000Y-135945155D01*
X167373000Y-134627000D01*
X167353000Y-134627000D01*
X167353000Y-134373000D01*
X167373000Y-134373000D01*
X167373000Y-133054845D01*
X167627000Y-133054845D01*
X167627000Y-134373000D01*
X167647000Y-134373000D01*
X167647000Y-134627000D01*
X167627000Y-134627000D01*
X167627000Y-135945155D01*
X167856890Y-136066476D01*
X168119858Y-135974352D01*
X168371193Y-135827496D01*
X168589049Y-135634429D01*
X168765053Y-135402570D01*
X168826477Y-135276365D01*
X168832535Y-135337876D01*
X168865460Y-135446414D01*
X168918927Y-135546443D01*
X168990881Y-135634119D01*
X169078557Y-135706073D01*
X169178586Y-135759540D01*
X169287124Y-135792465D01*
X169400000Y-135803582D01*
X170600000Y-135803582D01*
X170712876Y-135792465D01*
X170821414Y-135759540D01*
X170921443Y-135706073D01*
X171009119Y-135634119D01*
X171081073Y-135546443D01*
X171134540Y-135446414D01*
X171167465Y-135337876D01*
X171178582Y-135225000D01*
X171178582Y-133775000D01*
X171167465Y-133662124D01*
X171134540Y-133553586D01*
X171081073Y-133453557D01*
X171009119Y-133365881D01*
X170921443Y-133293927D01*
X170821414Y-133240460D01*
X170712876Y-133207535D01*
X170600000Y-133196418D01*
X169400000Y-133196418D01*
X169287124Y-133207535D01*
X169178586Y-133240460D01*
X169078557Y-133293927D01*
X168990881Y-133365881D01*
X168918927Y-133453557D01*
X168865460Y-133553586D01*
X168832535Y-133662124D01*
X168826477Y-133723635D01*
X168765053Y-133597430D01*
X168589049Y-133365571D01*
X168371193Y-133172504D01*
X168119858Y-133025648D01*
X167856890Y-132933524D01*
X167627000Y-133054845D01*
X167373000Y-133054845D01*
X167143110Y-132933524D01*
X166880142Y-133025648D01*
X166628807Y-133172504D01*
X166410951Y-133365571D01*
X166234947Y-133597430D01*
X166107558Y-133859170D01*
X166091526Y-133920270D01*
X165983374Y-133717931D01*
X165836291Y-133538709D01*
X165657070Y-133391626D01*
X165452597Y-133282333D01*
X165230732Y-133215031D01*
X165000000Y-133192306D01*
X164769269Y-133215031D01*
X164547404Y-133282333D01*
X164342931Y-133391626D01*
X164163710Y-133538709D01*
X164016626Y-133717930D01*
X163907333Y-133922403D01*
X163840031Y-134144268D01*
X163823000Y-134317188D01*
X110279000Y-134317188D01*
X110279000Y-127127000D01*
X174873000Y-127127000D01*
X174873000Y-139721000D01*
X174873000Y-139721000D01*
G37*
X174873000Y-139721000D02*
X115012420Y-139721000D01*
X114164183Y-139645297D01*
X113354773Y-139423867D01*
X112597379Y-139062608D01*
X111915927Y-138572935D01*
X111331958Y-137970326D01*
X110863928Y-137273823D01*
X110526635Y-136505450D01*
X110330227Y-135687353D01*
X110279000Y-134989767D01*
X110279000Y-134317188D01*
X163823000Y-134317188D01*
X163823000Y-134682811D01*
X163840031Y-134855731D01*
X163907333Y-135077596D01*
X164016626Y-135282069D01*
X164163709Y-135461291D01*
X164342930Y-135608374D01*
X164547403Y-135717667D01*
X164769268Y-135784969D01*
X165000000Y-135807694D01*
X165230731Y-135784969D01*
X165452596Y-135717667D01*
X165657069Y-135608374D01*
X165836291Y-135461291D01*
X165983374Y-135282070D01*
X166091526Y-135079731D01*
X166107558Y-135140830D01*
X166234947Y-135402570D01*
X166410951Y-135634429D01*
X166628807Y-135827496D01*
X166880142Y-135974352D01*
X167143110Y-136066476D01*
X167373000Y-135945155D01*
X167373000Y-134627000D01*
X167353000Y-134627000D01*
X167353000Y-134373000D01*
X167373000Y-134373000D01*
X167373000Y-133054845D01*
X167627000Y-133054845D01*
X167627000Y-134373000D01*
X167647000Y-134373000D01*
X167647000Y-134627000D01*
X167627000Y-134627000D01*
X167627000Y-135945155D01*
X167856890Y-136066476D01*
X168119858Y-135974352D01*
X168371193Y-135827496D01*
X168589049Y-135634429D01*
X168765053Y-135402570D01*
X168826477Y-135276365D01*
X168832535Y-135337876D01*
X168865460Y-135446414D01*
X168918927Y-135546443D01*
X168990881Y-135634119D01*
X169078557Y-135706073D01*
X169178586Y-135759540D01*
X169287124Y-135792465D01*
X169400000Y-135803582D01*
X170600000Y-135803582D01*
X170712876Y-135792465D01*
X170821414Y-135759540D01*
X170921443Y-135706073D01*
X171009119Y-135634119D01*
X171081073Y-135546443D01*
X171134540Y-135446414D01*
X171167465Y-135337876D01*
X171178582Y-135225000D01*
X171178582Y-133775000D01*
X171167465Y-133662124D01*
X171134540Y-133553586D01*
X171081073Y-133453557D01*
X171009119Y-133365881D01*
X170921443Y-133293927D01*
X170821414Y-133240460D01*
X170712876Y-133207535D01*
X170600000Y-133196418D01*
X169400000Y-133196418D01*
X169287124Y-133207535D01*
X169178586Y-133240460D01*
X169078557Y-133293927D01*
X168990881Y-133365881D01*
X168918927Y-133453557D01*
X168865460Y-133553586D01*
X168832535Y-133662124D01*
X168826477Y-133723635D01*
X168765053Y-133597430D01*
X168589049Y-133365571D01*
X168371193Y-133172504D01*
X168119858Y-133025648D01*
X167856890Y-132933524D01*
X167627000Y-133054845D01*
X167373000Y-133054845D01*
X167143110Y-132933524D01*
X166880142Y-133025648D01*
X166628807Y-133172504D01*
X166410951Y-133365571D01*
X166234947Y-133597430D01*
X166107558Y-133859170D01*
X166091526Y-133920270D01*
X165983374Y-133717931D01*
X165836291Y-133538709D01*
X165657070Y-133391626D01*
X165452597Y-133282333D01*
X165230732Y-133215031D01*
X165000000Y-133192306D01*
X164769269Y-133215031D01*
X164547404Y-133282333D01*
X164342931Y-133391626D01*
X164163710Y-133538709D01*
X164016626Y-133717930D01*
X163907333Y-133922403D01*
X163840031Y-134144268D01*
X163823000Y-134317188D01*
X110279000Y-134317188D01*
X110279000Y-127127000D01*
X174873000Y-127127000D01*
X174873000Y-139721000D01*
G36*
X195835816Y-80354703D02*
G01*
X196645220Y-80576130D01*
X197402621Y-80937392D01*
X198084073Y-81427065D01*
X198668042Y-82029674D01*
X199136072Y-82726177D01*
X199473364Y-83494548D01*
X199669773Y-84312649D01*
X199721001Y-85010248D01*
X199721000Y-133988548D01*
X199643250Y-134934237D01*
X199414891Y-135843376D01*
X199041108Y-136703018D01*
X198531941Y-137490069D01*
X197901070Y-138183386D01*
X197165429Y-138764360D01*
X196344781Y-139217382D01*
X195461163Y-139530287D01*
X194533486Y-139695532D01*
X193993431Y-139721000D01*
X177127000Y-139721000D01*
X177127000Y-121000000D01*
X191277306Y-121000000D01*
X191300031Y-121230732D01*
X191367333Y-121452597D01*
X191476626Y-121657070D01*
X191623709Y-121836291D01*
X191802930Y-121983374D01*
X192007403Y-122092667D01*
X192229268Y-122159969D01*
X192402188Y-122177000D01*
X192517812Y-122177000D01*
X192690732Y-122159969D01*
X192912597Y-122092667D01*
X193117070Y-121983374D01*
X193296291Y-121836291D01*
X193443374Y-121657070D01*
X193552667Y-121452597D01*
X193619969Y-121230732D01*
X193642694Y-121000000D01*
X193619969Y-120769268D01*
X193552667Y-120547403D01*
X193443374Y-120342930D01*
X193296291Y-120163709D01*
X193279587Y-120150000D01*
X193821418Y-120150000D01*
X193821418Y-121850000D01*
X193827732Y-121914103D01*
X193846430Y-121975743D01*
X193876794Y-122032550D01*
X193917657Y-122082343D01*
X193967450Y-122123206D01*
X194024257Y-122153570D01*
X194085897Y-122172268D01*
X194150000Y-122178582D01*
X195850000Y-122178582D01*
X195914103Y-122172268D01*
X195975743Y-122153570D01*
X196032550Y-122123206D01*
X196082343Y-122082343D01*
X196123206Y-122032550D01*
X196153570Y-121975743D01*
X196172268Y-121914103D01*
X196178582Y-121850000D01*
X196178582Y-120150000D01*
X196172268Y-120085897D01*
X196153570Y-120024257D01*
X196123206Y-119967450D01*
X196082343Y-119917657D01*
X196032550Y-119876794D01*
X195975743Y-119846430D01*
X195914103Y-119827732D01*
X195850000Y-119821418D01*
X194150000Y-119821418D01*
X194085897Y-119827732D01*
X194024257Y-119846430D01*
X193967450Y-119876794D01*
X193917657Y-119917657D01*
X193876794Y-119967450D01*
X193846430Y-120024257D01*
X193827732Y-120085897D01*
X193821418Y-120150000D01*
X193279587Y-120150000D01*
X193117070Y-120016626D01*
X192912597Y-119907333D01*
X192690732Y-119840031D01*
X192517812Y-119823000D01*
X192402188Y-119823000D01*
X192229268Y-119840031D01*
X192007403Y-119907333D01*
X191802930Y-120016626D01*
X191623709Y-120163709D01*
X191476626Y-120342930D01*
X191367333Y-120547403D01*
X191300031Y-120769268D01*
X191277306Y-121000000D01*
X177127000Y-121000000D01*
X177127000Y-118460000D01*
X191277306Y-118460000D01*
X191300031Y-118690732D01*
X191367333Y-118912597D01*
X191476626Y-119117070D01*
X191623709Y-119296291D01*
X191802930Y-119443374D01*
X192007403Y-119552667D01*
X192229268Y-119619969D01*
X192402188Y-119637000D01*
X192517812Y-119637000D01*
X192690732Y-119619969D01*
X192912597Y-119552667D01*
X193117070Y-119443374D01*
X193296291Y-119296291D01*
X193443374Y-119117070D01*
X193552667Y-118912597D01*
X193619969Y-118690732D01*
X193642694Y-118460000D01*
X193817306Y-118460000D01*
X193840031Y-118690732D01*
X193907333Y-118912597D01*
X194016626Y-119117070D01*
X194163709Y-119296291D01*
X194342930Y-119443374D01*
X194547403Y-119552667D01*
X194769268Y-119619969D01*
X194942188Y-119637000D01*
X195057812Y-119637000D01*
X195230732Y-119619969D01*
X195452597Y-119552667D01*
X195657070Y-119443374D01*
X195836291Y-119296291D01*
X195983374Y-119117070D01*
X196092667Y-118912597D01*
X196159969Y-118690732D01*
X196182694Y-118460000D01*
X196159969Y-118229268D01*
X196092667Y-118007403D01*
X195983374Y-117802930D01*
X195836291Y-117623709D01*
X195657070Y-117476626D01*
X195452597Y-117367333D01*
X195230732Y-117300031D01*
X195057812Y-117283000D01*
X194942188Y-117283000D01*
X194769268Y-117300031D01*
X194547403Y-117367333D01*
X194342930Y-117476626D01*
X194163709Y-117623709D01*
X194016626Y-117802930D01*
X193907333Y-118007403D01*
X193840031Y-118229268D01*
X193817306Y-118460000D01*
X193642694Y-118460000D01*
X193619969Y-118229268D01*
X193552667Y-118007403D01*
X193443374Y-117802930D01*
X193296291Y-117623709D01*
X193117070Y-117476626D01*
X192912597Y-117367333D01*
X192690732Y-117300031D01*
X192517812Y-117283000D01*
X192402188Y-117283000D01*
X192229268Y-117300031D01*
X192007403Y-117367333D01*
X191802930Y-117476626D01*
X191623709Y-117623709D01*
X191476626Y-117802930D01*
X191367333Y-118007403D01*
X191300031Y-118229268D01*
X191277306Y-118460000D01*
X177127000Y-118460000D01*
X177127000Y-115976869D01*
X177183869Y-115920000D01*
X191277306Y-115920000D01*
X191300031Y-116150732D01*
X191367333Y-116372597D01*
X191476626Y-116577070D01*
X191623709Y-116756291D01*
X191802930Y-116903374D01*
X192007403Y-117012667D01*
X192229268Y-117079969D01*
X192402188Y-117097000D01*
X192517812Y-117097000D01*
X192690732Y-117079969D01*
X192912597Y-117012667D01*
X193117070Y-116903374D01*
X193296291Y-116756291D01*
X193443374Y-116577070D01*
X193552667Y-116372597D01*
X193619969Y-116150732D01*
X193642694Y-115920000D01*
X193817306Y-115920000D01*
X193840031Y-116150732D01*
X193907333Y-116372597D01*
X194016626Y-116577070D01*
X194163709Y-116756291D01*
X194342930Y-116903374D01*
X194547403Y-117012667D01*
X194769268Y-117079969D01*
X194942188Y-117097000D01*
X195057812Y-117097000D01*
X195230732Y-117079969D01*
X195452597Y-117012667D01*
X195657070Y-116903374D01*
X195836291Y-116756291D01*
X195983374Y-116577070D01*
X196092667Y-116372597D01*
X196159969Y-116150732D01*
X196182694Y-115920000D01*
X196159969Y-115689268D01*
X196092667Y-115467403D01*
X195983374Y-115262930D01*
X195836291Y-115083709D01*
X195657070Y-114936626D01*
X195452597Y-114827333D01*
X195230732Y-114760031D01*
X195057812Y-114743000D01*
X194942188Y-114743000D01*
X194769268Y-114760031D01*
X194547403Y-114827333D01*
X194342930Y-114936626D01*
X194163709Y-115083709D01*
X194016626Y-115262930D01*
X193907333Y-115467403D01*
X193840031Y-115689268D01*
X193817306Y-115920000D01*
X193642694Y-115920000D01*
X193619969Y-115689268D01*
X193552667Y-115467403D01*
X193443374Y-115262930D01*
X193296291Y-115083709D01*
X193117070Y-114936626D01*
X192912597Y-114827333D01*
X192690732Y-114760031D01*
X192517812Y-114743000D01*
X192402188Y-114743000D01*
X192229268Y-114760031D01*
X192007403Y-114827333D01*
X191802930Y-114936626D01*
X191623709Y-115083709D01*
X191476626Y-115262930D01*
X191367333Y-115467403D01*
X191300031Y-115689268D01*
X191277306Y-115920000D01*
X177183869Y-115920000D01*
X177676869Y-115427000D01*
X185739033Y-115427000D01*
X185760000Y-115429065D01*
X185780967Y-115427000D01*
X185780978Y-115427000D01*
X185843707Y-115420822D01*
X185924196Y-115396405D01*
X185998376Y-115356755D01*
X186063395Y-115303395D01*
X186076768Y-115287100D01*
X187983868Y-113380000D01*
X191277306Y-113380000D01*
X191300031Y-113610732D01*
X191367333Y-113832597D01*
X191476626Y-114037070D01*
X191623709Y-114216291D01*
X191802930Y-114363374D01*
X192007403Y-114472667D01*
X192229268Y-114539969D01*
X192402188Y-114557000D01*
X192517812Y-114557000D01*
X192690732Y-114539969D01*
X192912597Y-114472667D01*
X193117070Y-114363374D01*
X193296291Y-114216291D01*
X193443374Y-114037070D01*
X193552667Y-113832597D01*
X193619969Y-113610732D01*
X193642694Y-113380000D01*
X193817306Y-113380000D01*
X193840031Y-113610732D01*
X193907333Y-113832597D01*
X194016626Y-114037070D01*
X194163709Y-114216291D01*
X194342930Y-114363374D01*
X194547403Y-114472667D01*
X194769268Y-114539969D01*
X194942188Y-114557000D01*
X195057812Y-114557000D01*
X195230732Y-114539969D01*
X195452597Y-114472667D01*
X195657070Y-114363374D01*
X195836291Y-114216291D01*
X195983374Y-114037070D01*
X196092667Y-113832597D01*
X196159969Y-113610732D01*
X196182694Y-113380000D01*
X196159969Y-113149268D01*
X196092667Y-112927403D01*
X195983374Y-112722930D01*
X195836291Y-112543709D01*
X195657070Y-112396626D01*
X195452597Y-112287333D01*
X195230732Y-112220031D01*
X195057812Y-112203000D01*
X194942188Y-112203000D01*
X194769268Y-112220031D01*
X194547403Y-112287333D01*
X194342930Y-112396626D01*
X194163709Y-112543709D01*
X194016626Y-112722930D01*
X193907333Y-112927403D01*
X193840031Y-113149268D01*
X193817306Y-113380000D01*
X193642694Y-113380000D01*
X193619969Y-113149268D01*
X193552667Y-112927403D01*
X193443374Y-112722930D01*
X193296291Y-112543709D01*
X193117070Y-112396626D01*
X192912597Y-112287333D01*
X192690732Y-112220031D01*
X192517812Y-112203000D01*
X192402188Y-112203000D01*
X192229268Y-112220031D01*
X192007403Y-112287333D01*
X191802930Y-112396626D01*
X191623709Y-112543709D01*
X191476626Y-112722930D01*
X191367333Y-112927403D01*
X191300031Y-113149268D01*
X191277306Y-113380000D01*
X187983868Y-113380000D01*
X190523868Y-110840000D01*
X191277306Y-110840000D01*
X191300031Y-111070732D01*
X191367333Y-111292597D01*
X191476626Y-111497070D01*
X191623709Y-111676291D01*
X191802930Y-111823374D01*
X192007403Y-111932667D01*
X192229268Y-111999969D01*
X192402188Y-112017000D01*
X192517812Y-112017000D01*
X192690732Y-111999969D01*
X192912597Y-111932667D01*
X193117070Y-111823374D01*
X193296291Y-111676291D01*
X193443374Y-111497070D01*
X193552667Y-111292597D01*
X193619969Y-111070732D01*
X193642694Y-110840000D01*
X193817306Y-110840000D01*
X193840031Y-111070732D01*
X193907333Y-111292597D01*
X194016626Y-111497070D01*
X194163709Y-111676291D01*
X194342930Y-111823374D01*
X194547403Y-111932667D01*
X194769268Y-111999969D01*
X194942188Y-112017000D01*
X195057812Y-112017000D01*
X195230732Y-111999969D01*
X195452597Y-111932667D01*
X195657070Y-111823374D01*
X195836291Y-111676291D01*
X195983374Y-111497070D01*
X196092667Y-111292597D01*
X196159969Y-111070732D01*
X196182694Y-110840000D01*
X196159969Y-110609268D01*
X196092667Y-110387403D01*
X195983374Y-110182930D01*
X195836291Y-110003709D01*
X195657070Y-109856626D01*
X195452597Y-109747333D01*
X195230732Y-109680031D01*
X195057812Y-109663000D01*
X194942188Y-109663000D01*
X194769268Y-109680031D01*
X194547403Y-109747333D01*
X194342930Y-109856626D01*
X194163709Y-110003709D01*
X194016626Y-110182930D01*
X193907333Y-110387403D01*
X193840031Y-110609268D01*
X193817306Y-110840000D01*
X193642694Y-110840000D01*
X193619969Y-110609268D01*
X193552667Y-110387403D01*
X193443374Y-110182930D01*
X193296291Y-110003709D01*
X193117070Y-109856626D01*
X192912597Y-109747333D01*
X192690732Y-109680031D01*
X192517812Y-109663000D01*
X192402188Y-109663000D01*
X192229268Y-109680031D01*
X192007403Y-109747333D01*
X191802930Y-109856626D01*
X191623709Y-110003709D01*
X191476626Y-110182930D01*
X191367333Y-110387403D01*
X191300031Y-110609268D01*
X191277306Y-110840000D01*
X190523868Y-110840000D01*
X191983812Y-109380057D01*
X192007403Y-109392667D01*
X192229268Y-109459969D01*
X192402188Y-109477000D01*
X192517812Y-109477000D01*
X192690732Y-109459969D01*
X192912597Y-109392667D01*
X193117070Y-109283374D01*
X193296291Y-109136291D01*
X193443374Y-108957070D01*
X193552667Y-108752597D01*
X193619969Y-108530732D01*
X193642694Y-108300000D01*
X193817306Y-108300000D01*
X193840031Y-108530732D01*
X193907333Y-108752597D01*
X194016626Y-108957070D01*
X194163709Y-109136291D01*
X194342930Y-109283374D01*
X194547403Y-109392667D01*
X194769268Y-109459969D01*
X194942188Y-109477000D01*
X195057812Y-109477000D01*
X195230732Y-109459969D01*
X195452597Y-109392667D01*
X195657070Y-109283374D01*
X195836291Y-109136291D01*
X195983374Y-108957070D01*
X196092667Y-108752597D01*
X196159969Y-108530732D01*
X196182694Y-108300000D01*
X196159969Y-108069268D01*
X196092667Y-107847403D01*
X195983374Y-107642930D01*
X195836291Y-107463709D01*
X195657070Y-107316626D01*
X195452597Y-107207333D01*
X195230732Y-107140031D01*
X195057812Y-107123000D01*
X194942188Y-107123000D01*
X194769268Y-107140031D01*
X194547403Y-107207333D01*
X194342930Y-107316626D01*
X194163709Y-107463709D01*
X194016626Y-107642930D01*
X193907333Y-107847403D01*
X193840031Y-108069268D01*
X193817306Y-108300000D01*
X193642694Y-108300000D01*
X193619969Y-108069268D01*
X193552667Y-107847403D01*
X193443374Y-107642930D01*
X193296291Y-107463709D01*
X193141897Y-107337001D01*
X193829032Y-107337001D01*
X193849999Y-107339066D01*
X193870966Y-107337001D01*
X193870977Y-107337001D01*
X193933706Y-107330823D01*
X194014195Y-107306406D01*
X194088375Y-107266756D01*
X194153394Y-107213396D01*
X194166767Y-107197101D01*
X194523811Y-106840057D01*
X194547403Y-106852667D01*
X194769268Y-106919969D01*
X194942188Y-106937000D01*
X195057812Y-106937000D01*
X195230732Y-106919969D01*
X195452597Y-106852667D01*
X195657070Y-106743374D01*
X195836291Y-106596291D01*
X195983374Y-106417070D01*
X196092667Y-106212597D01*
X196159969Y-105990732D01*
X196182694Y-105760000D01*
X196159969Y-105529268D01*
X196092667Y-105307403D01*
X195983374Y-105102930D01*
X195836291Y-104923709D01*
X195657070Y-104776626D01*
X195452597Y-104667333D01*
X195230732Y-104600031D01*
X195057812Y-104583000D01*
X194942188Y-104583000D01*
X194769268Y-104600031D01*
X194547403Y-104667333D01*
X194342930Y-104776626D01*
X194163709Y-104923709D01*
X194016626Y-105102930D01*
X193907333Y-105307403D01*
X193840031Y-105529268D01*
X193817306Y-105760000D01*
X193840031Y-105990732D01*
X193907333Y-106212597D01*
X193919943Y-106236189D01*
X193673131Y-106483001D01*
X193389266Y-106483001D01*
X193443374Y-106417070D01*
X193552667Y-106212597D01*
X193619969Y-105990732D01*
X193642694Y-105760000D01*
X193619969Y-105529268D01*
X193552667Y-105307403D01*
X193443374Y-105102930D01*
X193296291Y-104923709D01*
X193117070Y-104776626D01*
X192912597Y-104667333D01*
X192690732Y-104600031D01*
X192517812Y-104583000D01*
X192402188Y-104583000D01*
X192229268Y-104600031D01*
X192007403Y-104667333D01*
X191802930Y-104776626D01*
X191623709Y-104923709D01*
X191476626Y-105102930D01*
X191367333Y-105307403D01*
X191300031Y-105529268D01*
X191277306Y-105760000D01*
X191300031Y-105990732D01*
X191367333Y-106212597D01*
X191476626Y-106417070D01*
X191533597Y-106486490D01*
X191506292Y-106489179D01*
X191425803Y-106513596D01*
X191391272Y-106532053D01*
X191351622Y-106553246D01*
X191302898Y-106593233D01*
X191302894Y-106593237D01*
X191286604Y-106606606D01*
X191273235Y-106622896D01*
X184823132Y-113073000D01*
X177127000Y-113073000D01*
X177127000Y-101036890D01*
X191018524Y-101036890D01*
X191063175Y-101184099D01*
X191188359Y-101446920D01*
X191362412Y-101680269D01*
X191578645Y-101875178D01*
X191828748Y-102024157D01*
X192067885Y-102108986D01*
X192007403Y-102127333D01*
X191802930Y-102236626D01*
X191623709Y-102383709D01*
X191476626Y-102562930D01*
X191367333Y-102767403D01*
X191300031Y-102989268D01*
X191277306Y-103220000D01*
X191300031Y-103450732D01*
X191367333Y-103672597D01*
X191476626Y-103877070D01*
X191623709Y-104056291D01*
X191802930Y-104203374D01*
X192007403Y-104312667D01*
X192229268Y-104379969D01*
X192402188Y-104397000D01*
X192517812Y-104397000D01*
X192690732Y-104379969D01*
X192912597Y-104312667D01*
X193117070Y-104203374D01*
X193296291Y-104056291D01*
X193443374Y-103877070D01*
X193552667Y-103672597D01*
X193619969Y-103450732D01*
X193642694Y-103220000D01*
X193817306Y-103220000D01*
X193840031Y-103450732D01*
X193907333Y-103672597D01*
X194016626Y-103877070D01*
X194163709Y-104056291D01*
X194342930Y-104203374D01*
X194547403Y-104312667D01*
X194769268Y-104379969D01*
X194942188Y-104397000D01*
X195057812Y-104397000D01*
X195230732Y-104379969D01*
X195452597Y-104312667D01*
X195657070Y-104203374D01*
X195836291Y-104056291D01*
X195983374Y-103877070D01*
X196092667Y-103672597D01*
X196159969Y-103450732D01*
X196182694Y-103220000D01*
X196159969Y-102989268D01*
X196092667Y-102767403D01*
X195983374Y-102562930D01*
X195836291Y-102383709D01*
X195657070Y-102236626D01*
X195452597Y-102127333D01*
X195230732Y-102060031D01*
X195057812Y-102043000D01*
X194942188Y-102043000D01*
X194769268Y-102060031D01*
X194547403Y-102127333D01*
X194342930Y-102236626D01*
X194163709Y-102383709D01*
X194016626Y-102562930D01*
X193907333Y-102767403D01*
X193840031Y-102989268D01*
X193817306Y-103220000D01*
X193642694Y-103220000D01*
X193619969Y-102989268D01*
X193552667Y-102767403D01*
X193443374Y-102562930D01*
X193296291Y-102383709D01*
X193117070Y-102236626D01*
X192912597Y-102127333D01*
X192852115Y-102108986D01*
X193091252Y-102024157D01*
X193341355Y-101875178D01*
X193557588Y-101680269D01*
X193731641Y-101446920D01*
X193856825Y-101184099D01*
X193889889Y-101075091D01*
X193907333Y-101132597D01*
X194016626Y-101337070D01*
X194163709Y-101516291D01*
X194342930Y-101663374D01*
X194547403Y-101772667D01*
X194769268Y-101839969D01*
X194942188Y-101857000D01*
X195057812Y-101857000D01*
X195230732Y-101839969D01*
X195452597Y-101772667D01*
X195657070Y-101663374D01*
X195836291Y-101516291D01*
X195983374Y-101337070D01*
X196092667Y-101132597D01*
X196159969Y-100910732D01*
X196182694Y-100680000D01*
X196159969Y-100449268D01*
X196092667Y-100227403D01*
X195983374Y-100022930D01*
X195836291Y-99843709D01*
X195657070Y-99696626D01*
X195452597Y-99587333D01*
X195230732Y-99520031D01*
X195057812Y-99503000D01*
X194942188Y-99503000D01*
X194769268Y-99520031D01*
X194547403Y-99587333D01*
X194342930Y-99696626D01*
X194163709Y-99843709D01*
X194016626Y-100022930D01*
X193907333Y-100227403D01*
X193889889Y-100284909D01*
X193856825Y-100175901D01*
X193731641Y-99913080D01*
X193557588Y-99679731D01*
X193341355Y-99484822D01*
X193215745Y-99410000D01*
X193341355Y-99335178D01*
X193557588Y-99140269D01*
X193731641Y-98906920D01*
X193856825Y-98644099D01*
X193889889Y-98535091D01*
X193907333Y-98592597D01*
X194016626Y-98797070D01*
X194163709Y-98976291D01*
X194342930Y-99123374D01*
X194547403Y-99232667D01*
X194769268Y-99299969D01*
X194942188Y-99317000D01*
X195057812Y-99317000D01*
X195230732Y-99299969D01*
X195452597Y-99232667D01*
X195657070Y-99123374D01*
X195836291Y-98976291D01*
X195983374Y-98797070D01*
X196092667Y-98592597D01*
X196159969Y-98370732D01*
X196182694Y-98140000D01*
X196159969Y-97909268D01*
X196092667Y-97687403D01*
X195983374Y-97482930D01*
X195836291Y-97303709D01*
X195657070Y-97156626D01*
X195452597Y-97047333D01*
X195230732Y-96980031D01*
X195057812Y-96963000D01*
X194942188Y-96963000D01*
X194769268Y-96980031D01*
X194547403Y-97047333D01*
X194342930Y-97156626D01*
X194163709Y-97303709D01*
X194016626Y-97482930D01*
X193907333Y-97687403D01*
X193889889Y-97744909D01*
X193856825Y-97635901D01*
X193731641Y-97373080D01*
X193557588Y-97139731D01*
X193341355Y-96944822D01*
X193091252Y-96795843D01*
X192816891Y-96698519D01*
X192587000Y-96819186D01*
X192587000Y-98013000D01*
X192607000Y-98013000D01*
X192607000Y-98267000D01*
X192587000Y-98267000D01*
X192587000Y-100553000D01*
X192607000Y-100553000D01*
X192607000Y-100807000D01*
X192587000Y-100807000D01*
X192587000Y-100827000D01*
X192333000Y-100827000D01*
X192333000Y-100807000D01*
X191139845Y-100807000D01*
X191018524Y-101036890D01*
X177127000Y-101036890D01*
X177127000Y-98496890D01*
X191018524Y-98496890D01*
X191063175Y-98644099D01*
X191188359Y-98906920D01*
X191362412Y-99140269D01*
X191578645Y-99335178D01*
X191704255Y-99410000D01*
X191578645Y-99484822D01*
X191362412Y-99679731D01*
X191188359Y-99913080D01*
X191063175Y-100175901D01*
X191018524Y-100323110D01*
X191139845Y-100553000D01*
X192333000Y-100553000D01*
X192333000Y-98267000D01*
X191139845Y-98267000D01*
X191018524Y-98496890D01*
X177127000Y-98496890D01*
X177127000Y-97783110D01*
X191018524Y-97783110D01*
X191139845Y-98013000D01*
X192333000Y-98013000D01*
X192333000Y-96819186D01*
X192103109Y-96698519D01*
X191828748Y-96795843D01*
X191578645Y-96944822D01*
X191362412Y-97139731D01*
X191188359Y-97373080D01*
X191063175Y-97635901D01*
X191018524Y-97783110D01*
X177127000Y-97783110D01*
X177127000Y-80279000D01*
X194987579Y-80279000D01*
X195835816Y-80354703D01*
X195835816Y-80354703D01*
G37*
X195835816Y-80354703D02*
X196645220Y-80576130D01*
X197402621Y-80937392D01*
X198084073Y-81427065D01*
X198668042Y-82029674D01*
X199136072Y-82726177D01*
X199473364Y-83494548D01*
X199669773Y-84312649D01*
X199721001Y-85010248D01*
X199721000Y-133988548D01*
X199643250Y-134934237D01*
X199414891Y-135843376D01*
X199041108Y-136703018D01*
X198531941Y-137490069D01*
X197901070Y-138183386D01*
X197165429Y-138764360D01*
X196344781Y-139217382D01*
X195461163Y-139530287D01*
X194533486Y-139695532D01*
X193993431Y-139721000D01*
X177127000Y-139721000D01*
X177127000Y-121000000D01*
X191277306Y-121000000D01*
X191300031Y-121230732D01*
X191367333Y-121452597D01*
X191476626Y-121657070D01*
X191623709Y-121836291D01*
X191802930Y-121983374D01*
X192007403Y-122092667D01*
X192229268Y-122159969D01*
X192402188Y-122177000D01*
X192517812Y-122177000D01*
X192690732Y-122159969D01*
X192912597Y-122092667D01*
X193117070Y-121983374D01*
X193296291Y-121836291D01*
X193443374Y-121657070D01*
X193552667Y-121452597D01*
X193619969Y-121230732D01*
X193642694Y-121000000D01*
X193619969Y-120769268D01*
X193552667Y-120547403D01*
X193443374Y-120342930D01*
X193296291Y-120163709D01*
X193279587Y-120150000D01*
X193821418Y-120150000D01*
X193821418Y-121850000D01*
X193827732Y-121914103D01*
X193846430Y-121975743D01*
X193876794Y-122032550D01*
X193917657Y-122082343D01*
X193967450Y-122123206D01*
X194024257Y-122153570D01*
X194085897Y-122172268D01*
X194150000Y-122178582D01*
X195850000Y-122178582D01*
X195914103Y-122172268D01*
X195975743Y-122153570D01*
X196032550Y-122123206D01*
X196082343Y-122082343D01*
X196123206Y-122032550D01*
X196153570Y-121975743D01*
X196172268Y-121914103D01*
X196178582Y-121850000D01*
X196178582Y-120150000D01*
X196172268Y-120085897D01*
X196153570Y-120024257D01*
X196123206Y-119967450D01*
X196082343Y-119917657D01*
X196032550Y-119876794D01*
X195975743Y-119846430D01*
X195914103Y-119827732D01*
X195850000Y-119821418D01*
X194150000Y-119821418D01*
X194085897Y-119827732D01*
X194024257Y-119846430D01*
X193967450Y-119876794D01*
X193917657Y-119917657D01*
X193876794Y-119967450D01*
X193846430Y-120024257D01*
X193827732Y-120085897D01*
X193821418Y-120150000D01*
X193279587Y-120150000D01*
X193117070Y-120016626D01*
X192912597Y-119907333D01*
X192690732Y-119840031D01*
X192517812Y-119823000D01*
X192402188Y-119823000D01*
X192229268Y-119840031D01*
X192007403Y-119907333D01*
X191802930Y-120016626D01*
X191623709Y-120163709D01*
X191476626Y-120342930D01*
X191367333Y-120547403D01*
X191300031Y-120769268D01*
X191277306Y-121000000D01*
X177127000Y-121000000D01*
X177127000Y-118460000D01*
X191277306Y-118460000D01*
X191300031Y-118690732D01*
X191367333Y-118912597D01*
X191476626Y-119117070D01*
X191623709Y-119296291D01*
X191802930Y-119443374D01*
X192007403Y-119552667D01*
X192229268Y-119619969D01*
X192402188Y-119637000D01*
X192517812Y-119637000D01*
X192690732Y-119619969D01*
X192912597Y-119552667D01*
X193117070Y-119443374D01*
X193296291Y-119296291D01*
X193443374Y-119117070D01*
X193552667Y-118912597D01*
X193619969Y-118690732D01*
X193642694Y-118460000D01*
X193817306Y-118460000D01*
X193840031Y-118690732D01*
X193907333Y-118912597D01*
X194016626Y-119117070D01*
X194163709Y-119296291D01*
X194342930Y-119443374D01*
X194547403Y-119552667D01*
X194769268Y-119619969D01*
X194942188Y-119637000D01*
X195057812Y-119637000D01*
X195230732Y-119619969D01*
X195452597Y-119552667D01*
X195657070Y-119443374D01*
X195836291Y-119296291D01*
X195983374Y-119117070D01*
X196092667Y-118912597D01*
X196159969Y-118690732D01*
X196182694Y-118460000D01*
X196159969Y-118229268D01*
X196092667Y-118007403D01*
X195983374Y-117802930D01*
X195836291Y-117623709D01*
X195657070Y-117476626D01*
X195452597Y-117367333D01*
X195230732Y-117300031D01*
X195057812Y-117283000D01*
X194942188Y-117283000D01*
X194769268Y-117300031D01*
X194547403Y-117367333D01*
X194342930Y-117476626D01*
X194163709Y-117623709D01*
X194016626Y-117802930D01*
X193907333Y-118007403D01*
X193840031Y-118229268D01*
X193817306Y-118460000D01*
X193642694Y-118460000D01*
X193619969Y-118229268D01*
X193552667Y-118007403D01*
X193443374Y-117802930D01*
X193296291Y-117623709D01*
X193117070Y-117476626D01*
X192912597Y-117367333D01*
X192690732Y-117300031D01*
X192517812Y-117283000D01*
X192402188Y-117283000D01*
X192229268Y-117300031D01*
X192007403Y-117367333D01*
X191802930Y-117476626D01*
X191623709Y-117623709D01*
X191476626Y-117802930D01*
X191367333Y-118007403D01*
X191300031Y-118229268D01*
X191277306Y-118460000D01*
X177127000Y-118460000D01*
X177127000Y-115976869D01*
X177183869Y-115920000D01*
X191277306Y-115920000D01*
X191300031Y-116150732D01*
X191367333Y-116372597D01*
X191476626Y-116577070D01*
X191623709Y-116756291D01*
X191802930Y-116903374D01*
X192007403Y-117012667D01*
X192229268Y-117079969D01*
X192402188Y-117097000D01*
X192517812Y-117097000D01*
X192690732Y-117079969D01*
X192912597Y-117012667D01*
X193117070Y-116903374D01*
X193296291Y-116756291D01*
X193443374Y-116577070D01*
X193552667Y-116372597D01*
X193619969Y-116150732D01*
X193642694Y-115920000D01*
X193817306Y-115920000D01*
X193840031Y-116150732D01*
X193907333Y-116372597D01*
X194016626Y-116577070D01*
X194163709Y-116756291D01*
X194342930Y-116903374D01*
X194547403Y-117012667D01*
X194769268Y-117079969D01*
X194942188Y-117097000D01*
X195057812Y-117097000D01*
X195230732Y-117079969D01*
X195452597Y-117012667D01*
X195657070Y-116903374D01*
X195836291Y-116756291D01*
X195983374Y-116577070D01*
X196092667Y-116372597D01*
X196159969Y-116150732D01*
X196182694Y-115920000D01*
X196159969Y-115689268D01*
X196092667Y-115467403D01*
X195983374Y-115262930D01*
X195836291Y-115083709D01*
X195657070Y-114936626D01*
X195452597Y-114827333D01*
X195230732Y-114760031D01*
X195057812Y-114743000D01*
X194942188Y-114743000D01*
X194769268Y-114760031D01*
X194547403Y-114827333D01*
X194342930Y-114936626D01*
X194163709Y-115083709D01*
X194016626Y-115262930D01*
X193907333Y-115467403D01*
X193840031Y-115689268D01*
X193817306Y-115920000D01*
X193642694Y-115920000D01*
X193619969Y-115689268D01*
X193552667Y-115467403D01*
X193443374Y-115262930D01*
X193296291Y-115083709D01*
X193117070Y-114936626D01*
X192912597Y-114827333D01*
X192690732Y-114760031D01*
X192517812Y-114743000D01*
X192402188Y-114743000D01*
X192229268Y-114760031D01*
X192007403Y-114827333D01*
X191802930Y-114936626D01*
X191623709Y-115083709D01*
X191476626Y-115262930D01*
X191367333Y-115467403D01*
X191300031Y-115689268D01*
X191277306Y-115920000D01*
X177183869Y-115920000D01*
X177676869Y-115427000D01*
X185739033Y-115427000D01*
X185760000Y-115429065D01*
X185780967Y-115427000D01*
X185780978Y-115427000D01*
X185843707Y-115420822D01*
X185924196Y-115396405D01*
X185998376Y-115356755D01*
X186063395Y-115303395D01*
X186076768Y-115287100D01*
X187983868Y-113380000D01*
X191277306Y-113380000D01*
X191300031Y-113610732D01*
X191367333Y-113832597D01*
X191476626Y-114037070D01*
X191623709Y-114216291D01*
X191802930Y-114363374D01*
X192007403Y-114472667D01*
X192229268Y-114539969D01*
X192402188Y-114557000D01*
X192517812Y-114557000D01*
X192690732Y-114539969D01*
X192912597Y-114472667D01*
X193117070Y-114363374D01*
X193296291Y-114216291D01*
X193443374Y-114037070D01*
X193552667Y-113832597D01*
X193619969Y-113610732D01*
X193642694Y-113380000D01*
X193817306Y-113380000D01*
X193840031Y-113610732D01*
X193907333Y-113832597D01*
X194016626Y-114037070D01*
X194163709Y-114216291D01*
X194342930Y-114363374D01*
X194547403Y-114472667D01*
X194769268Y-114539969D01*
X194942188Y-114557000D01*
X195057812Y-114557000D01*
X195230732Y-114539969D01*
X195452597Y-114472667D01*
X195657070Y-114363374D01*
X195836291Y-114216291D01*
X195983374Y-114037070D01*
X196092667Y-113832597D01*
X196159969Y-113610732D01*
X196182694Y-113380000D01*
X196159969Y-113149268D01*
X196092667Y-112927403D01*
X195983374Y-112722930D01*
X195836291Y-112543709D01*
X195657070Y-112396626D01*
X195452597Y-112287333D01*
X195230732Y-112220031D01*
X195057812Y-112203000D01*
X194942188Y-112203000D01*
X194769268Y-112220031D01*
X194547403Y-112287333D01*
X194342930Y-112396626D01*
X194163709Y-112543709D01*
X194016626Y-112722930D01*
X193907333Y-112927403D01*
X193840031Y-113149268D01*
X193817306Y-113380000D01*
X193642694Y-113380000D01*
X193619969Y-113149268D01*
X193552667Y-112927403D01*
X193443374Y-112722930D01*
X193296291Y-112543709D01*
X193117070Y-112396626D01*
X192912597Y-112287333D01*
X192690732Y-112220031D01*
X192517812Y-112203000D01*
X192402188Y-112203000D01*
X192229268Y-112220031D01*
X192007403Y-112287333D01*
X191802930Y-112396626D01*
X191623709Y-112543709D01*
X191476626Y-112722930D01*
X191367333Y-112927403D01*
X191300031Y-113149268D01*
X191277306Y-113380000D01*
X187983868Y-113380000D01*
X190523868Y-110840000D01*
X191277306Y-110840000D01*
X191300031Y-111070732D01*
X191367333Y-111292597D01*
X191476626Y-111497070D01*
X191623709Y-111676291D01*
X191802930Y-111823374D01*
X192007403Y-111932667D01*
X192229268Y-111999969D01*
X192402188Y-112017000D01*
X192517812Y-112017000D01*
X192690732Y-111999969D01*
X192912597Y-111932667D01*
X193117070Y-111823374D01*
X193296291Y-111676291D01*
X193443374Y-111497070D01*
X193552667Y-111292597D01*
X193619969Y-111070732D01*
X193642694Y-110840000D01*
X193817306Y-110840000D01*
X193840031Y-111070732D01*
X193907333Y-111292597D01*
X194016626Y-111497070D01*
X194163709Y-111676291D01*
X194342930Y-111823374D01*
X194547403Y-111932667D01*
X194769268Y-111999969D01*
X194942188Y-112017000D01*
X195057812Y-112017000D01*
X195230732Y-111999969D01*
X195452597Y-111932667D01*
X195657070Y-111823374D01*
X195836291Y-111676291D01*
X195983374Y-111497070D01*
X196092667Y-111292597D01*
X196159969Y-111070732D01*
X196182694Y-110840000D01*
X196159969Y-110609268D01*
X196092667Y-110387403D01*
X195983374Y-110182930D01*
X195836291Y-110003709D01*
X195657070Y-109856626D01*
X195452597Y-109747333D01*
X195230732Y-109680031D01*
X195057812Y-109663000D01*
X194942188Y-109663000D01*
X194769268Y-109680031D01*
X194547403Y-109747333D01*
X194342930Y-109856626D01*
X194163709Y-110003709D01*
X194016626Y-110182930D01*
X193907333Y-110387403D01*
X193840031Y-110609268D01*
X193817306Y-110840000D01*
X193642694Y-110840000D01*
X193619969Y-110609268D01*
X193552667Y-110387403D01*
X193443374Y-110182930D01*
X193296291Y-110003709D01*
X193117070Y-109856626D01*
X192912597Y-109747333D01*
X192690732Y-109680031D01*
X192517812Y-109663000D01*
X192402188Y-109663000D01*
X192229268Y-109680031D01*
X192007403Y-109747333D01*
X191802930Y-109856626D01*
X191623709Y-110003709D01*
X191476626Y-110182930D01*
X191367333Y-110387403D01*
X191300031Y-110609268D01*
X191277306Y-110840000D01*
X190523868Y-110840000D01*
X191983812Y-109380057D01*
X192007403Y-109392667D01*
X192229268Y-109459969D01*
X192402188Y-109477000D01*
X192517812Y-109477000D01*
X192690732Y-109459969D01*
X192912597Y-109392667D01*
X193117070Y-109283374D01*
X193296291Y-109136291D01*
X193443374Y-108957070D01*
X193552667Y-108752597D01*
X193619969Y-108530732D01*
X193642694Y-108300000D01*
X193817306Y-108300000D01*
X193840031Y-108530732D01*
X193907333Y-108752597D01*
X194016626Y-108957070D01*
X194163709Y-109136291D01*
X194342930Y-109283374D01*
X194547403Y-109392667D01*
X194769268Y-109459969D01*
X194942188Y-109477000D01*
X195057812Y-109477000D01*
X195230732Y-109459969D01*
X195452597Y-109392667D01*
X195657070Y-109283374D01*
X195836291Y-109136291D01*
X195983374Y-108957070D01*
X196092667Y-108752597D01*
X196159969Y-108530732D01*
X196182694Y-108300000D01*
X196159969Y-108069268D01*
X196092667Y-107847403D01*
X195983374Y-107642930D01*
X195836291Y-107463709D01*
X195657070Y-107316626D01*
X195452597Y-107207333D01*
X195230732Y-107140031D01*
X195057812Y-107123000D01*
X194942188Y-107123000D01*
X194769268Y-107140031D01*
X194547403Y-107207333D01*
X194342930Y-107316626D01*
X194163709Y-107463709D01*
X194016626Y-107642930D01*
X193907333Y-107847403D01*
X193840031Y-108069268D01*
X193817306Y-108300000D01*
X193642694Y-108300000D01*
X193619969Y-108069268D01*
X193552667Y-107847403D01*
X193443374Y-107642930D01*
X193296291Y-107463709D01*
X193141897Y-107337001D01*
X193829032Y-107337001D01*
X193849999Y-107339066D01*
X193870966Y-107337001D01*
X193870977Y-107337001D01*
X193933706Y-107330823D01*
X194014195Y-107306406D01*
X194088375Y-107266756D01*
X194153394Y-107213396D01*
X194166767Y-107197101D01*
X194523811Y-106840057D01*
X194547403Y-106852667D01*
X194769268Y-106919969D01*
X194942188Y-106937000D01*
X195057812Y-106937000D01*
X195230732Y-106919969D01*
X195452597Y-106852667D01*
X195657070Y-106743374D01*
X195836291Y-106596291D01*
X195983374Y-106417070D01*
X196092667Y-106212597D01*
X196159969Y-105990732D01*
X196182694Y-105760000D01*
X196159969Y-105529268D01*
X196092667Y-105307403D01*
X195983374Y-105102930D01*
X195836291Y-104923709D01*
X195657070Y-104776626D01*
X195452597Y-104667333D01*
X195230732Y-104600031D01*
X195057812Y-104583000D01*
X194942188Y-104583000D01*
X194769268Y-104600031D01*
X194547403Y-104667333D01*
X194342930Y-104776626D01*
X194163709Y-104923709D01*
X194016626Y-105102930D01*
X193907333Y-105307403D01*
X193840031Y-105529268D01*
X193817306Y-105760000D01*
X193840031Y-105990732D01*
X193907333Y-106212597D01*
X193919943Y-106236189D01*
X193673131Y-106483001D01*
X193389266Y-106483001D01*
X193443374Y-106417070D01*
X193552667Y-106212597D01*
X193619969Y-105990732D01*
X193642694Y-105760000D01*
X193619969Y-105529268D01*
X193552667Y-105307403D01*
X193443374Y-105102930D01*
X193296291Y-104923709D01*
X193117070Y-104776626D01*
X192912597Y-104667333D01*
X192690732Y-104600031D01*
X192517812Y-104583000D01*
X192402188Y-104583000D01*
X192229268Y-104600031D01*
X192007403Y-104667333D01*
X191802930Y-104776626D01*
X191623709Y-104923709D01*
X191476626Y-105102930D01*
X191367333Y-105307403D01*
X191300031Y-105529268D01*
X191277306Y-105760000D01*
X191300031Y-105990732D01*
X191367333Y-106212597D01*
X191476626Y-106417070D01*
X191533597Y-106486490D01*
X191506292Y-106489179D01*
X191425803Y-106513596D01*
X191391272Y-106532053D01*
X191351622Y-106553246D01*
X191302898Y-106593233D01*
X191302894Y-106593237D01*
X191286604Y-106606606D01*
X191273235Y-106622896D01*
X184823132Y-113073000D01*
X177127000Y-113073000D01*
X177127000Y-101036890D01*
X191018524Y-101036890D01*
X191063175Y-101184099D01*
X191188359Y-101446920D01*
X191362412Y-101680269D01*
X191578645Y-101875178D01*
X191828748Y-102024157D01*
X192067885Y-102108986D01*
X192007403Y-102127333D01*
X191802930Y-102236626D01*
X191623709Y-102383709D01*
X191476626Y-102562930D01*
X191367333Y-102767403D01*
X191300031Y-102989268D01*
X191277306Y-103220000D01*
X191300031Y-103450732D01*
X191367333Y-103672597D01*
X191476626Y-103877070D01*
X191623709Y-104056291D01*
X191802930Y-104203374D01*
X192007403Y-104312667D01*
X192229268Y-104379969D01*
X192402188Y-104397000D01*
X192517812Y-104397000D01*
X192690732Y-104379969D01*
X192912597Y-104312667D01*
X193117070Y-104203374D01*
X193296291Y-104056291D01*
X193443374Y-103877070D01*
X193552667Y-103672597D01*
X193619969Y-103450732D01*
X193642694Y-103220000D01*
X193817306Y-103220000D01*
X193840031Y-103450732D01*
X193907333Y-103672597D01*
X194016626Y-103877070D01*
X194163709Y-104056291D01*
X194342930Y-104203374D01*
X194547403Y-104312667D01*
X194769268Y-104379969D01*
X194942188Y-104397000D01*
X195057812Y-104397000D01*
X195230732Y-104379969D01*
X195452597Y-104312667D01*
X195657070Y-104203374D01*
X195836291Y-104056291D01*
X195983374Y-103877070D01*
X196092667Y-103672597D01*
X196159969Y-103450732D01*
X196182694Y-103220000D01*
X196159969Y-102989268D01*
X196092667Y-102767403D01*
X195983374Y-102562930D01*
X195836291Y-102383709D01*
X195657070Y-102236626D01*
X195452597Y-102127333D01*
X195230732Y-102060031D01*
X195057812Y-102043000D01*
X194942188Y-102043000D01*
X194769268Y-102060031D01*
X194547403Y-102127333D01*
X194342930Y-102236626D01*
X194163709Y-102383709D01*
X194016626Y-102562930D01*
X193907333Y-102767403D01*
X193840031Y-102989268D01*
X193817306Y-103220000D01*
X193642694Y-103220000D01*
X193619969Y-102989268D01*
X193552667Y-102767403D01*
X193443374Y-102562930D01*
X193296291Y-102383709D01*
X193117070Y-102236626D01*
X192912597Y-102127333D01*
X192852115Y-102108986D01*
X193091252Y-102024157D01*
X193341355Y-101875178D01*
X193557588Y-101680269D01*
X193731641Y-101446920D01*
X193856825Y-101184099D01*
X193889889Y-101075091D01*
X193907333Y-101132597D01*
X194016626Y-101337070D01*
X194163709Y-101516291D01*
X194342930Y-101663374D01*
X194547403Y-101772667D01*
X194769268Y-101839969D01*
X194942188Y-101857000D01*
X195057812Y-101857000D01*
X195230732Y-101839969D01*
X195452597Y-101772667D01*
X195657070Y-101663374D01*
X195836291Y-101516291D01*
X195983374Y-101337070D01*
X196092667Y-101132597D01*
X196159969Y-100910732D01*
X196182694Y-100680000D01*
X196159969Y-100449268D01*
X196092667Y-100227403D01*
X195983374Y-100022930D01*
X195836291Y-99843709D01*
X195657070Y-99696626D01*
X195452597Y-99587333D01*
X195230732Y-99520031D01*
X195057812Y-99503000D01*
X194942188Y-99503000D01*
X194769268Y-99520031D01*
X194547403Y-99587333D01*
X194342930Y-99696626D01*
X194163709Y-99843709D01*
X194016626Y-100022930D01*
X193907333Y-100227403D01*
X193889889Y-100284909D01*
X193856825Y-100175901D01*
X193731641Y-99913080D01*
X193557588Y-99679731D01*
X193341355Y-99484822D01*
X193215745Y-99410000D01*
X193341355Y-99335178D01*
X193557588Y-99140269D01*
X193731641Y-98906920D01*
X193856825Y-98644099D01*
X193889889Y-98535091D01*
X193907333Y-98592597D01*
X194016626Y-98797070D01*
X194163709Y-98976291D01*
X194342930Y-99123374D01*
X194547403Y-99232667D01*
X194769268Y-99299969D01*
X194942188Y-99317000D01*
X195057812Y-99317000D01*
X195230732Y-99299969D01*
X195452597Y-99232667D01*
X195657070Y-99123374D01*
X195836291Y-98976291D01*
X195983374Y-98797070D01*
X196092667Y-98592597D01*
X196159969Y-98370732D01*
X196182694Y-98140000D01*
X196159969Y-97909268D01*
X196092667Y-97687403D01*
X195983374Y-97482930D01*
X195836291Y-97303709D01*
X195657070Y-97156626D01*
X195452597Y-97047333D01*
X195230732Y-96980031D01*
X195057812Y-96963000D01*
X194942188Y-96963000D01*
X194769268Y-96980031D01*
X194547403Y-97047333D01*
X194342930Y-97156626D01*
X194163709Y-97303709D01*
X194016626Y-97482930D01*
X193907333Y-97687403D01*
X193889889Y-97744909D01*
X193856825Y-97635901D01*
X193731641Y-97373080D01*
X193557588Y-97139731D01*
X193341355Y-96944822D01*
X193091252Y-96795843D01*
X192816891Y-96698519D01*
X192587000Y-96819186D01*
X192587000Y-98013000D01*
X192607000Y-98013000D01*
X192607000Y-98267000D01*
X192587000Y-98267000D01*
X192587000Y-100553000D01*
X192607000Y-100553000D01*
X192607000Y-100807000D01*
X192587000Y-100807000D01*
X192587000Y-100827000D01*
X192333000Y-100827000D01*
X192333000Y-100807000D01*
X191139845Y-100807000D01*
X191018524Y-101036890D01*
X177127000Y-101036890D01*
X177127000Y-98496890D01*
X191018524Y-98496890D01*
X191063175Y-98644099D01*
X191188359Y-98906920D01*
X191362412Y-99140269D01*
X191578645Y-99335178D01*
X191704255Y-99410000D01*
X191578645Y-99484822D01*
X191362412Y-99679731D01*
X191188359Y-99913080D01*
X191063175Y-100175901D01*
X191018524Y-100323110D01*
X191139845Y-100553000D01*
X192333000Y-100553000D01*
X192333000Y-98267000D01*
X191139845Y-98267000D01*
X191018524Y-98496890D01*
X177127000Y-98496890D01*
X177127000Y-97783110D01*
X191018524Y-97783110D01*
X191139845Y-98013000D01*
X192333000Y-98013000D01*
X192333000Y-96819186D01*
X192103109Y-96698519D01*
X191828748Y-96795843D01*
X191578645Y-96944822D01*
X191362412Y-97139731D01*
X191188359Y-97373080D01*
X191063175Y-97635901D01*
X191018524Y-97783110D01*
X177127000Y-97783110D01*
X177127000Y-80279000D01*
X194987579Y-80279000D01*
X195835816Y-80354703D01*
M02*
